<svg xmlns="http://www.w3.org/2000/svg" viewBox="0 0 18163 14653" height="400"><defs/><g fill-opacity="0" stroke="#000" stroke-linecap="round" stroke-linejoin="round" stroke-width="0"><circle cx="51650" cy="43500" r="1100" fill="none" stroke="#EB0000" stroke-width="100" transform="translate(-41528 -35928)"/><g fill="#EB0000" fill-opacity="1" stroke="#EB0000" stroke-width="60" transform="translate(-41528 -35928)"><circle cx="52000" cy="44200" r="100"/><circle cx="52000" cy="42800" r="100"/></g><path fill="none" stroke="#EB0000" stroke-width="60" d="M9572 7572H8472"/><g fill="none" stroke="#EB0000" stroke-width="100"><path d="M9572 6822v1500M9772 8072v400M9772 7372v400M9772 6672v400"/></g><g fill="none" stroke="#EB0000" stroke-width="60"><path d="M10472 6572v300M10472 8572V7572h-700"/><path d="M9772 8272h1000V6872H9772"/></g><path fill="#EB0000" fill-opacity="1" fill-rule="evenodd" stroke="#EB0000" stroke-width="60" d="M9872 7572l400-150v300z"/><g fill="#EB0000" stroke="#EB0000" stroke-width="60"><path fill="none" d="M10572 7372l50 50h300l50 50"/><path fill="none" d="M10772 7422l-150 250h300zM8472 7572H7472M8112 8142h-290M7972 8142v-500l-50 70-50 50-50 20M10472 6572V5572M10592 6212l-20-30-30-40v-120l30-50 20-20 50-30h40l80 30 280 280v-310M10472 8572v1000M10542 9232v-310l190 170v-70l30-50 20-20 50-30h120l40 30 30 20 20 50v140l-20 50-30 20"/></g></g><g fill="#EB0000" fill-opacity="0" stroke="#EB0000" stroke-linecap="round" stroke-linejoin="round" stroke-width="0"><path fill="none" stroke-width="60" d="M1972 11572v500h500l-500 500-500-500h500"/><g fill="none" stroke="#00EB84" stroke-width="60"><path d="M1632 13072l-40-30h-70l-80 30-40 40-30 50-20 100v70l20 90 30 50 40 50 80 20h40l70-20 30-30v-160h-100M1872 13542v-500l290 500v-500M2402 13542v-500h120l70 30 40 40 30 50 20 100v70l-20 90-30 50-40 50-70 20h-120"/></g></g><g fill="#00EB84" fill-opacity="0" stroke="#00EB84" stroke-linecap="round" stroke-linejoin="round" stroke-width="0"><g fill="#EB0000" fill-opacity="1" stroke="#EB0000" stroke-width="60" transform="translate(-41528 -35928)"><rect width="1800" height="100" x="42600" y="42300" rx="0"/><rect width="1200" height="200" x="42880" y="42530" rx="0"/></g><g fill="none" stroke="#EB0000" stroke-width="60"><path d="M1972 6772v300M1972 6372v-300"/></g><g fill="none" stroke="#EB0000" stroke-width="100"><path d="M2172 5722h400M2372 5522v400"/></g><g fill="none" stroke="#EB0000" stroke-width="60"><path d="M1972 6072V5072M1972 7072v1000"/></g></g><g fill="#EB0000" fill-opacity="0" stroke="#EB0000" stroke-linecap="round" stroke-linejoin="round" stroke-width="0"><g fill="none" stroke-width="60"><path d="M10472 3972v100M10472 2172v-100M10472 3372l400 150-400 150-400 150 400 150M10472 2772l400 150-400 150-400 150 400 150M10472 2172l400 150-400 150-400 150 400 150M10472 2072v-500M10472 4072v500"/></g></g><g fill="none" fill-opacity="0" stroke="#00EB00" stroke-linecap="round" stroke-linejoin="round" stroke-width="60"><path d="M10472 9572v1500M10472 1072v500M10472 5072v500M10472 4572v500M10472 5072h4500M1972 11072v500M1972 11072V8072M10472 11072H1972M1972 1072h8500M1972 5072V1072M10472 11072h4500M7472 7572h-500"/></g><g fill="none" fill-opacity="0" stroke="#EB0000" stroke-linecap="round" stroke-linejoin="round" stroke-width="60"><path d="M15352 4792l170 500 170-500M15922 5292l-40-20-30-30-20-40v-150l20-40 30-30 40-20h80l40 20 30 30 20 40v150l-20 40-30 30-40 20h-80M16522 4962v330M16312 4962v260l20 50 50 20h70l50-20 20-30M16692 4962h190M16762 4792v430l20 50 50 20h50"/></g><path fill="none" fill-opacity="0" stroke="#EB0000" stroke-linecap="round" stroke-linejoin="round" stroke-width="100" d="M14972 5072l250 440h1850v-880h-1850z"/><g fill="none" fill-opacity="0" stroke="#EB0000" stroke-linecap="round" stroke-linejoin="round" stroke-width="60"><path d="M3672 7742l-20 30-70 20h-50l-70-20-50-50-20-50-30-90v-70l30-100 20-50 50-40 70-30h50l70 30 20 20M3982 7292h100l50 30 40 40 30 100v160l-30 100-40 50-50 20h-100l-50-20-40-50-30-100v-160l30-100 40-40 50-30M4412 7792v-500l290 500v-500M4862 7292h290M5012 7792v-500M5602 7792l-170-240M5322 7792v-500h190l40 30 30 20 20 50v70l-20 50-30 20-40 20h-190M5912 7292h100l40 30 50 40 30 100v160l-30 100-50 50-40 20h-100l-50-20-40-50-30-100v-160l30-100 40-40 50-30M6582 7792h-240v-500"/></g><path fill="none" fill-opacity="0" stroke="#EB0000" stroke-linecap="round" stroke-linejoin="round" stroke-width="100" d="M6972 7572l-250-440H3132v880h3590z"/><circle cx="52000" cy="41000" r="200" fill="#00EB00" stroke="#00EB00" stroke-linecap="round" stroke-linejoin="round" stroke-width="100" transform="translate(-41528 -35928)"/><circle cx="43500" cy="47000" r="200" fill="#00EB00" stroke="#00EB00" stroke-linecap="round" stroke-linejoin="round" stroke-width="100" transform="translate(-41528 -35928)"/><circle cx="52000" cy="47000" r="200" fill="#00EB00" stroke="#00EB00" stroke-linecap="round" stroke-linejoin="round" stroke-width="100" transform="translate(-41528 -35928)"/></svg>
