<svg xmlns="http://www.w3.org/2000/svg" viewBox="0 0 10674 16663" height="400"><defs/><g fill-opacity="0" stroke="#000" stroke-linecap="round" stroke-linejoin="round" stroke-width="0"><circle cx="51650" cy="43500" r="1100" fill="none" stroke="#EB0000" stroke-width="100" transform="translate(-43568 -33418)"/><g fill="#EB0000" fill-opacity="1" stroke="#EB0000" stroke-width="60" transform="translate(-43568 -33418)"><circle cx="52000" cy="44200" r="100"/><circle cx="52000" cy="42800" r="100"/></g><path fill="none" stroke="#EB0000" stroke-width="60" d="M7532 10082H6432"/><g fill="none" stroke="#EB0000" stroke-width="100"><path d="M7532 9332v1500M7732 10582v400M7732 9882v400M7732 9182v400"/></g><g fill="none" stroke="#EB0000" stroke-width="60"><path d="M8432 9082v300M8432 11082v-1000h-700"/><path d="M7732 10782h1000V9382H7732"/></g><path fill="#EB0000" fill-opacity="1" fill-rule="evenodd" stroke="#EB0000" stroke-width="60" d="M7832 10082l400-150v300z"/><g fill="#EB0000" stroke="#EB0000" stroke-width="60"><path fill="none" d="M8532 9882l50 50h300l50 50"/><path fill="none" d="M8732 9932l-150 250h300zM6432 10082H5432M6072 10652h-290M5932 10652v-500l-50 70-50 50-50 20M8432 9082V8082M8552 8722l-20-30-30-40v-120l30-50 20-20 50-30h40l80 30 280 280v-310M8432 11082v1000M8502 11742v-310l190 170v-70l30-50 20-20 50-30h120l40 30 30 20 20 50v140l-20 50-30 20"/></g></g><g fill="#EB0000" fill-opacity="0" stroke="#EB0000" stroke-linecap="round" stroke-linejoin="round" stroke-width="0"><path fill="none" stroke-width="60" d="M8432 13582v500h500l-500 500-500-500h500"/><g fill="none" stroke="#00EB84" stroke-width="60"><path d="M8092 15082l-40-30h-70l-80 30-40 40-30 50-20 100v70l20 90 30 50 40 50 80 20h40l70-20 30-30v-160h-100M8332 15552v-500l290 500v-500M8862 15552v-500h120l70 30 40 40 30 50 20 100v70l-20 90-30 50-40 50-70 20h-120"/></g></g><g fill="#00EB84" fill-opacity="0" stroke="#00EB84" stroke-linecap="round" stroke-linejoin="round" stroke-width="0"><g fill="none" stroke="#EB0000" stroke-width="60"><path d="M8432 6582a250 250 0 000-500M8432 6082a250 250 0 000-500M8432 5582a250 250 0 000-500M8432 5082a250 250 0 000-500M8432 4582v-500M8432 6582v500"/></g></g><g fill="#EB0000" fill-opacity="0" stroke="#EB0000" stroke-linecap="round" stroke-linejoin="round" stroke-width="0"><g fill="none" stroke-width="60"><path d="M8132 2582l300-500M8432 3082V2082M8432 2082l300 500"/></g><g fill="none" stroke="#00EB84" stroke-width="60"><path d="M7692 1402h390M7882 1592v-380M8532 1262v330M8412 1072l-120 350h310M8862 1312l-50-30-20-20-20-50v-20l20-50 20-20 50-30h100l40 30 30 20 20 50v20l-20 50-30 20-40 30h-100l-50 20-20 20-20 50v100l20 40 20 30 50 20h100l40-20 30-30 20-40v-100l-20-50-30-20-40-20M9192 1092l170 500 170-500"/></g></g><g fill="#00EB84" fill-opacity="0" stroke="#00EB84" stroke-linecap="round" stroke-linejoin="round" stroke-width="0"><path fill="none" stroke="#EB0000" stroke-width="80" d="M6932 5082H5932"/><path fill="none" stroke="#EB0000" stroke-width="60" d="M6432 6082V5082"/><path fill="none" stroke="#EB0000" stroke-width="80" d="M6932 6082H5932l500-1000z"/><g fill="none" stroke="#EB0000" stroke-width="60"><path d="M6432 5082V4082M6432 6082v1000"/></g></g><g fill="none" fill-opacity="0" stroke="#00EB00" stroke-linecap="round" stroke-linejoin="round" stroke-width="60"><path d="M8432 12082v1500M8432 7082v500M8432 4082v-500M5432 10082h-500M6432 4082v-500M6432 3582h2000M8432 3582v-500M6432 7082v500M6432 7582h2000M8432 7582v500"/></g><g fill="none" fill-opacity="0" stroke="#EB0000" stroke-linecap="round" stroke-linejoin="round" stroke-width="60"><path d="M1632 10252l-20 30-70 20h-50l-70-20-50-50-20-50-30-90v-70l30-100 20-50 50-40 70-30h50l70 30 20 20M1942 9802h100l50 30 40 40 30 100v160l-30 100-40 50-50 20h-100l-50-20-40-50-30-100v-160l30-100 40-40 50-30M2372 10302v-500l290 500v-500M2822 9802h290M2972 10302v-500M3562 10302l-170-240M3282 10302v-500h190l40 30 30 20 20 50v70l-20 50-30 20-40 20h-190M3872 9802h100l40 30 50 40 30 100v160l-30 100-50 50-40 20h-100l-50-20-40-50-30-100v-160l30-100 40-40 50-30M4542 10302h-240v-500"/></g><path fill="none" fill-opacity="0" stroke="#EB0000" stroke-linecap="round" stroke-linejoin="round" stroke-width="100" d="M4932 10082l-250-440H1092v880h3590z"/><circle cx="52000" cy="37000" r="200" fill="#00EB00" stroke="#00EB00" stroke-linecap="round" stroke-linejoin="round" stroke-width="100" transform="translate(-43568 -33418)"/><circle cx="52000" cy="41000" r="200" fill="#00EB00" stroke="#00EB00" stroke-linecap="round" stroke-linejoin="round" stroke-width="100" transform="translate(-43568 -33418)"/></svg>
