<svg height="140.76161" viewBox="0 0 9143.3338 14662.682" width="87.77594" xmlns="http://www.w3.org/2000/svg"><g stroke-linecap="round" stroke-linejoin="round"><g fill-opacity="0" stroke-width="60" transform="translate(-51428.332 -38418.332)"><g stroke="#840000"><g fill="none" fill-opacity="0"><path d="m57500 44900v100"/><path d="m57500 43000v100"/><path d="m58500 44000h-400"/></g><g fill="#840000"><path d="m57950 44000 450-200v400z" fill-opacity="1" fill-rule="evenodd"/><g fill-opacity="0"><g fill="none" stroke="#840000" stroke-linecap="round" stroke-linejoin="round" stroke-width="60"><path d="m57500 44300 400 150-400 150-400 150 400 150"/><path d="m57500 43700 400 150-400 150-400 150 400 150"/><path d="m57500 43100 400 150-400 150-400 150 400 150"/></g><path d="m57500 43000v-500"/><text font-size="660" lengthAdjust="spacingAndGlyphs" opacity="0" text-anchor="middle" textLength="490" transform="matrix(0 -1 1 0 14650 100150)" x="57400" y="42750">1</text><path d="m57370 42600v290"/><path d="m57370 42750h-500l70 40 50 50 20 50"/><path d="m58500 44000h500"/><text font-size="660" lengthAdjust="spacingAndGlyphs" opacity="0" text-anchor="middle" textLength="540" x="58750" y="43900">2</text><path d="m58600 43420 30-20 40-30h120l50 30 20 20 30 50v40l-30 80-280 280h310"/><path d="m57500 45000v500"/><text font-size="660" lengthAdjust="spacingAndGlyphs" opacity="0" text-anchor="middle" textLength="540" transform="matrix(0 -1 1 0 12150 102650)" x="57400" y="45250">3</text><path d="m56870 45410v-310l190 170v-70l30-50 20-20 50-30h120l40 30 30 20 20 50v140l-20 50-30 20"/></g></g></g><g fill="#840000" stroke="#840000"><g fill="none" stroke="#840000" stroke-linecap="round" stroke-linejoin="round" stroke-width="60"><path d="m57500 48900v100"/><path d="m57500 47100v-100"/><path d="m57500 48300 400 150-400 150-400 150 400 150"/><path d="m57500 47700 400 150-400 150-400 150 400 150"/><path d="m57500 47100 400 150-400 150-400 150 400 150"/></g><path d="m57500 47000v-500"/><path d="m57500 49000v500"/></g><g fill="#840000" stroke="#840000"><path d="m57500 50000v500h500l-500 500-500-500h500" fill="none" stroke="#840000"/><g fill="#008484" fill-opacity="0" stroke="#008484"><text font-size="660" lengthAdjust="spacingAndGlyphs" opacity="0" text-anchor="middle" textLength="1580" x="57550" y="52000">GND</text><path d="m57160 51500-40-30h-70l-80 30-40 40-30 50-20 100v70l20 90 30 50 40 50 80 20h40l70-20 30-30v-160h-100"/><path d="m57400 51970v-500l290 500v-500"/><path d="m57930 51970v-500h120l70 30 40 40 30 50 20 100v70l-20 90-30 50-40 50-70 20z"/></g></g><g fill="#008484" stroke="#008484"><g fill="none" stroke="#840000"><path d="m57200 41000 300-500"/><path d="m57500 41500v-1000"/><path d="m57500 40500 300 500"/></g><g fill="#008484" stroke="#008484"><text font-size="660" lengthAdjust="spacingAndGlyphs" opacity="0" text-anchor="middle" textLength="2060" x="57650" y="40040">+48V</text><path d="m56760 39820h390"/><path d="m56950 40010v-380"/><path d="m57600 39680v330"/><path d="m57480 39490-120 350h310"/><path d="m57930 39730-50-30-20-20-20-50v-20l20-50 20-20 50-30h100l40 30 30 20 20 50v20l-20 50-30 20-40 30h-100l-50 20-20 20-20 50v100l20 40 20 30 50 20h100l40-20 30-30 20-40v-100l-20-50-30-20-40-20"/><path d="m58260 39510 170 500 170-500"/></g></g><g fill="#008400" stroke="#008400"><path d="m57500 45500v500"/><path d="m57500 46000h-5000"/><path d="m57500 46000v500"/><path d="m57500 49500v500"/><path d="m57500 42000v500"/><path d="m59000 44000h500"/><path d="m59500 44000v-2000"/><path d="m59500 42000h-2000"/><path d="m57500 41500v500"/></g><g stroke="#000"><text font-size="660" lengthAdjust="spacingAndGlyphs" opacity="0" textLength="3820" x="52500" y="45900">FEEDBACK</text><path d="m52810 45610h-170"/><path d="m52640 45870v-500h240"/><path d="m53070 45610h170"/><path d="m53310 45870h-240v-500h240"/><path d="m53530 45610h160"/><path d="m53760 45870h-230v-500h230"/><path d="m53980 45870v-500h120l70 30 50 40 20 50 20 100v70l-20 90-20 50-50 50-70 20z"/><path d="m54640 45610 80 20 20 30 20 40v80l-20 40-20 30-50 20h-190v-500h160l50 30 30 20 20 50v40l-20 50-30 30-50 20h-160"/><path d="m54950 45730h240"/><path d="m54910 45870 160-500 170 500"/><path d="m55690 45820-20 30-70 20h-50l-70-20-50-50-20-50-30-90v-70l30-100 20-50 50-40 70-30h50l70 30 20 20"/><path d="m55910 45870v-500"/><path d="m56190 45870-210-280"/><path d="m56190 45370-280 290"/></g></g><circle cx="6071.668" cy="7581.668" fill="#008400" r="200" stroke="#008400" stroke-width="100"/><circle cx="6071.668" cy="3581.668" fill="#008400" r="200" stroke="#008400" stroke-width="100"/></g></svg>