<svg height="164.7616" viewBox="0 0 17303.86 17162.683" width="166.11694" xmlns="http://www.w3.org/2000/svg"><g stroke-linecap="round" stroke-linejoin="round"><g fill-opacity="0" stroke-width="60" transform="translate(-51428.332 -36418.332)"><g stroke="#000"><g stroke="#840000"><g fill="none" fill-opacity="0"><path d="m60900 43500h100"/><path d="m59000 43500h100"/><path d="m60000 42500v400"/></g><path d="m60000 43050-200-450h400z" fill="#840000" fill-opacity="1" fill-rule="evenodd"/><g fill="#840000" fill-opacity="0"><g fill="none" stroke="#840000" stroke-linecap="round" stroke-linejoin="round" stroke-width="60"><path d="m60300 43500 150-400 150 400 150 400 150-400"/><path d="m59700 43500 150-400 150 400 150 400 150-400"/><path d="m59100 43500 150-400 150 400 150 400 150-400"/></g><path d="m59000 43500h-500"/><text font-size="660" lengthAdjust="spacingAndGlyphs" opacity="0" text-anchor="middle" textLength="540" x="58750" y="43400">1</text><path d="m58890 43370h-290"/><path d="m58750 43370v-500l-50 70-50 50-50 20"/><path d="m60000 42500v-500"/><text font-size="660" lengthAdjust="spacingAndGlyphs" opacity="0" text-anchor="middle" textLength="540" transform="matrix(0 -1 1 0 17650 102150)" x="59900" y="42250">2</text><path d="m59420 42390-20-30-30-40v-120l30-50 20-20 50-30h40l80 30 280 280v-310"/><path d="m61000 43500h500"/><text font-size="660" lengthAdjust="spacingAndGlyphs" opacity="0" text-anchor="middle" textLength="540" x="61250" y="43400">3</text><path d="m61080 42870h310l-170 190h70l50 30 20 20 30 50v120l-30 40-20 30-50 20h-140l-50-20-20-30"/></g></g><g fill="#008484" fill-opacity="0" stroke="#008484"><text font-size="660" lengthAdjust="spacingAndGlyphs" opacity="0" text-anchor="middle" textLength="3160" x="60000" y="44850">ADJ_POT</text><path d="m58540 44680h240"/><path d="m58500 44820 160-500 170 500"/><path d="m59000 44820v-500h110l80 30 40 40 30 50 20 100v70l-20 90-30 50-40 50-80 20z"/><path d="m59640 44320v360l-30 70-40 50-70 20h-50"/><path d="m59760 44870h380"/><path d="m60260 44820v-500h190l50 30 20 20 20 50v70l-20 50-20 20-50 20h-190"/><path d="m60850 44320h100l50 30 40 40 30 100v160l-30 100-40 50-50 20h-100l-50-20-40-50-30-100v-160l30-100 40-40z"/><path d="m61210 44320h290"/><path d="m61350 44820v-500"/></g></g><g fill="#008484" stroke="#008484"><g fill="#840000" stroke="#840000"><g fill="none" stroke="#840000" stroke-linecap="round" stroke-linejoin="round" stroke-width="60"><path d="m57500 49400v100"/><path d="m57500 47600v-100"/><path d="m57500 48800 400 150-400 150-400 150 400 150"/><path d="m57500 48200 400 150-400 150-400 150 400 150"/><path d="m57500 47600 400 150-400 150-400 150 400 150"/></g><path d="m57500 47500v-500"/><path d="m57500 49500v500"/></g><g fill="#008484" stroke="#008484"><text font-size="660" lengthAdjust="spacingAndGlyphs" opacity="0" text-anchor="middle" textLength="1040" x="58700" y="48770">R1</text><path d="m58610 48740-160-240"/><path d="m58330 48740v-500h190l40 30 30 20 20 50v70l-20 50-30 20-40 20h-190"/><path d="m59090 48740h-290"/><path d="m58950 48740v-500l-50 70-50 50-50 20"/></g></g><g fill="#008484" stroke="#008484"><g fill="#840000" stroke="#840000"><g fill="none" stroke="#840000" stroke-linecap="round" stroke-linejoin="round" stroke-width="60"><path d="m66000 42400v100"/><path d="m66000 40600v-100"/><path d="m66000 41800 400 150-400 150-400 150 400 150"/><path d="m66000 41200 400 150-400 150-400 150 400 150"/><path d="m66000 40600 400 150-400 150-400 150 400 150"/></g><path d="m66000 40500v-500"/><path d="m66000 42500v500"/></g><g fill="#008484" stroke="#008484"><text font-size="660" lengthAdjust="spacingAndGlyphs" opacity="0" text-anchor="middle" textLength="1040" x="67200" y="41770">R3</text><path d="m67110 41740-160-240"/><path d="m66830 41740v-500h190l40 30 30 20 20 50v70l-20 50-30 20-40 20h-190"/><path d="m67280 41240h310l-170 190h70l50 30 20 20 30 50v120l-30 40-20 30-50 20h-140l-50-20-20-30"/></g></g><g fill="#008484" stroke="#008484"><path d="m57500 50500v500h500l-500 500-500-500h500" fill="none" stroke="#840000"/><g fill="#008484" fill-opacity="0" stroke="#008484"><text font-size="660" lengthAdjust="spacingAndGlyphs" opacity="0" text-anchor="middle" textLength="1580" x="57550" y="52500">GND</text><path d="m57160 52000-40-30h-70l-80 30-40 40-30 50-20 100v70l20 90 30 50 40 50 80 20h40l70-20 30-30v-160h-100"/><path d="m57400 52470v-500l290 500v-500"/><path d="m57930 52470v-500h120l70 30 40 40 30 50 20 100v70l-20 90-30 50-40 50-70 20z"/></g></g><g fill="#008484" stroke="#008484"><g fill="none" stroke="#840000"><path d="m65700 39000 300-500"/><path d="m66000 39500v-1000"/><path d="m66000 38500 300 500"/></g><g fill="#008484" stroke="#008484"><text font-size="660" lengthAdjust="spacingAndGlyphs" opacity="0" text-anchor="middle" textLength="2060" x="66150" y="38040">+48V</text><path d="m65260 37820h390"/><path d="m65450 38010v-380"/><path d="m66100 37680v330"/><path d="m65980 37490-120 350h310"/><path d="m66430 37730-50-30-20-20-20-50v-20l20-50 20-20 50-30h100l40 30 30 20 20 50v20l-20 50-30 20-40 30h-100l-50 20-20 20-20 50v100l20 40 20 30 50 20h100l40-20 30-30 20-40v-100l-20-50-30-20-40-20"/><path d="m66760 37510 170 500 170-500"/></g></g><g fill="#008484" stroke="#008484"><g stroke="#840000"><g fill="none" fill-opacity="0"><path d="m64900 43500h100"/><path d="m63000 43500h100"/><path d="m64000 42500v400"/></g><path d="m64000 43050-200-450h400z" fill="#840000" fill-opacity="1" fill-rule="evenodd"/><g fill="#840000" fill-opacity="0"><g fill="none" stroke="#840000" stroke-linecap="round" stroke-linejoin="round" stroke-width="60"><path d="m64300 43500 150-400 150 400 150 400 150-400"/><path d="m63700 43500 150-400 150 400 150 400 150-400"/><path d="m63100 43500 150-400 150 400 150 400 150-400"/></g><path d="m63000 43500h-500"/><text font-size="660" lengthAdjust="spacingAndGlyphs" opacity="0" text-anchor="middle" textLength="540" x="62750" y="43400">1</text><path d="m62890 43370h-290"/><path d="m62750 43370v-500l-50 70-50 50-50 20"/><path d="m64000 42500v-500"/><text font-size="660" lengthAdjust="spacingAndGlyphs" opacity="0" text-anchor="middle" textLength="540" transform="matrix(0 -1 1 0 21650 106150)" x="63900" y="42250">2</text><path d="m63420 42390-20-30-30-40v-120l30-50 20-20 50-30h40l80 30 280 280v-310"/><path d="m65000 43500h500"/><text font-size="660" lengthAdjust="spacingAndGlyphs" opacity="0" text-anchor="middle" textLength="540" x="65250" y="43400">3</text><path d="m65080 42870h310l-170 190h70l50 30 20 20 30 50v120l-30 40-20 30-50 20h-140l-50-20-20-30"/></g></g><g fill="#008484" fill-opacity="0" stroke="#008484"><text font-size="660" lengthAdjust="spacingAndGlyphs" opacity="0" text-anchor="middle" textLength="3540" x="64000" y="44850">TRIM_POT</text><path d="m62300 44320h290"/><path d="m62450 44820v-500"/><path d="m63040 44820-160-240"/><path d="m62760 44820v-500h190l50 30 20 20 20 50v70l-20 50-20 20-50 20h-190"/><path d="m63260 44820v-500"/><path d="m63500 44820v-500l160 360 170-360v500"/><path d="m63950 44870h380"/><path d="m64450 44820v-500h190l50 30 20 20 20 50v70l-20 50-20 20-50 20h-190"/><path d="m65040 44320h100l50 30 40 40 30 100v160l-30 100-40 50-50 20h-100l-40-20-50-50-30-100v-160l30-100 50-40z"/><path d="m65400 44320h290"/><path d="m65540 44820v-500"/></g></g><g fill="#008484" stroke="#008484"><g fill="#840000" stroke="#840000"><g fill="none" stroke="#840000" stroke-linecap="round" stroke-linejoin="round" stroke-width="60"><path d="m62900 45500h100"/><path d="m61100 45500h-100"/><path d="m62300 45500 150-400 150 400 150 400 150-400"/><path d="m61700 45500 150-400 150 400 150 400 150-400"/><path d="m61100 45500 150-400 150 400 150 400 150-400"/></g><path d="m61000 45500h-500"/><path d="m63000 45500h500"/></g><g fill="#008484" stroke="#008484"><text font-size="660" lengthAdjust="spacingAndGlyphs" opacity="0" text-anchor="middle" textLength="1040" x="62000" y="46850">R2</text><path d="m61910 46820-160-240"/><path d="m61630 46820v-500h190l40 30 30 20 20 50v70l-20 50-30 20-40 20h-190"/><path d="m62100 46370 30-20 40-30h120l50 30 20 20 30 50v40l-30 80-280 280h310"/></g></g><g fill="#008400" stroke="#008400"><path d="m57500 43500v2000"/><path d="m57500 43500h500"/><path d="m58000 43500v-2000"/><path d="m58000 41500h2000"/><path d="m60000 41500v500"/><path d="m58000 43500h500"/><path d="m61500 43500h500"/><path d="m62000 43500v-2000"/><path d="m62000 41500h2000"/><path d="m64000 41500v500"/><path d="m62000 43500h500"/><path d="m57500 46500v500"/><path d="m57500 45500h3000"/><path d="m63500 45500h2500"/><path d="m66000 45500v-2000"/><path d="m66000 43500h-500"/><path d="m57500 50000v500"/><path d="m57500 45500v1000"/><path d="m57500 46500h-5000"/><path d="m66000 39500v500"/><path d="m66000 43000v500"/></g><g stroke="#000"><text font-size="660" lengthAdjust="spacingAndGlyphs" opacity="0" textLength="3820" x="52500" y="46400">FEEDBACK</text><path d="m52810 46110h-170"/><path d="m52640 46370v-500h240"/><path d="m53070 46110h170"/><path d="m53310 46370h-240v-500h240"/><path d="m53530 46110h160"/><path d="m53760 46370h-230v-500h230"/><path d="m53980 46370v-500h120l70 30 50 40 20 50 20 100v70l-20 90-20 50-50 50-70 20z"/><path d="m54640 46110 80 20 20 30 20 40v80l-20 40-20 30-50 20h-190v-500h160l50 30 30 20 20 50v40l-20 50-30 30-50 20h-160"/><path d="m54950 46230h240"/><path d="m54910 46370 160-500 170 500"/><path d="m55690 46320-20 30-70 20h-50l-70-20-50-50-20-50-30-90v-70l30-100 20-50 50-40 70-30h50l70 30 20 20"/><path d="m55910 46370v-500"/><path d="m56190 46370-210-280"/><path d="m56190 45870-280 290"/></g></g><circle cx="6571.668" cy="7081.668" fill="#008400" r="200" stroke="#008400" stroke-width="100"/><circle cx="10571.668" cy="7081.668" fill="#008400" r="200" stroke="#008400" stroke-width="100"/><circle cx="6071.668" cy="10081.668" fill="#008400" r="200" stroke="#008400" stroke-width="100"/><circle cx="6071.668" cy="9081.668" fill="#008400" r="200" stroke="#008400" stroke-width="100"/><circle cx="14571.668" cy="7081.668" fill="#008400" r="200" stroke="#008400" stroke-width="100"/></g></svg>