<svg height="188.76158" viewBox="0 0 36574.16000000001 19662.684" width="351.11169" xmlns="http://www.w3.org/2000/svg"><g stroke-linecap="round" stroke-linejoin="round"><g fill-opacity="0"><g stroke="#000" stroke-width="60" transform="translate(-44558.032 -32918.332)"><g fill="#840000" stroke="#840000"><g fill="none" stroke="#840000" stroke-linecap="round" stroke-linejoin="round" stroke-width="60"><path d="m50500 44400v100"/><path d="m50500 42600v-100"/><path d="m50500 43800 400 150-400 150-400 150 400 150"/><path d="m50500 43200 400 150-400 150-400 150 400 150"/><path d="m50500 42600 400 150-400 150-400 150 400 150"/></g><path d="m50500 42500v-500"/><path d="m50500 44500v500"/></g><g fill="#008484" stroke="#008484"><text font-size="660" lengthAdjust="spacingAndGlyphs" opacity="0" text-anchor="middle" textLength="1040" x="51700" y="43310">R1</text><path d="m51610 43280-160-240"/><path d="m51330 43280v-500h190l40 30 30 20 20 50v70l-20 50-30 20-40 20h-190"/><path d="m52090 43280h-290"/><path d="m51950 43280v-500l-50 70-50 50-50 20"/><text font-size="660" lengthAdjust="spacingAndGlyphs" opacity="0" text-anchor="middle" textLength="2700" x="52530" y="44220">2.94kΩ</text><path d="m51300 43740 20-20 50-30h120l50 30 20 20 20 50v40l-20 80-280 280h300"/><path d="m51800 44140 20 30-20 20-20-20 20-30v50"/><path d="m52060 44190h100l40-20 30-30 50-70 20-90v-190l-20-50-30-20-50-30h-90l-50 30-20 20-30 50v120l30 40 20 30 50 20h90l50-20 30-30 20-40"/><path d="m52730 43860v330"/><path d="m52610 43670-120 350h310"/><path d="m52990 44190v-500"/><path d="m53040 44000 140 190"/><path d="m53180 43860-190 190"/><path d="m53370 44190h120v-90l-50-30-50-50-20-70v-120l20-70 50-40 70-30h100l70 30 50 40 20 70v120l-20 70-50 50-50 30v90h120"/></g></g><g fill="#008484" stroke="#008484" stroke-width="60" transform="translate(-44558.032 -32918.332)"><path d="m57500 49500v500h500l-500 500-500-500h500" fill="none" stroke="#840000"/><g fill="#008484" fill-opacity="0" stroke="#008484"><text font-size="660" lengthAdjust="spacingAndGlyphs" opacity="0" text-anchor="middle" textLength="1580" x="57550" y="51500">GND</text><path d="m57160 51000-40-30h-70l-80 30-40 40-30 50-20 100v70l20 90 30 50 40 50 80 20h40l70-20 30-30v-160h-100"/><path d="m57400 51470v-500l290 500v-500"/><path d="m57930 51470v-500h120l70 30 40 40 30 50 20 100v70l-20 90-30 50-40 50-70 20z"/></g></g><g fill="#008484" stroke="#008484" stroke-width="60" transform="translate(-44558.032 -32918.332)"><g fill="#840000" stroke="#840000"><g fill="none" stroke="#840000" stroke-linecap="round" stroke-linejoin="round" stroke-width="60"><path d="m69000 38600v-100"/><path d="m69000 40400v100"/><path d="m69000 39200-400-150 400-150 400-150-400-150"/><path d="m69000 39800-400-150 400-150 400-150-400-150"/><path d="m69000 40400-400-150 400-150 400-150-400-150"/></g><path d="m69000 40500v500"/><path d="m69000 38500v-500"/></g><g fill="#008484" stroke="#008484"><text font-size="660" lengthAdjust="spacingAndGlyphs" opacity="0" text-anchor="middle" textLength="1040" x="70200" y="39260">R2</text><path d="m70110 39230-160-240"/><path d="m69830 39230v-500h190l40 30 30 20 20 50v70l-20 50-30 20-40 20h-190"/><path d="m70300 38780 30-20 40-30h120l50 30 20 20 30 50v40l-30 80-280 280h310"/><text font-size="660" lengthAdjust="spacingAndGlyphs" opacity="0" text-anchor="middle" textLength="1990" x="70670" y="40170">57kΩ</text><path d="m70060 39640h-240l-20 240 20-20 50-30h120l40 30 30 20 20 50v120l-20 40-30 30-40 20h-120l-50-20-20-30"/><path d="m70250 39640h330l-210 500"/><path d="m70770 40140v-500"/><path d="m70820 39950 140 190"/><path d="m70960 39810-190 190"/><path d="m71150 40140h120v-90l-50-30-40-50-30-70v-120l30-70 40-40 80-30h90l70 30 50 40 20 70v120l-20 70-50 50-40 30v90h110"/></g></g><g fill="#008484" stroke="#008484" stroke-width="60" transform="translate(-44558.032 -32918.332)"><g stroke="#840000"><g fill="none" fill-opacity="0"><path d="m66900 41500h100"/><path d="m65000 41500h100"/><path d="m66000 40500v400"/></g><path d="m66000 41050-200-450h400z" fill="#840000" fill-opacity="1" fill-rule="evenodd"/><g fill="#840000" fill-opacity="0"><g fill="none" stroke="#840000" stroke-linecap="round" stroke-linejoin="round" stroke-width="60"><path d="m66300 41500 150-400 150 400 150 400 150-400"/><path d="m65700 41500 150-400 150 400 150 400 150-400"/><path d="m65100 41500 150-400 150 400 150 400 150-400"/></g><path d="m65000 41500h-500"/><text font-size="660" lengthAdjust="spacingAndGlyphs" opacity="0" text-anchor="middle" textLength="540" x="64750" y="41400">1</text><path d="m64890 41370h-290"/><path d="m64750 41370v-500l-50 70-50 50-50 20"/><path d="m66000 40500v-500"/><text font-size="660" lengthAdjust="spacingAndGlyphs" opacity="0" text-anchor="middle" textLength="540" transform="matrix(0 -1 1 0 25650 106150)" x="65900" y="40250">2</text><path d="m65420 40390-20-30-30-40v-120l30-50 20-20 50-30h40l80 30 280 280v-310"/><path d="m67000 41500h500"/><text font-size="660" lengthAdjust="spacingAndGlyphs" opacity="0" text-anchor="middle" textLength="540" x="67250" y="41400">3</text><path d="m67080 40870h310l-170 190h70l50 30 20 20 30 50v120l-30 40-20 30-50 20h-140l-50-20-20-30"/></g></g><g fill="#008484" fill-opacity="0" stroke="#008484"><text font-size="660" lengthAdjust="spacingAndGlyphs" opacity="0" text-anchor="middle" textLength="3160" x="66000" y="42850">TRIMPOT</text><path d="m64500 42320h280"/><path d="m64640 42820v-500"/><path d="m65230 42820-160-240"/><path d="m64950 42820v-500h190l50 30 20 20 20 50v70l-20 50-20 20-50 20h-190"/><path d="m65450 42820v-500"/><path d="m65690 42820v-500l160 360 170-360v500"/><path d="m66260 42820v-500h190l50 30 20 20 20 50v70l-20 50-20 20-50 20h-190"/><path d="m66850 42320h100l50 30 40 40 30 100v160l-30 100-40 50-50 20h-100l-50-20-40-50-30-100v-160l30-100 40-40z"/><path d="m67210 42320h290"/><path d="m67350 42820v-500"/><text font-size="660" lengthAdjust="spacingAndGlyphs" opacity="0" text-anchor="middle" textLength="1990" x="65990" y="43760">10kΩ</text><path d="m65400 43730h-280"/><path d="m65260 43730v-500l-50 70-50 50-40 20"/><path d="m65710 43230h50l50 30 20 20 20 50 30 90v120l-30 100-20 40-20 30-50 20h-50l-50-20-20-30-20-40-30-100v-120l30-90 20-50 20-20z"/><path d="m66090 43730v-500"/><path d="m66140 43540 140 190"/><path d="m66280 43400-190 190"/><path d="m66470 43730h120v-90l-50-30-40-50-30-70v-120l30-70 40-40 80-30h90l70 30 50 40 20 70v120l-20 70-50 50-40 30v90h110"/></g></g><g fill="#008484" stroke="#008484" stroke-width="60" transform="translate(-44558.032 -32918.332)"><g fill="none" stroke="#840000"><path d="m75700 35500 300-500"/><path d="m76000 36000v-1000"/><path d="m76000 35000 300 500"/></g><g fill="#008484" stroke="#008484"><text font-size="660" lengthAdjust="spacingAndGlyphs" opacity="0" text-anchor="middle" textLength="2060" x="76150" y="34540">+48V</text><path d="m75260 34320h390"/><path d="m75450 34510v-380"/><path d="m76100 34180v330"/><path d="m75980 33990-120 350h310"/><path d="m76430 34230-50-30-20-20-20-50v-20l20-50 20-20 50-30h100l40 30 30 20 20 50v20l-20 50-30 20-40 30h-100l-50 20-20 20-20 50v100l20 40 20 30 50 20h100l40-20 30-30 20-40v-100l-20-50-30-20-40-20"/><path d="m76760 34010 170 500 170-500"/></g></g><g fill="#008484" stroke="#008484" stroke-width="60" transform="translate(-44558.032 -32918.332)"><g fill="#840000" stroke="#840000"><g fill="none" stroke="#840000" stroke-linecap="round" stroke-linejoin="round" stroke-width="60"><path d="m63000 46400v100"/><path d="m63000 44600v-100"/><path d="m63000 45800 400 150-400 150-400 150 400 150"/><path d="m63000 45200 400 150-400 150-400 150 400 150"/><path d="m63000 44600 400 150-400 150-400 150 400 150"/></g><path d="m63000 44500v-500"/><path d="m63000 46500v500"/></g><g fill="#008484" stroke="#008484"><text font-size="660" lengthAdjust="spacingAndGlyphs" opacity="0" text-anchor="middle" textLength="1040" x="64200" y="45310">R3</text><path d="m64110 45280-160-240"/><path d="m63830 45280v-500h190l40 30 30 20 20 50v70l-20 50-30 20-40 20h-190"/><path d="m64280 44780h310l-170 190h70l50 30 20 20 30 50v120l-30 40-20 30-50 20h-140l-50-20-20-30"/><text font-size="660" lengthAdjust="spacingAndGlyphs" opacity="0" text-anchor="middle" textLength="2230" x="64790" y="46220">1.5kΩ</text><path d="m64080 46190h-280"/><path d="m63940 46190v-500l-50 70-50 50-40 20"/><path d="m64300 46140 20 30-20 20-30-20 30-30v50"/><path d="m64770 45690h-230l-30 240 30-20 40-30h120l50 30 20 20 30 50v120l-30 40-20 30-50 20h-120l-40-20-30-30"/><path d="m65010 46190v-500"/><path d="m65060 46000 140 190"/><path d="m65200 45860-190 190"/><path d="m65390 46190h120v-90l-50-30-40-50-30-70v-120l30-70 40-40 80-30h90l70 30 50 40 20 70v120l-20 70-50 50-50 30v90h120"/></g></g><g fill="#008484" stroke="#008484" stroke-width="60" transform="translate(-44558.032 -32918.332)"><g fill="none" stroke="#840000"><path d="m46200 35500 300-500"/><path d="m46500 36000v-1000"/><path d="m46500 35000 300 500"/></g><g fill="#008484" stroke="#008484"><text font-size="660" lengthAdjust="spacingAndGlyphs" opacity="0" text-anchor="middle" textLength="2060" x="46650" y="34540">+12V</text><path d="m45760 34320h390"/><path d="m45950 34510v-380"/><path d="m46650 34510h-290"/><path d="m46500 34510v-500l-50 70-40 50-50 20"/><path d="m46840 34060 20-20 50-30h120l40 30 30 20 20 50v40l-20 80-290 280h310"/><path d="m47260 34010 170 500 170-500"/></g></g><g fill="#008484" stroke="#008484" stroke-width="0" transform="translate(-44558.032 -32918.332)"><g fill="#840000" stroke="#840000" stroke-width="200"><path d="m47300.3 43001a1280 1280 0 0 0 -1600.6 0"/><path d="m45700 42200h1600" fill="none" stroke="#840000" stroke-linecap="round" stroke-linejoin="round" stroke-width="200"/></g><g stroke-width="60"><g fill="#840000" stroke="#840000"><path d="m45800 41600h400" fill="none" stroke="#840000" stroke-linecap="round" stroke-linejoin="round" stroke-width="60"/><path d="m46000 41800v-400" fill="none" stroke="#840000" stroke-linecap="round" stroke-linejoin="round" stroke-width="60"/><path d="m46500 42100v-1100"/><path d="m46500 42700v1300"/></g><g fill="#008484" stroke="#008484"><text font-size="660" lengthAdjust="spacingAndGlyphs" opacity="0" text-anchor="middle" textLength="1040" x="48170" y="42310">C1</text><path d="m48080 42230-20 30-70 20h-50l-70-20-50-50-20-50-30-90v-70l30-100 20-50 50-40 70-30h50l70 30 20 20"/><path d="m48560 42280h-290"/><path d="m48420 42280v-500l-50 70-50 50-50 20"/><text font-size="660" lengthAdjust="spacingAndGlyphs" opacity="0" text-anchor="middle" textLength="2440" x="48870" y="43220">100µF</text><path d="m48060 43190h-290"/><path d="m47910 43190v-500l-40 70-50 50-50 20"/><path d="m48370 42690h40l50 30 20 20 30 50 20 90v120l-20 100-30 40-20 30-50 20h-40l-50-20-30-30-20-40-20-100v-120l20-90 20-50 30-20z"/><path d="m48840 42690h50l50 30 20 20 20 50 30 90v120l-30 100-20 40-20 30-50 20h-50l-50-20-20-30-20-40-30-100v-120l30-90 20-50 20-20z"/><path d="m49220 42860v500"/><path d="m49460 43120 20 50 50 20"/><path d="m49220 43120 30 50 40 20h100l50-20 20-50v-260"/><path d="m49910 42930h-160"/><path d="m49750 43190v-500h230"/></g></g></g><g fill="#008484" stroke="#008484" stroke-width="0" transform="translate(-44558.032 -32918.332)"><g fill="#840000" stroke="#840000" stroke-width="200"><path d="m76800.3 40001a1280 1280 0 0 0 -1600.60000000001 0"/><path d="m75200 39200h1600" fill="none" stroke="#840000" stroke-linecap="round" stroke-linejoin="round" stroke-width="200"/></g><g stroke-width="60"><g fill="#840000" stroke="#840000"><path d="m75300 38600h400" fill="none" stroke="#840000" stroke-linecap="round" stroke-linejoin="round" stroke-width="60"/><path d="m75500 38800v-400" fill="none" stroke="#840000" stroke-linecap="round" stroke-linejoin="round" stroke-width="60"/><path d="m76000 39100v-1100"/><path d="m76000 39700v1300"/></g><g fill="#008484" stroke="#008484"><text font-size="660" lengthAdjust="spacingAndGlyphs" opacity="0" text-anchor="middle" textLength="1040" x="77670" y="39310">C4</text><path d="m77580 39230-20 30-70 20h-50l-70-20-50-50-20-50-30-90v-70l30-100 20-50 50-40 70-30h50l70 30 20 20"/><path d="m78010 38950v330"/><path d="m77890 38760-120 350h310"/><text font-size="660" lengthAdjust="spacingAndGlyphs" opacity="0" text-anchor="middle" textLength="2920" x="78610" y="40220">1000µF</text><path d="m77560 40190h-290"/><path d="m77410 40190v-500l-40 70-50 50-50 20"/><path d="m77870 39690h40l50 30 30 20 20 50 20 90v120l-20 100-20 40-30 30-50 20h-40l-50-20-20-30-30-40-20-100v-120l20-90 30-50 20-20z"/><path d="m78340 39690h50l50 30 20 20 30 50 20 90v120l-20 100-30 40-20 30-50 20h-50l-40-20-30-30-20-40-30-100v-120l30-90 20-50 30-20z"/><path d="m78820 39690h50l40 30 30 20 20 50 30 90v120l-30 100-20 40-30 30-40 20h-50l-50-20-20-30-30-40-20-100v-120l20-90 30-50 20-20z"/><path d="m79200 39860v500"/><path d="m79440 40120 20 50 50 20"/><path d="m79200 40120 20 50 50 20h100l40-20 30-50v-260"/><path d="m79890 39930h-170"/><path d="m79720 40190v-500h240"/></g></g></g><g fill="#008484" stroke="#008484" stroke-width="0" transform="translate(-44558.032 -32918.332)"><g fill="#840000" stroke="#840000" stroke-width="200"><path d="m72800.3 46001a1280 1280 0 0 0 -1600.60000000001 0"/><path d="m71200 45200h1600" fill="none" stroke="#840000" stroke-linecap="round" stroke-linejoin="round" stroke-width="200"/></g><g stroke-width="60"><g fill="#840000" stroke="#840000"><path d="m71300 44600h400" fill="none" stroke="#840000" stroke-linecap="round" stroke-linejoin="round" stroke-width="60"/><path d="m71500 44800v-400" fill="none" stroke="#840000" stroke-linecap="round" stroke-linejoin="round" stroke-width="60"/><path d="m72000 45100v-1100"/><path d="m72000 45700v1300"/></g><g fill="#008484" stroke="#008484"><text font-size="660" lengthAdjust="spacingAndGlyphs" opacity="0" text-anchor="middle" textLength="1040" x="73670" y="45310">C3</text><path d="m73580 45230-20 30-70 20h-50l-70-20-50-50-20-50-30-90v-70l30-100 20-50 50-40 70-30h50l70 30 20 20"/><path d="m73750 44780h310l-170 190h70l50 30 20 20 30 50v120l-30 40-20 30-50 20h-140l-50-20-20-30"/><text font-size="660" lengthAdjust="spacingAndGlyphs" opacity="0" text-anchor="middle" textLength="2440" x="74370" y="46220">100µF</text><path d="m73560 46190h-290"/><path d="m73410 46190v-500l-40 70-50 50-50 20"/><path d="m73870 45690h40l50 30 20 20 30 50 20 90v120l-20 100-30 40-20 30-50 20h-40l-50-20-30-30-20-40-20-100v-120l20-90 20-50 30-20z"/><path d="m74340 45690h50l50 30 20 20 20 50 30 90v120l-30 100-20 40-20 30-50 20h-50l-50-20-20-30-20-40-30-100v-120l30-90 20-50 20-20z"/><path d="m74720 45860v500"/><path d="m74960 46120 20 50 50 20"/><path d="m74720 46120 30 50 40 20h100l50-20 20-50v-260"/><path d="m75410 45930h-160"/><path d="m75250 46190v-500h230"/></g></g></g><g fill="#008484" stroke="#008484" stroke-width="0" transform="translate(-44558.032 -32918.332)"><g stroke="#840000"><path d="m66500 36500h1000" fill="none" stroke-width="60"/><g fill="none" fill-opacity="0" stroke-width="80"><path d="m66500 37000v-1000l1000 500z"/><path d="m67750 36750v250h-250v-1000h-250v250"/></g><g fill="#840000" fill-opacity="0" stroke-width="60"><path d="m67500 36500h1000"/><path d="m66500 36500h-1000"/></g></g><g fill="#008484" fill-opacity="0" stroke="#008484" stroke-width="60"><text font-size="660" lengthAdjust="spacingAndGlyphs" opacity="0" text-anchor="middle" textLength="1040" x="67000" y="34560">D1</text><path d="m66630 34530v-500h120l70 30 40 40 30 50 20 100v70l-20 90-30 50-40 50-70 20z"/><path d="m67390 34530h-290"/><path d="m67250 34530v-500l-50 70-50 50-50 20"/><text font-size="660" lengthAdjust="spacingAndGlyphs" opacity="0" text-anchor="middle" textLength="2440" x="67000" y="35470">SS510</text><path d="m65900 35420 70 20h120l50-20 20-30 30-40v-50l-30-50-20-20-50-30-90-20-50-20-30-30-20-50v-40l20-50 30-20 50-30h110l80 30"/><path d="m66380 35420 70 20h120l40-20 30-30 20-40v-50l-20-50-30-20-40-30-100-20-50-20-20-30-20-50v-40l20-50 20-20 50-30h120l70 30"/><path d="m67110 34940h-230l-30 240 30-20 40-30h120l50 30 20 20 30 50v120l-30 40-20 30-50 20h-120l-40-20-30-30"/><path d="m67610 35440h-280"/><path d="m67470 35440v-500l-50 70-40 50-50 20"/><path d="m67920 34940h50l50 30 20 20 30 50 20 90v120l-20 100-30 40-20 30-50 20h-50l-40-20-30-30-20-40-30-100v-120l30-90 20-50 30-20z"/></g></g><g fill="#008484" stroke="#008484" stroke-width="60" transform="translate(-44558.032 -32918.332)"><g fill="#840000" stroke="#840000"><path d="m58500 36499.6a250 250 0 0 0 -500 0"/><path d="m58000 36499.6a250 250 0 0 0 -500 0"/><path d="m57500 36499.6a250 250 0 0 0 -500 0"/><path d="m57000 36499.6a250 250 0 0 0 -500 0"/><path d="m56500 36500h-500"/><path d="m58500 36500h500"/></g><g fill="#008484" stroke="#008484"><text font-size="660" lengthAdjust="spacingAndGlyphs" opacity="0" text-anchor="middle" textLength="940" x="57500" y="34820">L1</text><path d="m57410 34790h-240v-500"/><path d="m57840 34790h-290"/><path d="m57700 34790v-500l-50 70-50 50-50 20"/><text font-size="660" lengthAdjust="spacingAndGlyphs" opacity="0" text-anchor="middle" textLength="2060" x="57500" y="35730">56µH</text><path d="m56850 35200h-240l-20 240 20-20 50-30h120l50 30 20 20 30 50v120l-30 40-20 30-50 20h-120l-50-20-20-30"/><path d="m57300 35200h-90l-50 30-20 20-50 70-20 100v190l20 40 20 30 50 20h100l40-20 30-30 20-40v-120l-20-50-30-20-40-30h-100l-50 30-20 20-20 50"/><path d="m57570 35370v500"/><path d="m57800 35630 30 50 50 20"/><path d="m57570 35630 20 50 50 20h90l50-20 20-50v-260"/><path d="m58090 35700v-500"/><path d="m58090 35440h290"/><path d="m58380 35700v-500"/></g></g><g fill="#008484" stroke="#008484" stroke-width="0"><path d="m9441.968 6581.668h7000v4500h-7000z" fill="#ffffc2" fill-opacity=".6" stroke="none"/><g stroke-linecap="round" stroke-linejoin="round" stroke-width="60" transform="translate(-44558.032 -32918.332)"><g fill="#840000" fill-opacity="0" stroke="#840000"><path d="m54000 39500h7000v4500h-7000z"/><path d="m54000 39500h7000v4500h-7000z"/><path d="m54000 41500h-1000"/></g><g fill="#008484" fill-opacity="0" stroke="#008484"><text font-size="660" lengthAdjust="spacingAndGlyphs" opacity="0" textLength="2160" x="54400" y="41750">COMP</text><path d="m54830 41670-20 30-80 20h-40l-70-20-50-50-30-50-20-90v-70l20-100 30-50 50-40 70-30h40l80 30 20 20"/><path d="m55140 41220h90l50 30 50 40 20 100v160l-20 100-50 50-50 20h-90l-50-20-50-50-20-100v-160l20-100 50-40z"/><path d="m55570 41720v-500l160 360 170-360v500"/><path d="m56140 41720v-500h190l50 30 20 20 30 50v70l-30 50-20 20-50 20h-190"/></g><path d="m61000 41500h1000" fill="none" stroke="#840000"/><g fill="#008484" fill-opacity="0" stroke="#008484"><text font-size="660" lengthAdjust="spacingAndGlyphs" opacity="0" text-anchor="end" textLength="1990" x="60600" y="41750">FDBK</text><path d="m58920 41460h-160"/><path d="m58760 41720v-500h230"/><path d="m59180 41720v-500h120l70 30 50 40 30 50 20 100v70l-20 90-30 50-50 50-70 20z"/><path d="m59850 41460 70 20 30 30 20 40v80l-20 40-30 30-50 20h-190v-500h170l50 30 20 20 30 50v40l-30 50-20 30-50 20h-170"/><path d="m60180 41720v-500"/><path d="m60470 41720-210-280"/><path d="m60470 41220-290 290"/></g><path d="m57500 44000v1000" fill="none" stroke="#840000"/><g fill="#008484" fill-opacity="0" stroke="#008484"><text font-size="660" lengthAdjust="spacingAndGlyphs" opacity="0" textLength="1580" transform="matrix(0 -1 1 0 13900 101100)" x="57500" y="43850">GND</text><path d="m57250 43180-30 50v70l30 70 40 50 50 30 100 20h70l90-20 50-30 50-50 20-70v-40l-20-80-30-20h-160v100"/><path d="m57720 42950h-500l500-290h-500"/><path d="m57720 42420h-500v-120l30-70 40-50 50-20 100-20h70l90 20 50 20 50 50 20 70z"/></g><path d="m61000 40500h1000" fill="none" stroke="#840000"/><g fill="#008484" fill-opacity="0" stroke="#008484"><text font-size="660" lengthAdjust="spacingAndGlyphs" opacity="0" text-anchor="end" textLength="2750" x="60600" y="40750">SWITCH</text><path d="m57970 40700 70 20h120l50-20 20-30 30-40v-50l-30-50-20-20-50-30-90-20-50-20-30-30-20-50v-40l20-50 30-20 50-30h110l80 30"/><path d="m58420 40220 120 500 100-360 90 360 120-500"/><path d="m59040 40720v-500"/><path d="m59210 40220h280"/><path d="m59350 40720v-500"/><path d="m59950 40670-30 30-70 20h-50l-70-20-50-50-20-50-20-90v-70l20-100 20-50 50-40 70-30h50l70 30 30 20"/><path d="m60160 40720v-500"/><path d="m60160 40460h290"/><path d="m60450 40720v-500"/></g><path d="m54000 40500h-1000" fill="none" stroke="#840000"/><g fill="#008484" fill-opacity="0" stroke="#008484"><text font-size="660" lengthAdjust="spacingAndGlyphs" opacity="0" textLength="1250" x="54400" y="40750">VIN</text><path d="m54470 40220 170 500 170-500"/><path d="m54970 40720v-500"/><path d="m55210 40720v-500l290 500v-500"/><text font-size="660" lengthAdjust="spacingAndGlyphs" opacity="0" text-anchor="middle" textLength="1060" x="57500" y="38120">U1</text><path d="m57110 37590v410l30 40 20 30 50 20h90l50-20 30-30 20-40v-410"/><path d="m57900 38090h-290"/><path d="m57760 38090v-500l-50 70-50 50-50 20"/><text font-size="660" lengthAdjust="spacingAndGlyphs" opacity="0" text-anchor="middle" textLength="2940" x="57500" y="39030">LM2587</text><path d="m56410 39000h-240v-500"/><path d="m56580 39000v-500l170 360 160-360v500"/><path d="m57130 38550 20-20 50-30h120l40 30 30 20 20 50v40l-20 80-290 280h310"/><path d="m57860 38500h-230l-30 240 30-20 40-30h120l50 30 20 20 30 50v120l-30 40-20 30-50 20h-120l-40-20-30-30"/><path d="m58170 38720-40-30-30-20-20-50v-20l20-50 30-20 40-30h100l50 30 20 20 20 50v20l-20 50-20 20-50 30h-100l-40 20-30 20-20 50v100l20 40 30 30 40 20h100l50-20 20-30 20-40v-100l-20-50-20-20-50-20"/><path d="m58530 38500h330l-210 500"/></g></g></g><g fill="#008484" stroke="#008484" stroke-width="0" transform="translate(-44558.032 -32918.332)"><g fill="none" stroke="#840000" stroke-width="200"><path d="m49700 47300h1600"/><path d="m49700 46700h1600"/></g><g stroke-width="60"><g fill="#840000" stroke="#840000"><path d="m50500 46600v-1100"/><path d="m50500 47400v1100"/></g><g fill="#008484" stroke="#008484"><text font-size="660" lengthAdjust="spacingAndGlyphs" opacity="0" text-anchor="middle" textLength="1040" x="52170" y="46810">C2</text><path d="m52080 46730-20 30-70 20h-50l-70-20-50-50-20-50-30-90v-70l30-100 20-50 50-40 70-30h50l70 30 20 20"/><path d="m52270 46330 30-20 40-30h120l50 30 20 20 30 50v40l-30 80-280 280h310"/><text font-size="660" lengthAdjust="spacingAndGlyphs" opacity="0" text-anchor="middle" textLength="1490" x="52390" y="47720">1µF</text><path d="m52050 47690h-280"/><path d="m51910 47690v-500l-50 70-50 50-40 20"/><path d="m52270 47360v500"/><path d="m52500 47620 30 50 50 20"/><path d="m52270 47620 20 50 50 20h90l50-20 20-50v-260"/><path d="m52960 47430h-170"/><path d="m52790 47690v-500h240"/></g></g></g><g fill="#008400" stroke="#008400" stroke-width="60" transform="translate(-44558.032 -32918.332)"><path d="m50500 41500v500"/><path d="m50500 45000v500"/><path d="m50500 48500v500"/><path d="m46500 36000v500"/><path d="m76000 36500v1500"/><path d="m57500 45000v4000"/><path d="m50500 41500h2500"/><path d="m50500 49000h7000"/><path d="m69000 36500v1500"/><path d="m57500 49000v500"/><path d="m50500 49000h-4000"/><path d="m46500 49000v-5000"/><path d="m62500 36500v4000"/><path d="m46500 36500h4000"/><path d="m50500 36500v4000"/><path d="m50500 36500h5500"/><path d="m50500 40500h2500"/><path d="m69000 41000v500"/><path d="m62000 40500h500"/><path d="m62500 36500h-3500"/><path d="m65500 36500h-3000"/><path d="m46500 36500v4500"/><path d="m68500 36500h500"/><path d="m66000 40000v-500"/><path d="m66000 39500h-2000"/><path d="m64000 39500v2000"/><path d="m64000 41500h500"/><path d="m72000 36500v7500"/><path d="m72000 36500h-3000"/><path d="m57500 49000h5500"/><path d="m62000 41500h1000"/><path d="m63000 41500v2500"/><path d="m63000 41500h1000"/><path d="m76000 41000v8000"/><path d="m72000 49000h4000"/><path d="m67500 41500h1500"/><path d="m63000 47000v2000"/><path d="m72000 47000v2000"/><path d="m72000 49000h-9000"/><path d="m72000 36500h4000"/><path d="m76000 36500v-500"/></g></g><circle cx="18441.968" cy="16081.668" fill="#008400" r="200" stroke="#008400" stroke-width="100"/><circle cx="27441.968" cy="3581.668" fill="#008400" r="200" stroke="#008400" stroke-width="100"/><circle cx="19441.968" cy="8581.668" fill="#008400" r="200" stroke="#008400" stroke-width="100"/><circle cx="27441.968" cy="16081.668" fill="#008400" r="200" stroke="#008400" stroke-width="100"/><circle cx="31441.968" cy="3581.668" fill="#008400" r="200" stroke="#008400" stroke-width="100"/><circle cx="18441.968" cy="8581.668" fill="#008400" r="200" stroke="#008400" stroke-width="100"/><circle cx="17941.968" cy="3581.668" fill="#008400" r="200" stroke="#008400" stroke-width="100"/><circle cx="5941.968" cy="3581.668" fill="#008400" r="200" stroke="#008400" stroke-width="100"/><circle cx="5941.968" cy="16081.668" fill="#008400" r="200" stroke="#008400" stroke-width="100"/><circle cx="12941.968" cy="16081.668" fill="#008400" r="200" stroke="#008400" stroke-width="100"/><circle cx="1941.968" cy="3581.668" fill="#008400" r="200" stroke="#008400" stroke-width="100"/><circle cx="24441.968" cy="3581.668" fill="#008400" r="200" stroke="#008400" stroke-width="100"/></g></svg>