<svg height="149.59361" viewBox="0 0 37519.049 15582.683" width="360.18262" xmlns="http://www.w3.org/2000/svg"><g stroke-linecap="round" stroke-linejoin="round"><g fill-opacity="0" stroke="#000" stroke-width="0"><path d="m8941.668 3001.668h8000v6000h-8000z" fill="#ffffc2" fill-opacity=".6" stroke="none"/><g stroke-linecap="round" stroke-linejoin="round"><g fill="#840000" fill-opacity="0" stroke="#840000" stroke-width="100"><path d="m8941.668 3001.668h8000v6000h-8000z"/><path d="m8941.668 3001.668h8000v6000h-8000z"/></g><path d="m56500 36500h1000" fill="none" stroke="#840000" stroke-width="60" transform="translate(-39558.332 -32498.332)"/><g fill="#008484" fill-opacity="0" stroke="#008484" stroke-width="60" transform="translate(-39558.332 -32498.332)"><text font-size="660" lengthAdjust="spacingAndGlyphs" opacity="0" text-anchor="end" textLength="1990" x="56300" y="36750">BOOT</text><path d="m54620 36460 70 20 30 30 20 40v80l-20 40-30 30-40 20h-190v-500h160l50 30 20 20 30 50v40l-30 50-20 30-50 20h-160"/><path d="m55050 36220h100l40 30 50 40 30 100v160l-30 100-50 50-40 20h-100l-50-20-40-50-30-100v-160l30-100 40-40z"/><path d="m55570 36220h100l50 30 50 40 20 100v160l-20 100-50 50-50 20h-100l-40-20-50-50-20-100v-160l20-100 50-40z"/><path d="m55930 36220h290"/><path d="m56070 36720v-500"/></g><g fill="#840000" fill-opacity="0" stroke="#840000" stroke-width="60" transform="translate(-39558.332 -32498.332)"><text font-size="660" lengthAdjust="spacingAndGlyphs" opacity="0" text-anchor="middle" textLength="540" x="57000" y="36400">1</text><path d="m57140 36370h-290"/><path d="m57000 36370v-500l-50 70-50 50-50 20"/><path d="m56500 40500h1000"/></g><g fill="#008484" fill-opacity="0" stroke="#008484" stroke-width="60" transform="translate(-39558.332 -32498.332)"><text font-size="660" lengthAdjust="spacingAndGlyphs" opacity="0" text-anchor="end" textLength="2870" x="56300" y="40750">VSENSE</text><path d="m53500 40220 170 500 170-500"/><path d="m53980 40700 70 20h120l50-20 20-30 30-40v-50l-30-50-20-20-50-30-100-20-40-20-30-30-20-50v-40l20-50 30-20 40-30h120l80 30"/><path d="m54480 40460h170"/><path d="m54720 40720h-240v-500h240"/><path d="m54930 40720v-500l290 500v-500"/><path d="m55430 40700 70 20h120l50-20 20-30 30-40v-50l-30-50-20-20-50-30-90-20-50-20-20-30-30-50v-40l30-50 20-20 50-30h120l70 30"/><path d="m55930 40460h170"/><path d="m56170 40720h-240v-500h240"/></g><g fill="#840000" fill-opacity="0" stroke="#840000" stroke-width="60" transform="translate(-39558.332 -32498.332)"><text font-size="660" lengthAdjust="spacingAndGlyphs" opacity="0" text-anchor="middle" textLength="540" x="57000" y="40400">4</text><path d="m57090 40040v330"/><path d="m56970 39850-120 350h310"/><path d="m48500 40500h-1000"/></g><g fill="#008484" fill-opacity="0" stroke="#008484" stroke-width="60" transform="translate(-39558.332 -32498.332)"><text font-size="660" lengthAdjust="spacingAndGlyphs" opacity="0" textLength="1040" x="48700" y="40750">EN</text><path d="m48840 40460h170"/><path d="m49080 40720h-240v-500h240"/><path d="m49300 40720v-500l280 500v-500"/></g><g fill="#840000" fill-opacity="0" stroke="#840000" stroke-width="60" transform="translate(-39558.332 -32498.332)"><text font-size="660" lengthAdjust="spacingAndGlyphs" opacity="0" text-anchor="middle" textLength="540" x="48000" y="40400">5</text><path d="m48110 39870h-230l-30 240 30-20 40-30h120l50 30 20 20 30 50v120l-30 40-20 30-50 20h-120l-40-20-30-30"/><path d="m51500 41500v1000"/></g><g fill="#008484" fill-opacity="0" stroke="#008484" stroke-width="60" transform="translate(-39558.332 -32498.332)"><text font-size="660" lengthAdjust="spacingAndGlyphs" opacity="0" textLength="1580" transform="matrix(0 -1 1 0 10200 92800)" x="51500" y="41550">GND</text><path d="m51250 40880-30 50v70l30 70 40 50 50 30 100 20h70l90-20 50-30 50-50 20-70v-40l-20-80-30-20h-160v100"/><path d="m51720 40650h-500l500-290h-500"/><path d="m51720 40120h-500v-120l30-70 40-50 50-20 100-20h70l90 20 50 20 50 50 20 70z"/></g><g fill="#840000" fill-opacity="0" stroke="#840000" stroke-width="60" transform="translate(-39558.332 -32498.332)"><text font-size="660" lengthAdjust="spacingAndGlyphs" opacity="0" text-anchor="middle" textLength="540" transform="matrix(0 -1 1 0 9400 93400)" x="51400" y="42000">6</text><path d="m50870 41900v100l30 40 20 30 70 40 100 30h190l40-30 30-20 20-50v-90l-20-50-30-20-40-30h-120l-50 30-20 20-30 50v90l30 50 20 20 50 30"/><path d="m48500 36500h-1000"/></g><g fill="#008484" fill-opacity="0" stroke="#008484" stroke-width="60" transform="translate(-39558.332 -32498.332)"><text font-size="660" lengthAdjust="spacingAndGlyphs" opacity="0" textLength="1250" x="48700" y="36750">VIN</text><path d="m48770 36220 170 500 170-500"/><path d="m49270 36720v-500"/><path d="m49510 36720v-500l290 500v-500"/></g><g fill="#840000" fill-opacity="0" stroke="#840000" stroke-width="60" transform="translate(-39558.332 -32498.332)"><text font-size="660" lengthAdjust="spacingAndGlyphs" opacity="0" text-anchor="middle" textLength="540" x="48000" y="36400">7</text><path d="m47830 35870h330l-210 500"/><path d="m56500 38500h1000"/></g><g fill="#008484" fill-opacity="0" stroke="#008484" stroke-width="60" transform="translate(-39558.332 -32498.332)"><text font-size="660" lengthAdjust="spacingAndGlyphs" opacity="0" text-anchor="end" textLength="1080" x="56300" y="38750">PH</text><path d="m55360 38720v-500h190l50 30 20 20 30 50v70l-30 50-20 20-50 20h-190"/><path d="m55860 38720v-500"/><path d="m55860 38460h290"/><path d="m56150 38720v-500"/></g><g fill="#840000" fill-opacity="0" stroke="#840000" stroke-width="60" transform="translate(-39558.332 -32498.332)"><text font-size="660" lengthAdjust="spacingAndGlyphs" opacity="0" text-anchor="middle" textLength="540" x="57000" y="38400">8</text><path d="m56950 38090-50-30-20-20-30-50v-20l30-50 20-20 50-30h90l50 30 20 20 30 50v20l-30 50-20 20-50 30h-90l-50 20-20 20-30 50v100l30 40 20 30 50 20h90l50-20 20-30 30-40v-100l-30-50-20-20-50-20"/><path d="m52500 41500v1000"/></g><g fill="#008484" fill-opacity="0" stroke="#008484" stroke-width="60" transform="translate(-39558.332 -32498.332)"><text font-size="660" lengthAdjust="spacingAndGlyphs" opacity="0" textLength="3010" transform="matrix(0 -1 1 0 11200 93800)" x="52500" y="41550">GNDPAD</text><path d="m52250 40880-30 50v70l30 70 40 50 50 30 100 20h70l90-20 50-30 50-50 20-70v-40l-20-80-30-20h-160v100"/><path d="m52720 40650h-500l500-290h-500"/><path d="m52720 40120h-500v-120l30-70 40-50 50-20 100-20h70l90 20 50 20 50 50 20 70z"/><path d="m52720 39620h-500v-190l30-50 20-20 50-20h70l50 20 20 20 20 50v190"/><path d="m52580 39150v-240"/><path d="m52720 39190-500-160 500-170"/><path d="m52720 38690h-500v-120l30-70 40-40 50-30 100-20h70l90 20 50 30 50 40 20 70z"/></g><g fill="#840000" fill-opacity="0" stroke="#840000" stroke-width="60" transform="translate(-39558.332 -32498.332)"><text font-size="660" lengthAdjust="spacingAndGlyphs" opacity="0" text-anchor="middle" textLength="540" transform="matrix(0 -1 1 0 10400 94400)" x="52400" y="42000">9</text><path d="m52370 42090v-90l-20-50-30-30-70-40-90-30h-190l-50 30-20 20-30 50v90l30 50 20 20 50 30h120l40-30 30-20 20-50v-90l-20-50-30-20-40-30"/></g><g fill="#008484" fill-opacity="0" stroke="#008484" stroke-width="60" transform="translate(-39558.332 -32498.332)"><text font-size="660" lengthAdjust="spacingAndGlyphs" opacity="0" text-anchor="middle" textLength="1010" x="52500" y="34100">U?</text><path d="m52140 33570v410l20 40 30 30 40 20h100l50-20 20-30 20-40v-410"/><path d="m52730 34020 30 30-30 20-20-20 20-30v50"/><path d="m52640 33600 50-30h110l50 30 30 40v50l-30 50-20 20-50 30-20 20-30 50v20"/><text font-size="660" lengthAdjust="spacingAndGlyphs" opacity="0" text-anchor="middle" textLength="4750" x="52500" y="35010">TPS5430DDA</text><path d="m50200 34480h280"/><path d="m50340 34980v-500"/><path d="m50650 34980v-500h190l50 30 20 20 30 50v70l-30 50-20 20-50 20h-190"/><path d="m51130 34960 70 20h120l40-20 30-30 20-40v-50l-20-50-30-20-40-30-100-20-50-20-20-30-20-50v-40l20-50 20-20 50-30h120l70 30"/><path d="m51860 34480h-230l-30 240 30-20 40-30h120l50 30 20 20 30 50v120l-30 40-20 30-50 20h-120l-40-20-30-30"/><path d="m52320 34650v330"/><path d="m52200 34460-120 350h310"/><path d="m52530 34480h310l-170 190h80l40 30 30 20 20 50v120l-20 40-30 30-40 20h-150l-50-20-20-30"/><path d="m53150 34480h50l50 30 20 20 20 50 30 90v120l-30 100-20 40-20 30-50 20h-50l-50-20-20-30-30-40-20-100v-120l20-90 30-50 20-20z"/><path d="m53530 34980v-500h120l70 30 50 40 20 50 30 100v70l-30 90-20 50-50 50-70 20z"/><path d="m54030 34980v-500h120l70 30 50 40 20 50 30 100v70l-30 90-20 50-50 50-70 20z"/><path d="m54510 34840h240"/><path d="m54460 34980 170-500 160 500"/></g></g></g><g fill="#008484" fill-opacity="0" stroke="#008484" stroke-width="0" transform="translate(-39558.332 -32498.332)"><g fill="none" stroke="#840000" stroke-width="200"><path d="m44200 38800h1600"/><path d="m44200 38200h1600"/></g><g stroke-width="60"><g fill="#840000" stroke="#840000"><path d="m45000 38100v-1100"/><path d="m45000 38900v1100"/></g><g fill="#008484" stroke="#008484"><text font-size="660" lengthAdjust="spacingAndGlyphs" opacity="0" text-anchor="middle" textLength="1040" x="46670" y="38310">C2</text><path d="m46580 38230-20 30-70 20h-50l-70-20-50-50-20-50-30-90v-70l30-100 20-50 50-40 70-30h50l70 30 20 20"/><path d="m46770 37830 30-20 40-30h120l50 30 20 20 30 50v40l-30 80-280 280h310"/><text font-size="660" lengthAdjust="spacingAndGlyphs" opacity="0" text-anchor="middle" textLength="2200" x="47250" y="39220">4.7µF</text><path d="m46510 38860v330"/><path d="m46390 38670-120 350h310"/><path d="m46770 39140 20 30-20 20-20-20 20-30v50"/><path d="m46960 38690h330l-210 500"/><path d="m47480 38860v500"/><path d="m47720 39120 30 50 40 20"/><path d="m47480 39120 30 50 40 20h100l50-20 20-50v-260"/><path d="m48170 38930h-160"/><path d="m48010 39190v-500h240"/></g></g></g><g fill="#008484" fill-opacity="0" stroke="#008484" stroke-width="0" transform="translate(-39558.332 -32498.332)"><g fill="#840000" stroke="#840000" stroke-width="200"><path d="m69300.3 41001a1280 1280 0 0 0 -1600.60000000001 0"/><path d="m67700 40200h1600" fill="none" stroke="#840000" stroke-linecap="round" stroke-linejoin="round" stroke-width="200"/></g><g stroke-width="60"><g fill="#840000" stroke="#840000"><path d="m67800 39600h400" fill="none" stroke="#840000" stroke-linecap="round" stroke-linejoin="round" stroke-width="60"/><path d="m68000 39800v-400" fill="none" stroke="#840000" stroke-linecap="round" stroke-linejoin="round" stroke-width="60"/><path d="m68500 40100v-1100"/><path d="m68500 40700v1300"/></g><g fill="#008484" stroke="#008484"><text font-size="660" lengthAdjust="spacingAndGlyphs" opacity="0" text-anchor="middle" textLength="1040" x="70170" y="40310">C4</text><path d="m70080 40230-20 30-70 20h-50l-70-20-50-50-20-50-30-90v-70l30-100 20-50 50-40 70-30h50l70 30 20 20"/><path d="m70510 39950v330"/><path d="m70390 39760-120 350h310"/><text font-size="660" lengthAdjust="spacingAndGlyphs" opacity="0" text-anchor="middle" textLength="2440" x="70870" y="41220">330µF</text><path d="m69750 40690h310l-170 190h70l50 30 20 20 30 50v120l-30 40-20 30-50 20h-140l-50-20-20-30"/><path d="m70220 40690h310l-160 190h70l40 30 30 20 20 50v120l-20 40-30 30-40 20h-150l-40-20-30-30"/><path d="m70840 40690h50l50 30 20 20 20 50 30 90v120l-30 100-20 40-20 30-50 20h-50l-50-20-20-30-20-40-30-100v-120l30-90 20-50 20-20z"/><path d="m71220 40860v500"/><path d="m71460 41120 20 50 50 20"/><path d="m71220 41120 30 50 40 20h100l50-20 20-50v-260"/><path d="m71910 40930h-160"/><path d="m71750 41190v-500h230"/></g></g></g><g fill="#008484" fill-opacity="0" stroke="#008484" stroke-width="60" transform="translate(-39558.332 -32498.332)"><path d="m52000 45000v500h500l-500 500-500-500h500" fill="none" stroke="#840000"/><g fill="#008484" fill-opacity="0" stroke="#008484"><text font-size="660" lengthAdjust="spacingAndGlyphs" opacity="0" text-anchor="middle" textLength="1580" x="52050" y="47000">GND</text><path d="m51660 46500-40-30h-70l-80 30-40 40-30 50-20 100v70l20 90 30 50 40 50 80 20h40l70-20 30-30v-160h-100"/><path d="m51900 46970v-500l290 500v-500"/><path d="m52430 46970v-500h120l70 30 40 40 30 50 20 100v70l-20 90-30 50-40 50-70 20z"/></g></g><g fill="#008484" fill-opacity="0" stroke="#008484" stroke-width="0" transform="translate(-39558.332 -32498.332)"><g fill="none" stroke="#840000" stroke-width="200"><path d="m71700 38800h1600"/><path d="m71700 38200h1600"/></g><g stroke-width="60"><g fill="#840000" stroke="#840000"><path d="m72500 38100v-1100"/><path d="m72500 38900v1100"/></g><g fill="#008484" stroke="#008484"><text font-size="660" lengthAdjust="spacingAndGlyphs" opacity="0" text-anchor="middle" textLength="1040" x="74170" y="38310">C5</text><path d="m74080 38230-20 30-70 20h-50l-70-20-50-50-20-50-30-90v-70l30-100 20-50 50-40 70-30h50l70 30 20 20"/><path d="m74530 37780h-230l-30 240 30-20 40-30h120l50 30 20 20 30 50v120l-30 40-20 30-50 20h-120l-40-20-30-30"/><text font-size="660" lengthAdjust="spacingAndGlyphs" opacity="0" text-anchor="middle" textLength="2370" x="74830" y="39220">100nF</text><path d="m74050 39190h-280"/><path d="m73910 39190v-500l-50 70-50 50-40 20"/><path d="m74360 38690h50l50 30 20 20 20 50 30 90v120l-30 100-20 40-20 30-50 20h-50l-50-20-20-30-20-40-30-100v-120l30-90 20-50 20-20z"/><path d="m74840 38690h40l50 30 30 20 20 50 20 90v120l-20 100-20 40-30 30-50 20h-40l-50-20-20-30-30-40-20-100v-120l20-90 30-50 20-20z"/><path d="m75220 38860v330"/><path d="m75220 38910 20-30 50-20h70l50 20 20 50v260"/><path d="m75840 38930h-170"/><path d="m75670 39190v-500h240"/></g></g></g><g fill="#008484" fill-opacity="0" stroke="#008484" stroke-width="60" transform="translate(-39558.332 -32498.332)"><g fill="none" stroke="#840000"><path d="m72200 35500 300-500"/><path d="m72500 36000v-1000"/><path d="m72500 35000 300 500"/></g><g fill="#008484" stroke="#008484"><text font-size="660" lengthAdjust="spacingAndGlyphs" opacity="0" text-anchor="middle" textLength="2300" x="72650" y="34540">+3.3V</text><path d="m71650 34320h380"/><path d="m71840 34510v-380"/><path d="m72220 34010h310l-170 190h70l50 30 20 20 30 50v120l-30 40-20 30-50 20h-140l-50-20-20-30"/><path d="m72740 34460 20 30-20 20-20-20 20-30v50"/><path d="m72930 34010h310l-170 190h80l40 30 30 20 20 50v120l-20 40-30 30-40 20h-150l-50-20-20-30"/><path d="m73380 34010 170 500 170-500"/></g></g><g fill="#008484" fill-opacity="0" stroke="#008484" stroke-width="60" transform="translate(-39558.332 -32498.332)"><g fill="#840000" stroke="#840000"><g fill="none" stroke="#840000" stroke-linecap="round" stroke-linejoin="round" stroke-width="60"><path d="m65500 39400v100"/><path d="m65500 37600v-100"/><path d="m65500 38800 400 150-400 150-400 150 400 150"/><path d="m65500 38200 400 150-400 150-400 150 400 150"/><path d="m65500 37600 400 150-400 150-400 150 400 150"/></g><path d="m65500 37500v-500"/><path d="m65500 39500v500"/></g><g fill="#008484" stroke="#008484"><text font-size="660" lengthAdjust="spacingAndGlyphs" opacity="0" text-anchor="middle" textLength="1040" x="66700" y="38310">R1</text><path d="m66610 38280-160-240"/><path d="m66330 38280v-500h190l40 30 30 20 20 50v70l-20 50-30 20-40 20h-190"/><path d="m67090 38280h-290"/><path d="m66950 38280v-500l-50 70-50 50-50 20"/><text font-size="660" lengthAdjust="spacingAndGlyphs" opacity="0" text-anchor="middle" textLength="1990" x="67170" y="39220">10kΩ</text><path d="m66580 39190h-280"/><path d="m66440 39190v-500l-50 70-50 50-40 20"/><path d="m66890 38690h50l50 30 20 20 20 50 30 90v120l-30 100-20 40-20 30-50 20h-50l-50-20-20-30-20-40-30-100v-120l30-90 20-50 20-20z"/><path d="m67270 39190v-500"/><path d="m67320 39000 140 190"/><path d="m67460 38860-190 190"/><path d="m67650 39190h120v-90l-50-30-40-50-30-70v-120l30-70 40-40 80-30h90l70 30 50 40 20 70v120l-20 70-50 50-40 30v90h110"/></g></g><g fill="#008484" fill-opacity="0" stroke="#008484" stroke-width="60" transform="translate(-39558.332 -32498.332)"><g fill="#840000" stroke="#840000"><g fill="none" stroke="#840000" stroke-linecap="round" stroke-linejoin="round" stroke-width="60"><path d="m65500 43400v100"/><path d="m65500 41600v-100"/><path d="m65500 42800 400 150-400 150-400 150 400 150"/><path d="m65500 42200 400 150-400 150-400 150 400 150"/><path d="m65500 41600 400 150-400 150-400 150 400 150"/></g><path d="m65500 41500v-500"/><path d="m65500 43500v500"/></g><g fill="#008484" stroke="#008484"><text font-size="660" lengthAdjust="spacingAndGlyphs" opacity="0" text-anchor="middle" textLength="1040" x="66700" y="42310">R2</text><path d="m66610 42280-160-240"/><path d="m66330 42280v-500h190l40 30 30 20 20 50v70l-20 50-30 20-40 20h-190"/><path d="m66800 41830 30-20 40-30h120l50 30 20 20 30 50v40l-30 80-280 280h310"/><text font-size="660" lengthAdjust="spacingAndGlyphs" opacity="0" text-anchor="middle" textLength="2230" x="67290" y="43220">5.9kΩ</text><path d="m66560 42690h-240l-20 240 20-20 50-30h120l50 30 20 20 20 50v120l-20 40-20 30-50 20h-120l-50-20-20-30"/><path d="m66800 43140 20 30-20 20-30-20 30-30v50"/><path d="m67060 43190h90l50-20 30-30 40-70 30-90v-190l-30-50-20-20-50-30h-90l-50 30-20 20-30 50v120l30 40 20 30 50 20h90l50-20 20-30 30-40"/><path d="m67510 43190v-500"/><path d="m67560 43000 140 190"/><path d="m67700 42860-190 190"/><path d="m67890 43190h120v-90l-50-30-40-50-30-70v-120l30-70 40-40 80-30h90l70 30 50 40 20 70v120l-20 70-50 50-50 30v90h120"/></g></g><g fill="#008484" fill-opacity="0" stroke="#008484" stroke-width="60" transform="translate(-39558.332 -32498.332)"><g fill="#840000" stroke="#840000"><path d="m64500 36499.6a250 250 0 0 0 -500 0"/><path d="m64000 36499.6a250 250 0 0 0 -500 0"/><path d="m63500 36499.6a250 250 0 0 0 -500 0"/><path d="m63000 36499.6a250 250 0 0 0 -500 0"/><path d="m62500 36500h-500"/><path d="m64500 36500h500"/></g><g fill="#008484" stroke="#008484"><text font-size="660" lengthAdjust="spacingAndGlyphs" opacity="0" text-anchor="middle" textLength="940" x="63500" y="34820">L1</text><path d="m63410 34790h-240v-500"/><path d="m63840 34790h-290"/><path d="m63700 34790v-500l-50 70-50 50-50 20"/><text font-size="660" lengthAdjust="spacingAndGlyphs" opacity="0" text-anchor="middle" textLength="2060" x="63500" y="35730">10µH</text><path d="m62880 35700h-290"/><path d="m62730 35700v-500l-40 70-50 50-50 20"/><path d="m63190 35200h40l50 30 20 20 30 50 20 90v120l-20 100-30 40-20 30-50 20h-40l-50-20-30-30-20-40-20-100v-120l20-90 20-50 30-20z"/><path d="m63570 35370v500"/><path d="m63800 35630 30 50 50 20"/><path d="m63570 35630 20 50 50 20h90l50-20 20-50v-260"/><path d="m64090 35700v-500"/><path d="m64090 35440h290"/><path d="m64380 35700v-500"/></g></g><g fill="#008484" fill-opacity="0" stroke="#008484" stroke-width="0" transform="translate(-39558.332 -32498.332)"><g stroke="#840000"><path d="m61500 43000v-1000" fill="none" stroke-width="60"/><g fill="none" fill-opacity="0" stroke-width="80"><path d="m62000 43000h-1000l500-1000z"/><path d="m61750 41750h250v250h-1000v250h250"/></g><g fill="#840000" fill-opacity="0" stroke-width="60"><path d="m61500 42000v-1000"/><path d="m61500 43000v1000"/></g></g><g fill="#008484" fill-opacity="0" stroke="#008484" stroke-width="60"><text font-size="660" lengthAdjust="spacingAndGlyphs" opacity="0" text-anchor="middle" textLength="1040" x="62810" y="42310">D1</text><path d="m62440 42280v-500h120l70 30 40 40 30 50 20 100v70l-20 90-30 50-40 50-70 20z"/><path d="m63200 42280h-290"/><path d="m63060 42280v-500l-50 70-50 50-50 20"/><text font-size="660" lengthAdjust="spacingAndGlyphs" opacity="0" text-anchor="middle" textLength="1960" x="63270" y="43220">SS34</text><path d="m62410 43170 70 20h120l50-20 20-30 20-40v-50l-20-50-20-20-50-30-100-20-40-20-30-30-20-50v-40l20-50 30-20 40-30h120l70 30"/><path d="m62880 43170 80 20h110l50-20 30-30 20-40v-50l-20-50-30-20-50-30-90-20-50-20-20-30-30-50v-40l30-50 20-20 50-30h120l70 30"/><path d="m63340 42690h310l-170 190h70l50 30 20 20 30 50v120l-30 40-20 30-50 20h-140l-50-20-20-30"/><path d="m64070 42860v330"/><path d="m63960 42670-120 350h310"/></g></g><g fill="#008484" fill-opacity="0" stroke="#008484" stroke-width="0" transform="translate(-39558.332 -32498.332)"><g fill="none" stroke="#840000" stroke-width="200"><path d="m59200 35700v1600"/><path d="m59800 35700v1600"/></g><g stroke-width="60"><g fill="#840000" stroke="#840000"><path d="m59900 36500h1100"/><path d="m59100 36500h-1100"/></g><g fill="#008484" stroke="#008484"><text font-size="660" lengthAdjust="spacingAndGlyphs" opacity="0" text-anchor="middle" textLength="1040" x="59500" y="34250">C3</text><path d="m59410 34170-20 30-70 20h-50l-70-20-50-50-20-50-30-90v-70l30-100 20-50 50-40 70-30h50l70 30 20 20"/><path d="m59580 33720h310l-170 190h70l50 30 20 20 30 50v120l-30 40-20 30-50 20h-140l-50-20-20-30"/><text font-size="660" lengthAdjust="spacingAndGlyphs" opacity="0" text-anchor="middle" textLength="1890" x="59500" y="35160">10nF</text><path d="m58960 35130h-290"/><path d="m58820 35130v-500l-50 70-50 50-50 20"/><path d="m59270 34630h50l40 30 30 20 20 50 30 90v120l-30 100-20 40-30 30-40 20h-50l-50-20-20-30-30-40-20-100v-120l20-90 30-50 20-20z"/><path d="m59650 34800v330"/><path d="m59650 34850 20-30 50-20h70l50 20 20 50v260"/><path d="m60270 34870h-170"/><path d="m60100 35130v-500h240"/></g></g></g><g fill="#008484" fill-opacity="0" stroke="#008484" stroke-width="60" transform="translate(-39558.332 -32498.332)"><g fill="none" stroke="#840000"><path d="m41200 35500 300-500"/><path d="m41500 36000v-1000"/><path d="m41500 35000 300 500"/></g><g fill="#008484" stroke="#008484"><text font-size="660" lengthAdjust="spacingAndGlyphs" opacity="0" text-anchor="middle" textLength="2060" x="41650" y="34540">+12V</text><path d="m40760 34320h390"/><path d="m40950 34510v-380"/><path d="m41650 34510h-290"/><path d="m41500 34510v-500l-50 70-40 50-50 20"/><path d="m41840 34060 20-20 50-30h120l40 30 30 20 20 50v40l-20 80-290 280h310"/><path d="m42260 34010 170 500 170-500"/></g></g><g fill="#008484" fill-opacity="0" stroke="#008484" stroke-width="0" transform="translate(-39558.332 -32498.332)"><g fill="none" stroke="#840000" stroke-width="200"><path d="m40700 40300h1600"/><path d="m40700 39700h1600"/></g><g stroke-width="60"><g fill="#840000" stroke="#840000"><path d="m41500 39600v-1100"/><path d="m41500 40400v1100"/></g><g fill="#008484" stroke="#008484"><text font-size="660" lengthAdjust="spacingAndGlyphs" opacity="0" text-anchor="middle" textLength="1040" x="43170" y="39810">C1</text><path d="m43080 39730-20 30-70 20h-50l-70-20-50-50-20-50-30-90v-70l30-100 20-50 50-40 70-30h50l70 30 20 20"/><path d="m43560 39780h-290"/><path d="m43420 39780v-500l-50 70-50 50-50 20"/><text font-size="660" lengthAdjust="spacingAndGlyphs" opacity="0" text-anchor="middle" textLength="1960" x="43630" y="40720">22µF</text><path d="m42770 40240 20-20 50-30h120l50 30 20 20 20 50v40l-20 80-290 280h310"/><path d="m43240 40240 30-20 50-30h110l50 30 30 20 20 50v40l-20 80-290 280h310"/><path d="m43740 40360v500"/><path d="m43980 40620 30 50 40 20"/><path d="m43740 40620 30 50 50 20h90l50-20 20-50v-260"/><path d="m44430 40430h-160"/><path d="m44270 40690v-500h240"/></g></g></g><g fill="#008400" stroke="#008400"><g fill-opacity="0" stroke-width="60" transform="translate(-39558.332 -32498.332)"><path d="m45000 36500h-3500"/><path d="m61500 38500v2500"/><path d="m41500 36000v500"/><path d="m41500 36500v2000"/><path d="m41500 44500h3500"/><path d="m45000 36500h2500"/><path d="m58000 36500h-500"/><path d="m57500 38500h4000"/><path d="m61500 38500v-2000"/><path d="m61500 36500h-500"/><path d="m68500 36500h4000"/><path d="m68500 44500h4000"/><path d="m61500 44500h-9000"/><path d="m72500 40000v4500"/><path d="m51500 44500h-6500"/><path d="m62000 36500h-500"/><path d="m68500 44500h-3000"/><path d="m52000 44500h500"/><path d="m57500 40500h8000"/><path d="m65500 40500v500"/><path d="m68500 42000v2500"/><path d="m65000 36500h500"/><path d="m65500 36500v500"/><path d="m65500 40000v500"/><path d="m68500 36500v2500"/><path d="m61500 44000v500"/><path d="m52500 42500v2000"/><path d="m51500 42500v2000"/><path d="m45000 40000v4500"/><path d="m41500 41500v3000"/><path d="m61500 44500h4000"/><path d="m65500 44500v-500"/><path d="m72500 36500v500"/><path d="m52000 44500v500"/><path d="m51500 44500h500"/><path d="m45000 36500v500"/><path d="m72500 36000v500"/><path d="m65500 36500h3000"/></g><circle cx="25941.668" cy="4001.668" r="200" stroke-width="100"/><circle cx="32941.668" cy="4001.668" r="200" stroke-width="100"/><circle cx="21941.668" cy="12001.668" r="200" stroke-width="100"/><circle cx="25941.668" cy="8001.668" r="200" stroke-width="100"/><circle cx="12441.668" cy="12001.668" r="200" stroke-width="100"/><circle cx="21941.668" cy="4001.668" r="200" stroke-width="100"/><circle cx="25941.668" cy="12001.668" r="200" stroke-width="100"/><circle cx="12941.668" cy="12001.668" r="200" stroke-width="100"/><circle cx="21941.668" cy="6001.668" r="200" stroke-width="100"/><circle cx="28941.668" cy="12001.668" r="200" stroke-width="100"/><circle cx="11941.668" cy="12001.668" r="200" stroke-width="100"/><circle cx="28941.668" cy="4001.668" r="200" stroke-width="100"/><circle cx="1941.668" cy="4001.668" r="200" stroke-width="100"/><circle cx="5441.668" cy="12001.668" r="200" stroke-width="100"/><circle cx="5441.668" cy="4001.668" r="200" stroke-width="100"/></g><g fill="#000084" fill-opacity="0" stroke="#000084" stroke-width="60" transform="translate(-39558.332 -32498.332)"><path d="m61260 40260 480 480"/><path d="m61740 40260-480 480"/></g></g></svg>