<svg height="279.7695" viewBox="0 0 21863.333 29142.684" width="209.88785" xmlns="http://www.w3.org/2000/svg"><g stroke-linecap="round" stroke-linejoin="round"><g fill="#840000" fill-opacity="0" stroke="#840000" stroke-width="60" transform="translate(-34428.332 -26938.332)"><g fill="none" stroke="#840000" stroke-linecap="round" stroke-linejoin="round" stroke-width="60"><path d="m36600 36000h-100"/><path d="m38400 36000h100"/><path d="m37200 36000-150 400-150-400-150-400-150 400"/><path d="m37800 36000-150 400-150-400-150-400-150 400"/><path d="m38400 36000-150 400-150-400-150-400-150 400"/></g><path d="m38500 36000h500"/><path d="m36500 36000h-500"/></g><g fill="#840000" fill-opacity="0" stroke="#840000" stroke-width="60" transform="translate(-34428.332 -26938.332)"><path d="m45000 53000v500h500l-500 500-500-500h500" fill="none" stroke="#840000"/><g fill="#008484" fill-opacity="0" stroke="#008484"><text font-size="660" lengthAdjust="spacingAndGlyphs" opacity="0" text-anchor="middle" textLength="1580" x="45050" y="55000">GND</text><path d="m44660 54500-40-30h-70l-80 30-40 40-30 50-20 100v70l20 90 30 50 40 50 80 20h40l70-20 30-30v-160h-100"/><path d="m44900 54970v-500l290 500v-500"/><path d="m45430 54970v-500h120l70 30 40 40 30 50 20 100v70l-20 90-30 50-40 50-70 20z"/></g></g><g fill="#008484" fill-opacity="0" stroke="#840000" stroke-width="0"><circle cx="18071.668" cy="6561.668" fill="none" r="1110" stroke-width="100"/><g transform="translate(-34428.332 -26938.332)"><g fill="none" fill-opacity="0" stroke-width="60"><path d="m53000 32250v-250"/><path d="m53500 32500v-250"/><path d="m52750 33250 750 750"/><path d="m53750 31500-750 750h250"/><path d="m54250 31750-750 750h250"/><path d="m52250 33250-750 750"/></g><path d="m53250 33250h-1500" fill="none" stroke-width="200"/><path d="m51800 33500 200 200-400 200z" fill="#840000" fill-opacity="1" fill-rule="evenodd" stroke-width="60"/><g fill="#840000" fill-opacity="0" stroke-width="60"><path d="m53500 34000h1000"/><text font-size="660" lengthAdjust="spacingAndGlyphs" opacity="0" text-anchor="middle" textLength="540" x="54000" y="34600">1</text><path d="m54140 34570h-290"/><path d="m54000 34570v-500l-50 70-50 50-50 20"/><path d="m51500 34000h-1000"/><text font-size="660" lengthAdjust="spacingAndGlyphs" opacity="0" text-anchor="middle" textLength="540" x="51000" y="34600">2</text><path d="m50850 34120 30-20 40-30h120l50 30 20 20 30 50v40l-30 80-280 280h310"/></g></g></g><g fill="#840000" fill-opacity="0" stroke="#840000" stroke-width="0"><path d="m7071.668 5561.668h7000v18000h-7000z" fill="#ffffc2" fill-opacity=".6" stroke="none"/><g stroke-linecap="round" stroke-linejoin="round"><g fill="#840000" fill-opacity="0" stroke="#840000" stroke-width="100"><path d="m7071.668 5561.668h7000v18000h-7000z"/><path d="m7071.668 5561.668h7000v18000h-7000z"/></g><path d="m41500 36000h-1500" fill="none" stroke="#840000" stroke-width="60" transform="translate(-34428.332 -26938.332)"/><g fill="#008484" fill-opacity="0" stroke="#008484" stroke-width="60" transform="translate(-34428.332 -26938.332)"><text font-size="660" lengthAdjust="spacingAndGlyphs" opacity="0" textLength="1660" x="41700" y="36250">COM</text><path d="m42130 36170-20 30-80 20h-40l-70-20-50-50-30-50-20-90v-70l20-100 30-50 50-40 70-30h40l80 30 20 20"/><path d="m42440 35720h90l50 30 50 40 20 100v160l-20 100-50 50-50 20h-90l-50-20-50-50-20-100v-160l20-100 50-40z"/><path d="m42870 36220v-500l160 360 170-360v500"/></g><g fill="#840000" fill-opacity="0" stroke="#840000" stroke-width="60" transform="translate(-34428.332 -26938.332)"><text font-size="660" lengthAdjust="spacingAndGlyphs" opacity="0" text-anchor="middle" textLength="540" x="40750" y="35900">1</text><path d="m40890 35870h-290"/><path d="m40750 35870v-500l-50 70-50 50-50 20"/><path d="m41500 40000h-1500"/></g><g fill="#008484" fill-opacity="0" stroke="#008484" stroke-width="60" transform="translate(-34428.332 -26938.332)"><text font-size="660" lengthAdjust="spacingAndGlyphs" opacity="0" textLength="1010" x="41700" y="40250">S0</text><path d="m41820 40200 70 20h120l50-20 20-30 30-40v-50l-30-50-20-20-50-30-90-20-50-20-30-30-20-50v-40l20-50 30-20 50-30h110l80 30"/><path d="m42420 39720h40l50 30 20 20 30 50 20 90v120l-20 100-30 40-20 30-50 20h-40l-50-20-30-30-20-40-20-100v-120l20-90 20-50 30-20z"/></g><g fill="#840000" fill-opacity="0" stroke="#840000" stroke-width="60" transform="translate(-34428.332 -26938.332)"><text font-size="660" lengthAdjust="spacingAndGlyphs" opacity="0" text-anchor="middle" textLength="1010" x="40750" y="39900">10</text><path d="m40650 39870h-290"/><path d="m40510 39870v-500l-50 70-50 50-50 20"/><path d="m40960 39370h50l40 30 30 20 20 50 30 90v120l-30 100-20 40-30 30-40 20h-50l-50-20-20-30-30-40-20-100v-120l20-90 30-50 20-20z"/><path d="m41500 41000h-1500"/></g><g fill="#008484" fill-opacity="0" stroke="#008484" stroke-width="60" transform="translate(-34428.332 -26938.332)"><text font-size="660" lengthAdjust="spacingAndGlyphs" opacity="0" textLength="1010" x="41700" y="41250">S1</text><path d="m41820 41200 70 20h120l50-20 20-30 30-40v-50l-30-50-20-20-50-30-90-20-50-20-30-30-20-50v-40l20-50 30-20 50-30h110l80 30"/><path d="m42580 41220h-280"/><path d="m42440 41220v-500l-50 70-50 50-40 20"/></g><g fill="#840000" fill-opacity="0" stroke="#840000" stroke-width="60" transform="translate(-34428.332 -26938.332)"><text font-size="660" lengthAdjust="spacingAndGlyphs" opacity="0" text-anchor="middle" textLength="1010" x="40750" y="40900">11</text><path d="m40650 40870h-290"/><path d="m40510 40870v-500l-50 70-50 50-50 20"/><path d="m41130 40870h-290"/><path d="m40980 40870v-500l-40 70-50 50-50 20"/><path d="m45000 50500v1500"/></g><g fill="#008484" fill-opacity="0" stroke="#008484" stroke-width="60" transform="translate(-34428.332 -26938.332)"><text font-size="660" lengthAdjust="spacingAndGlyphs" opacity="0" textLength="1580" transform="matrix(0 -1 1 0 -5300 95300)" x="45000" y="50550">GND</text><path d="m44750 49880-30 50v70l30 70 40 50 50 30 100 20h70l90-20 50-30 50-50 20-70v-40l-20-80-30-20h-160v100"/><path d="m45220 49650h-500l500-290h-500"/><path d="m45220 49120h-500v-120l30-70 40-50 50-20 100-20h70l90 20 50 20 50 50 20 70z"/></g><g fill="#840000" fill-opacity="0" stroke="#840000" stroke-width="60" transform="translate(-34428.332 -26938.332)"><text font-size="660" lengthAdjust="spacingAndGlyphs" opacity="0" text-anchor="middle" textLength="1010" transform="matrix(0 -1 1 0 -6350 96150)" x="44900" y="51250">12</text><path d="m44870 51340v290"/><path d="m44870 51480h-500l70 50 50 50 20 50"/><path d="m44420 51150-20-20-30-50v-120l30-50 20-20 50-30h40l80 30 280 280v-310"/><path d="m41500 43000h-1500"/></g><g fill="#008484" fill-opacity="0" stroke="#008484" stroke-width="60" transform="translate(-34428.332 -26938.332)"><text font-size="660" lengthAdjust="spacingAndGlyphs" opacity="0" textLength="1010" x="41700" y="43250">S3</text><path d="m41820 43200 70 20h120l50-20 20-30 30-40v-50l-30-50-20-20-50-30-90-20-50-20-30-30-20-50v-40l20-50 30-20 50-30h110l80 30"/><path d="m42270 42720h310l-160 190h70l40 30 30 20 20 50v120l-20 40-30 30-40 20h-150l-40-20-30-30"/></g><g fill="#840000" fill-opacity="0" stroke="#840000" stroke-width="60" transform="translate(-34428.332 -26938.332)"><text font-size="660" lengthAdjust="spacingAndGlyphs" opacity="0" text-anchor="middle" textLength="1010" x="40750" y="42900">13</text><path d="m40650 42870h-290"/><path d="m40510 42870v-500l-50 70-50 50-50 20"/><path d="m40820 42370h310l-170 190h70l50 30 20 20 30 50v120l-30 40-20 30-50 20h-140l-50-20-20-30"/><path d="m41500 42000h-1500"/></g><g fill="#008484" fill-opacity="0" stroke="#008484" stroke-width="60" transform="translate(-34428.332 -26938.332)"><text font-size="660" lengthAdjust="spacingAndGlyphs" opacity="0" textLength="1010" x="41700" y="42250">S2</text><path d="m41820 42200 70 20h120l50-20 20-30 30-40v-50l-30-50-20-20-50-30-90-20-50-20-30-30-20-50v-40l20-50 30-20 50-30h110l80 30"/><path d="m42300 41770 20-20 50-30h120l40 30 30 20 20 50v40l-20 80-290 280h310"/></g><g fill="#840000" fill-opacity="0" stroke="#840000" stroke-width="60" transform="translate(-34428.332 -26938.332)"><text font-size="660" lengthAdjust="spacingAndGlyphs" opacity="0" text-anchor="middle" textLength="1010" x="40750" y="41900">14</text><path d="m40650 41870h-290"/><path d="m40510 41870v-500l-50 70-50 50-50 20"/><path d="m41080 41540v330"/><path d="m40960 41350-120 350h310"/><path d="m41500 47000h-1500"/></g><g fill="#008484" fill-opacity="0" stroke="#008484" stroke-width="60" transform="translate(-34428.332 -26938.332)"><text font-size="660" lengthAdjust="spacingAndGlyphs" opacity="0" textLength="510" x="41700" y="47250">~E</text><path d="m41730 46580h450"/><path d="m41840 46960h170"/><path d="m42080 47220h-240v-500h240"/></g><g fill="#840000" fill-opacity="0" stroke="#840000" stroke-width="60" transform="translate(-34428.332 -26938.332)"><text font-size="660" lengthAdjust="spacingAndGlyphs" opacity="0" text-anchor="middle" textLength="1010" x="40750" y="46900">15</text><path d="m40650 46870h-290"/><path d="m40510 46870v-500l-50 70-50 50-50 20"/><path d="m41100 46370h-240l-20 240 20-20 50-30h120l50 30 20 20 30 50v120l-30 40-20 30-50 20h-120l-50-20-20-30"/><path d="m48500 49000h1500"/></g><g fill="#008484" fill-opacity="0" stroke="#008484" stroke-width="60" transform="translate(-34428.332 -26938.332)"><text font-size="660" lengthAdjust="spacingAndGlyphs" opacity="0" text-anchor="end" textLength="1250" x="48300" y="49250">I15</text><path d="m47190 49220v-500"/><path d="m47690 49220h-280"/><path d="m47550 49220v-500l-50 70-40 50-50 20"/><path d="m48150 48720h-240l-30 240 30-20 50-30h110l50 30 30 20 20 50v120l-20 40-30 30-50 20h-110l-50-20-30-30"/></g><g fill="#840000" fill-opacity="0" stroke="#840000" stroke-width="60" transform="translate(-34428.332 -26938.332)"><text font-size="660" lengthAdjust="spacingAndGlyphs" opacity="0" text-anchor="middle" textLength="1010" x="49250" y="48900">16</text><path d="m49150 48870h-290"/><path d="m49010 48870v-500l-50 70-50 50-50 20"/><path d="m49580 48370h-100l-40 30-30 20-50 70-20 100v190l20 40 30 30 50 20h90l50-20 20-30 30-40v-120l-30-50-20-20-50-30h-90l-50 30-30 20-20 50"/><path d="m48500 48000h1500"/></g><g fill="#008484" fill-opacity="0" stroke="#008484" stroke-width="60" transform="translate(-34428.332 -26938.332)"><text font-size="660" lengthAdjust="spacingAndGlyphs" opacity="0" text-anchor="end" textLength="1250" x="48300" y="48250">I14</text><path d="m47190 48220v-500"/><path d="m47690 48220h-280"/><path d="m47550 48220v-500l-50 70-40 50-50 20"/><path d="m48120 47890v330"/><path d="m48000 47700-120 350h310"/></g><g fill="#840000" fill-opacity="0" stroke="#840000" stroke-width="60" transform="translate(-34428.332 -26938.332)"><text font-size="660" lengthAdjust="spacingAndGlyphs" opacity="0" text-anchor="middle" textLength="1010" x="49250" y="47900">17</text><path d="m49150 47870h-290"/><path d="m49010 47870v-500l-50 70-50 50-50 20"/><path d="m49320 47370h330l-210 500"/><path d="m48500 47000h1500"/></g><g fill="#008484" fill-opacity="0" stroke="#008484" stroke-width="60" transform="translate(-34428.332 -26938.332)"><text font-size="660" lengthAdjust="spacingAndGlyphs" opacity="0" text-anchor="end" textLength="1250" x="48300" y="47250">I13</text><path d="m47190 47220v-500"/><path d="m47690 47220h-280"/><path d="m47550 47220v-500l-50 70-40 50-50 20"/><path d="m47860 46720h310l-170 190h70l50 30 30 20 20 50v120l-20 40-30 30-50 20h-140l-50-20-20-30"/></g><g fill="#840000" fill-opacity="0" stroke="#840000" stroke-width="60" transform="translate(-34428.332 -26938.332)"><text font-size="660" lengthAdjust="spacingAndGlyphs" opacity="0" text-anchor="middle" textLength="1010" x="49250" y="46900">18</text><path d="m49150 46870h-290"/><path d="m49010 46870v-500l-50 70-50 50-50 20"/><path d="m49440 46590-50-30-30-20-20-50v-20l20-50 30-20 50-30h90l50 30 20 20 30 50v20l-30 50-20 20-50 30h-90l-50 20-30 20-20 50v100l20 40 30 30 50 20h90l50-20 20-30 30-40v-100l-30-50-20-20-50-20"/><path d="m48500 46000h1500"/></g><g fill="#008484" fill-opacity="0" stroke="#008484" stroke-width="60" transform="translate(-34428.332 -26938.332)"><text font-size="660" lengthAdjust="spacingAndGlyphs" opacity="0" text-anchor="end" textLength="1250" x="48300" y="46250">I12</text><path d="m47190 46220v-500"/><path d="m47690 46220h-280"/><path d="m47550 46220v-500l-50 70-40 50-50 20"/><path d="m47880 45770 30-20 50-30h110l50 30 30 20 20 50v40l-20 80-290 280h310"/></g><g fill="#840000" fill-opacity="0" stroke="#840000" stroke-width="60" transform="translate(-34428.332 -26938.332)"><text font-size="660" lengthAdjust="spacingAndGlyphs" opacity="0" text-anchor="middle" textLength="1010" x="49250" y="45900">19</text><path d="m49150 45870h-290"/><path d="m49010 45870v-500l-50 70-50 50-50 20"/><path d="m49390 45870h90l50-20 20-30 50-70 30-90v-190l-30-50-20-20-50-30h-90l-50 30-30 20-20 50v120l20 40 30 30 50 20h90l50-20 20-30 30-40"/><path d="m48500 41000h1500"/></g><g fill="#008484" fill-opacity="0" stroke="#008484" stroke-width="60" transform="translate(-34428.332 -26938.332)"><text font-size="660" lengthAdjust="spacingAndGlyphs" opacity="0" text-anchor="end" textLength="770" x="48300" y="41250">I7</text><path d="m47670 41220v-500"/><path d="m47860 40720h330l-210 500"/></g><g fill="#840000" fill-opacity="0" stroke="#840000" stroke-width="60" transform="translate(-34428.332 -26938.332)"><text font-size="660" lengthAdjust="spacingAndGlyphs" opacity="0" text-anchor="middle" textLength="540" x="49250" y="40900">2</text><path d="m49100 40420 30-20 40-30h120l50 30 20 20 30 50v40l-30 80-280 280h310"/><path d="m48500 45000h1500"/></g><g fill="#008484" fill-opacity="0" stroke="#008484" stroke-width="60" transform="translate(-34428.332 -26938.332)"><text font-size="660" lengthAdjust="spacingAndGlyphs" opacity="0" text-anchor="end" textLength="1250" x="48300" y="45250">I11</text><path d="m47190 45220v-500"/><path d="m47690 45220h-280"/><path d="m47550 45220v-500l-50 70-40 50-50 20"/><path d="m48170 45220h-290"/><path d="m48030 45220v-500l-50 70-50 50-50 20"/></g><g fill="#840000" fill-opacity="0" stroke="#840000" stroke-width="60" transform="translate(-34428.332 -26938.332)"><text font-size="660" lengthAdjust="spacingAndGlyphs" opacity="0" text-anchor="middle" textLength="1010" x="49250" y="44900">20</text><path d="m48860 44420 30-20 50-30h110l50 30 30 20 20 50v40l-20 80-290 280h310"/><path d="m49460 44370h50l40 30 30 20 20 50 30 90v120l-30 100-20 40-30 30-40 20h-50l-50-20-20-30-30-40-20-100v-120l20-90 30-50 20-20z"/><path d="m48500 44000h1500"/></g><g fill="#008484" fill-opacity="0" stroke="#008484" stroke-width="60" transform="translate(-34428.332 -26938.332)"><text font-size="660" lengthAdjust="spacingAndGlyphs" opacity="0" text-anchor="end" textLength="1250" x="48300" y="44250">I10</text><path d="m47190 44220v-500"/><path d="m47690 44220h-280"/><path d="m47550 44220v-500l-50 70-40 50-50 20"/><path d="m48000 43720h50l50 30 20 20 30 50 20 90v120l-20 100-30 40-20 30-50 20h-50l-40-20-30-30-20-40-30-100v-120l30-90 20-50 30-20z"/></g><g fill="#840000" fill-opacity="0" stroke="#840000" stroke-width="60" transform="translate(-34428.332 -26938.332)"><text font-size="660" lengthAdjust="spacingAndGlyphs" opacity="0" text-anchor="middle" textLength="1010" x="49250" y="43900">21</text><path d="m48860 43420 30-20 50-30h110l50 30 30 20 20 50v40l-20 80-290 280h310"/><path d="m49630 43870h-290"/><path d="m49480 43870v-500l-40 70-50 50-50 20"/><path d="m48500 43000h1500"/></g><g fill="#008484" fill-opacity="0" stroke="#008484" stroke-width="60" transform="translate(-34428.332 -26938.332)"><text font-size="660" lengthAdjust="spacingAndGlyphs" opacity="0" text-anchor="end" textLength="770" x="48300" y="43250">I9</text><path d="m47670 43220v-500"/><path d="m47930 43220h100l40-20 30-30 50-70 20-90v-190l-20-50-30-20-50-30h-90l-50 30-20 20-30 50v120l30 40 20 30 50 20h90l50-20 30-30 20-40"/></g><g fill="#840000" fill-opacity="0" stroke="#840000" stroke-width="60" transform="translate(-34428.332 -26938.332)"><text font-size="660" lengthAdjust="spacingAndGlyphs" opacity="0" text-anchor="middle" textLength="1010" x="49250" y="42900">22</text><path d="m48860 42420 30-20 50-30h110l50 30 30 20 20 50v40l-20 80-290 280h310"/><path d="m49340 42420 20-20 50-30h120l50 30 20 20 30 50v40l-30 80-280 280h310"/><path d="m48500 42000h1500"/></g><g fill="#008484" fill-opacity="0" stroke="#008484" stroke-width="60" transform="translate(-34428.332 -26938.332)"><text font-size="660" lengthAdjust="spacingAndGlyphs" opacity="0" text-anchor="end" textLength="770" x="48300" y="42250">I8</text><path d="m47670 42220v-500"/><path d="m47980 41940-50-30-20-20-30-50v-20l30-50 20-20 50-30h90l50 30 30 20 20 50v20l-20 50-30 20-50 30h-90l-50 20-20 20-30 50v100l30 40 20 30 50 20h90l50-20 30-30 20-40v-100l-20-50-30-20-50-20"/></g><g fill="#840000" fill-opacity="0" stroke="#840000" stroke-width="60" transform="translate(-34428.332 -26938.332)"><text font-size="660" lengthAdjust="spacingAndGlyphs" opacity="0" text-anchor="middle" textLength="1010" x="49250" y="41900">23</text><path d="m48860 41420 30-20 50-30h110l50 30 30 20 20 50v40l-20 80-290 280h310"/><path d="m49320 41370h310l-170 190h70l50 30 20 20 30 50v120l-30 40-20 30-50 20h-140l-50-20-20-30"/><path d="m45000 32500v-1500"/></g><g fill="#008484" fill-opacity="0" stroke="#008484" stroke-width="60" transform="translate(-34428.332 -26938.332)"><text font-size="660" lengthAdjust="spacingAndGlyphs" opacity="0" text-anchor="end" textLength="1490" transform="matrix(0 -1 1 0 12300 77700)" x="45000" y="32950">VCC</text><path d="m44720 34110 500-170-500-170"/><path d="m45170 33320 30 20 20 80v40l-20 70-50 50-50 30-90 20h-70l-100-20-50-30-40-50-30-70v-40l30-80 20-20"/><path d="m45170 32820 30 20 20 80v40l-20 70-50 50-50 30-90 20h-70l-100-20-50-30-40-50-30-70v-40l30-80 20-20"/></g><g fill="#840000" fill-opacity="0" stroke="#840000" stroke-width="60" transform="translate(-34428.332 -26938.332)"><text font-size="660" lengthAdjust="spacingAndGlyphs" opacity="0" text-anchor="middle" textLength="1010" transform="matrix(0 -1 1 0 13150 76650)" x="44900" y="31750">24</text><path d="m44420 32130-20-30-30-50v-110l30-50 20-30 50-20h40l80 20 280 290v-310"/><path d="m44540 31410h330"/><path d="m44350 31530 350 120v-310"/><path d="m48500 40000h1500"/></g><g fill="#008484" fill-opacity="0" stroke="#008484" stroke-width="60" transform="translate(-34428.332 -26938.332)"><text font-size="660" lengthAdjust="spacingAndGlyphs" opacity="0" text-anchor="end" textLength="770" x="48300" y="40250">I6</text><path d="m47670 40220v-500"/><path d="m48120 39720h-90l-50 30-20 20-50 70-30 100v190l30 40 20 30 50 20h90l50-20 30-30 20-40v-120l-20-50-30-20-50-30h-90l-50 30-20 20-30 50"/></g><g fill="#840000" fill-opacity="0" stroke="#840000" stroke-width="60" transform="translate(-34428.332 -26938.332)"><text font-size="660" lengthAdjust="spacingAndGlyphs" opacity="0" text-anchor="middle" textLength="540" x="49250" y="39900">3</text><path d="m49080 39370h310l-170 190h70l50 30 20 20 30 50v120l-30 40-20 30-50 20h-140l-50-20-20-30"/><path d="m48500 39000h1500"/></g><g fill="#008484" fill-opacity="0" stroke="#008484" stroke-width="60" transform="translate(-34428.332 -26938.332)"><text font-size="660" lengthAdjust="spacingAndGlyphs" opacity="0" text-anchor="end" textLength="770" x="48300" y="39250">I5</text><path d="m47670 39220v-500"/><path d="m48150 38720h-240l-30 240 30-20 50-30h110l50 30 30 20 20 50v120l-20 40-30 30-50 20h-110l-50-20-30-30"/></g><g fill="#840000" fill-opacity="0" stroke="#840000" stroke-width="60" transform="translate(-34428.332 -26938.332)"><text font-size="660" lengthAdjust="spacingAndGlyphs" opacity="0" text-anchor="middle" textLength="540" x="49250" y="38900">4</text><path d="m49340 38540v330"/><path d="m49220 38350-120 350h310"/><path d="m48500 38000h1500"/></g><g fill="#008484" fill-opacity="0" stroke="#008484" stroke-width="60" transform="translate(-34428.332 -26938.332)"><text font-size="660" lengthAdjust="spacingAndGlyphs" opacity="0" text-anchor="end" textLength="770" x="48300" y="38250">I4</text><path d="m47670 38220v-500"/><path d="m48120 37890v330"/><path d="m48000 37700-120 350h310"/></g><g fill="#840000" fill-opacity="0" stroke="#840000" stroke-width="60" transform="translate(-34428.332 -26938.332)"><text font-size="660" lengthAdjust="spacingAndGlyphs" opacity="0" text-anchor="middle" textLength="540" x="49250" y="37900">5</text><path d="m49360 37370h-230l-30 240 30-20 40-30h120l50 30 20 20 30 50v120l-30 40-20 30-50 20h-120l-40-20-30-30"/><path d="m48500 37000h1500"/></g><g fill="#008484" fill-opacity="0" stroke="#008484" stroke-width="60" transform="translate(-34428.332 -26938.332)"><text font-size="660" lengthAdjust="spacingAndGlyphs" opacity="0" text-anchor="end" textLength="770" x="48300" y="37250">I3</text><path d="m47670 37220v-500"/><path d="m47860 36720h310l-170 190h70l50 30 30 20 20 50v120l-20 40-30 30-50 20h-140l-50-20-20-30"/></g><g fill="#840000" fill-opacity="0" stroke="#840000" stroke-width="60" transform="translate(-34428.332 -26938.332)"><text font-size="660" lengthAdjust="spacingAndGlyphs" opacity="0" text-anchor="middle" textLength="540" x="49250" y="36900">6</text><path d="m49340 36370h-90l-50 30-30 20-40 70-30 100v190l30 40 20 30 50 20h90l50-20 20-30 30-40v-120l-30-50-20-20-50-30h-90l-50 30-20 20-30 50"/><path d="m48500 36000h1500"/></g><g fill="#008484" fill-opacity="0" stroke="#008484" stroke-width="60" transform="translate(-34428.332 -26938.332)"><text font-size="660" lengthAdjust="spacingAndGlyphs" opacity="0" text-anchor="end" textLength="770" x="48300" y="36250">I2</text><path d="m47670 36220v-500"/><path d="m47880 35770 30-20 50-30h110l50 30 30 20 20 50v40l-20 80-290 280h310"/></g><g fill="#840000" fill-opacity="0" stroke="#840000" stroke-width="60" transform="translate(-34428.332 -26938.332)"><text font-size="660" lengthAdjust="spacingAndGlyphs" opacity="0" text-anchor="middle" textLength="540" x="49250" y="35900">7</text><path d="m49080 35370h330l-210 500"/><path d="m48500 35000h1500"/></g><g fill="#008484" fill-opacity="0" stroke="#008484" stroke-width="60" transform="translate(-34428.332 -26938.332)"><text font-size="660" lengthAdjust="spacingAndGlyphs" opacity="0" text-anchor="end" textLength="770" x="48300" y="35250">I1</text><path d="m47670 35220v-500"/><path d="m48170 35220h-290"/><path d="m48030 35220v-500l-50 70-50 50-50 20"/></g><g fill="#840000" fill-opacity="0" stroke="#840000" stroke-width="60" transform="translate(-34428.332 -26938.332)"><text font-size="660" lengthAdjust="spacingAndGlyphs" opacity="0" text-anchor="middle" textLength="540" x="49250" y="34900">8</text><path d="m49200 34590-50-30-20-20-30-50v-20l30-50 20-20 50-30h90l50 30 20 20 30 50v20l-30 50-20 20-50 30h-90l-50 20-20 20-30 50v100l30 40 20 30 50 20h90l50-20 20-30 30-40v-100l-30-50-20-20-50-20"/><path d="m48500 34000h1500"/></g><g fill="#008484" fill-opacity="0" stroke="#008484" stroke-width="60" transform="translate(-34428.332 -26938.332)"><text font-size="660" lengthAdjust="spacingAndGlyphs" opacity="0" text-anchor="end" textLength="770" x="48300" y="34250">I0</text><path d="m47670 34220v-500"/><path d="m48000 33720h50l50 30 20 20 30 50 20 90v120l-20 100-30 40-20 30-50 20h-50l-40-20-30-30-20-40-30-100v-120l30-90 20-50 30-20z"/></g><g fill="#840000" fill-opacity="0" stroke="#840000" stroke-width="60" transform="translate(-34428.332 -26938.332)"><text font-size="660" lengthAdjust="spacingAndGlyphs" opacity="0" text-anchor="middle" textLength="540" x="49250" y="33900">9</text><path d="m49150 33870h100l40-20 30-30 40-70 30-90v-190l-30-50-20-20-50-30h-90l-50 30-20 20-30 50v120l30 40 20 30 50 20h90l50-20 20-30 30-40"/></g></g></g><g fill="#840000" fill-opacity="0" stroke="#840000" stroke-width="60" transform="translate(-34428.332 -26938.332)"><g fill="none" stroke="#840000"><path d="m44700 29500 300-500"/><path d="m45000 30000v-1000"/><path d="m45000 29000 300 500"/></g><g fill="#008484" stroke="#008484"><text font-size="660" lengthAdjust="spacingAndGlyphs" opacity="0" text-anchor="middle" textLength="2300" x="45150" y="28540">+3.3V</text><path d="m44150 28320h380"/><path d="m44340 28510v-380"/><path d="m44720 28010h310l-170 190h70l50 30 20 20 30 50v120l-30 40-20 30-50 20h-140l-50-20-20-30"/><path d="m45240 28460 20 30-20 20-20-20 20-30v50"/><path d="m45430 28010h310l-170 190h80l40 30 30 20 20 50v120l-20 40-30 30-40 20h-150l-50-20-20-30"/><path d="m45880 28010 170 500 170-500"/></g></g><g fill="#008484" fill-opacity="0" stroke="#840000" stroke-width="0"><circle cx="18071.668" cy="21561.668" fill="none" r="1110" stroke-width="100"/><g transform="translate(-34428.332 -26938.332)"><g fill="none" fill-opacity="0" stroke-width="60"><path d="m53000 47250v-250"/><path d="m53500 47500v-250"/><path d="m52750 48250 750 750"/><path d="m53750 46500-750 750h250"/><path d="m54250 46750-750 750h250"/><path d="m52250 48250-750 750"/></g><path d="m53250 48250h-1500" fill="none" stroke-width="200"/><path d="m51800 48500 200 200-400 200z" fill="#840000" fill-opacity="1" fill-rule="evenodd" stroke-width="60"/><g fill="#840000" fill-opacity="0" stroke-width="60"><path d="m53500 49000h1000"/><text font-size="660" lengthAdjust="spacingAndGlyphs" opacity="0" text-anchor="middle" textLength="540" x="54000" y="49600">1</text><path d="m54140 49570h-290"/><path d="m54000 49570v-500l-50 70-50 50-50 20"/><path d="m51500 49000h-1000"/><text font-size="660" lengthAdjust="spacingAndGlyphs" opacity="0" text-anchor="middle" textLength="540" x="51000" y="49600">2</text><path d="m50850 49120 30-20 40-30h120l50 30 20 20 30 50v40l-30 80-280 280h310"/></g></g></g><g transform="translate(-34428.332 -26938.332)"><g fill="#840000" fill-opacity="0" stroke="#840000" stroke-width="60"><g fill="none" stroke="#840000" stroke-linecap="round" stroke-linejoin="round" stroke-width="60"><path d="m39500 50400v100"/><path d="m39500 48600v-100"/><path d="m39500 49800 400 150-400 150-400 150 400 150"/><path d="m39500 49200 400 150-400 150-400 150 400 150"/><path d="m39500 48600 400 150-400 150-400 150 400 150"/></g><path d="m39500 48500v-500"/><path d="m39500 50500v500"/></g><g fill="#008400" fill-opacity="0" stroke="#008400" stroke-width="60"><path d="m40000 41000h-1000"/><path d="m40000 42000h-1000"/><path d="m40000 43000h-1000"/><path d="m39500 47000h500"/><path d="m39500 52500h5500"/><path d="m39500 36000h500"/><path d="m45000 53000v-500"/><path d="m39500 51000v1500"/><path d="m40000 40000h-1000"/><path d="m39500 47000v1000"/><path d="m45000 30500v500"/><path d="m50500 49000h-500"/><path d="m36000 36000h-500"/><path d="m35500 36000v16500"/><path d="m39500 36000v-1000"/><path d="m39000 36000h500"/><path d="m35500 52500h4000"/><path d="m55000 34000v-3500"/><path d="m45000 52500v-500"/><path d="m50500 34000h-500"/><path d="m54500 49000h500"/><path d="m55000 49000v-15000"/><path d="m55000 30500h-10000"/><path d="m54500 34000h500"/><path d="m45000 30000v500"/></g><g fill="#840000" fill-opacity="0" stroke="#840000" stroke-width="60"><text font-size="660" lengthAdjust="spacingAndGlyphs" opacity="0" text-anchor="end" textLength="1010" x="38690" y="41250">S1</text><path d="m37800 41200 70 20h120l50-20 20-30 20-40v-50l-20-50-20-20-50-30-100-20-40-20-30-30-20-50v-40l20-50 30-20 40-30h120l70 30"/><path d="m38560 41220h-290"/><path d="m38420 41220v-500l-50 70-50 50-50 20"/></g><path d="m39000 41000-250-440h-1180v440 440h1180z" fill="none" stroke="#840000" stroke-width="100"/><g fill="#840000" fill-opacity="0" stroke="#840000" stroke-width="60"><text font-size="660" lengthAdjust="spacingAndGlyphs" opacity="0" text-anchor="end" textLength="1010" x="38690" y="43250">S3</text><path d="m37800 43200 70 20h120l50-20 20-30 20-40v-50l-20-50-20-20-50-30-100-20-40-20-30-30-20-50v-40l20-50 30-20 40-30h120l70 30"/><path d="m38250 42720h310l-170 190h70l50 30 30 20 20 50v120l-20 40-30 30-50 20h-140l-50-20-20-30"/></g><path d="m39000 43000-250-440h-1180v440 440h1180z" fill="none" stroke="#840000" stroke-width="100"/><g fill="#840000" fill-opacity="0" stroke="#840000" stroke-width="60"><text font-size="660" lengthAdjust="spacingAndGlyphs" opacity="0" text-anchor="end" textLength="1010" x="38690" y="42250">S2</text><path d="m37800 42200 70 20h120l50-20 20-30 20-40v-50l-20-50-20-20-50-30-100-20-40-20-30-30-20-50v-40l20-50 30-20 40-30h120l70 30"/><path d="m38270 41770 30-20 50-30h110l50 30 30 20 20 50v40l-20 80-290 280h310"/></g><path d="m39000 42000-250-440h-1180v440 440h1180z" fill="none" stroke="#840000" stroke-width="100"/><g fill="#840000" fill-opacity="0" stroke="#840000" stroke-width="60"><text font-size="660" lengthAdjust="spacingAndGlyphs" opacity="0" text-anchor="end" textLength="1010" x="38690" y="40250">S0</text><path d="m37800 40200 70 20h120l50-20 20-30 20-40v-50l-20-50-20-20-50-30-100-20-40-20-30-30-20-50v-40l20-50 30-20 40-30h120l70 30"/><path d="m38390 39720h50l50 30 20 20 30 50 20 90v120l-20 100-30 40-20 30-50 20h-50l-40-20-30-30-20-40-30-100v-120l30-90 20-50 30-20z"/></g><path d="m39000 40000-250-440h-1180v440 440h1180z" fill="none" stroke="#840000" stroke-width="100"/><g fill="#840000" fill-opacity="0" stroke="#840000" stroke-width="60"><text font-size="660" lengthAdjust="spacingAndGlyphs" opacity="0" textLength="4010" transform="matrix(0 -1 1 0 4810 74190)" x="39500" y="34940">ANALOG_IN</text><path d="m39580 34560v-240"/><path d="m39720 34610-500-170 500-170"/><path d="m39720 34110h-500l500-290h-500"/><path d="m39580 33610v-240"/><path d="m39720 33660-500-170 500-170"/><path d="m39720 32920v240h-500"/><path d="m39220 32660v-100l30-50 40-50 100-20h160l100 20 50 50 20 50v100l-20 40-50 50-100 20h-160l-100-20-40-50z"/><path d="m39250 31960-30 50v70l30 80 40 40 50 30 100 20h70l90-20 50-30 50-40 20-80v-40l-20-80-30-20h-160v100"/><path d="m39770 31850v-390"/><path d="m39720 31350h-500"/><path d="m39720 31110h-500l500-290h-500"/></g><path d="m39500 35000 440-250v-4180h-440-440v4180z" fill="none" stroke="#840000" stroke-width="100"/><g fill-opacity="0" stroke="#000" stroke-width="60"><text font-size="660" lengthAdjust="spacingAndGlyphs" opacity="0" textLength="770" x="52000" y="37400">...</text><path d="m52140 37320 30 30-30 20-20-20 20-30v50"/><path d="m52380 37320 30 30-30 20-20-20 20-30v50"/><path d="m52620 37320 20 30-20 20-20-20 20-30v50"/><text font-size="660" lengthAdjust="spacingAndGlyphs" opacity="0" textLength="770" x="52000" y="45400">...</text><path d="m52140 45320 30 30-30 20-20-20 20-30v50"/><path d="m52380 45320 30 30-30 20-20-20 20-30v50"/><path d="m52620 45320 20 30-20 20-20-20 20-30v50"/></g></g><circle cx="20571.668" cy="7061.668" fill="#008400" r="200" stroke="#008400" stroke-width="100"/><circle cx="5071.668" cy="25561.668" fill="#008400" r="200" stroke="#008400" stroke-width="100"/><circle cx="10571.668" cy="3561.668" fill="#008400" r="200" stroke="#008400" stroke-width="100"/><circle cx="5071.668" cy="9061.668" fill="#008400" r="200" stroke="#008400" stroke-width="100"/><circle cx="10571.668" cy="25561.668" fill="#008400" r="200" stroke="#008400" stroke-width="100"/></g></svg>