<svg height="193.56157" viewBox="0 0 15989.041 20162.683" width="153.49469" xmlns="http://www.w3.org/2000/svg"><g stroke-linecap="round" stroke-linejoin="round"><g fill-opacity="0"><g stroke="#840000" stroke-width="0"><circle cx="8081.668" cy="12581.668" fill="none" r="1100" stroke-width="100"/><g fill="#840000" fill-opacity="1" stroke-width="60"><circle cx="8431.668" cy="13281.668" r="100"/><circle cx="8431.668" cy="11881.668" r="100"/></g><g transform="translate(-43568.332 -33418.332)"><path d="m51100 46000h-1100" fill="none" stroke-width="60"/><g fill="none" fill-opacity="0" stroke-width="100"><path d="m51100 45250v1500"/><path d="m51300 46500v400"/><path d="m51300 45800v400"/><path d="m51300 45100v400"/></g><g fill="none" fill-opacity="0" stroke-width="60"><path d="m52000 45000v300"/><path d="m52000 47000v-1000h-700"/><path d="m51300 46700h1000v-1400h-1000"/></g><path d="m51400 46000 400-150v300z" fill="#840000" fill-opacity="1" fill-rule="evenodd" stroke-width="60"/><g fill="#840000" fill-opacity="0" stroke-width="60"><path d="m52100 45800 50 50h300l50 50" fill="none" stroke="#840000" stroke-linecap="round" stroke-linejoin="round" stroke-width="60"/><path d="m52300 45850-150 250h300z" fill="none" stroke="#840000" stroke-linecap="round" stroke-linejoin="round" stroke-width="60"/><path d="m50000 46000h-1000"/><text font-size="660" lengthAdjust="spacingAndGlyphs" opacity="0" text-anchor="middle" textLength="540" x="49500" y="46600">1</text><path d="m49640 46570h-290"/><path d="m49500 46570v-500l-50 70-50 50-50 20"/><path d="m52000 45000v-1000"/><text font-size="660" lengthAdjust="spacingAndGlyphs" opacity="0" text-anchor="middle" textLength="540" transform="matrix(0 -1 1 0 7600 96600)" x="52100" y="45000">2</text><path d="m52120 44640-20-30-30-40v-120l30-50 20-20 50-30h40l80 30 280 280v-310"/><path d="m52000 47000v1000"/><text font-size="660" lengthAdjust="spacingAndGlyphs" opacity="0" text-anchor="middle" textLength="540" transform="matrix(0 -1 1 0 4600 99600)" x="52100" y="48000">3</text><path d="m52070 47660v-310l190 170v-70l30-50 20-20 50-30h120l40 30 30 20 20 50v140l-20 50-30 20"/></g></g></g><g fill="#840000" stroke="#840000" stroke-width="60" transform="translate(-43568.332 -33418.332)"><path d="m52000 50500v500h500l-500 500-500-500h500" fill="none" stroke="#840000"/><g fill="#008484" fill-opacity="0" stroke="#008484"><text font-size="660" lengthAdjust="spacingAndGlyphs" opacity="0" text-anchor="middle" textLength="1580" x="52050" y="52500">GND</text><path d="m51660 52000-40-30h-70l-80 30-40 40-30 50-20 100v70l20 90 30 50 40 50 80 20h40l70-20 30-30v-160h-100"/><path d="m51900 52470v-500l290 500v-500"/><path d="m52430 52470v-500h120l70 30 40 40 30 50 20 100v70l-20 90-30 50-40 50-70 20z"/></g></g><g fill="#008484" stroke="#008484" stroke-width="0" transform="translate(-43568.332 -33418.332)"><g fill="none" stroke="#840000" stroke-width="200"><path d="m53700 48300h1600"/><path d="m53700 47700h1600"/></g><g stroke-width="60"><g fill="#840000" stroke="#840000"><path d="m54500 47600v-1100"/><path d="m54500 48400v1100"/></g><g fill="#008484" stroke="#008484"><text font-size="660" lengthAdjust="spacingAndGlyphs" opacity="0" text-anchor="middle" textLength="2850" x="57070" y="48270">1500pF</text><path d="m56050 48240h-280"/><path d="m55910 48240v-500l-50 70-40 50-50 20"/><path d="m56510 47740h-240l-30 240 30-20 50-30h110l50 30 30 20 20 50v120l-20 40-30 30-50 20h-110l-50-20-30-30"/><path d="m56840 47740h50l40 30 30 20 20 50 30 90v120l-30 100-20 40-30 30-40 20h-50l-50-20-20-30-30-40-20-100v-120l20-90 30-50 20-20z"/><path d="m57320 47740h40l50 30 20 20 30 50 20 90v120l-20 100-30 40-20 30-50 20h-40l-50-20-30-30-20-40-20-100v-120l20-90 20-50 30-20z"/><path d="m57700 47910v500"/><path d="m57700 47930 40-20h100l50 20 20 30 20 40v150l-20 40-20 30-50 20h-100l-40-20"/><path d="m58320 47980h-170"/><path d="m58150 48240v-500h240"/></g></g></g><g fill="#840000" stroke="#840000" stroke-width="60" transform="translate(-43568.332 -33418.332)"><path d="m52000.4 40000a250 250 0 0 0 0-500"/><path d="m52000.4 39500a250 250 0 0 0 0-500"/><path d="m52000.4 39000a250 250 0 0 0 0-500"/><path d="m52000.4 38500a250 250 0 0 0 0-500"/><path d="m52000 38000v-500"/><path d="m52000 40000v500"/></g><g fill="#840000" stroke="#840000" stroke-width="0" transform="translate(-43568.332 -33418.332)"><g fill="none"><path d="m48500 38500h-1000" stroke-width="80"/><path d="m48000 39500v-1000" stroke-width="60"/><path d="m48500 39500h-1000l500-1000z" stroke-width="80"/></g><g fill="#840000" fill-opacity="0" stroke-width="60"><path d="m48000 38500v-1000"/><path d="m48000 39500v1000"/></g></g><g fill="#840000" stroke="#840000" stroke-width="0" transform="translate(-43568.332 -33418.332)"><path d="m50500 37000h-1000" fill="none" stroke-width="60"/><g fill-opacity="0"><g fill="none" stroke-width="80"><path d="m49500 37500v-1000h200"/><path d="m50500 37500v-1000l-1000 500z"/></g><g fill="#840000" stroke-width="60"><path d="m49500 37000h-1000"/><path d="m50500 37000h1000"/></g></g></g><g fill="#840000" stroke="#840000" stroke-width="60" transform="translate(-43568.332 -33418.332)"><g fill="#840000" stroke="#840000"><g fill="none" stroke="#840000" stroke-linecap="round" stroke-linejoin="round" stroke-width="60"><path d="m54500 44900v100"/><path d="m54500 43100v-100"/><path d="m54500 44300 400 150-400 150-400 150 400 150"/><path d="m54500 43700 400 150-400 150-400 150 400 150"/><path d="m54500 43100 400 150-400 150-400 150 400 150"/></g><path d="m54500 43000v-500"/><path d="m54500 45000v500"/></g><g fill="#008484" stroke="#008484"><text font-size="660" lengthAdjust="spacingAndGlyphs" opacity="0" text-anchor="middle" textLength="1580" x="55970" y="44270">20Ω</text><path d="m55300 43790 20-20 50-30h120l50 30 20 20 20 50v40l-20 80-290 280h310"/><path d="m55890 43740h50l50 30 20 20 30 50 20 90v120l-20 100-30 40-20 30-50 20h-50l-40-20-30-30-20-40-30-100v-120l30-90 20-50 30-20z"/><path d="m56250 44240h120v-90l-50-30-50-50-20-70v-120l20-70 50-40 70-30h100l70 30 50 40 20 70v120l-20 70-50 50-50 30v90h120"/></g></g><g fill="#008484" stroke="#008484" stroke-width="60" transform="translate(-43568.332 -33418.332)"><g fill="none" stroke="#840000"><path d="m51700 36000 300-500"/><path d="m52000 36500v-1000"/><path d="m52000 35500 300 500"/></g><g fill="#008484" stroke="#008484"><text font-size="660" lengthAdjust="spacingAndGlyphs" opacity="0" text-anchor="middle" textLength="2060" x="52150" y="35040">+48V</text><path d="m51260 34820h390"/><path d="m51450 35010v-380"/><path d="m52100 34680v330"/><path d="m51980 34490-120 350h310"/><path d="m52430 34730-50-30-20-20-20-50v-20l20-50 20-20 50-30h100l40 30 30 20 20 50v20l-20 50-30 20-40 30h-100l-50 20-20 20-20 50v100l20 40 20 30 50 20h100l40-20 30-30 20-40v-100l-20-50-30-20-40-20"/><path d="m52760 34510 170 500 170-500"/></g></g><g fill="#008400" stroke="#008400" stroke-width="60" transform="translate(-43568.332 -33418.332)"><path d="m48500 37000h-500"/><path d="m48000 37000v500"/><path d="m48000 40500v500"/><path d="m48000 41000h4000"/><path d="m52000 41000v-500"/><path d="m52000 37000v500"/><path d="m52000 36500v500"/><path d="m51500 37000h500"/><path d="m49000 46000h-500"/><path d="m52000 42000h2500"/><path d="m54500 42000v500"/><path d="m52000 41000v1000"/><path d="m52000 50500v-500"/><path d="m52000 50000h2500"/><path d="m54500 50000v-500"/><path d="m54500 45500v1000"/><path d="m52000 42000v2000"/><path d="m52000 48000v2000"/></g><g fill="#840000" stroke="#840000" stroke-width="60" transform="translate(-43568.332 -33418.332)"><text font-size="660" lengthAdjust="spacingAndGlyphs" opacity="0" text-anchor="end" textLength="3420" x="48190" y="46250">CONTROL</text><path d="m45200 46170-20 30-70 20h-50l-70-20-50-50-20-50-30-90v-70l30-100 20-50 50-40 70-30h50l70 30 20 20"/><path d="m45510 45720h100l50 30 40 40 30 100v160l-30 100-40 50-50 20h-100l-50-20-40-50-30-100v-160l30-100 40-40z"/><path d="m45940 46220v-500l290 500v-500"/><path d="m46390 45720h290"/><path d="m46540 46220v-500"/><path d="m47130 46220-170-240"/><path d="m46850 46220v-500h190l40 30 30 20 20 50v70l-20 50-30 20-40 20h-190"/><path d="m47440 45720h100l40 30 50 40 30 100v160l-30 100-50 50-40 20h-100l-50-20-40-50-30-100v-160l30-100 40-40z"/><path d="m48110 46220h-240v-500"/></g></g><path d="m48500 46000-250-440h-3590v440 440h3590z" fill="none" stroke="#840000" stroke-width="100" transform="translate(-43568.332 -33418.332)"/><circle cx="8431.668" cy="7581.668" fill="#008400" r="200" stroke="#008400" stroke-width="100"/><circle cx="8431.668" cy="3581.668" fill="#008400" r="200" stroke="#008400" stroke-width="100"/><circle cx="8431.668" cy="8581.668" fill="#008400" r="200" stroke="#008400" stroke-width="100"/><circle cx="8431.668" cy="16581.668" fill="#008400" r="200" stroke="#008400" stroke-width="100"/></g></svg>