<svg fill-rule="evenodd" height="420" preserveAspectRatio="xMidYMid" viewBox="0 0 29700 20990" width="400" xmlns="http://www.w3.org/2000/svg"><g fill="#808080"><path d="m13306 22059h606v242h-606v-121zm606 121h121l-2 22-5 19-10 20-12 17-14 14-17 12-20 10-19 5-22 2z"/><path d="m13791 22180v-3032h242v3032h-121zm121-3032h-121l2-22v-7z"/><path d="m13793 19119 607-2426 237 58-606 2426-119-29z"/><path d="m13791 16722v-3032h242v3032h-121zm121-3032v-121l22 2 19 5 20 10 17 12 14 14 12 17 10 20 5 19 2 22z"/><path d="m13912 13811h-606v-242h606v121zm0-13584h14555v242h-14555v-121zm14555 121v-121l22 2 19 5 19 10 17 12 15 14 12 17 10 20 5 19 2 22z"/><path d="m28588 348v8490h-242v-8490h121zm-121 8490h121l-2 22-5 19-10 20-12 17-15 14-17 13-19 9-19 5-22 3z"/><path d="m28467 8960h-14555v-243h14555v121z"/></g><text fill="#fff" font-family="sans" font-size="847" font-weight="400" transform="matrix(2.4258 0 0 2.4258 -6428 -6650)"><tspan font-family="sans" font-weight="normal" writing-mode="lr" x="3123" y="2025">On-State</tspan></text><text fill="#fff" font-family="sans" font-size="847" font-weight="400" transform="matrix(2.4258 0 0 2.4258 -6428 -6650)"><tspan font-family="sans" font-weight="normal" writing-mode="lr" x="3123" y="7525">Off-State</tspan></text><g fill="#f00"><path d="m13912 8960-10307-5v-243l10307 5v121zm-10307-127v122l-22-3-19-5-20-9-17-12-14-15-13-17-9-19-5-20-2-22z"/><path d="m3484 8833-3-8485h243l2 8485h-121zm118-8485h-121l3-22 4-19 10-20 12-17 15-14 17-12 19-10 20-5 21-2z"/><path d="m3602 227h3033v242h-3033v-121zm3033 121 121 7-3 22-7 19-9 20-15 17-15 12-19 12-19 7-20 5h-14z"/><path d="m6513 341 15-214 242 15-14 213-121-7zm136-207-121-7 2-17z"/><path d="m6530 110 39-184 117 24 118 24-36 185-119-25z"/><path d="m6686-50-117-24 3-15z"/><path d="m6572-89 26-82 117 39 114 38-27 83-116-39z"/><path d="m6715-132-117-39 5-10z"/><path d="m6603-181 32-73 111 46 112 49-32 75-111-48z"/><path d="m6746-208-111-46 4-9z"/><path d="m6639-263 37-68 213 116-36 66-107-59zm144-10-107-58 7-10z"/><path d="m6683-341 41-61 100 68 102 68-42 61-101-68z"/><path d="m6824-334-100-68 8-9z"/><path d="m6732-411 43-54 93 78 94 78-44 53-94-78z"/><path d="m6868-387-93-78 10-9z"/><path d="m6785-474 46-47 170 175-49 46-84-87z"/><path d="m6916-433-85-88 10-9z"/><path d="m6841-530 51-39 75 97 73 95-49 38-75-94z"/><path d="m6967-472-75-97 12-7z"/><path d="m6904-576 51-32 63 102 63 104-51 32-63-102z"/><path d="m7018-506-63-102 12-7z"/><path d="m6967-615 56-24 51 109 48 111-53 25-51-112z"/><path d="m7074-530-51-109 12-5z"/><path d="m7035-644 56-20 36 117 39 114-56 19-36-116z"/><path d="m7127-547-36-117 14-2z"/><path d="m7105-666 56-12 24 119 22 121-56 10-24-119z"/><path d="m7185-559-24-119h15z"/><path d="m7176-678 58-5 14 243-55 2-8-121zm65 116-7-121h14z"/><path d="m7248-683 59 5-10 119-7 121-56-2 7-122z"/><path d="m7297-559 10-119h14z"/><path d="m7321-678 56 12-22 119-24 119-56-10 22-121z"/><path d="m7355-547 22-119 14 2z"/><path d="m7391-664 56 20-39 114-36 116-56-19 39-114z"/><path d="m7408-530 39-114 12 5z"/><path d="m7459-639 56 24-51 109-51 112-53-25 48-111z"/><path d="m7464-506 51-109 12 7z"/><path d="m7527-608 51 32-63 104-63 102-51-32 63-104z"/><path d="m7515-472 63-104 12 7z"/><path d="m7590-569 51 39-75 97-75 94-49-38 73-95z"/><path d="m7566-433 75-97 10 9z"/><path d="m7651-521 46 47-82 87-85 87-49-46 85-87z"/><path d="m7615-387 82-87 10 9z"/><path d="m7707-465 44 54-93 77-94 78-44-53 95-78z"/><path d="m7658-334 93-77 7 9z"/><path d="m7758-402 41 61-99 68-102 68-42-61 102-68z"/><path d="m7700-273 99-68 7 10z"/><path d="m7806-331 37 68-107 55-107 59-36-66 107-58z"/><path d="m7736-208 107-55 5 9z"/><path d="m7848-254 31 73-223 97-32-75 112-49zm-81 122 112-49 5 10z"/><path d="m7884-171 27 82-114 39-117 39-27-83 114-38z"/><path d="m7797-50 114-39 2 15z"/><path d="m7913-74 39 184-238 49-36-185 119-24z"/><path d="m7833 134 119-24 2 17z"/><path d="m7954 127 15 214-243 14-14-213 121-8zm-106 221 121 7-3 22-7 19-10 20-14 17-15 12-19 12-20 7-19 5h-22l-22-2-19-7-19-10-17-15-12-14-13-20-7-19-5-20v-7z"/><path d="m7726 341 15-214 242 15-14 213-121-7zm136-207-121-7 2-17z"/><path d="m7743 110 39-184 116 24 119 24-36 185-119-25z"/><path d="m7898-50-116-24 2-15z"/><path d="m7784-89 27-82 117 39 114 38-27 83-117-39z"/><path d="m7928-132-117-39 5-10z"/><path d="m7816-181 32-73 111 46 112 49-32 75-111-48z"/><path d="m7959-208-111-46 4-9z"/><path d="m7852-263 37-68 213 116-36 66-107-59zm144-10-107-58 7-10z"/><path d="m7896-341 41-61 100 68 102 68-42 61-101-68z"/><path d="m8037-334-100-68 8-9z"/><path d="m7945-411 43-54 92 78 95 78-44 53-94-78z"/><path d="m8080-387-92-78 10-9z"/><path d="m7998-474 46-47 170 175-49 46-85-87z"/><path d="m8129-433-85-88 10-9z"/><path d="m8054-530 51-39 75 97 73 95-49 38-75-94z"/><path d="m8180-472-75-97 12-7z"/><path d="m8117-576 51-32 63 102 63 104-51 32-63-102z"/><path d="m8231-506-63-102 12-7z"/><path d="m8180-615 56-24 51 109 48 111-53 25-51-112z"/><path d="m8287-530-51-109 12-5z"/><path d="m8248-644 56-20 36 117 39 114-56 19-36-116z"/><path d="m8340-547-36-117 14-2z"/><path d="m8318-666 56-12 24 119 22 121-56 10-24-119z"/><path d="m8398-559-24-119h14z"/><path d="m8388-678 59-5 14 243-56 2-7-121zm66 116-7-121h14z"/><path d="m8461-683 58 5-9 119-8 121-55-2 7-122z"/><path d="m8510-559 9-119h15z"/><path d="m8534-678 56 12-22 119-24 119-56-10 22-121z"/><path d="m8568-547 22-119 14 2z"/><path d="m8604-664 56 20-39 114-36 116-56-19 39-114z"/><path d="m8621-530 39-114 12 5z"/><path d="m8672-639 56 24-51 109-51 112-53-25 48-111z"/><path d="m8677-506 51-109 12 7z"/><path d="m8740-608 51 32-63 104-63 102-51-32 63-104z"/><path d="m8728-472 63-104 12 7z"/><path d="m8803-569 51 39-75 97-75 94-49-38 73-95z"/><path d="m8779-433 75-97 10 9z"/><path d="m8864-521 46 47-82 87-85 87-49-46 85-87z"/><path d="m8828-387 82-87 10 9z"/><path d="m8920-465 43 54-92 77-94 78-44-53 95-78z"/><path d="m8871-334 92-77 8 9z"/><path d="m8971-402 41 61-100 68-101 68-42-61 102-68z"/><path d="m8912-273 100-68 7 10z"/><path d="m9019-331 37 68-107 55-107 59-36-66 106-58z"/><path d="m8949-208 107-55 4 9z"/><path d="m9060-254 32 73-223 97-32-75 112-49zm-80 122 112-49 5 10z"/><path d="m9097-171 27 82-115 39-116 39-27-83 114-38z"/><path d="m9009-50 115-39 2 15z"/><path d="m9126-74 39 184-238 49-36-185 118-24z"/><path d="m9046 134 119-24 2 17z"/><path d="m9167 127 15 214-243 14-14-213 121-8z"/><path d="m9060 348 122 7-3 22-7 19-10 20-14 17-15 12-19 12-20 7-19 5h-22l-22-2-19-7-19-10-17-15-13-14-12-20-7-19-5-20v-7z"/><path d="m8939 341 15-214 242 15-14 213-122-7zm136-207-121-7 2-17z"/><path d="m8956 110 39-184 116 24 119 24-36 185-119-25z"/><path d="m9111-50-116-24 2-15z"/><path d="m8997-89 27-82 116 39 114 38-26 83-117-39z"/><path d="m9140-132-116-39 5-10z"/><path d="m9029-181 31-73 112 46 112 49-32 75-112-48z"/><path d="m9172-208-112-46 5-9z"/><path d="m9065-263 37-68 213 116-36 66-107-59z"/><path d="m9208-273-106-58 7-10z"/><path d="m9109-341 41-61 100 68 102 68-42 61-102-68z"/><path d="m9250-334-100-68 7-9z"/><path d="m9157-411 44-54 92 78 95 78-44 53-94-78z"/><path d="m9293-387-92-78 10-9z"/><path d="m9211-474 46-47 170 175-49 46-85-87z"/><path d="m9342-433-85-88 10-9z"/><path d="m9267-530 51-39 75 97 73 95-49 38-75-94z"/><path d="m9393-472-75-97 12-7z"/><path d="m9330-576 51-32 63 102 63 104-51 32-63-102z"/><path d="m9444-506-63-102 12-7z"/><path d="m9393-615 56-24 51 109 48 111-53 25-51-112z"/><path d="m9500-530-51-109 12-5z"/><path d="m9461-644 55-20 37 117 39 114-56 19-36-116z"/><path d="m9553-547-37-117 15-2z"/><path d="m9531-666 56-12 24 119 22 121-56 10-24-119z"/><path d="m9611-559-24-119h14z"/><path d="m9601-678 59-5 14 243-56 2-7-121zm66 116-7-121h14z"/><path d="m9674-683 58 5-9 119-8 121-55-2 7-122z"/><path d="m9723-559 9-119h15z"/><path d="m9747-678 56 12-22 119-24 119-56-10 22-121z"/><path d="m9781-547 22-119 14 2z"/><path d="m9817-664 56 20-39 114-36 116-56-19 39-114z"/><path d="m9834-530 39-114 12 5z"/><path d="m9885-639 56 24-51 109-51 112-53-25 48-111z"/><path d="m9890-506 51-109 12 7z"/><path d="m9953-608 51 32-63 104-63 102-51-32 63-104z"/><path d="m9941-472 63-104 12 7z"/><path d="m10016-569 51 39-75 97-75 94-49-38 73-95z"/><path d="m9992-433 75-97 10 9z"/><path d="m10077-521 46 47-83 87-84 87-49-46 85-87z"/><path d="m10040-387 83-87 10 9z"/><path d="m10133-465 43 54-92 77-94 78-44-53 94-78z"/><path d="m10084-334 92-77 8 9z"/><path d="m10184-402 41 61-100 68-102 68-41-61 102-68z"/><path d="m10125-273 100-68 7 10z"/><path d="m10232-331 36 68-106 55-107 59-36-66 106-58z"/><path d="m10162-208 106-55 5 9z"/><path d="m10273-254 32 73-223 97-32-75 112-49zm-80 122 112-49 5 10z"/><path d="m10310-171 26 82-114 39-116 39-27-83 114-38z"/><path d="m10222-50 114-39 3 15z"/><path d="m10339-74 39 184-238 49-36-185 118-24z"/><path d="m10259 134 119-24 2 17z"/><path d="m10380 127 15 214-243 14-15-213 122-8z"/><path d="m10273 348v121l-21-2-20-5-19-10-17-12-15-14-12-17-10-20-5-19-2-15zm0-121h3639v242h-3639v-121z"/></g><g fill="#f00"><path d="m3595 6534-184-10 5-121 7-122 187 10-8 121z"/><path d="m3416 6403-5 121h-12z"/><path d="m3399 6524-182-29 19-119 17-121 182 29-19 119z"/><path d="m3236 6376-19 119-12-3z"/><path d="m3205 6492-173-43 29-119 32-116 172 43-29 119z"/><path d="m3061 6330-29 119-12-5z"/><path d="m3020 6444-167-61 82-228 168 61-42 114z"/><path d="m2894 6269-41 114-12-5z"/><path d="m2841 6378-158-77 53-109 51-109 160 77-53 109z"/><path d="m2736 6192-53 109-10-5z"/><path d="m2673 6296-150-90 126-208 150 92-63 102z"/><path d="m2586 6102-63 104-10-7z"/><path d="m2513 6199-140-104 145-194 141 104-73 97zm-68-201-72 97-10-8z"/><path d="m2363 6087-129-118 83-90 80-90 131 119-83 90z"/><path d="m2317 5879-83 90-7-8z"/><path d="m2227 5961-119-128 180-165 118 131-89 80zm-29-211-90 83-7-10z"/><path d="m2101 5823-104-141 194-145 104 140-97 73zm-7-214-97 73-8-9z"/><path d="m1989 5673-90-151 105-63 102-63 92 150-104 63z"/><path d="m2004 5459-105 63-4-10z"/><path d="m1895 5512-78-157 218-107 78 160-109 51zm31-211-109 54-5-12z"/><path d="m1812 5343-61-168 229-82 60 167-114 41z"/><path d="m1866 5134-115 41-4-12z"/><path d="m1747 5163-44-172 116-32 119-29 44 173-116 31z"/><path d="m1819 4959-116 32-2-12z"/><path d="m1701 4979-30-182 122-17 119-20 29 182-122 17z"/><path d="m1793 4780-122 17v-12z"/><path d="m1671 4785-9-185 242-14 10 187-121 7z"/><path d="m1783 4593-121 7v-14z"/><path d="m1662 4586 9-185 122 5 121 8-10 186-121-7z"/><path d="m1793 4406-122-5v-12z"/><path d="m1671 4389 30-182 118 20 122 17-29 182-119-20z"/><path d="m1819 4227-118-20 2-12z"/><path d="m1703 4195 44-172 119 29 116 32-44 172-119-29z"/><path d="m1866 4052-119-29 4-12z"/><path d="m1751 4011 61-167 228 82-60 167-114-41z"/><path d="m1926 3885-114-41 5-13z"/><path d="m1817 3831 78-157 109 53 109 51-78 160-109-53z"/><path d="m2004 3727-109-53 4-10z"/><path d="m1899 3664 90-150 209 126-92 150-102-63zm195-87-105-63 8-10z"/><path d="m1997 3504 104-141 194 146-104 140-97-72z"/><path d="m2198 3436-97-73 7-10z"/><path d="m2108 3353 119-128 90 82 89 80-118 131-90-82z"/><path d="m2317 3307-90-82 7-7z"/><path d="m2234 3218 129-119 165 179-131 119-80-90z"/><path d="m2445 3189-82-90 10-7z"/><path d="m2373 3092 140-105 146 194-141 105-73-97z"/><path d="m2586 3084-73-97 10-7z"/><path d="m2523 2980 150-90 63 104 63 102-150 93-63-105z"/><path d="m2736 2994-63-104 10-5z"/><path d="m2683 2885 158-77 106 218-160 78-51-110z"/><path d="m2894 2917-53-109 12-5z"/><path d="m2853 2803 167-61 83 228-168 61-41-114z"/><path d="m3061 2856-41-114 12-5z"/><path d="m3032 2737 173-43 31 116 29 119-172 44-32-117z"/><path d="m3236 2810-31-116 12-3z"/><path d="m3217 2691 182-29 17 121 19 119-182 29-17-121z"/><path d="m3416 2783-17-121h12z"/><path d="m3411 2662 184-10 15 243-187 10-7-122z"/><path d="m3602 2774-7-122h15z"/><path d="m3610 2652 184 10-5 121-7 122-187-10 7-121z"/><path d="m3789 2783 5-121h12z"/><path d="m3806 2662 182 29-19 119-17 121-182-29 19-119z"/><path d="m3969 2810 19-119 12 3z"/><path d="m4000 2694 172 43-29 119-31 117-172-44 29-119z"/><path d="m4143 2856 29-119 13 5z"/><path d="m4185 2742 167 61-83 228-167-61 41-114zm126 175 41-114 12 5z"/><path d="m4364 2808 158 77-54 109-51 110-160-78 54-109z"/><path d="m4468 2994 54-109 9 5z"/><path d="m4531 2890 151 90-126 209-151-93 63-102z"/><path d="m4619 3084 63-104 10 7z"/><path d="m4692 2987 140 105-145 194-141-105 73-97z"/><path d="m4759 3189 73-97 10 7z"/><path d="m4842 3099 129 119-83 89-80 90-131-119 82-89z"/><path d="m4888 3307 83-89 7 7z"/><path d="m4978 3225 119 128-180 165-119-131 90-80zm29 211 90-83 7 10z"/><path d="m5104 3363 104 141-194 145-104-140 97-73zm7 214 97-73 8 10z"/><path d="m5216 3514 89 150-104 63-102 63-92-150 104-63z"/><path d="m5201 3727 104-63 5 10z"/><path d="m5310 3674 78 157-219 107-77-160 109-51zm-31 211 109-54 5 13z"/><path d="m5393 3844 60 167-228 82-60-167 114-41z"/><path d="m5339 4052 114-41 5 12z"/><path d="m5458 4023 44 172-117 32-119 29-43-172 116-32z"/><path d="m5385 4227 117-32 2 12z"/><path d="m5504 4207 29 182-121 17-119 20-29-182 121-17z"/><path d="m5412 4406 121-17v12z"/><path d="m5533 4401 10 185-243 14-9-186 121-8zm-111 192 121-7v14z"/><path d="m5543 4600-10 185-121-5-121-7 9-187 122 7z"/><path d="m5412 4780 121 5v12z"/><path d="m5533 4797-29 182-119-20-121-17 29-182 119 20z"/><path d="m5385 4959 119 20-2 12z"/><path d="m5502 4991-44 172-119-29-116-31 43-173 119 29z"/><path d="m5339 5134 119 29-5 12z"/><path d="m5453 5175-60 168-228-83 60-167 114 41z"/><path d="m5279 5301 114 42-5 12z"/><path d="m5388 5355-78 157-109-53-109-51 77-160 110 53z"/><path d="m5201 5459 109 53-5 10z"/><path d="m5305 5522-89 151-209-127 92-150 102 63z"/><path d="m5111 5609 105 64-8 9z"/><path d="m5208 5682-104 141-194-146 104-140 97 72z"/><path d="m5007 5750 97 73-7 10z"/><path d="m5097 5833-119 128-90-82-90-80 119-131 90 82z"/><path d="m4888 5879 90 82-7 8z"/><path d="m4971 5969-129 118-165-179 131-119 80 90zm-212 29 83 89-10 8z"/><path d="m4832 6095-140 104-146-194 141-104 72 97z"/><path d="m4619 6102 73 97-10 7z"/><path d="m4682 6206-151 90-63-104-63-102 151-92 63 104z"/><path d="m4468 6192 63 104-9 5z"/><path d="m4522 6301-158 77-107-218 160-77 51 109z"/><path d="m4311 6269 53 109-12 5z"/><path d="m4352 6383-167 61-83-228 167-61 42 114zm-209-53 42 114-13 5z"/><path d="m4172 6449-172 43-31-116-29-119 172-43 31 116z"/><path d="m3969 6376 31 116-12 3z"/><path d="m3988 6495-182 29-17-121-19-119 182-29 17 121z"/><path d="m3789 6403 17 121h-12z"/><path d="m3794 6524-184 10-15-243 187-10 7 122zm-192-112 8 122h-15z"/></g><path d="m27860 2167h1213v4245h-1213z" fill="#808080"/><g fill="#808080"><path d="m28467 6534h-607v-243h607v121zm-607-122v122l-21-3-20-5-19-9-17-12-15-15-12-17-10-19-4-20-3-22z"/><path d="m27739 6412v-4245h243v4245h-122zm121-4245h-121l3-22 4-19 10-19 12-17 15-15 17-12 19-10 20-5 21-2z"/><path d="m27860 2046h1213v243h-1213v-122zm1213 121v-121l22 2 20 5 19 10 17 12 14 15 13 17 9 19 5 19 3 22z"/><path d="m29195 2167v4245h-243v-4245h121zm-122 4245h122l-3 22-5 20-9 19-13 17-14 15-17 12-19 9-20 5-22 3z"/><path d="m29073 6534h-606v-243h606v121z"/></g><g fill="#808080"><path d="m23737 348 2 3636h-243l-2-3636h121zm-119 3636v121l-22-2-20-5-19-9-17-13-15-14-12-17-9-20-5-19-3-22z"/><path d="m23618 3863 1210 2v243l-1210-3v-121zm1210 124v-122l22 3 19 5 20 9 17 12 14 15 12 17 10 19 5 20 2 22-2 21-5 20-10 19-12 17-14 15-17 12-20 10-19 4-22 3z"/><path d="m24828 4108h-2426v-243h2426v122z"/></g><g fill="#808080"><path d="m23496 8838 5-4247h243l-5 4247h-121zm127-4247h-122l3-22 4-20 10-19 12-17 15-15 17-12 19-9 20-5 22-3z"/><path d="m23623 4469 1205 3v242l-1205-2v-121zm1205 124v-121l22 2 19 5 20 10 17 12 14 14 12 17 10 20 5 19 2 22-2 22-5 19-10 20-12 17-14 14-17 12-20 10-19 5-22 2z"/><path d="m24828 4714h-2423v-242h2423v121z"/></g><path d="m20098-865v2426h-243v-2426z" fill="#808080"/><g fill="#808080"><path d="m18225-967 1819 1213-135 204-1820-1213 68-102zm1752 1315 67-102 17 15 13 14 12 20 7 19 5 22v19l-3 22-7 19-10 20-14 17-15 12-5 5z"/><path d="m20044 450-1819 1213-136-204 1820-1213 68 102z"/><path d="m18157 1561 68 102-19 9-20 8-22 2h-19l-22-5-19-7-20-12-14-12-15-17-9-20-8-19-2-22v-7zm-121 0v-2426h242v2426h-121zm121-2426h-121l2-22 5-19 10-20 12-17 15-14 17-12 19-10 19-5 22-2 22 2 19 5 20 10 7 2z"/></g><g fill="#f00"><g><path d="m13306 8717h606v243h-606v-122zm606 121h121l-2 22-5 19-10 20-12 17-14 14-17 13-20 9-19 5-22 3z"/><path d="m13791 8838v-3533l105-2134h242l-105 2154v3513h-121z"/></g><g><path d="m13791 3380v-3032h242v3032h-121zm121-3032v-121l22 2 19 5 20 10 17 12 14 14 12 17 10 20 5 19 2 22z"/><path d="m13912 469h-606v-242h606v121z"/></g><g><path d="m13912 13569h14555v242h-14555v-121zm14555 121v-121l22 2 19 5 19 10 17 12 15 14 12 17 10 20 5 19 2 22z"/><path d="m28588 13690v8490h-242v-8490h121zm-121 8490h121l-2 22-5 19-10 20-12 17-15 14-17 12-19 10-19 5-22 2z"/><path d="m28467 22301h-14555v-242h14555v121z"/></g><g><path d="m3595 19876-184-10 5-121 7-122 187 10-8 121z"/><path d="m3416 19745-5 121h-12z"/><path d="m3399 19866-182-29 19-119 17-121 182 29-19 119z"/><path d="m3236 19718-19 119-12-3z"/><path d="m3205 19834-173-43 29-119 32-117 172 44-29 119z"/><path d="m3061 19672-29 119-12-5z"/><path d="m3020 19786-167-61 82-228 168 61-42 114z"/><path d="m2894 19611-41 114-12-5z"/><path d="m2841 19720-158-77 53-109 51-110 160 78-53 109z"/><path d="m2736 19534-53 109-10-5z"/><path d="m2673 19638-150-90 126-208 150 92-63 102z"/><path d="m2586 19444-63 104-10-7z"/><path d="m2513 19541-140-104 145-195 141 105-73 97zm-68-201-72 97-10-8z"/><path d="m2363 19429-129-119 83-89 80-90 131 119-83 90z"/><path d="m2317 19221-83 89-7-7z"/><path d="m2227 19303-119-128 180-165 118 131-89 80zm-29-211-90 83-7-10z"/><path d="m2101 19165-104-141 194-145 104 140-97 73zm-7-214-97 73-8-10z"/><path d="m1989 19014-90-150 105-63 102-63 92 150-104 63z"/><path d="m2004 18801-105 63-4-10z"/><path d="m1895 18854-78-157 218-107 78 160-109 51zm31-211-109 54-5-12z"/><path d="m1812 18685-61-168 229-82 60 167-114 41z"/><path d="m1866 18476-115 41-4-12z"/><path d="m1747 18505-44-172 116-32 119-29 44 172-116 32z"/><path d="m1819 18301-116 32-2-12z"/><path d="m1701 18321-30-182 122-17 119-20 29 182-122 17z"/><path d="m1793 18122-122 17v-12z"/><path d="m1671 18127-9-185 242-14 10 186-121 8z"/><path d="m1783 17935-121 7v-14z"/><path d="m1662 17928 9-185 122 5 121 7-10 187-121-7z"/><path d="m1793 17748-122-5v-12z"/><path d="m1671 17731 30-182 118 20 122 17-29 182-119-20z"/><path d="m1819 17569-118-20 2-12z"/><path d="m1703 17537 44-172 119 29 116 32-44 172-119-29z"/><path d="m1866 17394-119-29 4-12z"/><path d="m1751 17353 61-168 228 83-60 167-114-41z"/><path d="m1926 17227-114-42 5-12z"/><path d="m1817 17173 78-157 109 53 109 51-78 160-109-53z"/><path d="m2004 17069-109-53 4-10z"/><path d="m1899 17006 90-150 209 126-92 150-102-63zm195-87-105-63 8-10z"/><path d="m1997 16846 104-141 194 146-104 140-97-72z"/><path d="m2198 16778-97-73 7-10z"/><path d="m2108 16695 119-128 90 82 89 80-118 131-90-82z"/><path d="m2317 16649-90-82 7-7z"/><path d="m2234 16560 129-119 165 179-131 119-80-90z"/><path d="m2445 16530-82-89 10-8z"/><path d="m2373 16433 140-104 146 194-141 104-73-97z"/><path d="m2586 16426-73-97 10-7z"/><path d="m2523 16322 150-90 63 104 63 102-150 92-63-104z"/><path d="m2736 16336-63-104 10-5z"/><path d="m2683 16227 158-77 106 218-160 78-51-110z"/><path d="m2894 16259-53-109 12-5z"/><path d="m2853 16145 167-61 83 228-168 61-41-114z"/><path d="m3061 16198-41-114 12-5z"/><path d="m3032 16079 173-43 31 116 29 119-172 44-32-117z"/><path d="m3236 16152-31-116 12-3z"/><path d="m3217 16033 182-29 17 121 19 119-182 29-17-121z"/><path d="m3416 16125-17-121h12z"/><path d="m3411 16004 184-10 15 243-187 10-7-122z"/><path d="m3602 16116-7-122h15z"/><path d="m3610 15994 184 10-5 121-7 122-187-10 7-121z"/><path d="m3789 16125 5-121h12z"/><path d="m3806 16004 182 29-19 119-17 121-182-29 19-119z"/><path d="m3969 16152 19-119 12 3z"/><path d="m4000 16036 172 43-29 119-31 117-172-44 29-119z"/><path d="m4143 16198 29-119 13 5z"/><path d="m4185 16084 167 61-83 228-167-61 41-114zm126 175 41-114 12 5z"/><path d="m4364 16150 158 77-54 109-51 110-160-78 54-109z"/><path d="m4468 16336 54-109 9 5z"/><path d="m4531 16232 151 90-126 208-151-92 63-102zm88 194 63-104 10 7z"/><path d="m4692 16329 140 104-145 194-141-104 73-97z"/><path d="m4759 16530 73-97 10 8z"/><path d="m4842 16441 129 119-83 89-80 90-131-119 82-90z"/><path d="m4888 16649 83-89 7 7z"/><path d="m4978 16567 119 128-180 165-119-131 90-80zm29 211 90-83 7 10z"/><path d="m5104 16705 104 141-194 145-104-140 97-73zm7 214 97-73 8 10z"/><path d="m5216 16856 89 150-104 63-102 63-92-150 104-63z"/><path d="m5201 17069 104-63 5 10z"/><path d="m5310 17016 78 157-219 107-77-160 109-51zm-31 211 109-54 5 12z"/><path d="m5393 17185 60 168-228 82-60-167 114-41z"/><path d="m5339 17394 114-41 5 12z"/><path d="m5458 17365 44 172-117 32-119 29-43-172 116-32z"/><path d="m5385 17569 117-32 2 12z"/><path d="m5504 17549 29 182-121 17-119 20-29-182 121-17z"/><path d="m5412 17748 121-17v12z"/><path d="m5533 17743 10 185-243 14-9-187 121-7zm-111 192 121-7v14z"/><path d="m5543 17942-10 185-121-5-121-8 9-186 122 7z"/><path d="m5412 18122 121 5v12z"/><path d="m5533 18139-29 182-119-20-121-17 29-182 119 20z"/><path d="m5385 18301 119 20-2 12z"/><path d="m5502 18333-44 172-119-29-116-32 43-172 119 29z"/><path d="m5339 18476 119 29-5 12z"/><path d="m5453 18517-60 168-228-83 60-167 114 41z"/><path d="m5279 18643 114 42-5 12z"/><path d="m5388 18697-78 157-109-53-109-51 77-160 110 53z"/><path d="m5201 18801 109 53-5 10z"/><path d="m5305 18864-89 150-209-126 92-150 102 63zm-194 87 105 63-8 10z"/><path d="m5208 19024-104 141-194-146 104-140 97 72z"/><path d="m5007 19092 97 73-7 10z"/><path d="m5097 19175-119 128-90-82-90-80 119-131 90 82z"/><path d="m4888 19221 90 82-7 7z"/><path d="m4971 19310-129 119-165-179 131-119 80 90zm-212 30 83 89-10 8z"/><path d="m4832 19437-140 104-146-194 141-105 72 98z"/><path d="m4619 19444 73 97-10 7z"/><path d="m4682 19548-151 90-63-104-63-102 151-92 63 104z"/><path d="m4468 19534 63 104-9 5z"/><path d="m4522 19643-158 77-107-218 160-78 51 110z"/><path d="m4311 19611 53 109-12 5z"/><path d="m4352 19725-167 61-83-228 167-61 42 114zm-209-53 42 114-13 5z"/><path d="m4172 19791-172 43-31-116-29-119 172-44 31 117z"/><path d="m3969 19718 31 116-12 3z"/><path d="m3988 19837-182 29-17-121-19-119 182-29 17 121z"/><path d="m3789 19745 17 121h-12z"/><path d="m3794 19866-184 10-15-243 187-10 7 122zm-192-112 8 122h-15z"/></g><path d="m27860 15509h1213v4245h-1213z"/><g><path d="m28467 19876h-607v-243h607v121zm-607-122v122l-21-3-20-5-19-9-17-12-15-15-12-17-10-19-4-20-3-22z"/><path d="m27739 19754v-4245h243v4245h-122zm121-4245h-121l3-22 4-19 10-19 12-17 15-15 17-12 19-10 20-5 21-2z"/><path d="m27860 15388h1213v242h-1213v-121zm1213 121v-121l22 2 20 5 19 10 17 12 14 15 13 17 9 19 5 19 3 22z"/><path d="m29195 15509v4245h-243v-4245h121zm-122 4245h122l-3 22-5 20-9 19-13 17-14 15-17 12-19 9-20 5-22 3z"/><path d="m29073 19876h-606v-243h606v121z"/></g><g><path d="m23737 13690 2 3636h-243l-2-3636h121zm-119 3636v121l-22-2-20-5-19-10-17-12-15-14-12-17-9-20-5-19-3-22z"/><path d="m23618 17205 1210 2v243l-1210-3v-121zm1210 124v-122l22 3 19 5 20 9 17 12 14 15 12 17 10 19 5 20 2 22-2 21-5 20-10 19-12 17-14 15-17 12-20 10-19 4-22 3z"/><path d="m24828 17450h-2426v-243h2426v122z"/></g><g><path d="m23496 22180 5-4247h243l-5 4247h-121zm127-4247h-122l3-22 4-20 10-19 12-17 15-15 17-12 19-9 20-5 22-3z"/><path d="m23623 17811 1205 3v242l-1205-2v-121zm1205 124v-121l22 2 19 5 20 10 17 12 14 14 12 17 10 20 5 19 2 22-2 22-5 19-10 20-12 17-14 14-17 12-20 10-19 5-22 2z"/><path d="m24828 18056h-2423v-242h2423v121z"/></g><path d="m20098 12477v2426h-243v-2426z"/><g><path d="m18225 12375 1819 1213-135 204-1820-1213 68-102zm1752 1315 67-102 17 15 13 14 12 19 7 20 5 22v19l-3 22-7 19-10 20-14 17-15 12-5 5z"/><path d="m20044 13792-1819 1213-136-204 1820-1213 68 102z"/><path d="m18157 14903 68 102-19 9-20 8-22 2h-19l-22-5-19-7-20-12-14-12-15-17-9-20-8-19-2-22v-7zm-121 0v-2426h242v2426h-121zm121-2426h-121l2-22 5-19 10-20 12-17 15-14 17-12 19-10 19-5 22-2 22 2 19 5 20 10 7 2z"/></g><g><path d="m13912 22301-10307-4v-243l10307 5v121zm-10307-126v122l-22-3-19-5-20-9-17-13-14-14-13-17-9-19-5-20-2-22z"/><path d="m3484 22175-3-8485h243l2 8485h-121zm118-8485h-121l3-22 4-19 10-20 12-17 15-14 17-12 19-10 20-5 21-2z"/><path d="m3602 13569h3033v242h-3033v-121zm3033 121 121 7-3 22-7 19-9 20-15 17-15 12-19 12-19 7-20 5h-14z"/><path d="m6513 13683 15-214 242 15-14 213-121-7zm136-207-121-7 2-17z"/><path d="m6530 13452 39-184 117 24 118 24-36 185-119-25z"/><path d="m6686 13292-117-24 3-15z"/><path d="m6572 13253 26-82 117 39 114 38-27 83-116-39z"/><path d="m6715 13210-117-39 5-10z"/><path d="m6603 13161 32-73 111 46 112 49-32 75-111-48z"/><path d="m6746 13134-111-46 4-9z"/><path d="m6639 13079 37-68 213 116-36 66-107-59zm144-10-107-58 7-10z"/><path d="m6683 13001 41-61 100 68 102 68-42 61-101-68z"/><path d="m6824 13008-100-68 8-9z"/><path d="m6732 12931 43-54 93 78 94 77-44 54-94-78z"/><path d="m6868 12955-93-78 10-10z"/><path d="m6785 12867 46-46 170 175-49 46-84-87z"/><path d="m6916 12909-85-88 10-9z"/><path d="m6841 12812 51-39 75 97 73 95-49 38-75-94z"/><path d="m6967 12870-75-97 12-7z"/><path d="m6904 12766 51-32 63 102 63 104-51 32-63-102z"/><path d="m7018 12836-63-102 12-7z"/><path d="m6967 12727 56-24 51 109 48 111-53 25-51-112z"/><path d="m7074 12812-51-109 12-5z"/><path d="m7035 12698 56-20 36 117 39 114-56 19-36-116z"/><path d="m7127 12795-36-117 14-2z"/><path d="m7105 12676 56-12 24 119 22 121-56 10-24-119z"/><path d="m7185 12783-24-119h15z"/><path d="m7176 12664 58-5 14 242-55 3-8-121z"/><path d="m7241 12780-7-121h14zm7-121 59 5-10 119-7 121-56-3 7-121z"/><path d="m7297 12783 10-119h14z"/><path d="m7321 12664 56 12-22 119-24 119-56-10 22-121z"/><path d="m7355 12795 22-119 14 2z"/><path d="m7391 12678 56 20-39 114-36 116-56-19 39-114z"/><path d="m7408 12812 39-114 12 5z"/><path d="m7459 12703 56 24-51 109-51 112-53-25 48-111z"/><path d="m7464 12836 51-109 12 7z"/><path d="m7527 12734 51 32-63 104-63 102-51-32 63-104z"/><path d="m7515 12870 63-104 12 7z"/><path d="m7590 12773 51 39-75 97-75 94-49-38 73-95z"/><path d="m7566 12909 75-97 10 9z"/><path d="m7651 12821 46 46-82 88-85 87-49-46 85-87z"/><path d="m7615 12955 82-88 10 10z"/><path d="m7707 12877 44 54-93 77-94 78-44-54 95-77z"/><path d="m7658 13008 93-77 7 9z"/><path d="m7758 12940 41 61-99 68-102 68-42-61 102-68z"/><path d="m7700 13069 99-68 7 10z"/><path d="m7806 13011 37 68-107 55-107 59-36-66 107-58z"/><path d="m7736 13134 107-55 5 9z"/><path d="m7848 13088 31 73-223 97-32-75 112-49zm-81 122 112-49 5 10z"/><path d="m7884 13171 27 82-114 39-117 39-27-83 114-38z"/><path d="m7797 13292 114-39 2 15z"/><path d="m7913 13268 39 184-238 49-36-185 119-24z"/><path d="m7833 13476 119-24 2 17z"/><path d="m7954 13469 15 214-243 14-14-213 121-8zm-106 221 121 7-3 22-7 19-10 20-14 17-15 12-19 12-20 7-19 5h-22l-22-2-19-8-19-9-17-15-12-14-13-20-7-19-5-20v-7z"/><path d="m7726 13683 15-214 242 15-14 213-121-7zm136-207-121-7 2-17z"/><path d="m7743 13452 39-184 116 24 119 24-36 185-119-25z"/><path d="m7898 13292-116-24 2-15z"/><path d="m7784 13253 27-82 117 39 114 38-27 83-117-39z"/><path d="m7928 13210-117-39 5-10z"/><path d="m7816 13161 32-73 111 46 112 49-32 75-111-48z"/><path d="m7959 13134-111-46 4-9z"/><path d="m7852 13079 37-68 213 116-36 66-107-59zm144-10-107-58 7-10z"/><path d="m7896 13001 41-61 100 68 102 68-42 61-101-68z"/><path d="m8037 13008-100-68 8-9z"/><path d="m7945 12931 43-54 92 78 95 77-44 54-94-78z"/><path d="m8080 12955-92-78 10-10z"/><path d="m7998 12867 46-46 170 175-49 46-85-87z"/><path d="m8129 12909-85-88 10-9z"/><path d="m8054 12812 51-39 75 97 73 95-49 38-75-94z"/><path d="m8180 12870-75-97 12-7z"/><path d="m8117 12766 51-32 63 102 63 104-51 32-63-102z"/><path d="m8231 12836-63-102 12-7z"/><path d="m8180 12727 56-24 51 109 48 111-53 25-51-112z"/><path d="m8287 12812-51-109 12-5z"/><path d="m8248 12698 56-20 36 117 39 114-56 19-36-116z"/><path d="m8340 12795-36-117 14-2z"/><path d="m8318 12676 56-12 24 119 22 121-56 10-24-119z"/><path d="m8398 12783-24-119h14z"/><path d="m8388 12664 59-5 14 242-56 3-7-121z"/><path d="m8454 12780-7-121h14zm7-121 58 5-9 119-8 121-55-3 7-121z"/><path d="m8510 12783 9-119h15z"/><path d="m8534 12664 56 12-22 119-24 119-56-10 22-121z"/><path d="m8568 12795 22-119 14 2z"/><path d="m8604 12678 56 20-39 114-36 116-56-19 39-114z"/><path d="m8621 12812 39-114 12 5z"/><path d="m8672 12703 56 24-51 109-51 112-53-25 48-111z"/><path d="m8677 12836 51-109 12 7z"/><path d="m8740 12734 51 32-63 104-63 102-51-32 63-104z"/><path d="m8728 12870 63-104 12 7z"/><path d="m8803 12773 51 39-75 97-75 94-49-38 73-95z"/><path d="m8779 12909 75-97 10 9z"/><path d="m8864 12821 46 46-82 88-85 87-49-46 85-87z"/><path d="m8828 12955 82-88 10 10z"/><path d="m8920 12877 43 54-92 77-94 78-44-54 95-77z"/><path d="m8871 13008 92-77 8 9z"/><path d="m8971 12940 41 61-100 68-101 68-42-61 102-68z"/><path d="m8912 13069 100-68 7 10z"/><path d="m9019 13011 37 68-107 55-107 59-36-66 106-58z"/><path d="m8949 13134 107-55 4 9z"/><path d="m9060 13088 32 73-223 97-32-75 112-49zm-80 122 112-49 5 10z"/><path d="m9097 13171 27 82-115 39-116 39-27-83 114-38z"/><path d="m9009 13292 115-39 2 15z"/><path d="m9126 13268 39 184-238 49-36-185 118-24z"/><path d="m9046 13476 119-24 2 17z"/><path d="m9167 13469 15 214-243 14-14-213 121-8z"/><path d="m9060 13690 122 7-3 22-7 19-10 20-14 17-15 12-19 12-20 7-19 5h-22l-22-2-19-8-19-9-17-15-13-14-12-20-7-19-5-20v-7z"/><path d="m8939 13683 15-214 242 15-14 213-122-7zm136-207-121-7 2-17z"/><path d="m8956 13452 39-184 116 24 119 24-36 185-119-25z"/><path d="m9111 13292-116-24 2-15z"/><path d="m8997 13253 27-82 116 39 114 38-26 83-117-39z"/><path d="m9140 13210-116-39 5-10z"/><path d="m9029 13161 31-73 112 46 112 49-32 75-112-48z"/><path d="m9172 13134-112-46 5-9z"/><path d="m9065 13079 37-68 213 116-36 66-107-59z"/><path d="m9208 13069-106-58 7-10z"/><path d="m9109 13001 41-61 100 68 102 68-42 61-102-68z"/><path d="m9250 13008-100-68 7-9z"/><path d="m9157 12931 44-54 92 78 95 77-44 54-94-78z"/><path d="m9293 12955-92-78 10-10z"/><path d="m9211 12867 46-46 170 175-49 46-85-87z"/><path d="m9342 12909-85-88 10-9z"/><path d="m9267 12812 51-39 75 97 73 95-49 38-75-94z"/><path d="m9393 12870-75-97 12-7z"/><path d="m9330 12766 51-32 63 102 63 104-51 32-63-102z"/><path d="m9444 12836-63-102 12-7z"/><path d="m9393 12727 56-24 51 109 48 111-53 25-51-112z"/><path d="m9500 12812-51-109 12-5z"/><path d="m9461 12698 55-20 37 117 39 114-56 19-36-116z"/><path d="m9553 12795-37-117 15-2z"/><path d="m9531 12676 56-12 24 119 22 121-56 10-24-119z"/><path d="m9611 12783-24-119h14z"/><path d="m9601 12664 59-5 14 242-56 3-7-121z"/><path d="m9667 12780-7-121h14zm7-121 58 5-9 119-8 121-55-3 7-121z"/><path d="m9723 12783 9-119h15z"/><path d="m9747 12664 56 12-22 119-24 119-56-10 22-121z"/><path d="m9781 12795 22-119 14 2z"/><path d="m9817 12678 56 20-39 114-36 116-56-19 39-114z"/><path d="m9834 12812 39-114 12 5z"/><path d="m9885 12703 56 24-51 109-51 112-53-25 48-111z"/><path d="m9890 12836 51-109 12 7z"/><path d="m9953 12734 51 32-63 104-63 102-51-32 63-104z"/><path d="m9941 12870 63-104 12 7z"/><path d="m10016 12773 51 39-75 97-75 94-49-38 73-95z"/><path d="m9992 12909 75-97 10 9z"/><path d="m10077 12821 46 46-83 88-84 87-49-46 85-87z"/><path d="m10040 12955 83-88 10 10z"/><path d="m10133 12877 43 54-92 77-94 78-44-54 94-77z"/><path d="m10084 13008 92-77 8 9z"/><path d="m10184 12940 41 61-100 68-102 68-41-61 102-68z"/><path d="m10125 13069 100-68 7 10z"/><path d="m10232 13011 36 68-106 55-107 59-36-66 106-58z"/><path d="m10162 13134 106-55 5 9z"/><path d="m10273 13088 32 73-223 97-32-75 112-49zm-80 122 112-49 5 10z"/><path d="m10310 13171 26 82-114 39-116 39-27-83 114-38z"/><path d="m10222 13292 114-39 3 15z"/><path d="m10339 13268 39 184-238 49-36-185 118-24z"/><path d="m10259 13476 119-24 2 17z"/><path d="m10380 13469 15 214-243 14-15-213 122-8z"/><path d="m10273 13690v121l-21-2-20-5-19-10-17-12-15-15-12-17-10-19-5-19-2-15zm0-121h3639v242h-3639v-121z"/></g><g><path d="m4528 810v-895l1316 448z"/><path d="m4673 304h117v119h-117zm-105 13832v-895l1317 448z"/><path d="m4714 13630h117v119h-117z"/><path d="m15458 14136v-895l1317 448z"/><path d="m15604 13630h117v119h-117z"/><path d="m13459 5994h895l-449 1317z"/><path d="m13965 6140v117h-120v-117z"/></g></g></svg>