<svg height="400" viewBox="0 0 13963.332 20202.685" xmlns="http://www.w3.org/2000/svg"><g stroke-linecap="round" stroke-linejoin="round"><g fill-opacity="0"><g fill="#EB0000" stroke="#EB0000" stroke-width="80" transform="translate(-49518.332 -34418.332)"><g fill="none" stroke="#EB0000" stroke-linecap="round" stroke-linejoin="round" stroke-width="80"><path d="m60400 38000h100"/><path d="m58600 38000h-100"/><path d="m59800 38000 150-400 150 400 150 400 150-400"/><path d="m59200 38000 150-400 150 400 150 400 150-400"/><path d="m58600 38000 150-400 150 400 150 400 150-400"/></g><path d="m58500 38000h-500"/><path d="m60500 38000h500"/></g><g fill="#EB0000" stroke="#EB0000" stroke-width="80" transform="translate(-49518.332 -34418.332)"><g fill="none" stroke="#EB0000" stroke-linecap="round" stroke-linejoin="round" stroke-width="80"><path d="m57500 40900v100"/><path d="m57500 39100v-100"/><path d="m57500 40300 400 150-400 150-400 150 400 150"/><path d="m57500 39700 400 150-400 150-400 150 400 150"/><path d="m57500 39100 400 150-400 150-400 150 400 150"/></g><path d="m57500 39000v-500"/><path d="m57500 41000v500"/></g><g fill="#EB0000" stroke="#EB0000" stroke-width="80" transform="translate(-49518.332 -34418.332)"><g fill="none" stroke="#EB0000" stroke-linecap="round" stroke-linejoin="round" stroke-width="80"><path d="m54000 45400v100"/><path d="m54000 43600v-100"/><path d="m54000 44800 400 150-400 150-400 150 400 150"/><path d="m54000 44200 400 150-400 150-400 150 400 150"/><path d="m54000 43600 400 150-400 150-400 150 400 150"/></g><path d="m54000 43500v-500"/><path d="m54000 45500v500"/></g><g fill="#EB0000" stroke="#EB0000" stroke-width="80" transform="translate(-49518.332 -34418.332)"><g fill="none" stroke="#EB0000" stroke-linecap="round" stroke-linejoin="round" stroke-width="80"><path d="m54000 49400v100"/><path d="m54000 47600v-100"/><path d="m54000 48800 400 150-400 150-400 150 400 150"/><path d="m54000 48200 400 150-400 150-400 150 400 150"/><path d="m54000 47600 400 150-400 150-400 150 400 150"/></g><path d="m54000 47500v-500"/><path d="m54000 49500v500"/></g><g fill="#EB0000" stroke="#EB0000" stroke-width="0"><circle cx="11481.668" cy="9581.668" fill="none" r="1110" stroke-width="100"/><g transform="translate(-49518.332 -34418.332)"><g fill="none" fill-opacity="0" stroke-width="80"><path d="m60750 43750 750-750"/><path d="m60750 44250 750 750"/></g><path d="m60750 43250v1500" fill="none" stroke-width="200"/><path d="m61000 44700 200-200 200 400z" fill="#EB0000" fill-opacity="1" fill-rule="evenodd" stroke-width="80"/><g fill="#EB0000" fill-opacity="0" stroke-width="80"><path d="m60750 44000h-2250"/><text font-size="660" lengthAdjust="spacingAndGlyphs" opacity="0" text-anchor="middle" textLength="540" x="59620" y="44620">1</text><path d="m59760 44590h-290"/><path d="m59620 44590v-500l-50 70-50 50-50 20"/><path d="m61500 43000v-1000"/><text font-size="660" lengthAdjust="spacingAndGlyphs" opacity="0" text-anchor="middle" textLength="560" transform="matrix(0 -1 1 0 19120 104120)" x="61620" y="43000">2</text><path d="m61640 42640-20-30-30-40v-120l30-50 20-20 50-30h40l80 30 280 280v-310"/><path d="m61500 45000v1000"/><text font-size="660" lengthAdjust="spacingAndGlyphs" opacity="0" text-anchor="middle" textLength="560" transform="matrix(0 -1 1 0 16120 107120)" x="61620" y="46000">3</text><path d="m61590 45660v-310l190 170v-70l30-50 20-20 50-30h120l40 30 30 20 20 50v140l-20 50-30 20"/></g></g></g><g fill="#EB0000" stroke="#EB0000" stroke-width="0"><circle cx="7481.668" cy="12081.668" fill="none" r="1110" stroke-width="100"/><g transform="translate(-49518.332 -34418.332)"><g fill="none" fill-opacity="0" stroke-width="80"><path d="m56750 46250 750-750"/><path d="m56750 46750 750 750"/></g><path d="m56750 45750v1500" fill="none" stroke-width="200"/><path d="m57000 47200 200-200 200 400z" fill="#EB0000" fill-opacity="1" fill-rule="evenodd" stroke-width="80"/><g fill="#EB0000" fill-opacity="0" stroke-width="80"><path d="m56750 46500h-2250"/><text font-size="660" lengthAdjust="spacingAndGlyphs" opacity="0" text-anchor="middle" textLength="560" x="55620" y="47120">1</text><path d="m55760 47090h-290"/><path d="m55620 47090v-500l-50 70-50 50-50 20"/><path d="m57500 45500v-1000"/><text font-size="660" lengthAdjust="spacingAndGlyphs" opacity="0" text-anchor="middle" textLength="560" transform="matrix(0 -1 1 0 12620 102620)" x="57620" y="45500">2</text><path d="m57640 45140-20-30-30-40v-120l30-50 20-20 50-30h40l80 30 280 280v-310"/><path d="m57500 47500v1000"/><text font-size="660" lengthAdjust="spacingAndGlyphs" opacity="0" text-anchor="middle" textLength="560" transform="matrix(0 -1 1 0 9620 105620)" x="57620" y="48500">3</text><path d="m57590 48160v-310l190 170v-70l30-50 20-20 50-30h120l40 30 30 20 20 50v140l-20 50-30 20"/></g></g></g><g fill="#EB0000" stroke="#EB0000" stroke-width="80" transform="translate(-49518.332 -34418.332)"><g fill="none" fill-opacity="0"><path d="m62000 40500h-1000"/><path d="m61500 40500v-1000"/></g><g fill="#EB0000"><path d="m62000 39500h-1000l500 1000z" fill-opacity="1" fill-rule="evenodd"/><g fill-opacity="0"><path d="m61800 41200 600 600v-300 300h-300" fill="none" stroke="#EB0000" stroke-linecap="round" stroke-linejoin="round" stroke-width="80"/><path d="m61800 40700 600 600v-300 300h-300" fill="none" stroke="#EB0000" stroke-linecap="round" stroke-linejoin="round" stroke-width="80"/><path d="m61500 40500v1000"/><path d="m61500 39500v-1000"/></g></g></g><g fill="#EB0000" stroke="#EB0000" stroke-width="80" transform="translate(-49518.332 -34418.332)"><g fill="none" stroke="#EB0000"><path d="m51200 37000 300-500"/><path d="m51500 37500v-1000"/><path d="m51500 36500 300 500"/></g><g fill="#00EB84" stroke="#00EB84"><text font-size="660" lengthAdjust="spacingAndGlyphs" opacity="0" text-anchor="middle" textLength="1600" x="51650" y="36030">+9V</text><path d="m51000 35810h380"/><path d="m51190 36000v-380"/><path d="m51650 36000h90l50-20 20-30 50-70 20-90v-190l-20-50-20-20-50-30h-100l-40 30-30 20-20 50v120l20 40 30 30 40 20h100l50-20 20-30 20-40"/><path d="m52030 35500 160 500 170-500"/></g></g><g fill="#00EB84" stroke="#EB0000" stroke-width="0"><g fill="#EB0000" fill-opacity="1" stroke-width="80"><path d="m1081.668 9881.668h1800v100h-1800z"/><path d="m1361.668 10111.668h1200v200h-1200z"/></g><g fill-opacity="0" transform="translate(-49518.332 -34418.332)"><g fill="none" stroke-width="80"><path d="m51500 44700v300"/><path d="m51500 44300v-300"/></g><g fill="none" stroke-width="100"><path d="m51700 43650h400"/><path d="m51900 43450v400"/></g><g fill="#EB0000" stroke-width="80"><path d="m51500 44000v-1000"/><path d="m51500 45000v1000"/></g></g></g><g fill="#EB0000" stroke="#EB0000" stroke-width="80" transform="translate(-49518.332 -34418.332)"><path d="m51500 51500v500h500l-500 500-500-500h500" fill="none" stroke="#EB0000"/><g fill="#00EB84" fill-opacity="0" stroke="#00EB84"><text font-size="660" lengthAdjust="spacingAndGlyphs" opacity="0" text-anchor="middle" textLength="1600" x="51550" y="53530">GND</text><path d="m51160 53030-40-30h-70l-80 30-40 40-30 50-20 100v70l20 90 30 50 40 50 80 20h40l70-20 30-30v-160h-100"/><path d="m51400 53500v-500l290 500v-500"/><path d="m51930 53500v-500h120l70 30 40 40 30 50 20 100v70l-20 90-30 50-40 50-70 20z"/></g></g><g fill="#00EB00" stroke="#00EB00" stroke-width="60" transform="translate(-49518.332 -34418.332)"><path d="m58000 38000h-500"/><path d="m57500 38000v500"/><path d="m58500 44000h-1000"/><path d="m57500 44000v-2500"/><path d="m57500 44000v500"/><path d="m51500 37500v500"/><path d="m61500 50500h-4000"/><path d="m54000 46000v500"/><path d="m54000 46500h500"/><path d="m61500 41500v500"/><path d="m54000 46500v500"/><path d="m54000 43000v-5000"/><path d="m54000 38000h3500"/><path d="m51500 38000h2500"/><path d="m54000 50000v500"/><path d="m51500 43000v-5000"/><path d="m57500 48500v2000"/><path d="m61500 46000v4500"/><path d="m61500 38000v500"/><path d="m61000 38000h500"/><path d="m51500 46000v4500"/><path d="m54000 50500h3500"/><path d="m54000 50500h-2500"/><path d="m51500 50500v1000"/></g></g><circle cx="1981.668" cy="16081.668" fill="#00EB00" r="200" stroke="#00EB00" stroke-width="100"/><circle cx="4481.668" cy="16081.668" fill="#00EB00" r="200" stroke="#00EB00" stroke-width="100"/><circle cx="7981.668" cy="16081.668" fill="#00EB00" r="200" stroke="#00EB00" stroke-width="100"/><circle cx="7981.668" cy="3581.668" fill="#00EB00" r="200" stroke="#00EB00" stroke-width="100"/><circle cx="4481.668" cy="3581.668" fill="#00EB00" r="200" stroke="#00EB00" stroke-width="100"/><circle cx="4481.668" cy="12081.668" fill="#00EB00" r="200" stroke="#00EB00" stroke-width="100"/><circle cx="7981.668" cy="9581.668" fill="#00EB00" r="200" stroke="#00EB00" stroke-width="100"/><circle cx="1981.668" cy="3581.668" fill="#00EB00" r="200" stroke="#00EB00" stroke-width="100"/></g></svg>