<svg xmlns="http://www.w3.org/2000/svg" viewBox="0 0 11777 23163" height="400"><defs/><g fill-opacity="0" stroke="#000" stroke-linecap="round" stroke-linejoin="round" stroke-width="0"><circle cx="51650" cy="43500" r="1100" fill="none" stroke="#EB0000" stroke-width="100" transform="translate(-42624 -33418)"/><g fill="#EB0000" fill-opacity="1" stroke="#EB0000" stroke-width="60" transform="translate(-42624 -33418)"><circle cx="52000" cy="44200" r="100"/><circle cx="52000" cy="42800" r="100"/></g><path fill="none" stroke="#EB0000" stroke-width="60" d="M8476 10082H7376"/><g fill="none" stroke="#EB0000" stroke-width="100"><path d="M8476 9332v1500M8676 10582v400M8676 9882v400M8676 9182v400"/></g><g fill="none" stroke="#EB0000" stroke-width="60"><path d="M9376 9082v300M9376 11082v-1000h-700"/><path d="M8676 10782h1000V9382H8676"/></g><path fill="#EB0000" fill-opacity="1" fill-rule="evenodd" stroke="#EB0000" stroke-width="60" d="M8776 10082l400-150v300z"/><g fill="#EB0000" stroke="#EB0000" stroke-width="60"><path fill="none" d="M9476 9882l50 50h300l50 50"/><path fill="none" d="M9676 9932l-150 250h300zM7376 10082H6376M7016 10652h-290M6876 10652v-500l-50 70-50 50-50 20M9376 9082V8082M9496 8722l-20-30-30-40v-120l30-50 20-20 50-30h40l80 30 280 280v-310M9376 11082v1000M9446 11742v-310l190 170v-70l30-50 20-20 50-30h120l40 30 30 20 20 50v140l-20 50-30 20"/></g><g fill="#00EB84" stroke="#00EB84" stroke-width="60"><path fill="none" d="M10406 9762l20-70 30-30 40-20h80l40 20 30 30 20 40v200h-500v-170l30-50 20-20 50-30h40l50 30 30 20 20 50v170M10666 9432h-500M10196 8932l-30 40v70l30 80 40 40 50 30 100 20h70l90-20 50-30 50-40 20-80v-40l-20-70-30-30h-160v100"/></g></g><g fill="#00EB84" fill-opacity="0" stroke="#00EB84" stroke-linecap="round" stroke-linejoin="round" stroke-width="0"><path fill="none" stroke="#EB0000" stroke-width="60" d="M9376 20082v500h500l-500 500-500-500h500"/><g fill="none" stroke-width="60"><path d="M9036 21582l-40-30h-70l-80 30-40 40-30 50-20 100v70l20 90 30 50 40 50 80 20h40l70-20 30-30v-160h-100M9276 22052v-500l290 500v-500M9806 22052v-500h120l70 30 40 40 30 50 20 100v70l-20 90-30 50-40 50-70 20h-120"/></g></g><g fill="#00EB84" fill-opacity="0" stroke="#00EB84" stroke-linecap="round" stroke-linejoin="round" stroke-width="0"><g fill="none" stroke="#EB0000" stroke-width="60"><path d="M9376 6582a250 250 0 000-500M9376 6082a250 250 0 000-500M9376 5582a250 250 0 000-500M9376 5082a250 250 0 000-500M9376 4582v-500M9376 6582v500"/></g></g><g fill="#EB0000" fill-opacity="0" stroke="#EB0000" stroke-linecap="round" stroke-linejoin="round" stroke-width="0"><g fill="none" stroke-width="60"><path d="M9076 2582l300-500M9376 3082V2082M9376 2082l300 500"/></g><g fill="none" stroke="#00EB84" stroke-width="60"><path d="M8636 1402h390M8826 1592v-380M9476 1262v330M9356 1072l-120 350h310M9806 1312l-50-30-20-20-20-50v-20l20-50 20-20 50-30h100l40 30 30 20 20 50v20l-20 50-30 20-40 30h-100l-50 20-20 20-20 50v100l20 40 20 30 50 20h100l40-20 30-30 20-40v-100l-20-50-30-20-40-20M10136 1092l170 500 170-500"/></g></g><g fill="#00EB84" fill-opacity="0" stroke="#00EB84" stroke-linecap="round" stroke-linejoin="round" stroke-width="0"><g fill="none" stroke="#EB0000" stroke-width="60"><path d="M2976 10082h-100M4776 10082h100M3576 10082l-150 400-150-400-150-400-150 400M4176 10082l-150 400-150-400-150-400-150 400M4776 10082l-150 400-150-400-150-400-150 400M4876 10082h500M2876 10082h-500"/></g></g><g fill="#EB0000" fill-opacity="0" stroke="#EB0000" stroke-linecap="round" stroke-linejoin="round" stroke-width="0"><path fill="none" stroke-width="60" d="M7876 3582H6876"/><g fill="none" stroke-width="80"><path d="M6876 4082V3082h200"/><path d="M7876 4082V3082l-1000 500z"/></g><g fill="none" stroke-width="60"><path d="M6876 3582H5876M7876 3582h1000"/></g></g><g fill="#EB0000" fill-opacity="0" stroke="#EB0000" stroke-linecap="round" stroke-linejoin="round" stroke-width="0"><g fill="none" stroke-width="60"><path d="M1576 7082l300-500M1876 7582V6582M1876 6582l300 500"/></g><g fill="none" stroke="#00EB84" stroke-width="60"><path d="M1136 5902h390M1326 6092v-380M2026 6092h-290M1876 6092v-500l-50 70-40 50-50 20M2216 5642l20-20 50-30h120l40 30 30 20 20 50v40l-20 80-290 280h310M2636 5592l170 500 170-500"/></g></g><g fill="#00EB84" fill-opacity="0" stroke="#00EB84" stroke-linecap="round" stroke-linejoin="round" stroke-width="0"><path fill="none" stroke="#EB0000" stroke-width="80" d="M5876 5082H4876"/><path fill="none" stroke="#EB0000" stroke-width="60" d="M5376 6082V5082"/><path fill="none" stroke="#EB0000" stroke-width="80" d="M5876 6082H4876l500-1000z"/><g fill="none" stroke="#EB0000" stroke-width="60"><path d="M5376 5082V4082M5376 6082v1000"/></g></g><g fill="#EB0000" fill-opacity="0" stroke="#EB0000" stroke-linecap="round" stroke-linejoin="round" stroke-width="0"><circle cx="51650" cy="50000" r="1100" fill="none" stroke-width="100" transform="translate(-42624 -33418)"/><g fill-opacity="1" stroke-width="60" transform="translate(-42624 -33418)"><circle cx="52000" cy="50700" r="100"/><circle cx="52000" cy="49300" r="100"/></g><path fill="none" stroke-width="60" d="M8476 16582H7376"/><g fill="none" stroke-width="100"><path d="M8476 15832v1500M8676 17082v400M8676 16382v400M8676 15682v400"/></g><g fill="none" stroke-width="60"><path d="M9376 15582v300M9376 17582v-1000h-700"/><path d="M8676 17282h1000v-1400H8676"/></g><path fill-opacity="1" fill-rule="evenodd" stroke-width="60" d="M8776 16582l400-150v300z"/><g stroke-width="60"><path fill="none" d="M9476 16382l50 50h300l50 50"/><path fill="none" d="M9676 16432l-150 250h300zM7376 16582H6376M7016 17152h-290M6876 17152v-500l-50 70-50 50-50 20M9376 15582v-1000M9496 15222l-20-30-30-40v-120l30-50 20-20 50-30h40l80 30 280 280v-310M9376 17582v1000M9446 18242v-310l190 170v-70l30-50 20-20 50-30h120l40 30 30 20 20 50v140l-20 50-30 20"/></g><g fill="#00EB84" stroke="#00EB84" stroke-width="60"><path fill="none" d="M10646 16442l20-70v-120l-20-50-30-20-40-20h-50l-50 20-20 20-30 50-20 100-20 50-30 20-50 20h-40l-50-20-20-20-30-50v-120l30-70M10666 15942h-500l360-160-360-170h500M10526 15402v-240M10666 15442l-500-160 500-170M10666 14702v240h-500M10666 14302v240h-500"/></g></g><g fill="#00EB84" fill-opacity="0" stroke="#00EB84" stroke-linecap="round" stroke-linejoin="round" stroke-width="0"><g fill="none" stroke="#EB0000" stroke-width="60"><path d="M5876 11182v-100M5876 12982v100M5876 11782l-400-150 400-150 400-150-400-150M5876 12382l-400-150 400-150 400-150-400-150M5876 12982l-400-150 400-150 400-150-400-150M5876 13082v500M5876 11082v-500"/></g></g><g fill="none" fill-opacity="0" stroke="#00EB00" stroke-linecap="round" stroke-linejoin="round" stroke-width="60"><path d="M9376 3582v500M9376 7082v500M5376 3582v500M5376 7082v500M5376 7582h4000M8876 3582h500M5876 3582h-500M9376 18582v1500M5376 10082h500M5876 10082v500M5876 10082h500M5876 13582v500M9376 12082v2000M5876 14082h3500M9376 14082v500M5376 16582h1000M2376 10082h-500M1876 10082V7582M9376 3082v500M9376 7582v500"/></g><g fill="none" fill-opacity="0" stroke="#EB0000" stroke-linecap="round" stroke-linejoin="round" stroke-width="60"><path d="M2076 16752l-20 30-70 20h-50l-70-20-50-50-20-50-30-90v-70l30-100 20-50 50-40 70-30h50l70 30 20 20M2386 16302h100l50 30 40 40 30 100v160l-30 100-40 50-50 20h-100l-50-20-40-50-30-100v-160l30-100 40-40 50-30M2816 16802v-500l290 500v-500M3266 16302h290M3416 16802v-500M4006 16802l-170-240M3726 16802v-500h190l40 30 30 20 20 50v70l-20 50-30 20-40 20h-190M4316 16302h100l40 30 50 40 30 100v160l-30 100-50 50-40 20h-100l-50-20-40-50-30-100v-160l30-100 40-40 50-30M4986 16802h-240v-500"/></g><path fill="none" fill-opacity="0" stroke="#EB0000" stroke-linecap="round" stroke-linejoin="round" stroke-width="100" d="M5376 16582l-250-440H1536v880h3590z"/><circle cx="52000" cy="37000" r="200" fill="#00EB00" stroke="#00EB00" stroke-linecap="round" stroke-linejoin="round" stroke-width="100" transform="translate(-42624 -33418)"/><circle cx="52000" cy="41000" r="200" fill="#00EB00" stroke="#00EB00" stroke-linecap="round" stroke-linejoin="round" stroke-width="100" transform="translate(-42624 -33418)"/><circle cx="48500" cy="43500" r="200" fill="#00EB00" stroke="#00EB00" stroke-linecap="round" stroke-linejoin="round" stroke-width="100" transform="translate(-42624 -33418)"/><circle cx="52000" cy="47500" r="200" fill="#00EB00" stroke="#00EB00" stroke-linecap="round" stroke-linejoin="round" stroke-width="100" transform="translate(-42624 -33418)"/></svg>
