<svg height="400" viewBox="0 0 12470 16040" xmlns="http://www.w3.org/2000/svg"><g stroke-linecap="round" stroke-linejoin="round"><g fill-opacity="0" stroke="#EB0000" stroke-width="0"><g fill="#EB0000" fill-opacity="1" stroke-width="80"><path d="m10130 8820h1800v100h-1800z"/><path d="m10410 9050h1200v200h-1200z"/></g><g fill="none" transform="translate(-11970 -5980)"><path d="m23000 15200v300m0-700v-300" stroke-width="80"/><path d="m23200 14150h400m-200-200v400" stroke-width="100"/><path d="m23000 14500v-1000m0 2000v1000" stroke-width="80"/></g></g><g transform="translate(-11970 -5980)"><g fill="#EB0000" fill-opacity="0" stroke="#EB0000" stroke-width="0"><circle cx="20150" cy="15000" fill="none" r="1100" stroke-width="100"/><g fill-opacity="1" stroke-width="80"><circle cx="20500" cy="15700" r="100"/><circle cx="20500" cy="14300" r="100"/></g><g fill="none"><path d="m19600 15000h-1100" stroke-width="80"/><path d="m19600 14250v1500m200-250v400m0-1100v400m0-1100v400" stroke-width="100"/><g stroke-width="80"><path d="m20500 14000v300m0 1700v-1000h-700"/><path d="m19800 15700h1000v-1400h-1000"/></g></g><path d="m19900 15000 400-150v300z" fill-opacity="1" fill-rule="evenodd" stroke-width="80"/><g fill="none" stroke-width="80"><path d="m20600 14800 50 50h300l50 50"/><path d="m20800 14850-150 250h300zm-2300 150h-1000m640 590h-290m150 0v-500l-50 70-50 50-50 20m2650-1230v-1000m140 640-20-30-30-40v-120l30-50 20-20 50-30h40l80 30 280 280v-310m-590 2650v1000m90-340v-310l190 170v-70l30-50 20-20 50-30h120l40 30 30 20 20 50v140l-20 50-30 20"/></g></g><g fill="none" fill-opacity="0" stroke="#EB0000" stroke-width="80"><path d="m20500 19500v500h500l-500 500-500-500h500"/><path d="m20160 21010-40-30h-70l-80 30-40 40-30 50-20 100v70l20 90 30 50 40 50 80 20h40l70-20 30-30v-160h-100m310 210v-500l290 500v-500m240 500v-500h120l70 30 40 40 30 50 20 100v70l-20 90-30 50-40 50-70 20z" stroke="#00EB84"/></g><g fill="#00EB84" fill-opacity="0" stroke="#EB0000" stroke-width="80"><path d="m21000 11500h-1000m500 0v-1000" fill="none"/><path d="m21000 10500h-1000l500 1000z" fill="#EB0000" fill-opacity="1" fill-rule="evenodd"/><path d="m20800 12200 600 600v-300 300h-300m-300-1100 600 600v-300 300h-300m-600-800v1000m0-2000v-1000" fill="none"/></g><g fill="none" fill-opacity="0" stroke="#EB0000" stroke-width="80"><path d="m20200 8000 300-500m0 1000v-1000m0 0 300 500"/><path d="m20000 6830h380m-190 190v-380m460 380h90l50-20 20-30 50-70 20-90v-190l-20-50-20-20-50-30h-100l-40 30-30 20-20 50v120l20 40 30 30 40 20h100l50-20 20-30 20-40m150-220 160 500 170-500" stroke="#00EB84"/></g><path d="m14100 15000h-100m1900 0h100m-1300 0-150 400-150-400-150-400-150 400m1200 0-150 400-150-400-150-400-150 400m1200 0-150 400-150-400-150-400-150 400m700 0h500m-2500 0h-500" fill="none" stroke="#EB0000" stroke-width="80"/><path d="m17000 17900v100m0-1900v-100m0 1300 400 150-400 150-400 150 400 150m0-1200 400 150-400 150-400 150 400 150m0-1200 400 150-400 150-400 150 400 150m0-700v-500m0 2500v500" fill="none" stroke="#EB0000" stroke-width="80"/><path d="m16500 15000h500m0 500v-500m0 0h500m-500 3500v500m0 0h3500m0 0v-2000m2500-500v2500m0 0h-2500m0 0v500m0-6500v-500m0-3000v-500m0 0h2500m0 0v4500m-2500-5000v500m-8000 6000h1000m-1000-2500v2500m0-2500h500" fill="none" stroke="#00EB00" stroke-width="60"/><path d="m13460 12580h240m-290 140 170-500 170 500m450 0-170-240m-120 240v-500h190l50 30 20 20 30 50v70l-30 50-20 20-50 20h-190m500 240v-500h120l70 30 50 40 20 50 30 100v70l-30 90-20 50-50 50-70 20zm500-500v410l30 40 20 30 50 20h90l50-20 20-30 30-40v-410m240 500v-500m230 500v-500l290 500v-500m330 0h100l50 30 40 40 30 100v160l-30 100-40 50-50 20h-100l-40-20-50-50-30-100v-160l30-100 50-40zm310 550h380m360-550h-240l-20 240 20-20 50-30h120l50 30 20 20 30 50v120l-30 40-20 30-50 20h-120l-50-20-20-30m430-450 160 500 170-500" fill="none" stroke="#EB0000" stroke-width="80"/></g><path d="m1030 6520 250 470h4790v-940h-4790z" fill="none" stroke="#EB0000" stroke-width="100"/><circle cx="5030" cy="9020" fill="#00EB00" r="200" stroke="#00EB00" stroke-width="100"/><circle cx="8530" cy="13020" fill="#00EB00" r="200" stroke="#00EB00" stroke-width="100"/><circle cx="8530" cy="3020" fill="#00EB00" r="200" stroke="#00EB00" stroke-width="100"/></g></svg>
