<svg height="400" viewBox="0 0 1024 768" xmlns="http://www.w3.org/2000/svg"><text fill="#fff" font-family="sans" font-size="56" font-weight="400" x="100" y="440"><tspan font-family="Sans" x="100" y="440">Off-State</tspan></text><text fill="#fff" font-family="sans" font-size="56" font-weight="400" x="100" y="83"><tspan font-family="Sans" x="100" y="83">On-State</tspan></text><g fill="grey"><path d="m494 493h-85v-6h85zm0 233h-289v-6h289zm-289-3v3h-2v-1l-1-1v-1z"/><path d="m202 723v-233h7v233zm3-233h-3v-1l1-1v-1h2z"/><path d="m205 487h102v6h-102zm102 3 1 3h-1z"/><path d="m306 487 102-33 1 3 1 3-102 33-1-3z"/></g><g fill="#f00"><path d="m494 487h85v6h-85zm85 3h3v1l-1 1v1h-2z"/><path d="m575 490 1-6h6v6zm4-6h-3v-1z"/><path d="m576 483 1-5 3 1 3 1-1 5-3-1zm4-4-3-1z"/><path d="m577 478 1-2 3 1 3 1-1 2-3-1z"/><path d="m581 477-3-1v-1z"/><path d="m578 475 1-2 3 2 3 1-1 2-3-1zm4 0-3-2z"/><path d="m579 473 1-2 3 2 3 1-1 2-3-1zm4 0-3-2z"/><path d="m580 471 1-2 3 2 3 2-1 2-3-2zm4 0-3-2z"/><path d="m581 469 2-1 2 2 3 2-1 1-3-2z"/><path d="m585 470-2-2v-1z"/><path d="m583 467 1-1 2 3 3 2-2 1-2-2zm3 2-2-3z"/><path d="m584 466 2-1 2 2 2 3-1 1-3-2zm4 1-2-2z"/><path d="m586 465 2-1 1 3 2 2-1 1-2-3zm3 2-1-3z"/><path d="m588 464 1-1 2 3 1 3-1 1-2-3z"/><path d="m591 466-2-3h1z"/><path d="m590 463 1-1 1 3 1 4h-1l-1-3z"/><path d="m592 465-1-3h1zm0-3h1l1 3 1 3-2 1-1-4z"/><path d="m594 465-1-3h1zm0-3h1l1 3v3h-2zm2 3-1-3h1z"/><path d="m596 462h1v6h-2l1-3zm1 3v-3h1z"/><path d="m598 462h1v3l-1 4-2-1 1-3zm1 3v-3h1z"/><path d="m600 462 1 1-1 3-1 3h-1l1-4z"/><path d="m600 466 1-3h1z"/><path d="m602 463 1 1-1 3-2 3-1-1 1-3z"/><path d="m602 467 1-3h1z"/><path d="m604 464 1 1-2 2-2 3-1-1 2-2zm-1 3 2-2z"/><path d="m605 465 2 1-2 3-2 2-2-1 2-3zm0 4 2-3z"/><path d="m607 466 1 1-2 3-2 2-2-1 3-2z"/><path d="m606 470 2-3 1 1z"/><path d="m609 468 1 1-3 2-2 2-2-1 3-2zm-2 3 3-2z"/><path d="m610 469 1 2-3 2-2 2-2-2 3-2zm-2 4 3-2z"/><path d="m611 471 1 2-3 2-3 1-1-2 3-1z"/><path d="m609 475 3-2h1z"/><path d="m613 473v2l-3 2-3 1-1-2 3-1z"/><path d="m610 477 3-2 1 1z"/><path d="m614 476v2l-3 1-3 1-1-2 3-1zm-3 3 3-1z"/><path d="m614 478 1 5-3 1-3 1-1-5 3-1zm-2 6 3-1v1z"/><path d="m615 484 1 6h-7v-6zm-2 6h3v1l-1 1v1h-4l-1-1-1-1v-1z"/><path d="m609 490 1-6h6v6zm4-6h-3v-1z"/><path d="m610 483 1-5 3 1 3 1-1 5-3-1zm4-4-3-1z"/><path d="m611 478v-2l4 1 3 1-1 2-3-1z"/><path d="m615 477-4-1 1-1z"/><path d="m612 475 1-2 3 2 3 1-1 2-3-1zm4 0-3-2z"/><path d="m613 473 1-2 3 2 3 1-1 2-3-1zm4 0-3-2z"/><path d="m614 471 1-2 3 2 3 2-2 2-2-2zm4 0-3-2z"/><path d="m615 469 1-1 3 2 3 2-2 1-2-2z"/><path d="m619 470-3-2 1-1z"/><path d="m617 467 1-1 2 3 3 2-2 1-2-2zm3 2-2-3z"/><path d="m618 466 2-1 2 2 2 3-2 1-2-2zm4 1-2-2z"/><path d="m620 465 1-1 2 3 2 2-1 1-2-3z"/><path d="m623 467-2-3h1z"/><path d="m622 464 1-1 2 3 1 3-1 1-2-3z"/><path d="m625 466-2-3h1z"/><path d="m624 463 1-1 1 3 1 4h-1l-1-3z"/><path d="m626 465-1-3h1zm0-3h1l1 3 1 3-2 1-1-4z"/><path d="m628 465-1-3h1zm0-3h1v3l1 3h-2z"/><path d="m629 465v-3h1zm1-3h1v6h-2v-3zm1 3v-3h1z"/><path d="m632 462h1v3l-1 4-2-1 1-3zm1 3v-3h1z"/><path d="m634 462 1 1-1 3-1 3h-1l1-4z"/><path d="m634 466 1-3h1z"/><path d="m636 463 1 1-1 3-2 3-1-1 1-3zm0 4 1-3z"/><path d="m637 464 2 1-2 2-2 3-1-1 2-2zm0 3 2-2z"/><path d="m639 465 2 1-2 3-3 2-1-1 2-3zm0 4 2-3z"/><path d="m641 466 1 1-2 3-2 2-2-1 3-2z"/><path d="m640 470 2-3v1z"/><path d="m642 468 2 1-3 2-3 2-1-1 3-2zm-1 3 3-2z"/><path d="m644 469 1 2-3 2-3 2-1-2 3-2zm-2 4 3-2z"/><path d="m645 471 1 2-3 2-3 1-1-2 3-1zm-2 4 3-2z"/><path d="m646 473 1 2-3 2-3 1-1-2 3-1z"/><path d="m644 477 3-2v1z"/><path d="m647 476 1 2-3 1-3 1-1-2 3-1zm-2 3 3-1z"/><path d="m648 478 1 5-3 1-3 1-1-5 3-1zm-2 6 3-1v1z"/><path d="m649 484 1 6h-7v-6zm-3 6h4v1l-1 1-1 1h-3l-1-1-1-1v-1z"/><path d="m643 490v-6h7v6zm4-6h-4l1-1z"/><path d="m644 483 1-5 3 1 3 1-1 5-3-1zm4-4-3-1z"/><path d="m645 478v-2l4 1 3 1-1 2-3-1z"/><path d="m649 477-4-1 1-1z"/><path d="m646 475v-2l4 2 3 1-1 2-3-1z"/><path d="m650 475-4-2h1z"/><path d="m647 473 1-2 3 2 3 1-1 2-3-1zm4 0-3-2z"/><path d="m648 471 1-2 3 2 3 2-2 2-2-2zm4 0-3-2z"/><path d="m649 469 1-1 3 2 3 2-2 1-2-2z"/><path d="m653 470-3-2 1-1z"/><path d="m651 467 1-1 2 3 3 2-2 1-2-2zm3 2-2-3z"/><path d="m652 466 2-1 2 2 2 3-2 1-2-2zm4 1-2-2z"/><path d="m654 465 1-1 2 3 2 2-2 1-1-3z"/><path d="m657 467-2-3h1z"/><path d="m656 464 1-1 2 3 1 3-1 1-2-3z"/><path d="m659 466-2-3h1z"/><path d="m658 463 1-1 1 3 1 4h-1l-1-3z"/><path d="m660 465-1-3h1zm0-3h1l1 3v3l-1 1-1-4zm2 3-1-3h1zm0-3h1v3l1 3h-2z"/><path d="m663 465v-3h1zm1-3h1v6h-2v-3zm1 3v-3h1z"/><path d="m666 462h1v3l-1 4-2-1 1-3zm1 3v-3h1z"/><path d="m668 462 1 1-1 3-1 3h-2l2-4zm0 4 1-3z"/><path d="m669 463 2 1-1 3-2 3-1-1 1-3zm1 4 1-3z"/><path d="m671 464 2 1-2 2-2 3-1-1 2-2zm0 3 2-2z"/><path d="m673 465 2 1-3 3-2 2-1-1 2-3zm-1 4 3-3zm3-3 1 1-2 3-3 2-1-1 2-2z"/><path d="m674 470 2-3v1z"/><path d="m676 468 2 1-3 2-3 2-1-1 3-2zm-1 3 3-2z"/><path d="m678 469 1 2-3 2-3 2-1-2 3-2zm-2 4 3-2z"/><path d="m679 471 1 2-3 2-3 1-1-2 3-1zm-2 4 3-2z"/><path d="m680 473 1 2-3 2-3 1-1-2 3-1z"/><path d="m678 477 3-2v1z"/><path d="m681 476 1 2-3 1-3 1-1-2 3-1zm-2 3 3-1z"/><path d="m682 478 1 5-3 1-3 1-1-5 3-1zm-2 6 3-1v1z"/><path d="m683 484 1 6h-7v-6zm-3 6v3h-1l-1-1h-1v-2z"/><path d="m680 487h221v6h-221zm221 3v-3h2v1h1v2z"/><path d="m904 490v233h-7v-233zm-3 233h3v2h-1v1h-2z"/><path d="m901 726h-407v-6h407zm-407-3v3h-2l-1-1v-1h-1v-1z"/><path d="m490 723v-233h7v233zm4-233h-4v-1h1v-1l1-1h2z"/></g><g fill="grey"><path d="m205 660h-5v-7h6l-1 3zm-5-4v4z"/><path d="m200 660-5-1v-4l1-3 5 1-1 3zm-5-5v4h-1z"/><path d="m194 659-4-2v-3l1-3 5 1-1 3zm-4-5v3h-1z"/><path d="m189 657-5-1 2-3 1-4 4 2-1 3zm-3-4-2 3z"/><path d="m184 656-4-3 1-3 2-3 4 3-1 3z"/><path d="m181 650-1 3h-1z"/><path d="m179 653-4-2 2-3 2-3 4 3-2 2zm-2-5-2 3z"/><path d="m175 651-4-3 2-3 2-3 4 3-2 3zm-2-6-2 3z"/><path d="m171 648-4-4 2-2 3-3 3 4-2 2zm-2-6-2 2z"/><path d="m167 644-3-3 2-3 3-2 3 4-3 2z"/><path d="m166 638-2 3-1-1z"/><path d="m163 640-2-4 2-2 3-2 3 4-3 2z"/><path d="m163 634-2 2h-1z"/><path d="m160 636-2-4 3-2 3-1 2 4-3 1zm1-6-3 2z"/><path d="m158 632-2-5 3-1 3-2 2 5-3 1z"/><path d="m159 626-3 1h-1z"/><path d="m155 627-1-5 3-1 3-1 2 5-3 1zm2-6-3 1z"/><path d="m154 622-2-5h4l3-1 1 4-3 1zm2-5h-4z"/><path d="m152 617-1-5h4l3-1 1 5-3 1zm3-5h-4z"/><path d="m151 612v-5h4l3-1v5l-3 1z"/><path d="m155 607h-4v-1z"/><path d="m151 606v-5h4l3 1v5h-3zm4-5h-4z"/><path d="m151 601 1-5h4l3 1-1 5-3-1zm5-5h-4z"/><path d="m152 596 2-5 3 1 3 1-1 4-3-1zm5-4-3-1z"/><path d="m154 591 1-5 4 1 3 1-2 5-3-1z"/><path d="m159 587-4-1h1z"/><path d="m156 586 2-5 3 2 3 1-2 5-3-2zm5-3-3-2z"/><path d="m158 581 2-4 3 2 3 1-2 4-3-1z"/><path d="m163 579-3-2h1z"/><path d="m161 577 2-4 3 2 3 2-3 4-3-2z"/><path d="m166 575-3-2 1-1z"/><path d="m164 572 3-3 2 2 3 2-3 4-3-2zm5-1-2-2z"/><path d="m167 569 4-4 2 3 2 2-3 4-3-3zm6-1-2-3z"/><path d="m171 565 4-3 2 3 2 3-4 3-2-3zm6 0-2-3z"/><path d="m175 562 4-2 2 3 2 2-4 3-2-3z"/><path d="m181 563-2-3h1z"/><path d="m180 560 4-3 2 3 1 3-4 3-2-3zm6 0-2-3z"/><path d="m184 557 5-1 1 3 1 3-4 2-1-4z"/><path d="m190 559-1-3h1zm0-3 4-2 1 4 1 3-5 1-1-3z"/><path d="m195 558-1-4h1zm0-4 5-1v4l1 3-5 1-1-3zm5 3v-4z"/><path d="m200 553h5v4l1 3h-6z"/><path d="m205 557v-4h1z"/><path d="m206 553h5v4l-1 3h-5v-3zm5 4v-4z"/><path d="m211 553 5 1v4l-1 3-5-1 1-3zm5 5v-4h1z"/><path d="m217 554 4 2v3l-1 3-5-1 1-3zm4 5v-3h1z"/><path d="m222 556 4 1-1 3-1 4-5-2 2-3z"/><path d="m225 560 1-3h1z"/><path d="m227 557 4 3-1 3-2 3-4-3 1-3zm3 6 1-3z"/><path d="m231 560 5 2-2 3-2 3-4-3 2-2zm3 5 2-3zm2-3 4 3-2 3-2 3-4-3 2-3zm2 6 2-3z"/><path d="m240 565 4 4-3 2-2 3-4-4 3-2zm1 6 3-2z"/><path d="m244 569 3 3-2 3-3 2-3-4 2-2z"/><path d="m245 575 2-3v1z"/><path d="m247 573 3 4-2 2-3 2-3-4 3-2z"/><path d="m248 579 2-2h1z"/><path d="m251 577 2 4-3 2-3 1-2-4 3-1zm-1 6 3-2z"/><path d="m253 581 2 5-3 1-3 2-2-5 3-1z"/><path d="m252 587 3-1h1z"/><path d="m256 586 1 5-3 1-3 1-2-5 3-1zm-2 6 3-1z"/><path d="m257 591 2 5h-4l-3 1-1-4 3-1zm-2 5h4z"/><path d="m259 596v5h-3l-3 1-1-5 3-1zm-3 5h3z"/><path d="m259 601 1 5-4 1h-3v-5l3-1z"/><path d="m256 607 4-1v1z"/><path d="m260 607-1 5h-3l-3-1v-5l3 1zm-4 5h3z"/><path d="m259 612v5h-4l-3-1 1-5 3 1zm-4 5h4z"/><path d="m259 617-2 5-3-1-3-1 1-4 3 1zm-5 4 3 1z"/><path d="m257 622-1 5-4-1-3-1 2-5 3 1z"/><path d="m252 626 4 1h-1z"/><path d="m255 627-2 5-3-2-3-1 2-5 3 2zm-5 3 3 2z"/><path d="m253 632-2 4-3-2-3-1 2-4 3 1z"/><path d="m248 634 3 2h-1z"/><path d="m250 636-3 4-2-2-3-2 3-4 3 2z"/><path d="m245 638 2 2v1z"/><path d="m247 641-3 3-3-2-2-2 3-4 3 2zm-6 1 3 2z"/><path d="m244 644-4 4-2-3-3-2 4-4 2 3zm-6 1 2 3z"/><path d="m240 648-4 3-2-3-2-3 4-3 2 3zm-6 0 2 3z"/><path d="m236 651-5 2-1-3-2-2 4-3 2 3zm-6-1 1 3z"/><path d="m231 653-4 3-2-3-1-3 4-3 2 3z"/><path d="m225 653 2 3h-1z"/><path d="m226 656-4 1-1-3-2-3 5-2 1 4z"/><path d="m221 654 1 3h-1zm0 3-4 2-1-4-1-3 5-1 1 3z"/><path d="m216 655 1 4h-1zm0 4-5 1v-4l-1-3 5-1 1 3zm-5-3v4z"/><path d="m211 660h-5l-1-4v-3h5l1 3z"/><path d="m205 656 1 4h-1z"/></g><g fill="#f00"><path d="m884 540h34v116h-34z"/><g><path d="m901 660h-17v-7h17zm-17-4v4h-1l-1-1h-1v-2l-1-1z"/><path d="m880 656v-116h7v116zm4-116h-4l1-1v-1l1-1h2z"/><path d="m884 537h34v6h-34zm34 3v-3h2v1h1v2z"/><path d="m921 540v116h-7v-116zm-3 116h3v2l-1 1h-1v1h-1z"/><path d="m918 660h-17v-7h17z"/></g><g><path d="m769 490v100h-7v-100zm-4 100v3h-2v-1h-1v-2z"/><path d="m765 587h34v6h-34z"/><path d="m799 593h-68v-6h68z"/></g><g><path d="m762 723v-116h7v116zm3-116h-3v-2l1-1 1-1h1z"/><path d="m765 603h34v7h-34z"/><path d="m799 610h-68v-7h68z"/></g><path d="m460 570h68v7h-68z"/><g><path d="m457 621 34-50 3 2 3 2-34 50-3-2z"/><path d="m494 573-3-2h1v-1h4v1h1z"/><path d="m497 571 34 50-3 2-3 2-34-50 3-2z"/><path d="m528 623 3-2v4h-1v1h-2zm0 3h-68v-6h68zm-68-3v3h-2l-1-1v-1l-1-1h1v-2z"/></g><g><path d="m629 352h-135v-7h135zm-135 0h-289v-7h289zm-289-4v4h-1v-1h-1v-1h-1v-2z"/><path d="m202 348v-233h7v233zm3-233h-3v-1h1v-1l1-1h1z"/><path d="m205 112h102v7h-102zm102 0 107-5v7l-107 5z"/><g fill-rule="evenodd"><g><path d="m235 130v-31l46 16z"/><path d="m240 113h4v4h-4z"/></g><g><path d="m705 131v-31l46 16z"/><path d="m710 113h4v5h-4z"/></g><g><path d="m700 505v-31l46 16z"/><path d="m705 488h5v4h-5z"/></g><g><path d="m509 697h-31l16-46z"/><path d="m491 692v-4h5v4z"/></g></g></g><g><path d="m409 112h170v7h-170zm170 3h3v2h-1v1h-1l-1 1z"/><path d="m575 115 1-6h3l3 1v5zm4-6h-3z"/><path d="m576 109 1-5h3l3 1-1 5-3-1zm4-5h-3v-1z"/><path d="m577 103 1-2 3 1 3 1-1 2-3-1zm4-1-3-1z"/><path d="m578 101 1-2 3 1 3 1-1 2-3-1zm4-1-3-1z"/><path d="m579 99 1-2 3 1 3 2-1 2-3-2z"/><path d="m583 98-3-1v-1z"/><path d="m580 96 1-1 3 2 3 1-1 2-3-2z"/><path d="m584 97-3-2v-1z"/><path d="m581 94 2-1 2 2 3 2-1 2-3-2zm4 1-2-2z"/><path d="m583 93 1-2 2 3 3 2-2 2-2-3zm3 1-2-3z"/><path d="m584 91 2-1 2 3 2 2-1 1-3-2zm4 2-2-3z"/><path d="m586 90 2-1 1 3 2 3-1 1-2-3zm3 2-1-3z"/><path d="m588 89 1-1 2 3 1 3-1 1-2-3z"/><path d="m591 91-2-3h1z"/><path d="m590 88h1l1 3 1 3h-1l-1-3z"/><path d="m592 91-1-3 1-1zm0-4h1l1 3 1 4h-2l-1-3z"/><path d="m594 90-1-3h1zm0-3h1l1 3v4h-2z"/><path d="m596 90-1-3h1z"/><path d="m596 87h1v7h-2l1-4zm1 3v-3h1z"/><path d="m598 87h1v4l-1 3h-2l1-4zm1 4v-4l1 1z"/><path d="m600 88h1l-1 3-1 3h-1l1-3z"/><path d="m600 91 1-3h1z"/><path d="m602 88 1 1-1 3-2 3-1-1 1-3z"/><path d="m602 92 1-3h1zm2-3 1 1-2 3-2 3-1-1 2-3zm-1 4 2-3z"/><path d="m605 90 2 1-2 3-2 2-2-1 2-2zm0 4 2-3z"/><path d="m607 91 1 2-2 2-2 3-2-2 3-2z"/><path d="m606 95 2-2h1z"/><path d="m609 93 1 1-3 3-2 2-2-2 3-2zm-2 4 3-3v1z"/><path d="m610 95 1 1-3 2-2 2-2-2 3-1z"/><path d="m608 98 3-2v1z"/><path d="m611 97 1 2-3 1-3 2-1-2 3-2z"/><path d="m609 100 3-1h1z"/><path d="m613 99v2l-3 1-3 1-1-2 3-1z"/><path d="m610 102 3-1h1z"/><path d="m614 101v2l-3 1-3 1-1-2 3-1z"/><path d="m611 104 3-1v1zm3 0 1 5h-3l-3 1-1-5 3-1zm-2 5h3z"/><path d="m615 109 1 6h-7v-5l3-1zm-2 6h3v2h-1v1h-2v1h-1l-1-1h-1v-1h-1v-2z"/><path d="m609 115 1-6h3l3 1v5zm4-6h-3z"/><path d="m610 109 1-5h3l3 1-1 5-3-1zm4-5h-3v-1z"/><path d="m611 103v-2l4 1 3 1-1 2-3-1z"/><path d="m615 102-4-1h1z"/><path d="m612 101 1-2 3 1 3 1-1 2-3-1zm4-1-3-1z"/><path d="m613 99 1-2 3 1 3 2-1 2-3-2z"/><path d="m617 98-3-1v-1z"/><path d="m614 96 1-1 3 2 3 1-2 2-2-2z"/><path d="m618 97-3-2v-1z"/><path d="m615 94 1-1 3 2 3 2-2 2-2-2z"/><path d="m619 95-3-2h1z"/><path d="m617 93 1-2 2 3 3 2-2 2-2-3zm3 1-2-3z"/><path d="m618 91 2-1 2 3 2 2-2 1-2-2zm4 2-2-3z"/><path d="m620 90 1-1 2 3 2 3-1 1-2-3z"/><path d="m623 92-2-3h1z"/><path d="m622 89 1-1 2 3 1 3-1 1-2-3z"/><path d="m625 91-2-3h1z"/><path d="m624 88h1l1 3 1 3h-1l-1-3z"/><path d="m626 91-1-3 1-1zm0-4h1l1 3 1 4h-2l-1-3z"/><path d="m628 90-1-3h1zm0-3h1v3l1 4h-2z"/><path d="m629 90v-3h1z"/><path d="m630 87h1v7h-2v-4zm1 3v-3h1z"/><path d="m632 87h1v4l-1 3h-2l1-4zm1 4v-4l1 1z"/><path d="m634 88h1l-1 3-1 3h-1l1-3z"/><path d="m634 91 1-3h1z"/><path d="m636 88 1 1-1 3-2 3-1-1 1-3zm0 4 1-3z"/><path d="m637 89 2 1-2 3-2 3-1-1 2-3zm0 4 2-3z"/><path d="m639 90 2 1-2 3-3 2-1-1 2-2zm0 4 2-3z"/><path d="m641 91 1 2-2 2-2 3-2-2 3-2zm-1 4 2-2z"/><path d="m642 93 2 1-3 3-3 2-1-2 3-2z"/><path d="m641 97 3-3v1z"/><path d="m644 95 1 1-3 2-3 2-1-2 3-1zm-2 3 3-2v1z"/><path d="m645 97 1 2-3 1-3 2-1-2 3-2zm-2 3 3-1z"/><path d="m646 99 1 2-3 1-3 1-1-2 3-1zm-2 3 3-1z"/><path d="m647 101 1 2-3 1-3 1-1-2 3-1z"/><path d="m645 104 3-1v1zm3 0 1 5h-3l-3 1-1-5 3-1zm-2 5h3z"/><path d="m649 109 1 6h-7v-5l3-1zm-3 6h4v2h-1v1h-2v1h-1l-1-1h-1v-1h-1v-2z"/><path d="m643 115v-6h4l3 1v5zm4-6h-4z"/><path d="m644 109 1-5h3l3 1-1 5-3-1zm4-5h-3v-1z"/><path d="m645 103v-2l4 1 3 1-1 2-3-1z"/><path d="m649 102-4-1h1z"/><path d="m646 101v-2l4 1 3 1-1 2-3-1z"/><path d="m650 100-4-1h1z"/><path d="m647 99 1-2 3 1 3 2-1 2-3-2z"/><path d="m651 98-3-1v-1z"/><path d="m648 96 1-1 3 2 3 1-2 2-2-2z"/><path d="m652 97-3-2v-1z"/><path d="m649 94 1-1 3 2 3 2-2 2-2-2z"/><path d="m653 95-3-2h1z"/><path d="m651 93 1-2 2 3 3 2-2 2-2-3zm3 1-2-3z"/><path d="m652 91 2-1 2 3 2 2-2 1-2-2zm4 2-2-3z"/><path d="m654 90 1-1 2 3 2 3-2 1-1-3z"/><path d="m657 92-2-3h1z"/><path d="m656 89 1-1 2 3 1 3-1 1-2-3z"/><path d="m659 91-2-3h1z"/><path d="m658 88h1l1 3 1 3h-1l-1-3z"/><path d="m660 91-1-3 1-1zm0-4h1l1 3v4h-1l-1-3z"/><path d="m662 90-1-3h1zm0-3h1v3l1 4h-2z"/><path d="m663 90v-3h1z"/><path d="m664 87h1v7h-2v-4zm1 3v-3h1z"/><path d="m666 87h1v4l-1 3h-2l1-4zm1 4v-4l1 1z"/><path d="m668 88h1l-1 3-1 3h-2l2-3zm0 3 1-3z"/><path d="m669 88 2 1-1 3-2 3-1-1 1-3zm1 4 1-3z"/><path d="m671 89 2 1-2 3-2 3-1-1 2-3zm0 4 2-3z"/><path d="m673 90 2 1-3 3-2 2-1-1 2-2zm-1 4 3-3zm3-3 1 2-2 2-3 3-1-2 2-2zm-1 4 2-2z"/><path d="m676 93 2 1-3 3-3 2-1-2 3-2z"/><path d="m675 97 3-3v1z"/><path d="m678 95 1 1-3 2-3 2-1-2 3-1zm-2 3 3-2v1z"/><path d="m679 97 1 2-3 1-3 2-1-2 3-2zm-2 3 3-1z"/><path d="m680 99 1 2-3 1-3 1-1-2 3-1zm-2 3 3-1z"/><path d="m681 101 1 2-3 1-3 1-1-2 3-1z"/><path d="m679 104 3-1v1zm3 0 1 5h-3l-3 1-1-5 3-1zm-2 5h3z"/><path d="m683 109 1 6h-7v-5l3-1zm-3 6v4l-1-1h-1v-1h-1v-2z"/><path d="m680 112h221v7h-221zm221 3v-3h2v1l1 1v1z"/><path d="m904 115v233h-7v-233zm-3 233h3v2l-1 1-1 1h-1z"/><path d="m901 352h-407v-7h407z"/></g><g><path d="m205 285h-5v-7h6l-1 4zm-5-3v3z"/><path d="m200 285-5-1v-3l1-4 5 1-1 4zm-5-4v3h-1z"/><path d="m194 284-4-1v-3l1-4 5 2-1 3zm-4-4v3h-1z"/><path d="m189 283-5-2 2-3 1-3 4 1-1 4zm-3-5-2 3z"/><path d="m184 281-4-2 1-3 2-3 4 2-1 3z"/><path d="m181 276-1 3h-1z"/><path d="m179 279-4-3 2-3 2-3 4 3-2 3zm-2-6-2 3z"/><path d="m175 276-4-3 2-3 2-2 4 3-2 2zm-2-6-2 3z"/><path d="m171 273-4-3 2-3 3-2 3 3-2 2z"/><path d="m169 267-2 3v-1z"/><path d="m167 269-3-3 2-2 3-3 3 4-3 2z"/><path d="m166 264-2 2h-1z"/><path d="m163 266-2-4 2-2 3-2 3 4-3 2z"/><path d="m163 260-2 2-1-1z"/><path d="m160 261-2-4 3-1 3-2 2 4-3 2zm1-5-3 1z"/><path d="m158 257-2-4 3-2 3-1 2 4-3 2z"/><path d="m159 251-3 2-1-1z"/><path d="m155 252-1-4 3-1 3-1 2 4-3 1zm2-5-3 1z"/><path d="m154 248-2-5 4-1 3-1 1 5-3 1z"/><path d="m156 242-4 1v-1zm-4 0-1-5h4l3-1 1 5-3 1zm3-5h-4z"/><path d="m151 237v-5h7v5zm4-5h-4zm-4 0v-5h7v5zm4-5h-4v-1z"/><path d="m151 226 1-5 4 1h3l-1 5h-3zm5-4-4-1z"/><path d="m152 221 2-5 3 1 3 1-1 5-3-1zm5-4-3-1z"/><path d="m154 216 1-5 4 1 3 2-2 4-3-1z"/><path d="m159 212-4-1h1z"/><path d="m156 211 2-4 3 1 3 1-2 5-3-2z"/><path d="m161 208-3-1v-1z"/><path d="m158 206 2-4 3 2 3 2-2 4-3-2z"/><path d="m163 204-3-2h1z"/><path d="m161 202 2-4 3 2 3 2-3 4-3-2z"/><path d="m166 200-3-2h1z"/><path d="m164 198 3-4 2 3 3 2-3 3-3-2zm5-1-2-3z"/><path d="m167 194 4-3 2 2 2 3-3 3-3-2zm6-1-2-2z"/><path d="m171 191 4-3 2 2 2 3-4 3-2-3zm6-1-2-2z"/><path d="m175 188 4-3 2 3 2 3-4 2-2-3z"/><path d="m181 188-2-3h1z"/><path d="m180 185 4-2 2 3 1 3-4 2-2-3zm6 1-2-3z"/><path d="m184 183 5-2 1 3 1 3-4 2-1-3z"/><path d="m190 184-1-3h1zm0-3 4-1 1 3 1 3-5 1-1-3z"/><path d="m195 183-1-3h1zm0-3 5-1v3l1 3-5 1-1-3zm5 2v-3z"/><path d="m200 179h5v3l1 3h-6z"/><path d="m205 182v-3h1z"/><path d="m206 179h5v3l-1 3h-5v-3zm5 3v-3z"/><path d="m211 179 5 1v3l-1 3-5-1 1-3zm5 4v-3h1z"/><path d="m217 180 4 1v3l-1 3-5-1 1-3zm4 4v-3h1z"/><path d="m222 181 4 2-1 3-1 3-5-2 2-3z"/><path d="m225 186 1-3h1z"/><path d="m227 183 4 2-1 3-2 3-4-2 1-3zm3 5 1-3z"/><path d="m231 185 5 3-2 2-2 3-4-2 2-3zm3 5 2-2z"/><path d="m236 188 4 3-2 2-2 3-4-3 2-3zm2 5 2-2z"/><path d="m240 191 4 3-3 3-2 2-4-3 3-3zm1 6 3-3z"/><path d="m244 194 3 4-2 2-3 2-3-3 2-2zm1 6 2-2z"/><path d="m247 198 3 4-2 2-3 2-3-4 3-2z"/><path d="m248 204 2-2h1zm3-2 2 4-3 2-3 2-2-4 3-2zm-1 6 3-2v1z"/><path d="m253 207 2 4-3 1-3 2-2-5 3-1z"/><path d="m252 212 3-1h1z"/><path d="m256 211 1 5-3 1-3 1-2-4 3-2zm-2 6 3-1z"/><path d="m257 216 2 5-4 1-3 1-1-5 3-1zm-2 6 4-1z"/><path d="m259 221v5l-3 1h-3l-1-5h3z"/><path d="m256 227 3-1v1zm3 0 1 5h-7v-5zm-3 5h4zm4 0-1 5h-6v-5zm-4 5h3z"/><path d="m259 237v5h-4l-3-1 1-5 3 1zm-4 5h4v1z"/><path d="m259 243-2 5-3-1-3-1 1-5 3 1zm-5 4 3 1z"/><path d="m257 248-1 4-4-1-3-1 2-4 3 1z"/><path d="m252 251 4 1-1 1z"/><path d="m255 253-2 4-3-1-3-2 2-4 3 1zm-5 3 3 1z"/><path d="m253 257-2 4-3-1-3-2 2-4 3 2z"/><path d="m248 260 3 1-1 1z"/><path d="m250 262-3 4-2-2-3-2 3-4 3 2zm-5 2 2 2z"/><path d="m247 266-3 3-3-2-2-2 3-4 3 3z"/><path d="m241 267 3 2v1z"/><path d="m244 270-4 3-2-3-3-2 4-3 2 2zm-6 0 2 3z"/><path d="m240 273-4 3-2-3-2-2 4-3 2 2zm-6 0 2 3z"/><path d="m236 276-5 3-1-3-2-3 4-3 2 3zm-6 0 1 3z"/><path d="m231 279-4 2-2-3-1-3 4-2 2 3z"/><path d="m225 278 2 3h-1z"/><path d="m226 281-4 2-1-3-2-4 5-1 1 3z"/><path d="m221 280 1 3h-1zm0 3-4 1-1-3-1-3 5-2 1 4z"/><path d="m216 281 1 3h-1zm0 3-5 1v-3l-1-4 5-1 1 4zm-5-2v3z"/><path d="m211 285h-5l-1-3v-4h5l1 4z"/><path d="m205 282 1 3h-1z"/></g><path d="m884 165h34v117h-34z"/><g><path d="m901 285h-17v-7h17zm-17-3v3h-2v-1h-1v-2h-1z"/><path d="m880 282v-117h7v117zm4-117h-4 1v-2h1v-1h2z"/><path d="m884 162h34v7h-34zm34 3v-3h1l1 1 1 1v1z"/><path d="m921 165v117h-7v-117zm-3 117h3v1l-1 1-1 1h-1z"/><path d="m918 285h-17v-7h17z"/></g><g><path d="m769 115v100h-7v-100zm-4 100v4-1h-2v-1h-1v-2z"/><path d="m765 212h34v7h-34z"/><path d="m799 219h-68v-7h68z"/></g><g><path d="m762 348v-116h7v116zm3-116h-3v-2h1v-1h2z"/><path d="m765 229h34v6h-34z"/><path d="m799 235h-68v-6h68z"/></g></g><path d="m460 195h68v7h-68z" fill="grey"/><g fill="grey"><path d="m457 247 34-50 3 2 3 1-34 50-3-1z"/><path d="m494 199-3-2v-1h1l1-1h2l1 1v1h1z"/><path d="m497 197 34 50-3 2-3 1-34-50 3-1z"/><path d="m528 249 3-2v3l-1 1-1 1h-1zm0 3h-68v-7h68zm-68-3v3h-1l-1-1h-1v-2h-1l1-1v-1z"/></g><path d="m497 115v233h-7v-233z" fill="grey"/></svg>
