<svg height="80mm" width="130mm" xmlns="http://www.w3.org/2000/svg"><g fill="none"><path d="m434 52v-36h-213v36m18 0-18 53v36h71m71 0h71v-36l18-53m0 124-18 53 1 36h-214v-36l18-53m-18 0v-35m213 0v35" stroke="#dc143c" stroke-linejoin="round" stroke-width="1.8"/><path d="m80 140a35 35 0 1 1 -71 0 35 35 0 1 1 71 0z" stroke="#fff" stroke-linecap="round" stroke-linejoin="round" stroke-width="1.76286"/><path d="m221 16h-177v249h177" stroke="#fff" stroke-linejoin="round" stroke-width="1.8"/><path d="m364 141a35 35 0 1 1 -71 0 35 35 0 1 1 71 0z" stroke="#fff" stroke-linecap="round" stroke-linejoin="round" stroke-width="1.76286"/></g><path d="m315 126h6l7 20 8-20h5v29h-3v-25l-8 20h-4l-7-20v25h-4z" fill="#fff"/><path d="m195 74v2l-2-1h-5l-1 2 1 1 2 1h1l4 2 1 3-2 3-4 1h-2l-3-1v-2l3 1h5l1-2-1-2-2-1h-1l-4-1-1-3 2-3 4-1a12 12 0 0 1 4 1m4 12h4v-11l-4 1v-2l3-1h2v13h4v2h-9zm-4 113v2l-2-1-2-1-3 1-1 2 1 1 2 1h1l4 2 1 3-2 3-4 1h-2l-3-1v-2l3 1h5l1-2-1-2-2-1h-1l-4-1-1-3 2-3 4-1a12 12 0 0 1 4 1m6 12h7v2h-10v-2a381 381 0 0 1 7-9v-2h-4l-3 1v-2l3-1h1l4 1 1 3v2l-1 2a65 65 0 0 1 -5 5m206-137v2l-2-1h-4l-1 2 1 1 2 1h1l3 2 1 3-1 3-4 1h-3l-2-1v-2l2 1h5l1-2v-2l-3-1h-1l-3-1-1-3 1-3 4-1a12 12 0 0 1 4 1m11 6 2 1 1 3-2 3-4 1h-2l-2-1v-2l2 1h5l1-2-1-2-3-1h-2v-2h4l1-2-1-2h-2-2-2v-1a19 19 0 0 1 4-1l4 1 1 3-1 2zm-11 118v2l-2-1h-4l-1 2 1 1 2 1h1l3 2 1 3-1 3-4 1h-3l-2-1v-2l2 1h5l1-2v-2l-3-1h-1l-3-1-1-3 1-3 4-1a12 12 0 0 1 4 1m10 1-5 8h5zm-1-2h3v10h2v1h-2v4h-2v-4h-7v-2z" fill="#fff"/><path d="m96 213v-145 3" fill="none" stroke="#fff" stroke-width="1.1"/><path d="m107 148-5-15h2l4 13 5-13h2l-5 15zm8-3h1v7h-1zm0-2h1v1h-1zm8 5v4h-1v-4-1l-1-1-2 1v5h-1v-7h1v1l1-1h1l2 1z" fill="#fff"/><path d="m96 53 3 14h-7z" stroke="#fff" stroke-linecap="round" stroke-linejoin="round" stroke-width="1.1"/></svg>