<svg data-mce-id="graph1desktop" class="desktop" xmlns="http://www.w3.org/2000/svg" viewBox="0 0 332 227" display="block" height="400">
  <circle fill="#DD696A" cx="15" cy="36.3" r="2.5"/>
  <circle fill="#DD696A" cx="20.4" cy="115.3" r="2"/>
  <circle fill="#DD696A" cx="24.5" cy="115.3" r="2"/>
  <circle fill="#DD696A" cx="32.6" cy="120.4" r="2"/>
  <circle fill="#DD696A" cx="40.7" cy="127.5" r="2"/>
  <circle fill="#DD696A" cx="48.8" cy="127.5" r="2"/>
  <circle fill="#DD696A" cx="77.1" cy="138.6" r="2"/>
  <circle fill="#DD696A" cx="93.3" cy="138.6" r="2"/>
  <circle fill="#DD696A" cx="105.4" cy="140.9" r="2"/>
  <circle fill="#DD696A" cx="109.4" cy="140.9" r="2"/>
  <circle fill="#DD696A" cx="113.5" cy="143.8" r="2"/>
  <circle fill="#DD696A" cx="117.5" cy="145.7" r="2"/>
  <circle fill="#DD696A" cx="125.6" cy="149.3" r="2"/>
  <circle fill="#DD696A" cx="129.7" cy="152.7" r="2"/>
  <circle fill="#DD696A" cx="133.7" cy="152.7" r="2"/>
  <circle fill="#DD696A" cx="137.7" cy="156" r="2"/>
  <circle fill="#DD696A" cx="137.7" cy="156" r="2"/>
  <circle fill="#DD696A" cx="141.8" cy="159.3" r="2"/>
  <circle fill="#DD696A" cx="145.8" cy="156" r="2"/>
  <circle fill="#DD696A" cx="145.8" cy="159.3" r="2"/>
  <circle fill="#DD696A" cx="149.9" cy="159.3" r="2"/>
  <circle fill="#DD696A" cx="153.9" cy="159.3" r="2"/>
  <circle fill="#DD696A" cx="153.9" cy="163.1" r="2"/>
  <circle fill="#DD696A" cx="158" cy="163.1" r="2"/>
  <circle fill="#DD696A" cx="158" cy="163.1" r="2"/>
  <circle fill="#DD696A" cx="162" cy="166.4" r="2"/>
  <circle fill="#DD696A" cx="162" cy="166.4" r="2"/>
  <circle fill="#DD696A" cx="162" cy="166.4" r="2"/>
  <circle fill="#DD696A" cx="166.1" cy="166.4" r="2"/>
  <circle fill="#DD696A" cx="166.1" cy="170.1" r="2"/>
  <circle fill="#DD696A" cx="170.1" cy="170.1" r="2"/>
  <circle fill="#DD696A" cx="170.1" cy="170.1" r="2"/>
  <circle fill="#DD696A" cx="170.1" cy="170.1" r="2"/>
  <circle fill="#DD696A" cx="174.2" cy="170.1" r="2"/>
  <circle fill="#DD696A" cx="178.2" cy="170.1" r="2"/>
  <circle fill="#DD696A" cx="178.2" cy="166.4" r="2"/>
  <circle fill="#DD696A" cx="178.2" cy="173.6" r="2"/>
  <circle fill="#DD696A" cx="182.2" cy="173.6" r="2"/>
  <circle fill="#DD696A" cx="182.2" cy="173.6" r="2"/>
  <circle fill="#DD696A" cx="182.2" cy="173.6" r="2"/>
  <circle fill="#DD696A" cx="186.3" cy="173.6" r="2"/>
  <circle fill="#DD696A" cx="186.3" cy="177.4" r="2"/>
  <circle fill="#DD696A" cx="190.3" cy="177.4" r="2"/>
  <circle fill="#DD696A" cx="194.4" cy="177.4" r="2"/>
  <circle fill="#DD696A" cx="194.4" cy="177.4" r="2"/>
  <circle fill="#DD696A" cx="194.4" cy="177.4" r="2"/>
  <circle fill="#DD696A" cx="194.4" cy="177.4" r="2"/>
  <circle fill="#DD696A" cx="198.4" cy="182" r="2"/>
  <circle fill="#DD696A" cx="198.4" cy="182" r="2"/>
  <g>
    <path fill="#FFF" d="M0 0h332v227H0z"/>
    <path fill="#E30E18" d="M0 0h5v15H0z"/>
    <path fill="#E30E18" d="M0 0h332v.5H0z"/>
    <g fill="#1D1D1B">
      <path d="M13.9 15.1c-.8 0-2-.3-2-.5l.1-.1.3-.8h.2c.5.3 1 .4 1.4.4.5 0 .8-.3.8-.7l-.2-.6-1-.6c-1.1-.6-1.5-1-1.5-1.8 0-1 .8-1.7 2-1.7.7 0 1.8.3 1.8.6l-.4.7H15a2 2 0 00-1-.3c-.5 0-.8.2-.8.6 0 .3.1.5.4.6l1 .5c.9.5 1.3 1 1.3 1.9 0 1-.8 1.8-2 1.8zM19 15a3 3 0 01-1 .2c-.4 0-.8-.2-1-.5l-.2-1v-2.3h-.6c-.1 0-.2 0-.2-.2v-.5l.2-.1h.6V9.4l.2-.1.8-.2c.2 0 .2 0 .2.2v1.3h1.2v.1l-.1.6h-1.2v2.3c0 .5.2.6.4.6l.6-.2h.2l.1.7v.1l-.2.2zM23.6 15l-.8.1c-.2 0-.3-.2-.3-.5-.4.4-.8.6-1.3.6-.4 0-.8-.2-1-.4-.3-.3-.3-.6-.3-1.4v-2.6l.1-.2.9-.2.1.2v2.7l.1.7c.1.2.3.2.5.2s.5 0 .7-.3v-3.1c0-.2 0-.2.2-.2l.8-.2h.1l.1.2v3.3c0 .4 0 .6.2.9v.1zM27.2 15a3 3 0 01-.9.2c-.5 0-.8-.2-1-.5-.2-.2-.2-.5-.2-1v-2.3h-.7l-.1-.2v-.5l.1-.1h.7V9.4l.1-.1.9-.2.1.2v1.3h1.2v.1l-.1.6h-1.1v2.3c0 .5 0 .6.4.6l.6-.2h.1l.2.7v.1l-.3.2zM30.6 15a3 3 0 01-1 .2c-.4 0-.8-.2-1-.5l-.2-1v-2.3h-.6l-.1-.2v-.5l.1-.1h.6V9.4l.2-.1.8-.2h.1v1.5h1.3v.1l-.1.6h-1.2v2.3c0 .5.2.6.4.6l.6-.2h.2l.1.7v.1l-.2.2zM34.7 13h-2.4c0 .9.3 1.2 1 1.2.3 0 .7 0 1-.3h.2l.3.6v.1c0 .1 0 .2-.4.3l-1.2.3a2 2 0 01-1.4-.5c-.4-.4-.7-1-.7-1.9 0-1.4.8-2.4 2-2.4s1.8.8 1.8 2.5c0 .1 0 .2-.2.2zm-1-.8c0-.7-.2-1-.6-1-.5 0-.7.3-.8 1h1.4zM38.5 10.7l-.3.7v.1h-.5c-.2 0-.4 0-.7.3v3l-.1.2H36l-.1-.2v-2.7c0-.5 0-.8-.3-1.2v-.1-.1l.8-.3h.1c.1 0 .3.3.4.7l.3-.3c.2-.3.5-.4.8-.4.3 0 .5.1.5.2v.1zM40.8 14.8c0 .2 0 .2-.2.2h-.8c-.2 0-.2 0-.2-.2v-3.4H39l-.1-.2v-.5l.1-.1h1.7l.2.1v4.1zm-.6-4.8a.7.7 0 01-.8-.8.7.7 0 011.5 0c0 .4-.3.8-.7.8zM45.7 14.8l-.1.2h-.9l-.1-.2v-2.7c0-.6-.2-.8-.5-.8s-.5.1-.8.4v3.1c0 .2 0 .2-.2.2h-.8c-.2 0-.2 0-.2-.2v-3c0-.4 0-.7-.2-1v-.1l.9-.3c.2 0 .3.2.4.6.5-.4.9-.6 1.4-.6.8 0 1.1.4 1.1 1.4v3zM50.5 10.9l-.2 1v3.4c0 1-.6 1.6-1.7 1.6-.7 0-1.8-.3-1.8-.5v-.1l.2-.6.1-.1 1.4.3c.5 0 .7-.2.7-.7v-.6l-1 .3c-1 0-1.6-.8-1.6-2.1 0-1.5.7-2.4 1.7-2.4.4 0 .7.1 1 .4l.4-.4.8.2V11zm-1.3.7c-.3-.2-.4-.3-.7-.3-.4 0-.7.5-.7 1.4 0 .9.2 1.3.7 1.3.2 0 .5 0 .7-.3v-2z"/>
    </g>
    <g fill="#1D1D1B">
      <path d="M13.1 225c-.4 0-1.1-.1-1.1-.3l.1-.3h.2l.8.3c.5 0 .8-.3.8-.7 0-.4-.2-.6-.8-1l-.7-.4a1 1 0 01-.3-.7c0-.7.5-1.1 1.2-1.1.4 0 1 .2 1 .3l-.1.3h-.3l-.6-.2c-.4 0-.7.2-.7.6 0 .2.1.4.3.5l.7.5c.4.2.5.3.6.5l.2.6c0 .7-.5 1.2-1.3 1.2zM16.1 225c-.7 0-1.1-.5-1.1-1.4 0-1 .4-1.6 1.2-1.6.7 0 1.1.6 1.1 1.5 0 1-.4 1.6-1.2 1.6zm0-2.6c-.4 0-.7.4-.7 1.1l.2 1 .6.2c.2 0 .4 0 .5-.2l.2-1c0-.7-.3-1-.7-1zM20.3 224.9l-.2.2-.3-.4c-.3.3-.6.4-.9.4-.5 0-.8-.3-.8-.8v-2-.2h.4v1.9c0 .5.2.7.5.7.2 0 .5-.1.7-.3v-2.2l.4-.2v2.2l.2.6zM22.6 222.2l-.1.3h-.1-.1c-.2 0-.3 0-.6.4v2.1h-.4V223c0-.4 0-.5-.2-.8l.2-.2c.2 0 .3.2.3.4.4-.4.5-.5.8-.5l.3.1zM25 222.5l-.1.2h-.1l-.6-.3c-.5 0-.8.4-.8 1.2 0 .7.3 1 .7 1 .2 0 .4 0 .7-.2l.2.2v.2c-.3.2-.6.3-1 .3-.6 0-1-.6-1-1.5 0-1 .4-1.6 1.1-1.6.3 0 .6.1.8.3l.1.1zM27.6 223.7h-1.7c0 .6.3 1 .8 1 .2 0 .4 0 .7-.2l.2.2-.2.2-.8.2c-.7 0-1.2-.6-1.2-1.5 0-1 .4-1.6 1.2-1.6.4 0 .8.3 1 .8v.8zm-.4-.4c0-.6-.3-.9-.7-.9s-.6.3-.6.9h1.3zM29 225l-.9-.1v-.4h.1l.8.2c.3 0 .5-.2.5-.4s-.1-.4-.4-.5l-.7-.4a.7.7 0 01-.3-.5c0-.5.4-.9 1-.9.3 0 .7.2.7.3v.3h-.1l-.7-.2c-.2 0-.4.2-.4.4l.1.3.6.4c.5.2.6.4.6.7 0 .5-.3.9-1 .9zM31 223a.4.4 0 110-.8.4.4 0 010 .8zm0 2a.4.4 0 11.4-.4c.1.3 0 .5-.3.5zM35 225h-1.6v-.3h.5v-3.4h-.5V221v-.1H35v.3h-.6v3.4h.6v.3zM37.8 225h-.4v-2c0-.4-.2-.6-.4-.6-.3 0-.5.1-.8.4v2.2h-.4v-2.1l-.2-.6.3-.2c.1 0 .2.1.2.3.4-.2.7-.4 1-.4.3 0 .5.1.6.3l.1.6v2zM39.6 225c-.3 0-.6 0-.7-.3v-2.2h-.5v-.3h.5v-.9l.3-.2.1.1v1h.9v.2h-.9v2.2h.9l.2.2c0 .1-.5.3-.8.3zM42.9 223.7H41c0 .6.3 1 .8 1 .2 0 .5 0 .7-.2h.1l.1.2-.2.2-.7.2c-.8 0-1.3-.6-1.3-1.5 0-1 .5-1.6 1.2-1.6.5 0 .9.3 1 .8l.1.8zm-.5-.4c0-.6-.2-.9-.6-.9-.4 0-.6.3-.7.9h1.3zM44.2 225c-.3 0-.5-.1-.6-.4V221v-.2h.4V224.5l.3.2h.3l.1.2s-.2.2-.5.2zM46 224.4l-.7 1.3H45v-.1l.3-1.2h.6zm-.4-1.4a.4.4 0 11.4-.4c0 .2-.1.4-.4.4zM49.4 225c-.3 0-.5 0-.7-.2v1.3l-.4.2v-3.4c0-.3-.1-.4-.2-.5v-.1l.2-.3.3.4c.3-.3.5-.4.8-.4.4 0 .6.2.8.5l.2 1c0 1-.4 1.6-1 1.6zm.4-2.2c0-.2-.2-.4-.4-.4l-.7.3v1.7l.6.3c.4 0 .6-.3.6-1.2l-.1-.7zM52.7 222.2l-.2.3h-.1-.1c-.2 0-.3 0-.6.4v2.1h-.4V223c0-.4 0-.5-.2-.8l.3-.2.2.4c.4-.4.5-.5.8-.5l.3.1zM55.2 223.7h-1.8c0 .6.3 1 .8 1 .2 0 .5 0 .7-.2h.1l.1.2-.2.2-.7.2c-.8 0-1.3-.6-1.3-1.5 0-1 .5-1.6 1.2-1.6.5 0 .9.3 1 .8l.1.8zm-.5-.4c0-.6-.2-.9-.6-.9-.4 0-.6.3-.7.9h1.3zM56.6 225l-1-.1v-.1l.1-.3h.1l.8.2c.3 0 .4-.2.4-.4s0-.4-.3-.5c-.4-.2-.6-.2-.7-.4a.7.7 0 01-.3-.5c0-.5.4-.9 1-.9l.7.3-.1.3h-.1l-.6-.2c-.3 0-.4.2-.4.4v.3l.7.4c.5.2.6.4.6.7 0 .5-.4.9-1 .9zM58.9 225l-.9-.1v-.4h.1l.8.2c.3 0 .5-.2.5-.4s-.1-.4-.4-.5l-.7-.4a.7.7 0 01-.3-.5c0-.5.4-.9 1-.9.3 0 .7.2.7.3v.3h-.1l-.7-.2c-.2 0-.4.2-.4.4l.1.3.6.4c.5.2.6.4.6.7 0 .5-.3.9-1 .9zM63.3 222.2l-.1.3H63c-.2 0-.4 0-.7.4v2.1h-.4V223c0-.4 0-.5-.2-.8l.3-.2.3.4c.4-.4.5-.5.7-.5l.3.1zM65.8 223.7h-1.7c0 .6.3 1 .8 1 .2 0 .4 0 .7-.2l.2.2-.2.2-.8.2c-.7 0-1.2-.6-1.2-1.5 0-1 .5-1.6 1.2-1.6.5 0 .8.3 1 .8v.8zm-.4-.4c0-.6-.2-.9-.7-.9-.4 0-.6.3-.6.9h1.3zM67.8 225c-.3 0-.5 0-.7-.2v1.3l-.4.2v-3.4c0-.3-.1-.4-.2-.5v-.1l.2-.3.3.4c.3-.3.5-.4.8-.4.4 0 .6.2.8.5l.2 1c0 1-.4 1.6-1 1.6zm.4-2.2c0-.2-.3-.4-.4-.4l-.7.3v1.7l.6.3c.4 0 .6-.3.6-1.2l-.1-.7zM70.5 225c-.7 0-1.1-.5-1.1-1.4 0-1 .4-1.6 1.2-1.6.7 0 1.2.6 1.2 1.5 0 1-.5 1.6-1.3 1.6zm0-2.6c-.4 0-.6.4-.6 1.1l.1 1 .6.2c.2 0 .4 0 .5-.2l.2-1c0-.7-.3-1-.7-1zM74 222.2v.3h-.1-.1-.1c-.2 0-.3 0-.6.4v2.1h-.4V223c0-.4 0-.5-.2-.8l.2-.2h.1l.2.4c.4-.4.5-.5.8-.5l.3.1zM75.6 225c-.3 0-.5 0-.6-.3l-.1-.5v-1.7h-.5v-.3h.5v-.9l.4-.2v1.1h1v.2h-1v1.8l.1.4h.9v.2h.1c0 .1-.5.3-.8.3zM77.5 225l-1-.1v-.1l.2-.3.8.2c.3 0 .5-.2.5-.4s-.1-.4-.4-.5l-.7-.4a.7.7 0 01-.3-.5c0-.5.4-.9 1-.9.3 0 .7.2.7.3l-.1.3H78l-.6-.2c-.3 0-.4.2-.4.4l.1.3.6.4c.5.2.6.4.6.7 0 .5-.4.9-1 .9zM80 224.4l-.6 1.3H79v-.1l.3-1.2h.6zm-.3-1.4a.4.4 0 11.4-.4c0 .2-.2.4-.4.4zM84 225H82.3v-4-.1h1l.8.1c.3.2.4.5.4.9s-.2.8-.6 1c.3 0 .4 0 .5.2.2.1.3.4.3.8 0 .5-.3.9-.7 1zm-.7-3.7h-.5v1.4h.4l.5-.1c.2-.1.3-.4.3-.7 0-.4-.2-.6-.7-.6zm.5 1.9a1 1 0 00-.5 0h-.5v1.4h.5l.6-.1c.2-.2.3-.4.3-.7 0-.2-.2-.5-.4-.6zM86.5 225c-.7 0-1.2-.5-1.2-1.4 0-1 .5-1.6 1.3-1.6.7 0 1.1.6 1.1 1.5 0 1-.4 1.6-1.2 1.6zm0-2.6c-.4 0-.7.4-.7 1.1 0 .4 0 .7.2 1l.5.2c.2 0 .4 0 .5-.2.2-.2.2-.6.2-1 0-.7-.2-1-.7-1zM89.6 225c-.3 0-.5 0-.7-.2l-.2.3-.3-.2.1-.7v-3.4l.4-.1v1.6l.9-.3c.6 0 1 .5 1 1.4 0 1.1-.4 1.7-1.2 1.7zm.1-2.6l-.7.3v1.7l.6.3c.4 0 .6-.4.6-1.3 0-.7-.1-1-.5-1zM94.7 224.8c-.2.2-.5.3-.8.3-.9 0-1.3-.8-1.3-2.2 0-.7 0-1.2.3-1.6.2-.3.6-.5 1-.5l.9.3v.2l-.1.2h-.3a.9.9 0 00-.5-.3c-.6 0-.8.5-.8 1.6 0 1.3.3 1.9.9 1.9l.6-.3h.1l.2.2-.2.2zM96.5 225c-.7 0-1.2-.5-1.2-1.4 0-1 .5-1.6 1.3-1.6.7 0 1.1.6 1.1 1.5 0 1-.4 1.6-1.2 1.6zm0-2.6c-.4 0-.7.4-.7 1.1 0 .4 0 .7.2 1l.5.2c.3 0 .5 0 .6-.2l.1-1c0-.7-.2-1-.7-1zM99.2 225c-.4 0-.6-.1-.6-.4V221v-.2h.3V224.5l.3.2h.3l.2.2-.5.2zM103.2 222.2l-.8 2.8h-.3l-.6-1.8v-.5l-.1.5-.6 1.8h-.3l-.8-2.8.4-.1.5 2V224.4l.1-.3.6-2h.3l.6 2V224.5v-.2l.6-2v-.1h.3v.1zM105.8 223.7H104c0 .6.3 1 .8 1 .2 0 .5 0 .7-.2h.1l.1.2-.2.2-.7.2c-.8 0-1.3-.6-1.3-1.5 0-1 .5-1.6 1.2-1.6.5 0 .9.3 1 .8l.1.8zm-.5-.4c0-.6-.2-.9-.6-.9-.4 0-.6.3-.7.9h1.3zM107.1 225c-.3 0-.5-.1-.6-.4V221v-.2h.4V224.5l.3.2h.3l.1.2s-.2.2-.5.2zM108.7 225c-.3 0-.6-.1-.6-.4V221v-.2h.4V224.5c0 .1.1.2.3.2H109l.1.2-.5.2zM110.5 224.4l-.7 1.3h-.2-.1v-.1l.4-1.2h.6zm-.4-1.4a.4.4 0 11.4-.4c0 .2-.2.4-.4.4zM114.8 224.7l-.1.2v.1h-1.9v-4-.1h.4v3.7h1.6zM115.9 225h-.4v-2.5h-.6v-.3h.9v2.7zm-.3-3.6a.4.4 0 11.4-.4c0 .3-.2.4-.4.4zM119 225h-.4v-2c0-.4-.2-.6-.5-.6-.2 0-.5.1-.8.4v2.2h-.4v-2.1l-.1-.6.3-.2s.2.1.2.3c.4-.2.6-.4 1-.4.2 0 .5.1.6.3v2.6zM120.6 225c-.3 0-.6-.1-.6-.4V221v-.2h.4V224.5c0 .1.1.2.3.2H121l.1.2-.5.2zM123.5 223.7h-1.7c0 .6.3 1 .8 1 .2 0 .4 0 .7-.2h.1l.1.2-.2.2-.7.2c-.8 0-1.3-.6-1.3-1.5 0-1 .5-1.6 1.2-1.6.5 0 .9.3 1 .8l.1.8zm-.4-.4c0-.6-.2-.9-.6-.9-.4 0-.6.3-.7.9h1.3zM126.4 222.3l-.7 2.3-.4 1.2c-.1.3-.4.5-.7.5-.3 0-.8-.2-.8-.3l.2-.3.6.2c.2 0 .3-.2.4-.5l.2-.4h-.3l-1-2.7v-.1l.4-.1.8 2.3.2.4v-.4l.6-2.3h.4l.1.1zM130.5 224.8a2 2 0 01-1 .3c-1 0-1.5-.8-1.5-2.1 0-1.4.5-2.2 1.4-2.2.3 0 .6 0 .9.2l.1.2-.1.3-.2-.1-.7-.2c-.6 0-.9.5-.9 1.7 0 1.3.3 1.8 1 1.8l.5-.1v-1.3h-.5v-.3h.9v1.8zM132.9 222.2l-.2.3h-.1-.1c-.2 0-.3 0-.6.4v2.1h-.4V223c0-.4 0-.5-.2-.8l.3-.2.2.4c.4-.4.5-.5.8-.5l.3.1zM134.3 225c-.7 0-1.1-.5-1.1-1.4 0-1 .4-1.6 1.2-1.6.7 0 1.2.6 1.2 1.5 0 1-.5 1.6-1.3 1.6zm0-2.6c-.4 0-.7.4-.7 1.1l.2 1 .6.2c.2 0 .4 0 .5-.2l.2-1c0-.7-.3-1-.7-1zM138.5 224.9l-.2.2-.3-.4c-.3.3-.6.4-.9.4-.5 0-.8-.3-.8-.8v-2-.2h.4v1.9c0 .5.2.7.5.7.2 0 .5-.1.7-.3v-2.2l.4-.2v2.2l.2.6zM140.6 225c-.3 0-.5 0-.8-.2v1.3l-.3.2-.1-.1v-3.3l-.1-.5v-.1l.2-.3.3.4c.3-.3.5-.4.8-.4.4 0 .6.2.8.5l.2 1c0 1-.4 1.6-1 1.6zm.4-2.2c-.1-.2-.3-.4-.5-.4l-.7.3v1.7l.7.3c.4 0 .6-.3.6-1.2l-.1-.7zM143.2 224.4l-.7 1.3h-.2v-.1l.3-1.2h.6zm-.4-1.4a.4.4 0 11.4-.4c0 .2-.1.4-.4.4zM146.7 225H145v-.3h.5v-3.4h-.5V221v-.1h1.6v.3h-.6v3.4h.6v.3zM149.2 225H147.5v-4-.1h1l.8.1c.3.2.4.5.4.9s-.2.8-.6 1c.2 0 .3 0 .4.2.2.1.4.4.4.8 0 .5-.3.9-.7 1zm-.7-3.7h-.6v1.4h.5l.5-.1c.2-.1.3-.4.3-.7 0-.4-.2-.6-.7-.6zm.5 1.9a1 1 0 00-.5 0h-.6v1.4h.6l.6-.1.2-.7c0-.2 0-.5-.3-.6zM154 224.8l-.9.3c-.9 0-1.3-.8-1.3-2.2 0-.7 0-1.2.3-1.6.2-.3.6-.5 1-.5l.9.3v.2l-.1.2h-.3a.9.9 0 00-.5-.3c-.6 0-.8.5-.8 1.6 0 1.3.3 1.9.8 1.9.2 0 .5-.1.7-.3h.1l.2.2-.2.2zM155.7 225c-.8 0-1.2-.5-1.2-1.4 0-1 .5-1.6 1.3-1.6.7 0 1.1.6 1.1 1.5 0 1-.4 1.6-1.2 1.6zm0-2.6c-.4 0-.7.4-.7 1.1 0 .4 0 .7.2 1l.5.2c.2 0 .4 0 .5-.2.2-.2.2-.6.2-1 0-.7-.2-1-.7-1zM159.8 225h-.4v-2c0-.4-.1-.6-.4-.6-.3 0-.5.1-.8.4v2.2h-.4v-2.1c0-.3 0-.4-.2-.6l.3-.2.3.3c.3-.2.6-.4 1-.4.2 0 .4.1.5.3l.1.6v2zM161.5 225l-1-.1v-.1l.2-.3.8.2c.3 0 .5-.2.5-.4s-.1-.4-.4-.5c-.4-.2-.6-.2-.7-.4a.7.7 0 01-.3-.5c0-.5.4-.9 1-.9.3 0 .7.2.7.3l-.1.3h-.1l-.6-.2c-.3 0-.4.2-.4.4v.3l.7.4c.5.2.6.4.6.7 0 .5-.4.9-1 .9zM165.3 224.9l-.2.2-.3-.4c-.3.3-.6.4-.9.4-.5 0-.8-.3-.8-.8v-2-.2h.4v1.9c0 .5.2.7.5.7.2 0 .5-.1.7-.3v-2.2h.1l.3-.2.1.1v2.1c0 .3 0 .4.2.6zM166.8 225c-.3 0-.6-.1-.6-.4V221v-.2h.4V224.5c0 .1.1.2.3.2H167.2v.2h.1l-.5.2zM168.5 225c-.3 0-.5 0-.7-.3v-2.2h-.5v-.3h.5v-.9l.3-.2.1.1v1h1l-.1.2h-.9v2.2h1v.2c0 .1-.4.3-.7.3zM170.3 225h-.4v-2.5h-.6v-.3h.9v2.7zm-.3-3.6a.4.4 0 11.4-.4c0 .3-.2.4-.4.4zM173.4 225h-.4v-2c0-.4-.2-.6-.5-.6-.2 0-.5.1-.8.4v2.2h-.3-.1v-2.1l-.1-.6.3-.2s.2.1.2.3c.4-.2.6-.4 1-.4.3 0 .5.1.6.3v2.6zM176.5 222.3a1 1 0 00-.1.6v2.3c0 .7-.4 1-1 1a2 2 0 01-1-.2V225.6h.1c.1 0 0 0 0 0l.8.2c.3 0 .5-.1.6-.3v-.4-.6c-.2.2-.5.3-.8.3-.5 0-.9-.5-.9-1.3 0-1 .4-1.6 1.1-1.6.3 0 .5.1.8.3l.1-.3.4.2v.1zm-.6.3l-.5-.2c-.5 0-.7.4-.7 1 0 .8.1 1.1.5 1.1.2 0 .4 0 .7-.3v-1.6zM178.3 224.4l-.7 1.3H177.2v-.1l.3-1.2h.6zm-.4-1.4a.4.4 0 11.4-.4c0 .2-.2.4-.4.4zM182.9 221l-.2.3h-1l-.7 3.6-.1.1h-.3l.7-3.7h-.9v-.3-.1h2.4zM184.9 223l-.4 2h-.4l.3-2v-.3c0-.2 0-.3-.2-.3-.5 0-1 .5-1 1.2l-.4 1.3v.1h-.3l.8-4.2.4-.1-.3 1.6-.1.4c.3-.5.7-.7 1-.7.4 0 .6.2.6.5v.4zM187.1 223.7l-1.2.2v.1c0 .5.2.7.5.7s.5-.1.8-.3h.1l.2.2v.1c-.4.3-.7.4-1 .4-.7 0-1-.4-1-1.1 0-.6.2-1.2.5-1.6.3-.2.6-.4 1-.4s.7.3.7.8c0 .4-.2.7-.6.9zm-.2-1.3c-.5 0-.8.4-1 1 1 0 1.4-.1 1.4-.6 0-.2-.1-.4-.4-.4zM192.2 221l-.2.3h-1.4l-.3 1.4h1.2v.3h-1.3l-.3 1.6h1.5v.3l-.1.1h-1.9l.8-4 .1-.1H192.2zM194.4 222.3l-.2.3a1 1 0 00-.6-.2c-.3 0-.6.2-.7.5-.2.3-.3.8-.3 1.2 0 .4.2.6.5.6l.6-.2h.1l.1.2v.1c-.4.2-.6.3-1 .3-.5 0-.8-.4-.8-1s.2-1.1.5-1.5c.3-.4.6-.6 1-.6.3 0 .5 0 .7.2v.1zM196.4 224.5c-.2.4-.6.6-1 .6-.7 0-1-.4-1-1s.2-1.1.5-1.5c.2-.4.6-.6 1-.6.7 0 1 .4 1 1s-.2 1.1-.5 1.5zm-.5-2c-.3 0-.6.1-.8.5l-.2 1c0 .5.2.7.5.7.4 0 .6-.2.8-.6l.2-1c0-.5-.1-.7-.5-.7zM199.8 223l-.4 2h-.4l.4-2v-.3c0-.2-.1-.3-.3-.3-.5 0-1 .5-1 1.2l-.4 1.3v.1h-.3l.4-2v-.4-.3-.1l.2-.1h.1l.1.4v.2c.3-.5.7-.7 1.1-.7.3 0 .5.2.5.5v.4zM202.3 224.5c-.2.4-.6.6-1 .6-.7 0-1-.4-1-1s.2-1.1.5-1.5c.2-.4.6-.6 1-.6.7 0 1 .4 1 1s-.2 1.1-.5 1.5zm-.5-2c-.3 0-.6.1-.8.5l-.2 1c0 .5.2.7.5.7s.6-.2.8-.6l.2-1c0-.5-.2-.7-.5-.7zM207 223l-.4 2h-.4l.4-2v-.3c0-.2 0-.3-.2-.3-.3 0-.6.2-.7.4l-.3.8-.3 1.3v.1h-.4l.4-2v-.3c0-.2 0-.3-.2-.3-.3 0-.5.2-.7.4l-.3.8-.3 1.3v.1h-.3l.3-2v-.4-.3-.1l.3-.1c.1 0 .2.1.2.4v.1c.2-.4.6-.6 1-.6.3 0 .4.2.5.6l.3-.4.6-.2c.4 0 .6.2.6.5v.4zM208.7 222.2l-.6 2.7v.1h-.4l.5-2.5h-.5V222.1h1zm0-.8a.3.3 0 01-.3-.3c0-.2.1-.4.3-.4.2 0 .3.2.3.4s-.1.3-.3.3zM211 222.3v.2h-.1-.1a1 1 0 00-.5 0c-.3 0-.5.1-.5.4l.1.2.4.3c.3.2.5.4.5.7s-.2.6-.4.8a1 1 0 01-.7.2c-.3 0-.7-.1-.9-.3l.2-.3h.1l.7.2c.3 0 .5-.2.5-.5l-.1-.3-.5-.3c-.2-.2-.3-.4-.3-.7 0-.5.4-.9 1-.9.3 0 .6.2.6.3zM213.3 222.2l-.1.2h-.9l-.3 1.7v.3c0 .2 0 .3.2.3l.6-.2v.3c0 .1-.4.3-.7.3-.4 0-.6-.2-.6-.6v-.4l.4-1.6h-.4V222.1h.5l.2-1h.4l-.2 1h.8z"/>
    </g>
    <g fill="#1D1D1B">
      <path d="M238.6 221.8l-.7.2.4.5v.1l-.2.2h-.1l-.4-.7-.3.6h-.1l-.3-.1v-.1l.5-.5-.7-.2v-.4h.1l.7.3v-.7-.1h.3v.8l.6-.3h.1l.1.3v.1zM242.7 225h-.5l-.1-3.1v-.4l-.1.4-.7 2-.1.1h-.2l-.7-2-.2-.6v3.5l-.1.1h-.4l.2-4v-.1h.5l.7 2.1.1.4.1-.4.7-2 .1-.1h.4l.3 4zM245.5 224.9l-.2.1-.3-.3c-.3.2-.5.4-.9.4s-.7-.4-.7-.9c0-.6.5-1 1.5-1v-.2c0-.4-.1-.5-.5-.5l-.7.1h-.1l-.1-.2.2-.2.8-.1c.6 0 .9.2.9.8v1.1c0 .4 0 .6.2.8zm-.6-1.3c-.7 0-1 .2-1 .6 0 .3.1.5.4.5.2 0 .4-.1.6-.4v-.7zM248.4 225h-.3l-.7-.9-.1-.2-.2.2-.6 1h-.1l-.3-.2 1-1.4-1-1.2v-.1l.4-.1.6.8.1.2c.2 0 .2 0 .2-.2l.6-.8h.4v.1l-.9 1.3 1 1.4zM249.6 225h-.4v-2.5h-.5v-.3h.9v2.7zm-.2-3.6a.4.4 0 11.4-.4c0 .3-.2.4-.4.4zM254 225h-.4v-2.1c0-.3-.2-.5-.5-.5-.2 0-.3 0-.6.3V225h-.4v-2.1c0-.3-.1-.5-.4-.5-.2 0-.3 0-.6.3V225h-.4v-2.2c0-.2 0-.3-.2-.5l.3-.2c.1 0 .2 0 .2.3.4-.3.6-.4.9-.4.3 0 .4.2.5.4.4-.3.6-.4 1-.4.2 0 .4.1.5.3v2.6zM257.1 224.9l-.2.2-.3-.4c-.3.3-.6.4-.9.4-.5 0-.8-.3-.8-.8v-2-.2h.4v1.9c0 .5.2.7.5.7.2 0 .5-.1.7-.3v-2.2h.1l.3-.2.1.1v2.1c0 .3 0 .4.2.6zM261.3 225h-.4v-2.1c0-.3-.2-.5-.4-.5s-.4 0-.6.3v2.2l-.1.1h-.3v-2.1c0-.3-.2-.5-.5-.5-.2 0-.3 0-.6.3V225h-.4v-2.2l-.1-.5.2-.2h.1l.2.3c.3-.3.5-.4.8-.4.3 0 .5.2.6.4.3-.3.6-.4.9-.4.2 0 .4.1.5.3l.1.6v2zM264.2 225l-1-.1v-.1l.2-.3.8.2c.3 0 .5-.2.5-.4s-.1-.4-.4-.5c-.4-.2-.6-.2-.7-.4a.7.7 0 01-.3-.5c0-.5.4-.9 1-.9.3 0 .7.2.7.3l-.1.3h-.1l-.6-.2c-.3 0-.4.2-.4.4v.3l.7.4c.5.2.6.4.6.7 0 .5-.4.9-1 .9zM267.8 224.9l-.3.1-.3-.3c-.2.2-.5.4-.8.4-.5 0-.8-.4-.8-.9 0-.6.5-1 1.6-1v-.2c0-.4-.2-.5-.6-.5l-.7.1-.2-.2.2-.2.8-.1c.6 0 1 .2 1 .8V224.8h.1zm-.6-1.3c-.8 0-1.1.2-1.1.6 0 .3.1.5.4.5.2 0 .4-.1.7-.4v-.7zM270.2 220.9l-.1.2H269.1v1h.8V222.5h-.8v2.5l-.1.1h-.3v-2.5h-.5v-.3h.4v-.5c0-.4 0-.6.2-.7.1-.2.3-.3.6-.3s.7 0 .7.2zM272.5 223.7h-1.7c0 .6.3 1 .8 1 .2 0 .4 0 .7-.2l.2.2-.2.2-.8.2c-.7 0-1.2-.6-1.2-1.5 0-1 .4-1.6 1.2-1.6.4 0 .8.3 1 .8v.8zm-.4-.4c0-.6-.3-.9-.7-.9-.4 0-.6.3-.6.9h1.3zM275.7 225c-.3 0-.5 0-.7-.2v1.3l-.4.2v-3.4c0-.3-.1-.4-.2-.5v-.1l.2-.3.3.4c.3-.3.6-.4.9-.4.3 0 .5.2.7.5l.2 1c0 1-.4 1.6-1 1.6zm.4-2.2c0-.2-.2-.4-.4-.4l-.7.3v1.7l.6.3c.4 0 .6-.3.6-1.2l-.1-.7zM278.4 225c-.7 0-1.1-.5-1.1-1.4 0-1 .4-1.6 1.2-1.6.7 0 1.2.6 1.2 1.5 0 1-.5 1.6-1.3 1.6zm0-2.6c-.4 0-.6.4-.6 1.1 0 .4 0 .7.2 1l.5.2c.2 0 .4 0 .5-.2l.2-1c0-.7-.3-1-.7-1zM283.5 222.2l-.7 2.8h-.4l-.5-1.8v-.5l-.2.5-.5 1.8H280.9h-.1l-.7-2.8.4-.1.5 2V224.1l.7-2h.3l.5 2V224.5h.1v-.2l.5-2v-.1h.4v.1zM286.1 223.7h-1.7c0 .6.3 1 .8 1 .2 0 .4 0 .7-.2l.2.2-.2.2-.7.2c-.8 0-1.3-.6-1.3-1.5 0-1 .5-1.6 1.2-1.6.5 0 .8.3 1 .8v.8zm-.4-.4c0-.6-.2-.9-.6-.9-.4 0-.7.3-.7.9h1.3zM288.4 222.2l-.2.3h-.1-.1c-.2 0-.3 0-.6.4v2.1h-.4V223c0-.4 0-.5-.2-.8l.3-.2.2.4c.4-.4.5-.5.8-.5l.3.1zM292 222.5l-.1.2h-.1l-.6-.3c-.5 0-.8.4-.8 1.2 0 .7.2 1 .7 1 .2 0 .4 0 .7-.2l.2.2-.1.2-.8.3c-.8 0-1.2-.6-1.2-1.5 0-1 .5-1.6 1.2-1.6.3 0 .5.1.8.3l.1.1zM293.5 225c-.7 0-1.1-.5-1.1-1.4 0-1 .4-1.6 1.2-1.6.7 0 1.2.6 1.2 1.5 0 1-.5 1.6-1.3 1.6zm0-2.6c-.4 0-.6.4-.6 1.1l.1 1 .6.2c.2 0 .4 0 .5-.2l.2-1c0-.7-.3-1-.7-1zM297.7 225h-.4v-2c0-.4-.2-.6-.5-.6-.2 0-.5.1-.8.4v2.2h-.3-.1v-2.1l-.1-.6.3-.2s.2.1.2.3c.4-.2.6-.4 1-.4.3 0 .5.1.6.3v2.6zM299.3 225l-.9-.1v-.1l.1-.3.8.2c.3 0 .5-.2.5-.4s-.1-.4-.4-.5l-.7-.4a.7.7 0 01-.2-.5c0-.5.3-.9.9-.9.3 0 .8.2.8.3l-.2.3-.6-.2c-.3 0-.5.2-.5.4l.1.3.7.4c.4.2.6.4.6.7 0 .5-.4.9-1 .9zM303.2 224.9l-.3.2-.2-.4c-.4.3-.6.4-1 .4-.5 0-.7-.3-.7-.8v-2-.2h.4v1.9c0 .5.1.7.4.7.3 0 .6-.1.8-.3v-2.2l.4-.2v2.2c0 .3 0 .4.2.6zM307.4 225h-.4-.1v-2.1c0-.3-.1-.5-.4-.5-.2 0-.3 0-.6.3V225h-.4v-2.1c0-.3-.2-.5-.4-.5s-.4 0-.6.3V225h-.4v-2.2c0-.2 0-.3-.2-.5l.3-.2s.2 0 .2.3c.3-.3.6-.4.9-.4.2 0 .4.2.5.4.4-.3.6-.4.9-.4.2 0 .4.1.5.3l.2.6v2zM309.5 225c-.3 0-.5 0-.7-.2v1.3l-.4.2v-3.4c0-.3 0-.4-.2-.5v-.1l.2-.3.3.4c.3-.3.6-.4.9-.4.3 0 .5.2.7.5l.2 1c0 1-.4 1.6-1 1.6zm.4-2.2c0-.2-.2-.4-.4-.4l-.7.3v1.7l.6.3c.4 0 .6-.3.6-1.2l-.1-.7zM312.1 225c-.3 0-.5 0-.6-.3l-.1-.5v-1.7h-.5v-.3h.5v-.9l.4-.2v1.1h1v.2h-1v2.2h1v.2c0 .1-.4.3-.7.3zM313.9 225h-.4v-2.5h-.6v-.3h1v2.7zm-.3-3.6a.4.4 0 11.4-.4c0 .3-.2.4-.4.4zM315.8 225c-.7 0-1.1-.5-1.1-1.4 0-1 .4-1.6 1.2-1.6.7 0 1.2.6 1.2 1.5 0 1-.5 1.6-1.3 1.6zm0-2.6c-.4 0-.6.4-.6 1.1 0 .4 0 .7.2 1l.5.2c.2 0 .4 0 .5-.2l.2-1c0-.7-.3-1-.7-1zM320 225h-.4v-2c0-.4-.2-.6-.4-.6-.3 0-.5.1-.8.4v2.1l-.1.1h-.3v-2.1l-.2-.6.3-.2c.1 0 .2.1.2.3.4-.2.7-.4 1-.4.3 0 .5.1.6.3l.1.6v2z"/>
    </g>
    <g fill="#1D1D1B">
      <path d="M313 138H311v-.3-.1h.7v-3.4l-1 .5-.2-.2 1.3-1h.4v4.1h.7v.4zM315 138.2a1 1 0 01-.9-.5 3 3 0 01-.5-1.8c0-1.6.6-2.4 1.5-2.4 1 0 1.4.8 1.4 2.3 0 1.5-.5 2.4-1.4 2.4zm0-4.2c-.5 0-.8.6-.8 1.8 0 .6 0 1.1.3 1.4 0 .3.3.5.6.5s.5-.2.6-.5c.2-.3.2-.8.2-1.4 0-1.2-.2-1.8-.8-1.8zM317.7 135.8l-.7-.2.1-.2h.6c.4 0 .5 0 .5-.4 0-.3-.2-.5-.5-.5h-.2v-.2h.1c.4 0 .6-.3.6-.6 0-.2-.2-.4-.4-.4s-.3 0-.4.2H317c0-.1 0-.2.2-.3l.5-.2c.4 0 .7.3.7.7 0 .3-.2.5-.4.6l.2.1.3.6c0 .5-.4.8-.9.8z"/>
    </g>
    <g fill="#1D1D1B">
      <path d="M313 103.3H311h-.1v-.3l.1-.1h.7v-3.4l-1 .5-.2-.2 1.3-1h.4v4.1h.7v.4zM315 103.5a1 1 0 01-.9-.5 3 3 0 01-.5-1.8c0-1.6.6-2.4 1.5-2.4 1 0 1.4.8 1.4 2.3 0 1.5-.5 2.4-1.4 2.4zm0-4.2c-.5 0-.8.6-.8 1.8 0 .6 0 1.1.2 1.5.2.2.4.4.7.4.3 0 .5-.2.6-.5.2-.3.2-.8.2-1.4 0-1.2-.2-1.8-.8-1.8zM317.7 101h-.6v-.2h.5c.2 0 .4 0 .5-.2l.1-.5c0-.3-.1-.5-.4-.5l-.5.3h-.2v-.1l.1-1.3v-.1h1.1v.2h-.8l-.1 1c.2-.2.3-.3.5-.3.4 0 .7.4.7.8 0 .6-.4 1-1 1z"/>
    </g>
    <g fill="#1D1D1B">
      <path d="M313 206.5H311v-.3h.7v-3.5l-1 .6-.2-.2v-.1l1.3-1h.4v4.2h.7v.3zM315 206.7a1 1 0 01-.9-.5 3 3 0 01-.5-1.8c0-1.5.6-2.4 1.5-2.4 1 0 1.4.8 1.4 2.3 0 1.5-.5 2.4-1.4 2.4zm0-4.2c-.5 0-.8.7-.8 1.8 0 .6 0 1.1.3 1.5 0 .2.3.4.6.4s.5-.2.6-.5c.2-.3.2-.8.2-1.4 0-1.2-.2-1.8-.8-1.8zM318.1 203.3H317v-.2h1.1v.2zM320 204.2h-1.2v-.2h.5v-2l-.6.3-.1-.1.7-.6h.2v2.4h.4v.2z"/>
    </g>
    <g fill="#1D1D1B">
      <path d="M313 173.6H311v-.3-.1h.7v-3.4l-1 .5-.2-.1v-.1l1.3-1h.4v4.1h.7v.4zM315 173.8a1 1 0 01-.9-.5 3 3 0 01-.5-1.8c0-1.5.6-2.4 1.5-2.4 1 0 1.4.8 1.4 2.3 0 1.5-.5 2.4-1.4 2.4zm0-4.2c-.5 0-.8.6-.8 1.8 0 .6 0 1.1.3 1.5 0 .2.3.4.6.4s.5-.2.6-.5c.2-.3.2-.8.2-1.4 0-1.2-.2-1.8-.8-1.8z"/>
    </g>
    <g fill="#1D1D1B">
      <path d="M313 68H311h-.1v-.3l.1-.1h.7v-3.4l-1 .5-.2-.2 1.3-1h.4v4.1h.7v.3zM315 68.1a1 1 0 01-.9-.4 3 3 0 01-.5-1.9c0-1.5.6-2.4 1.5-2.4 1 0 1.4.9 1.4 2.3 0 1.6-.5 2.4-1.4 2.4zm0-4.2c-.5 0-.8.7-.8 1.9 0 .6 0 1 .2 1.4.2.3.4.4.7.4.3 0 .5-.1.6-.4.2-.4.2-.9.2-1.4 0-1.3-.2-1.9-.8-1.9zM318.6 63.2l-1 2.5h-.3l.9-2.3H317V63h1.4v.1z"/>
    </g>
    <g fill="#1D1D1B">
      <path d="M14.3 214.9l-.1.1h-1.9v-.4h.7V211l-1 .6-.2-.2v-.1l1.3-1h.4v4.2h.7v.3zM15.9 215.1c-.4 0-.7 0-.7-.2v-.3h.6c.7 0 1-.4 1.3-1.6-.3.4-.5.6-1 .6-.7 0-1.1-.6-1.1-1.6s.5-1.6 1.3-1.6c.9 0 1.3.6 1.3 2 0 1.6-.6 2.7-1.7 2.7zm.4-4.2c-.5 0-.8.4-.8 1.1 0 .7.3 1.1.8 1.1s.8-.4.8-1.1c0-.7-.3-1.1-.8-1.1zM20.9 210.7l-1.6 4.3h-.5-.1v-.1l1.5-4h-1.8v-.3-.1h2.4v.2zM23.1 215.1a1 1 0 01-1-.5 3 3 0 01-.4-1.8c0-1.5.6-2.4 1.5-2.4s1.4.8 1.4 2.3c0 1.6-.5 2.4-1.5 2.4zm0-4.2c-.5 0-.8.7-.8 1.9 0 .6 0 1 .2 1.4.2.3.4.4.6.4.4 0 .6-.2.7-.5l.2-1.4c0-1.2-.3-1.8-.8-1.8z"/>
    </g>
    <g fill="#1D1D1B">
      <path d="M79.9 214.6c-.3.4-.7.5-1.2.5-.9 0-1.5-.5-1.5-1.3 0-.3.2-.6.4-.9l.7-.3c-.6-.2-.9-.6-.9-1s.1-.6.3-.9c.3-.2.6-.3 1-.3.8 0 1.3.4 1.3 1s-.3 1-.8 1.2c.6.3 1 .7 1 1.2 0 .3-.1.6-.3.8zm-1.2-1.7c-.3 0-.3.1-.5.2a1 1 0 00-.4.8c0 .4.4.7 1 .7.4 0 .8-.3.8-.7 0-.5-.3-.7-1-1zm0-2c-.4 0-.7.2-.7.6 0 .4.2.6.7.9.5-.2.7-.5.7-.9s-.3-.7-.7-.7zM82.2 215.1a1 1 0 01-1-.5 3 3 0 01-.4-1.8c0-1.5.5-2.4 1.5-2.4.9 0 1.3.8 1.3 2.3 0 1.6-.5 2.4-1.4 2.4zm0-4.2c-.5 0-.9.7-.9 1.9 0 .6.1 1 .3 1.4.1.3.3.4.6.4s.5-.2.7-.5l.2-1.4c0-1.2-.3-1.8-.9-1.8z"/>
    </g>
    <g fill="#1D1D1B">
      <path d="M111 214.6c-.2.4-.6.5-1 .5-1 0-1.6-.5-1.6-1.3 0-.3.2-.6.4-.9l.7-.3c-.6-.2-.9-.6-.9-1s.2-.6.4-.9c.2-.2.5-.3 1-.3.7 0 1.2.4 1.2 1s-.3 1-.8 1.2c.6.3 1 .7 1 1.2 0 .3-.1.6-.3.8zm-1-1.7c-.3 0-.4.1-.5.2a1 1 0 00-.5.8c0 .4.4.7 1 .7.5 0 .8-.3.8-.7 0-.5-.3-.7-.9-1zm0-2c-.5 0-.8.2-.8.6 0 .4.2.6.7.9.5-.2.8-.5.8-.9s-.3-.7-.8-.7zM113.1 215.1l-.9-.1v-.5h.1l.7.1c.4 0 .7-.1.9-.3l.2-.8c0-.6-.2-.9-.7-.9-.3 0-.5.1-.8.4h-.4v-.1l.2-2.3v-.1h1.9v.4h-1.5l-.1 1.5c.3-.2.5-.3.8-.3.7 0 1.2.6 1.2 1.4 0 1-.6 1.6-1.6 1.6z"/>
    </g>
    <g fill="#1D1D1B">
      <path d="M49.5 210.7L48 215h-.5v-.1l1.5-4H47v-.3-.1h2.5v.2zM51.3 215.1l-.9-.1-.1-.1v-.4h.2l.7.1c.4 0 .7-.1.8-.3.2-.2.3-.5.3-.8 0-.6-.3-.9-.7-.9-.3 0-.6.1-.8.4h-.4v-.1l.1-2.3.1-.1h1.9v.4H51l-.2 1.5.9-.3c.7 0 1.2.6 1.2 1.4 0 1-.7 1.6-1.6 1.6z"/>
    </g>
    <g fill="#1D1D1B">
      <path d="M139.8 215.1c-.4 0-.6 0-.6-.2v-.3h.5c.8 0 1.2-.4 1.3-1.6-.2.4-.5.6-.9.6-.7 0-1.2-.6-1.2-1.6s.6-1.6 1.4-1.6c.9 0 1.3.6 1.3 2 0 1.6-.7 2.7-1.8 2.7zm.5-4.2c-.5 0-.8.4-.8 1.1 0 .7.3 1.1.8 1.1s.7-.4.7-1.1c0-.7-.2-1.1-.7-1.1zM143.8 215.1a1 1 0 01-1-.5 3 3 0 01-.4-1.8c0-1.5.5-2.4 1.5-2.4.9 0 1.4.8 1.4 2.3 0 1.6-.6 2.4-1.5 2.4zm0-4.2c-.5 0-.9.7-.9 1.9 0 .6.1 1 .3 1.4.1.3.3.4.6.4s.6-.2.7-.5l.2-1.4c0-1.2-.3-1.8-.9-1.8z"/>
    </g>
    <g fill="#1D1D1B">
      <path d="M171.2 215.1c-.4 0-.7 0-.7-.2v-.3h.6c.7 0 1.1-.4 1.3-1.6-.3.4-.5.6-1 .6-.7 0-1.1-.6-1.1-1.6s.5-1.6 1.3-1.6c.9 0 1.3.6 1.3 2 0 1.6-.6 2.7-1.7 2.7zm.4-4.2c-.5 0-.8.4-.8 1.1 0 .7.3 1.1.8 1.1s.8-.4.8-1.1c0-.7-.3-1.1-.8-1.1zM174.8 215.1l-.8-.1-.1-.1v-.4h.1l.8.1c.4 0 .6-.1.8-.3.2-.2.3-.5.3-.8 0-.6-.3-.9-.8-.9-.3 0-.5.1-.8.4H174l-.1-.1.2-2.3.1-.1H176.1v.4h-1.5l-.2 1.5c.3-.2.5-.3.8-.3.7 0 1.2.6 1.2 1.4 0 1-.6 1.6-1.6 1.6z"/>
    </g>
    <g fill="#1D1D1B">
      <path d="M265.6 214.9l-.1.1h-1.9v-.4h.8V211l-1 .6h-.1l-.1-.2v-.1l1.2-1h.4v4.2H265.7v.3zM267.6 215.1a1 1 0 01-1-.5 3 3 0 01-.4-1.8c0-1.5.5-2.4 1.5-2.4.9 0 1.3.8 1.3 2.3 0 1.6-.5 2.4-1.4 2.4zm0-4.2c-.5 0-.9.7-.9 1.9 0 .6.1 1 .3 1.4.1.3.3.4.6.4s.5-.2.7-.5l.2-1.4c0-1.2-.3-1.8-.9-1.8z"/>
    </g>
    <g fill="#1D1D1B">
      <path d="M296.8 214.9v.1h-2v-.4h.8V211l-1 .6h-.1l-.1-.2v-.1l1.3-1h.3l.1.2v4h.7v.3zM298.7 215.1l-.9-.1-.1-.1v-.4h.2l.7.1c.4 0 .7-.1.8-.3.2-.2.3-.5.3-.8 0-.6-.3-.9-.7-.9-.3 0-.6.1-.8.4h-.4v-.1l.1-2.3.1-.1h1.9v.4h-1.5l-.2 1.5.9-.3c.7 0 1.2.6 1.2 1.4 0 1-.7 1.6-1.6 1.6z"/>
    </g>
    <g fill="#1D1D1B">
      <path d="M200.3 214.9l-.1.1h-2.4v-.1c0-1 .3-1.6 1.1-2.2l.6-.5.2-.6c0-.4-.3-.7-.7-.7-.4 0-.6.2-.8.7h-.4v-.1l.2-.6c.3-.3.6-.5 1-.5.8 0 1.3.5 1.3 1.3 0 .5-.2.8-.9 1.3s-1 .9-1 1.5h1.8v.4zM202.5 215.1a1 1 0 01-1-.5 3 3 0 01-.4-1.8c0-1.5.5-2.4 1.5-2.4.9 0 1.4.8 1.4 2.3 0 1.6-.6 2.4-1.5 2.4zm0-4.2c-.5 0-.9.7-.9 1.9 0 .6.1 1 .3 1.4.1.3.3.4.6.4s.6-.2.7-.5l.2-1.4c0-1.2-.3-1.8-.9-1.8zM206 215.1a1 1 0 01-1-.5 3 3 0 01-.4-1.8c0-1.5.5-2.4 1.5-2.4.9 0 1.4.8 1.4 2.3 0 1.6-.6 2.4-1.5 2.4zm0-4.2c-.5 0-.9.7-.9 1.9 0 .6.1 1 .3 1.4.1.3.3.4.6.4s.6-.2.7-.5l.2-1.4c0-1.2-.3-1.8-.9-1.8zM209.5 215.1a1 1 0 01-1-.5 3 3 0 01-.4-1.8c0-1.5.5-2.4 1.5-2.4.9 0 1.4.8 1.4 2.3 0 1.6-.6 2.4-1.5 2.4zm0-4.2c-.5 0-.9.7-.9 1.9 0 .6.1 1 .3 1.4.1.3.3.4.6.4s.6-.2.7-.5l.2-1.4c0-1.2-.3-1.8-.9-1.8z"/>
    </g>
    <g fill="#1D1D1B">
      <path d="M233.4 215.1a1 1 0 01-1-.5 3 3 0 01-.5-1.8c0-1.5.6-2.4 1.5-2.4 1 0 1.4.8 1.4 2.3 0 1.6-.5 2.4-1.4 2.4zm0-4.2c-.6 0-.9.7-.9 1.9 0 .6 0 1 .3 1.4 0 .3.3.4.6.4s.5-.2.6-.5c.2-.3.2-.8.2-1.4 0-1.2-.2-1.8-.8-1.8zM236.6 215.1l-1-.1v-.5h.2l.7.1c.4 0 .7-.1.8-.3.2-.2.3-.5.3-.8 0-.6-.3-.9-.7-.9-.3 0-.6.1-.9.4h-.3l-.1-.1.2-2.3.1-.1H237.8v.4h-1.5l-.2 1.5.9-.3c.7 0 1.2.6 1.2 1.4 0 1-.7 1.6-1.6 1.6z"/>
    </g>
  </g>
  <g fill="none" stroke-linejoin="round" stroke-miterlimit="10">
    <path stroke="#1D1D1B" stroke-width=".3" d="M296.8 205v3M19.1 205v3M25.3 205v2.1M31.4 205v2.1M37.6 205v2.1M43.8 205v2.1M50 205v2.9M56.1 205v2.1M62.3 205v2.1M68.5 205v2.1M74.6 205v2.1M87 205v2.1M93.2 205v2.1M99.3 205v2.1M105.5 205v2.1M111.7 205v2.9M117.8 205v2.1M124 205v2.1M130.2 205v2.1M136.4 205v2.1M148.7 205v2.1M154.9 205v2.1M161.1 205v2.1M167.2 205v2.1M173.4 205v2.9M179.6 205v2.1M185.7 205v2.1M191.9 205v2.1M198.1 205v2.1M210.4 205v2.1M216.6 205v2.1M222.8 205v2.1M229 205v2.1M235.1 205v2.9M241.3 205v2.1M247.5 205v2.1M253.6 205v2.1M259.8 205v2.1M272.2 205v2.1M278.3 205v2.1M284.5 205v2.1M290.7 205v2.1M80.8 205v3M142.5 205v3M204.3 205v3M266 205v3"/>
    <path stroke="#B7C6CF" stroke-width=".5" d="M12 171.8h296.9M12 136.7h296.9M20 101.5h288.9M19.9 66.4h289"/>
    <path stroke="#1D1D1B" stroke-width=".3" d="M12 205h296.9"/>
  </g>
  <g>
    <path fill="none" stroke="#EEB3A8" stroke-width=".5" stroke-linejoin="bevel" stroke-miterlimit="10" d="M210.4 204.8v-148h14.1v-8.3"/>
    <path fill="#FFF" stroke="#DC5D58" stroke-width=".5" stroke-linejoin="bevel" stroke-miterlimit="10" d="M215.1 37.6H234v10.9h-18.9z"/>
    <g fill="#DD696A">
      <path d="M221.5 44.8c.1 0 .1.1 0 .1l-.5.2V45l-.7-1.3-.2-.3-.2.3-.6 1.3H218.7c-.1-.1-.1-.1 0-.2l1-2-1-1.7V41l.5-.2h.2l.5 1.2.2.3.2-.3.5-1.1c0-.1 0-.1.1 0h.5v.2l-1 1.7 1.1 2zM224 43.7h-1.6c0 .6.2.9.7.9.4 0 .5-.2.7-.3h.1l.1.4v.1a2 2 0 01-1 .3c-.8 0-1.2-.6-1.2-1.6s.4-1.5 1.2-1.5c.7 0 1.1.5 1.1 1.5v.2zm-.5-.5c0-.5-.2-.8-.5-.8-.4 0-.6.3-.6.8h1.1zM225.8 45c-.8 0-1.2-.5-1.2-1.5s.4-1.5 1.2-1.5c.8 0 1.3.5 1.3 1.5s-.5 1.6-1.3 1.6zm0-2.5c-.4 0-.6.3-.6 1 0 .8.2 1 .6 1 .4 0 .6-.2.6-1 0-.7-.2-1-.6-1zM230 45h-.5v-2c0-.4-.2-.5-.4-.5-.3 0-.4 0-.7.3v2.1h-.5-.1v-2l-.1-.6v-.1l.4-.2h.1l.2.4c.2-.2.5-.4.8-.4.6 0 .8.2.8.9v2z"/>
    </g>
    <path fill="none" stroke="#EEB3A8" stroke-width=".5" stroke-linejoin="bevel" stroke-miterlimit="10" d="M241.6 204.8V41.1"/>
    <path fill="#FFF" stroke="#DC5D58" stroke-width=".5" stroke-linejoin="bevel" stroke-miterlimit="10" d="M238.2 37.6h29.1v10.9h-29.1z"/>
    <g fill="#DD696A">
      <path d="M242.6 44.6v.1c-.4.3-.7.4-1 .4-1 0-1.4-.8-1.4-2.2 0-1 .2-2.1 1.4-2.1.3 0 .7.1 1 .3v.2l-.2.3h-.2c-.2-.1-.3-.3-.6-.3-.5 0-.7.5-.7 1.5 0 1.2.2 1.7.8 1.7.2 0 .3 0 .5-.2h.2l.2.3zM244.1 45c-.7 0-1.2-.5-1.2-1.5s.5-1.5 1.3-1.5c.7 0 1.2.5 1.2 1.5s-.5 1.6-1.3 1.6zm0-2.5c-.4 0-.6.3-.6 1 0 .8.2 1 .7 1 .4 0 .6-.2.6-1 0-.7-.2-1-.6-1zM247.6 42.5s0 .1-.1 0h-.2c-.2 0-.3.1-.6.4v2h-.5v-1.8c0-.4 0-.6-.2-.8v-.1l.4-.2.2.2v.3c.3-.3.5-.5.8-.5h.3v.1l-.1.4zM250.2 43.7h-1.7c0 .6.3.9.8.9.3 0 .5-.2.7-.3l.2.4v.1a2 2 0 01-1 .3c-.8 0-1.3-.6-1.3-1.6s.5-1.5 1.3-1.5c.7 0 1 .5 1 1.5 0 .1.1.2 0 .2zm-.6-.5c0-.5-.1-.8-.5-.8-.3 0-.5.3-.6.8h1.1zM253.7 43.3l-.5.4-.3.3v.4h1.4l.1.1v.4H252.1v-.2c0-.3 0-.6.2-.8.2-.4.5-.7 1-1 .4-.3.5-.5.5-.8 0-.4-.2-.6-.5-.6s-.5.2-.7.6h-.4v-.2-.3c.3-.4.6-.6 1.1-.6.7 0 1.1.4 1.1 1s-.2 1-.7 1.3zM257.6 45h-1v-4.1h.8c1.3 0 1.7.7 1.7 2 0 1.1-.3 2-1.5 2zm-.1-3.6h-.3v3h.3c.9 0 1-.7 1-1.5s-.2-1.5-1-1.5zM262.2 45H261.6v-.3c-.4.3-.6.4-1 .4-.6 0-.8-.4-.8-1v-2l.5-.1h.1v2c0 .4.1.6.4.6l.6-.3v-2.1l.1-.1.4-.1h.1v2.2c0 .3 0 .4.2.6v.1zM264 45c-.8 0-1.3-.5-1.3-1.5s.5-1.5 1.3-1.5 1.2.5 1.2 1.5-.4 1.6-1.2 1.6zm0-2.5c-.4 0-.6.3-.6 1 0 .8.2 1 .6 1 .4 0 .6-.2.6-1 0-.7-.2-1-.6-1z"/>
    </g>
    <path fill="none" stroke="#EEB3A8" stroke-width=".5" stroke-linejoin="bevel" stroke-miterlimit="10" d="M198.1 204.8V59.1M25.3 204.8V144M68.5 204.8v-72.9M260.7 24.9v-6M111.7 204.8v-76.6M136.4 204.8v-93.1M161.1 204.8v-115M185.4 204.8V74.9"/>
    <path fill="#FFF" stroke="#DC5D58" stroke-width=".5" stroke-linejoin="bevel" stroke-miterlimit="10" d="M169.4 56.2h32.2v10.9h-32.2z"/>
    <g fill="#DD696A">
      <path d="M173.3 62h-.4v1.6h-.6v-4h1c.5 0 .8 0 1 .2.2.2.3.5.3.9 0 .8-.5 1.3-1.3 1.3zm0-2h-.4v1.4h.3c.5 0 .8-.2.8-.7 0-.5-.2-.6-.7-.6zM177.1 62.4h-1.7c0 .5.3.8.8.8.3 0 .5 0 .7-.2l.2.4v.1a2 2 0 01-1 .3c-.8 0-1.3-.6-1.3-1.6s.5-1.5 1.3-1.5c.7 0 1.1.5 1.1 1.4l-.1.3zm-.5-.5c0-.5-.2-.8-.6-.8-.3 0-.5.3-.6.8h1.2zM180.1 63.6h-.6v-2c0-.3-.1-.4-.4-.4-.2 0-.4 0-.6.3v2l-.1.2h-.5v-2.1c0-.3 0-.5-.2-.7l.5-.2h.1l.1.4c.3-.3.5-.4 1-.4s.7.2.7.9v2zM182.7 63.5h-.1c-.2.2-.5.2-.7.2-.7 0-.8-.3-.8-.9v-1.6h-.4-.1v-.4h.5V60v-.1l.5-.1h.1v1h.8v.4h-.8v1.6c0 .3 0 .4.3.4l.5-.1.2.4zM184 63.6h-.6v-2.4h-.5v-.4h1v2.8zm-.4-3.4a.4.4 0 01-.4-.4.4.4 0 01.9 0c0 .2-.2.4-.5.4zM187.2 63.6l-.4.1h-.1l-.1-.3c-.3.3-.6.4-.9.4-.7 0-.9-.4-.9-1v-2h.1l.4-.1h.2v2c0 .4 0 .6.4.6l.6-.3v-2.1-.1l.5-.1V63l.2.6zM191.6 63.6h-.6v-2c0-.3-.1-.5-.3-.5l-.6.3v2.2h-.5-.1v-2c0-.3-.1-.4-.3-.4-.2 0-.4 0-.6.2v2.2h-.5v-2.1l-.2-.5v-.2l.4-.1.2.2v.1c.4-.2.6-.3 1-.3.2 0 .4 0 .5.3.4-.2.6-.3 1-.3.5 0 .6.4.6.9v2zM195.1 63.6h-1.6v-.3-.1h.4V60h-.4v-.3-.1h1.6v.4h-.5v3.2h.5v.4zM197.2 63.6H195.5v-.3-.1h.5V60h-.5v-.3-.1h1.6v.4h-.5v3.2h.5v.4zM199.2 63.6h-1.6-.1v-.3l.1-.1h.4V60h-.4-.1v-.3l.1-.1h1.6v.4h-.5v3.2h.5v.4z"/>
    </g>
    <path fill="none" stroke="#EEB3A8" stroke-width=".5" stroke-linejoin="bevel" stroke-miterlimit="10" d="M204.3 204.8V41.4"/>
    <path fill="#FFF" stroke="#DC5D58" stroke-width=".5" stroke-linejoin="bevel" stroke-miterlimit="10" d="M178.7 37.9h32.2v10.9h-32.2z"/>
    <g fill="#DD696A">
      <path d="M184.1 43.7h-.4v1.5l-.1.1h-.5v-4h1c.5 0 .8 0 1 .2.2.2.3.5.3.8 0 1-.5 1.4-1.3 1.4zm0-2h-.4v1.4h.3c.5 0 .8-.2.8-.7 0-.5-.2-.7-.7-.7zM187.9 44h-1.7c0 .6.3 1 .8 1 .3 0 .5-.2.7-.3l.2.3v.2a2 2 0 01-1 .2c-.8 0-1.3-.5-1.3-1.5s.5-1.6 1.3-1.6c.7 0 1 .6 1 1.5 0 .2.1.2 0 .2zm-.5-.4c0-.6-.2-.8-.6-.8-.3 0-.5.2-.6.8h1.2zM190.9 45.3h-.6v-2c0-.3-.1-.5-.4-.5l-.6.3v2.2h-.6v-2c0-.3 0-.5-.2-.7l.5-.3.1.1.1.3c.3-.2.5-.4 1-.4s.7.3.7 1v2zM193.4 45.1v.2l-.7.1c-.7 0-.8-.3-.8-.9V43h-.4l-.1-.1v-.3h.5v-.9l.5-.1h.1v1h.8v.3h-.8v1.7c0 .3 0 .4.3.4l.5-.1.1.3zM194.8 45.3h-.6v-2.4h-.5l-.1-.1v-.3h1.2v2.8zm-.4-3.4a.4.4 0 01-.4-.4.4.4 0 01.9 0c0 .2-.2.4-.5.4zM198 45.3l-.4.1h-.2V45l-.9.3c-.7 0-.9-.3-.9-1v-1.9h.1l.4-.2.2.1v2c0 .4 0 .5.4.5.2 0 .4 0 .6-.2v-2.2l.5-.2V44.6l.2.6zM202.4 45.3h-.6v-2c0-.3-.1-.5-.3-.5-.2 0-.4 0-.6.3v2.2h-.5-.1v-2c0-.3-.1-.5-.3-.5l-.6.3v2.2h-.5-.1v-2.1-.5c-.1-.1-.1-.2 0-.2l.3-.2.2.2v.2c.4-.3.6-.4.9-.4.3 0 .5.2.6.4.4-.3.6-.4 1-.4.5 0 .6.5.6 1v2zM207 44.4l-.2.1h-.4v.9h-.5v-.9h-1.6v-.6l1.4-2.5s.1-.1.2 0h.3c.1.1.2.1.1.2l-1.5 2.4h1l.1-1h.5v1h.5v.4z"/>
    </g>
    <path fill="#FFF" stroke="#DC5D58" stroke-width=".5" stroke-linejoin="bevel" stroke-miterlimit="10" d="M255.4 12.8H266v5.5h-10.6z"/>
    <g fill="#1D1D1B">
      <path d="M272.2 17.3v.2c-.5.3-.8.4-1.2.4-1 0-1.6-1-1.6-2.6 0-1 .3-2.5 1.6-2.5.4 0 .8.2 1.1.5 0 0 .1 0 0 .2l-.2.3h-.1c-.3-.2-.5-.3-.8-.3-.6 0-.8.5-.8 1.7 0 1.3.3 2 1 2 .1 0 .4 0 .6-.3h.2l.2.4zM275.4 17.7h-.6v-2.3c0-.4-.2-.6-.5-.6-.2 0-.5.1-.8.4v2.5h-.6v-4.8-.1l.5-.1h.1v2c.4-.3.7-.5 1-.5.8 0 1 .5 1 1.1v2.4zM277.3 17.7h-.6v-2.8h-.6l-.1-.1v-.4h1.3v3.3zm-.4-4a.5.5 0 01-.5-.5c0-.3.3-.5.5-.5.3 0 .5.2.5.5s-.2.5-.5.5zM280 17.9c-.4 0-.6-.1-.8-.3V19l-.1.1-.5.1h-.2v-3.9-.6c-.1-.1-.2-.2 0-.2l.4-.3.2.2v.2c.4-.3.7-.4 1-.4.8 0 1.2.6 1.2 1.8 0 1.2-.5 1.9-1.3 1.9zm-.2-3c-.2 0-.4 0-.6.2v2l.6.2c.5 0 .6-.4.6-1.3 0-.8-.1-1.2-.6-1.2zM284.2 17.7h-.6v-2.8h-.6l-.1-.1v-.4h1.3v3.3zm-.4-4a.5.5 0 01-.5-.5c0-.3.3-.5.5-.5.3 0 .5.2.5.5s-.2.5-.5.5zM288 17.7h-.7v-2.3c0-.4-.2-.6-.5-.6-.2 0-.4.1-.7.4v2.5h-.7v-2.4c0-.3 0-.5-.2-.7v-.2l.5-.2.2.1.1.4c.3-.3.6-.5 1-.5.7 0 1 .3 1 1.1v2.4zM291 17.5l-.1.2a2 2 0 01-.9.1c-.7 0-.9-.4-.9-1v-2h-.5v-.4h.5v-1h.1l.5-.2.1.1v1h1v.5h-1v2c0 .3.1.4.4.4l.5-.1h.1l.1.4zM293.2 14.9h-.4l-.6.4v2.4h-.6-.1v-2.2l-.1-.8c0-.1-.2-.2 0-.3l.4-.2c.1 0 .2.1.2.3l.1.3c.3-.3.5-.6.9-.6l.3.1v.1l-.1.5zM295 17.9c-.9 0-1.4-.7-1.4-1.9 0-1 .5-1.8 1.4-1.8 1 0 1.5.7 1.5 1.8 0 1.2-.6 1.9-1.5 1.9zm0-3.1c-.4 0-.7.4-.7 1.2 0 .9.2 1.3.7 1.3s.7-.4.7-1.3c0-.8-.2-1.2-.7-1.2zM299.5 17.8l-.2-.1-.1-.3c-.4.3-.7.5-1 .5-.7 0-1.1-.7-1.1-1.8 0-.7 0-1.2.4-1.5.2-.2.5-.4.8-.4.3 0 .5 0 .8.2V13v-.1l.5-.1h.2v4l.1.7c0 .1.1.2 0 .2l-.4.2zM299 15l-.6-.2c-.5 0-.7.4-.7 1.2 0 1 .1 1.3.6 1.3l.7-.3v-2zM303.5 17.7l-.4.1h-.2l-.1-.4c-.4.4-.6.5-1 .5-.8 0-1-.5-1-1.2v-2.2-.1l.6-.2.1.1v2.2c0 .6.1.8.5.8.2 0 .5-.1.7-.3v-2.5-.1l.6-.2.1.1v2.5c0 .4 0 .6.2.7v.2zM306.5 15c0 .1-.1.1-.1 0l-.7-.2c-.5 0-.7.4-.7 1.2 0 .9.2 1.3.7 1.3.3 0 .5-.1.7-.3h.1l.2.4v.1c-.3.2-.7.4-1 .4-1 0-1.5-.7-1.5-1.8 0-1.2.6-1.9 1.5-1.9.4 0 .7.1 1 .3v.2l-.2.4zM309.3 17.5v.2a2 2 0 01-.9.1c-.7 0-.9-.4-.9-1v-2h-.5v-.4h.5v-1h.1l.5-.2.1.1v1h1v.5h-1v2c0 .3.1.4.4.4l.5-.1h.1l.1.4zM310.9 17.7h-.7v-2.8h-.6v-.5h1.2v3.3zm-.4-4a.5.5 0 01-.5-.5c0-.3.2-.5.5-.5s.5.2.5.5-.2.5-.5.5zM313.2 17.9c-1 0-1.5-.7-1.5-1.9 0-1 .6-1.8 1.5-1.8s1.4.7 1.4 1.8c0 1.2-.5 1.9-1.4 1.9zm0-3.1c-.5 0-.7.4-.7 1.2 0 .9.2 1.3.7 1.3s.7-.4.7-1.3c0-.8-.3-1.2-.7-1.2zM318 17.7h-.6v-2.3c0-.4-.2-.6-.5-.6-.2 0-.4.1-.7.4v2.5h-.7v-2.4c0-.3 0-.5-.2-.7v-.2l.5-.2.2.1.1.4c.4-.3.6-.5 1-.5.7 0 1 .3 1 1.1v2.4zM271.7 25c0 .1-.1 0-.2 0v-.3c-.4.3-.7.4-1 .4-.8 0-1.2-.6-1.2-1.8 0-.6.2-1.1.4-1.4.3-.3.6-.4 1-.4.2 0 .4 0 .6.2v-1.5l.1-.2h.6v4c0 .4 0 .5.2.7v.2l-.5.2zm-.4-2.8l-.6-.1c-.5 0-.6.3-.6 1.2 0 .9.1 1.2.5 1.2.3 0 .5 0 .7-.3v-2zM275.5 24.9l-.4.2-.2-.1-.1-.3c-.3.3-.6.4-1 .4-.6 0-1-.4-1-1 0-1 1-1.2 1.9-1.2v-.3c0-.4-.2-.5-.6-.5a2 2 0 00-.8.2h-.1l-.1-.4v-.2l1-.2c.9 0 1.2.3 1.2 1V24c0 .4 0 .6.2.8v.2zm-.8-1.5c-.5 0-1.2 0-1.2.6 0 .3.2.6.5.6l.7-.4v-.8zM278.3 24.8v.1a2 2 0 01-.9.2c-.7 0-.9-.4-.9-1v-2H276v-.4l.2-.1h.4v-1h.1l.5-.1h.1v1h1v.5l-.1.1h-.9V24c0 .4.1.5.4.5.2 0 .3 0 .5-.2l.1.1.1.4zM281.3 23.5h-2c.1.7.4 1 1 1l.8-.2.2.3v.2c-.3.2-.8.3-1.2.3-1 0-1.5-.7-1.5-1.8s.6-1.8 1.5-1.8 1.3.6 1.3 1.7v.3zm-.6-.6c0-.6-.2-.9-.6-.9-.5 0-.7.3-.7 1h1.3zM283 25.1c-.3 0-.7-.1-1-.3-.2 0-.1 0-.1-.1l.1-.4h.2c.3.2.6.2.9.2.2 0 .4-.1.4-.4 0-.2 0-.3-.5-.5l-.6-.3a.8.8 0 01-.4-.8c0-.6.5-1 1.1-1 .3 0 .7 0 1 .2v.2l-.1.3h-.2l-.6-.2c-.4 0-.5.2-.5.5 0 .2 0 .2.4.4l.7.4c.3.2.4.4.4.7 0 .7-.4 1.1-1.1 1.1zM285.1 25.8l-.1.1h-.2c-.1-.1-.1-.1 0-.2l.3-1.4.2-.1h.6c.1 0 .1 0 0 .1l-.8 1.5zM289 25l-1-.1v-.1l.1-.3h.1l.7.2c.3 0 .5-.2.5-.4s0-.4-.4-.5c-.4-.2-.5-.2-.6-.4a.7.7 0 01-.3-.5c0-.5.4-.9.9-.9.3 0 .8.2.8.3l-.1.3h-.1l-.6-.2c-.3 0-.5.2-.5.4 0 .1 0 .2.2.3l.6.4c.4.2.6.4.6.7 0 .5-.4.9-1 .9zM292.7 23.7h-1.8c0 .6.3 1 .8 1 .2 0 .5 0 .7-.2h.1l.1.2-.2.2-.7.2c-.8 0-1.3-.6-1.3-1.5 0-1 .5-1.6 1.2-1.6.5 0 .9.3 1 .8l.1.8zm-.5-.4c0-.6-.2-.9-.6-.9-.4 0-.6.3-.7.9h1.3zM294 25c-.3 0-.5-.1-.6-.4V21v-.2h.4V24.5l.3.2h.3l.1.2s-.2.2-.5.2zM297 23.7h-1.7c0 .6.3 1 .8 1 .2 0 .4 0 .6-.2h.1l.2.2-.2.2-.8.2c-.7 0-1.2-.6-1.2-1.5 0-1 .4-1.6 1.2-1.6.4 0 .8.3 1 .8v.8zm-.4-.4c0-.6-.3-.9-.7-.9s-.6.3-.6.9h1.3zM299.6 22.5l-.1.2h-.1l-.6-.3c-.5 0-.8.4-.8 1.2 0 .7.3 1 .7 1 .3 0 .4 0 .7-.2h.1l.1.2v.2c-.3.2-.6.3-1 .3-.6 0-1-.6-1-1.5 0-1 .4-1.6 1.2-1.6.2 0 .5.1.7.3l.1.1zM301 25c-.3 0-.6 0-.7-.3v-2.2h-.5v-.3h.4v-.9h.1l.3-.2v1.1h1v.2l-.1.1h-.8v2.1H301.6l.1.2c0 .1-.4.3-.7.3zM304.2 23.7h-1.7c0 .6.3 1 .8 1 .2 0 .4 0 .7-.2h.1l.1.2-.2.2-.7.2c-.8 0-1.3-.6-1.3-1.5 0-1 .5-1.6 1.2-1.6.5 0 .8.3 1 .8l.1.8zm-.4-.4c0-.6-.2-.9-.6-.9-.4 0-.7.3-.7.9h1.3zM307.1 24.9l-.2.1-.3-.3c-.4.3-.6.4-.9.4-.6 0-.9-.6-.9-1.6 0-.9.4-1.5 1-1.5l.7.2v-1.4l.4-.1v3.4l.2.7v.1zm-.6-2.3l-.6-.2c-.4 0-.6.4-.6 1.1 0 .8.1 1.2.5 1.2.3 0 .5-.1.7-.4v-1.7z"/>
    </g>
    <path fill="#FFF" stroke="#DC5D58" stroke-width=".5" stroke-linejoin="bevel" stroke-miterlimit="10" d="M15.7 140.8h19.4v10.9H15.7z"/>
    <g fill="#DD696A">
      <path d="M22 147.3v.1h-.5v.8l-.1.1h-.5v-.9h-1.5l-.1-.1v-.5l1.5-2.6h.1l.4.1c.1 0 .1.1 0 .2l-1.4 2.4h1v-1h.5v1h.5l.1.1v.3zM24.8 147.8c-.2.3-.5.5-1 .5-.8 0-1.3-.7-1.3-2 0-.8.2-1.3.5-1.7.2-.2.5-.4 1-.4.3 0 .6.1.8.4.3.4.4.9.4 1.6 0 .8-.1 1.3-.4 1.6zm-.4-2.8c-.1-.2-.3-.3-.5-.3-.5 0-.7.5-.7 1.6 0 1 .2 1.5.7 1.5.2 0 .4-.2.5-.4l.2-1.1c0-.6 0-1-.2-1.3zM28.1 147.8c-.2.3-.5.5-1 .5-.8 0-1.3-.7-1.3-2 0-.8.2-1.3.5-1.7.2-.2.5-.4.9-.4s.7.1.9.4c.3.4.4.9.4 1.6 0 .8-.1 1.3-.4 1.6zm-.4-2.8c-.1-.2-.3-.3-.5-.3-.5 0-.7.5-.7 1.6 0 1 .2 1.5.7 1.5.2 0 .4-.2.5-.4l.1-1.1-.1-1.3zM31.7 147.3l-.2.1h-.4v.9h-.5v-.9H29v-.6l1.4-2.6h.2l.3.1c.1 0 .2.1.1.2l-1.5 2.4h1l.1-1h.5v1h.4l.2.1v.3z"/>
    </g>
    <path fill="#FFF" stroke="#DC5D58" stroke-width=".5" stroke-linejoin="bevel" stroke-miterlimit="10" d="M162 71.6h30.2v10.9H162z"/>
    <g fill="#DD696A">
      <path d="M165.9 77.4h-.4v1.5l-.1.1h-.5v-4h1c.5 0 .7 0 1 .2.2.2.3.5.3.8 0 1-.6 1.4-1.3 1.4zm0-2h-.4v1.4h.3c.5 0 .7-.2.7-.7 0-.5-.1-.7-.7-.7zM169.7 77.7H168c0 .6.3 1 .7 1 .4 0 .6-.2.8-.3l.2.3v.2a2 2 0 01-1 .2c-.8 0-1.3-.5-1.3-1.5s.5-1.6 1.2-1.6c.8 0 1.2.6 1.2 1.5l-.1.2zm-.6-.4c0-.6-.2-.8-.5-.8-.4 0-.5.2-.6.8h1.1zM172.7 79h-.6v-2c0-.3-.1-.5-.4-.5l-.7.3V79h-.5v-2c0-.3 0-.5-.2-.7l.4-.3.2.1v.3c.4-.2.6-.4 1-.4.5 0 .8.3.8 1v2zM175.2 78.8v.2l-.7.1c-.7 0-.8-.3-.8-.9v-1.6h-.4l-.1-.1v-.3h.5v-.9l.5-.1v1h.9v.3H174.3v1.7c0 .3 0 .4.3.4l.4-.1h.1l.1.3zM176.5 79h-.5v-2.4h-.5l-.1-.1v-.3h1.1V79zm-.3-3.4a.4.4 0 01-.4-.4.4.4 0 01.8 0c0 .2-.2.4-.4.4zM179.8 79l-.4.1h-.2v-.3c-.4.2-.6.3-1 .3-.6 0-.8-.3-.8-1v-1.9h.1l.4-.2.1.1v2c0 .4.1.5.4.5.2 0 .4 0 .7-.2v-2.2l.4-.2.2.1V79c.1 0 .1 0 0 0zM184.2 79h-.6v-2c0-.3-.1-.5-.4-.5-.1 0-.3 0-.5.3V79h-.6v-2c0-.3-.1-.5-.4-.5l-.5.3V79h-.6v-2.1-.5c-.1-.1-.2-.2 0-.2l.3-.2.2.2v.2c.3-.3.6-.4.9-.4.3 0 .5.2.6.4.3-.3.6-.4.9-.4.6 0 .7.5.7 1v2zM187.7 79H186v-.3-.1h.5v-3.2h-.5V75H187.8v.3l-.1.1h-.4v3.2h.5v.3zM189.7 79H188v-.3-.1h.5v-3.2h-.5V75h1.6v.4h-.5v3.2h.5v.3z"/>
    </g>
    <g>
      <path fill="#FFF" stroke="#DC5D58" stroke-width=".5" stroke-linejoin="bevel" stroke-miterlimit="10" d="M148.3 87h25.1v10.9h-25.1z"/>
      <g fill="#DD696A">
        <path d="M152.3 92.7h-.4v1.6l-.1.1h-.5v-4h1l1 .1c.2.2.3.6.3 1 0 .8-.6 1.2-1.3 1.2zm0-1.9h-.4v1.4h.3c.5 0 .7-.2.7-.7 0-.5-.1-.7-.7-.7zM156 93.1h-1.6c0 .6.3.9.7.9l.8-.2.2.3v.2a2 2 0 01-1 .2c-.8 0-1.3-.5-1.3-1.5s.5-1.6 1.2-1.6c.8 0 1.2.5 1.2 1.5l-.1.2zm-.5-.4c0-.6-.1-.8-.5-.8s-.5.2-.6.8h1.1zM159 94.3v.1h-.5v-2c0-.3-.1-.5-.4-.5l-.7.3v2.2h-.5v-2.1c0-.3 0-.4-.2-.6v-.1l.5-.2v.1l.2.3c.3-.2.5-.4.9-.4.6 0 .8.3.8 1v2zM161.6 94.2v.2l-.7.1c-.7 0-.8-.4-.8-.9V92h-.4l-.1-.1v-.3-.1h.5v-.8l.5-.2v1h.9v.4H160.7v1.6c0 .4 0 .5.3.5l.4-.1h.1l.1.3zM163 94.3l-.1.1h-.5V92h-.5l-.1-.1v-.3-.1h1.1v2.8zm-.4-3.3a.4.4 0 01-.4-.5.4.4 0 01.8 0c0 .3-.2.5-.4.5zM166.2 94.4l-.4.1h-.2v-.3c-.4.2-.6.3-1 .3-.6 0-.8-.4-.8-1v-1.9h.1l.4-.2.1.1v1.9c0 .5.1.6.4.6.2 0 .5 0 .7-.2v-2.2l.5-.2v2.2l.2.6v.2zM170.6 94.3l-.1.1h-.5v-2c0-.4-.1-.5-.4-.5-.1 0-.3 0-.5.3v2.2h-.6v-2c0-.4-.1-.5-.4-.5-.1 0-.3 0-.5.3v2.1l-.1.1h-.5v-2.1-.5c-.1-.1-.2-.2 0-.2l.3-.2.2.2v.2c.4-.3.6-.4.9-.4.3 0 .5.1.6.4.4-.3.6-.4.9-.4.6 0 .7.5.7 1v2z"/>
      </g>
    </g>
    <g>
      <path fill="#FFF" stroke="#DC5D58" stroke-width=".5" stroke-linejoin="bevel" stroke-miterlimit="10" d="M58.8 121.1h19.4V132H58.8z"/>
      <g fill="#DD696A">
        <path d="M64.8 128.3c-.3.2-.7.4-1.1.4-.8 0-1.3-.5-1.3-1.2 0-.2 0-.4.2-.5.1-.2.3-.4.6-.5l-.4-.3a1 1 0 01-.3-.7c0-.5.5-1 1.2-1s1.2.4 1.2 1v.4l-.7.6c.5.2.8.5.8 1 0 .3 0 .6-.2.8zm-.5-1.1c0-.2-.3-.3-.6-.4l-.4.1-.3.6c0 .4.3.6.7.6.4 0 .7-.2.7-.6v-.3zm-.6-2.2c-.3 0-.5.3-.5.6s.2.5.5.7l.3-.2c.2-.1.3-.3.3-.5 0-.3-.2-.6-.6-.6zM68 128.2c-.3.3-.6.5-1 .5-1 0-1.4-.8-1.4-2 0-.8.2-1.4.5-1.7.2-.3.5-.5.9-.5s.7.2.9.5c.3.3.4.8.4 1.5 0 .8-.1 1.3-.4 1.7zm-.5-2.8c-.1-.2-.3-.3-.5-.3-.5 0-.7.5-.7 1.5s.2 1.5.6 1.5c.3 0 .5-.1.6-.4l.1-1-.1-1.3zM71.2 128.3c-.3.2-.6.4-1 .4-.9 0-1.4-.5-1.4-1.2 0-.2 0-.4.2-.5.1-.2.3-.4.7-.5l-.5-.3a1 1 0 01-.3-.7c0-.5.5-1 1.2-1s1.2.4 1.2 1v.4l-.7.6c.5.2.8.5.8 1 0 .3 0 .6-.2.8zm-.5-1.1c0-.2-.3-.3-.6-.4l-.4.1-.3.6c0 .4.3.6.7.6.4 0 .7-.2.7-.6v-.3zm-.6-2.2c-.3 0-.5.3-.5.6s.2.5.5.7l.3-.2c.2-.1.3-.3.3-.5 0-.3-.2-.6-.6-.6zM73.2 128.7c-.7 0-1.2-.6-1.2-1.8 0-1.4.7-2.4 1.7-2.4.3 0 .5 0 .6.2l-.1.4h-.5c-.5 0-.9.4-1 1.1l.1-.2.6-.2c.7 0 1 .7 1 1.4 0 .9-.4 1.5-1.2 1.5zm0-2.3c-.3 0-.5.3-.5.8 0 .6.2 1 .5 1 .4 0 .7-.4.7-1 0-.5-.3-.8-.6-.8z"/>
      </g>
    </g>
    <g>
      <path fill="#FFF" stroke="#DC5D58" stroke-width=".5" stroke-linejoin="bevel" stroke-miterlimit="10" d="M102 121.1h19.4V132H102z"/>
      <g fill="#DD696A">
        <path d="M108.4 128.6c-.3 0-.7 0-1-.2l.1-.4h.2l.7.1c.5 0 .7-.2.7-.7s-.2-.6-.8-.6h-.2v-.5h.2c.4 0 .7-.3.7-.7 0-.3-.2-.6-.5-.6-.2 0-.4.2-.6.4h-.1l-.3-.2v-.2c.3-.3.6-.5 1-.5.7 0 1.1.4 1.1 1 0 .5-.2.8-.6 1l.4.1c.2.2.4.5.4.9 0 .7-.6 1.1-1.4 1.1zM112.7 128.3c-.3.2-.6.4-1 .4-.9 0-1.4-.5-1.4-1.2 0-.2 0-.4.2-.5.1-.2.3-.4.7-.5l-.5-.3a1 1 0 01-.2-.7c0-.5.5-1 1.2-1s1.1.4 1.1 1v.4c-.1.2-.3.4-.7.6.5.2.9.5.9 1 0 .3-.1.6-.3.8zm-.4-1.1l-.7-.4-.3.1c-.2.2-.4.4-.4.6 0 .4.3.6.8.6.4 0 .6-.2.6-.6v-.3zm-.7-2.2c-.3 0-.5.3-.5.6s.3.5.6.7l.3-.2.2-.5c0-.3-.2-.6-.6-.6zM114.8 128.7c-.8 0-1.2-.6-1.2-1.8 0-1.4.6-2.4 1.7-2.4.2 0 .4 0 .5.2v.4h-.5c-.6 0-1 .4-1 1.1v-.2l.6-.2c.8 0 1.1.7 1.1 1.4 0 .9-.5 1.5-1.2 1.5zm0-2.3c-.4 0-.6.3-.6.8 0 .6.2 1 .6 1 .4 0 .6-.4.6-1 0-.5-.2-.8-.6-.8z"/>
      </g>
    </g>
    <g>
      <path fill="#FFF" stroke="#DC5D58" stroke-width=".5" stroke-linejoin="bevel" stroke-miterlimit="10" d="M126.8 106.6h19.4v10.9h-19.4z"/>
      <g fill="#DD696A">
        <path d="M134.8 113.1v.1h-.5v.9h-.5v-.9h-1.6v-.6l1.4-2.5.2-.1.3.1c.1 0 .1.1 0 .2l-1.4 2.4h1l.1-1h.5v1h.4l.1.1v.3zM137.6 113.7c-.3.3-.6.4-1 .4-.9 0-1.4-.4-1.4-1 0-.3 0-.5.2-.6.1-.3.3-.4.7-.5l-.5-.3a1 1 0 01-.2-.7c0-.6.5-1 1.1-1s1.2.4 1.2 1v.4c-.2.2-.3.4-.7.5.5.2.9.6.9 1.1 0 .3-.1.5-.3.7zm-.5-1c0-.2-.3-.4-.6-.5l-.3.2c-.2.1-.4.3-.4.6 0 .4.3.6.7.6.4 0 .7-.2.7-.6v-.3zm-.6-2.2c-.3 0-.5.2-.5.5 0 .4.3.6.6.7l.2-.1c.2-.1.3-.3.3-.6s-.2-.5-.6-.5zM139.7 114.1c-.8 0-1.3-.6-1.3-1.7 0-1.4.7-2.4 1.8-2.4l.5.1v.5H140c-.5 0-.9.3-1 1h.1l.6-.3c.7 0 1 .6 1 1.4 0 .8-.4 1.4-1.1 1.4zm0-2.3c-.4 0-.6.3-.6.9 0 .6.2.9.6.9.3 0 .6-.3.6-1 0-.5-.2-.8-.6-.8z"/>
      </g>
    </g>
  </g>
  <g>
    <circle fill="#97AECF" cx="25.3" cy="184.1" r="2"/>
    <circle fill="#97AECF" cx="31.4" cy="178.8" r="2"/>
    <circle fill="#97AECF" cx="43.8" cy="177.1" r="2"/>
    <circle fill="#97AECF" cx="56.1" cy="174.6" r="2"/>
    <circle fill="#97AECF" cx="68.5" cy="163.7" r="2"/>
    <circle fill="#97AECF" cx="93.2" cy="152" r="2"/>
    <circle fill="#97AECF" cx="105.5" cy="147.3" r="2"/>
    <circle fill="#97AECF" cx="111.7" cy="146.5" r="2"/>
    <circle fill="#97AECF" cx="136.4" cy="135.4" r="2"/>
    <circle fill="#97AECF" cx="154.9" cy="135.3" r="2"/>
    <circle fill="#97AECF" cx="161.1" cy="128" r="2"/>
    <circle fill="#97AECF" cx="167.2" cy="127.8" r="2"/>
    <circle fill="#97AECF" cx="173.4" cy="123.7" r="2"/>
    <circle fill="#97AECF" cx="185.7" cy="121.3" r="2"/>
    <circle fill="#97AECF" cx="191.9" cy="121.3" r="2"/>
    <circle fill="#97AECF" cx="198.1" cy="119.5" r="2"/>
    <circle fill="#97AECF" cx="204.3" cy="108.1" r="2"/>
    <circle fill="#97AECF" cx="204.3" cy="113.4" r="2"/>
    <circle fill="#97AECF" cx="210.4" cy="107.6" r="2"/>
    <circle fill="#97AECF" cx="216.6" cy="95.5" r="2"/>
    <circle fill="#97AECF" cx="216.6" cy="106.1" r="2"/>
    <circle fill="#97AECF" cx="222.8" cy="90.8" r="2"/>
    <circle fill="#97AECF" cx="229" cy="87.9" r="2"/>
    <circle fill="#97AECF" cx="229" cy="100.7" r="2"/>
    <circle fill="#97AECF" cx="235.1" cy="97.5" r="2"/>
    <circle fill="#97AECF" cx="235.1" cy="95.2" r="2"/>
    <circle fill="#97AECF" cx="241.3" cy="93.4" r="2"/>
    <circle fill="#97AECF" cx="241.3" cy="96.9" r="2"/>
    <circle fill="#97AECF" cx="241.3" cy="91.7" r="2"/>
    <circle fill="#97AECF" cx="247.5" cy="97.5" r="2"/>
    <circle fill="#97AECF" cx="247.5" cy="90.7" r="2"/>
    <circle fill="#97AECF" cx="253.6" cy="95.2" r="2"/>
    <circle fill="#97AECF" cx="253.6" cy="86.3" r="2"/>
    <circle fill="#97AECF" cx="253.6" cy="79" r="2"/>
    <circle fill="#97AECF" cx="259.8" cy="77.7" r="2"/>
    <circle fill="#97AECF" cx="266" cy="77.6" r="2"/>
    <circle fill="#97AECF" cx="266" cy="78.7" r="2"/>
    <circle fill="#97AECF" cx="266" cy="82.7" r="2"/>
    <circle fill="#97AECF" cx="272.2" cy="76.7" r="2"/>
    <circle fill="#97AECF" cx="272.2" cy="82.8" r="2"/>
    <circle fill="#97AECF" cx="272.2" cy="77.7" r="2"/>
    <circle fill="#97AECF" cx="278.3" cy="75.3" r="2"/>
    <circle fill="#97AECF" cx="278.3" cy="81.4" r="2"/>
    <circle fill="#97AECF" cx="284.5" cy="79.2" r="2"/>
    <circle fill="#97AECF" cx="290.7" cy="72.8" r="2"/>
    <circle fill="#97AECF" cx="290.7" cy="70.8" r="2"/>
    <circle fill="#97AECF" cx="290.7" cy="76.7" r="2"/>
    <circle fill="#97AECF" cx="290.7" cy="81.4" r="2"/>
    <circle fill="#97AECF" cx="296.8" cy="79" r="2"/>
    <circle fill="#97AECF" cx="296.8" cy="79.7" r="2"/>
    <circle fill="#B5DFEA" cx="25.3" cy="190.8" r="2"/>
    <circle fill="#B5DFEA" cx="31.4" cy="190.1" r="2"/>
    <circle fill="#B5DFEA" cx="43.8" cy="184.1" r="2"/>
    <circle fill="#B5DFEA" cx="56.1" cy="181" r="2"/>
    <circle fill="#B5DFEA" cx="68.5" cy="177.1" r="2"/>
    <circle fill="#B5DFEA" cx="93.2" cy="175.7" r="2"/>
    <circle fill="#B5DFEA" cx="111.7" cy="170.4" r="2"/>
    <circle fill="#B5DFEA" cx="136.4" cy="164.8" r="2"/>
    <circle fill="#B5DFEA" cx="154.9" cy="157.4" r="2"/>
    <circle fill="#B5DFEA" cx="161.1" cy="157.4" r="2"/>
    <circle fill="#B5DFEA" cx="167.2" cy="154.3" r="2"/>
    <circle fill="#B5DFEA" cx="173.4" cy="149" r="2"/>
    <circle fill="#B5DFEA" cx="185.7" cy="145.9" r="2"/>
    <circle fill="#B5DFEA" cx="191.9" cy="142.8" r="2"/>
    <circle fill="#B5DFEA" cx="198.1" cy="140.6" r="2"/>
    <circle fill="#B5DFEA" cx="204.3" cy="131.4" r="2"/>
    <circle fill="#B5DFEA" cx="204.3" cy="135.7" r="2"/>
    <circle fill="#B5DFEA" cx="210.4" cy="134.1" r="2"/>
    <circle fill="#B5DFEA" cx="216.6" cy="136.7" r="2"/>
    <circle fill="#B5DFEA" cx="216.6" cy="128.8" r="2"/>
    <circle fill="#B5DFEA" cx="222.8" cy="133.1" r="2"/>
    <circle fill="#B5DFEA" cx="229" cy="132.8" r="2"/>
    <circle fill="#B5DFEA" cx="229" cy="128.1" r="2"/>
    <circle fill="#B5DFEA" cx="235.1" cy="126.1" r="2"/>
    <circle fill="#B5DFEA" cx="235.1" cy="127.8" r="2"/>
    <circle fill="#B5DFEA" cx="241.3" cy="129.2" r="2"/>
    <circle fill="#B5DFEA" cx="241.3" cy="126.9" r="2"/>
    <circle fill="#B5DFEA" cx="241.3" cy="126.9" r="2"/>
    <circle fill="#B5DFEA" cx="247.5" cy="129.4" r="2"/>
    <circle fill="#B5DFEA" cx="247.5" cy="127.5" r="2"/>
    <circle fill="#B5DFEA" cx="253.6" cy="128.3" r="2"/>
    <circle fill="#B5DFEA" cx="253.6" cy="127.5" r="2"/>
    <circle fill="#B5DFEA" cx="253.6" cy="129.2" r="2"/>
    <circle fill="#B5DFEA" cx="259.8" cy="128.5" r="2"/>
    <circle fill="#B5DFEA" cx="266" cy="129.2" r="2"/>
    <circle fill="#B5DFEA" cx="266" cy="131.9" r="2"/>
    <circle fill="#B5DFEA" cx="266" cy="127.2" r="2"/>
    <circle fill="#B5DFEA" cx="272.2" cy="127.1" r="2"/>
    <circle fill="#B5DFEA" cx="272.2" cy="127.6" r="2"/>
    <circle fill="#B5DFEA" cx="278.3" cy="127.1" r="2"/>
    <circle fill="#B5DFEA" cx="284.5" cy="126.9" r="2"/>
    <circle fill="#B5DFEA" cx="290.7" cy="128.8" r="2"/>
    <circle fill="#B5DFEA" cx="290.7" cy="130.3" r="2"/>
    <circle fill="#B5DFEA" cx="290.7" cy="126.1" r="2"/>
    <circle fill="#B5DFEA" cx="296.8" cy="127.6" r="2"/>
    <circle fill="#B5DFEA" cx="296.8" cy="126.1" r="2"/>
    <circle fill="#C2C0B7" cx="136.4" cy="177.1" r="2"/>
    <circle fill="#C2C0B7" cx="154.9" cy="177.1" r="2"/>
    <circle fill="#C2C0B7" cx="161.1" cy="168.3" r="2"/>
    <circle fill="#C2C0B7" cx="167.2" cy="171.8" r="2"/>
    <circle fill="#C2C0B7" cx="173.4" cy="160.5" r="2"/>
    <circle fill="#C2C0B7" cx="185.7" cy="160.7" r="2"/>
    <circle fill="#C2C0B7" cx="191.9" cy="164.2" r="2"/>
    <circle fill="#C2C0B7" cx="198.1" cy="164.8" r="2"/>
    <circle fill="#C2C0B7" cx="204.3" cy="156.8" r="2"/>
    <circle fill="#C2C0B7" cx="204.3" cy="162.4" r="2"/>
    <circle fill="#C2C0B7" cx="210.4" cy="163.2" r="2"/>
    <circle fill="#C2C0B7" cx="216.6" cy="152.3" r="2"/>
    <circle fill="#C2C0B7" cx="216.6" cy="157.2" r="2"/>
    <circle fill="#C2C0B7" cx="222.8" cy="152.7" r="2"/>
    <circle fill="#C2C0B7" cx="229" cy="152.7" r="2"/>
    <circle fill="#C2C0B7" cx="229" cy="155.6" r="2"/>
    <circle fill="#C2C0B7" cx="235.1" cy="153.2" r="2"/>
    <circle fill="#C2C0B7" cx="235.1" cy="154.7" r="2"/>
    <circle fill="#C2C0B7" cx="241.3" cy="157.6" r="2"/>
    <circle fill="#C2C0B7" cx="241.3" cy="155.4" r="2"/>
    <circle fill="#C2C0B7" cx="241.3" cy="152.3" r="2"/>
    <circle fill="#C2C0B7" cx="247.5" cy="157.6" r="2"/>
    <circle fill="#C2C0B7" cx="247.5" cy="157.6" r="2"/>
    <circle fill="#C2C0B7" cx="253.6" cy="157.6" r="2"/>
    <circle fill="#C2C0B7" cx="253.6" cy="152.3" r="2"/>
    <circle fill="#C2C0B7" cx="253.6" cy="152.3" r="2"/>
    <circle fill="#C2C0B7" cx="259.8" cy="157.6" r="2"/>
    <circle fill="#C2C0B7" cx="266" cy="152.3" r="2"/>
    <circle fill="#C2C0B7" cx="266" cy="149.6" r="2"/>
    <circle fill="#C2C0B7" cx="266" cy="152.3" r="2"/>
    <circle fill="#C2C0B7" cx="272.2" cy="154.7" r="2"/>
    <circle fill="#C2C0B7" cx="272.2" cy="152.3" r="2"/>
    <circle fill="#C2C0B7" cx="278.3" cy="156.3" r="2"/>
    <circle fill="#C2C0B7" cx="284.5" cy="152.3" r="2"/>
    <circle fill="#C2C0B7" cx="290.7" cy="152.3" r="2"/>
    <circle fill="#C2C0B7" cx="290.7" cy="151.4" r="2"/>
    <circle fill="#C2C0B7" cx="290.7" cy="155.2" r="2"/>
    <circle fill="#C2C0B7" cx="296.8" cy="157.6" r="2"/>
    <circle fill="#C2C0B7" cx="296.8" cy="155" r="2"/>
  </g>
  <g>
    <path fill="#FFF" stroke="#B7C6CF" stroke-width=".7" stroke-linejoin="round" stroke-miterlimit="10" d="M12.3 34.9h87.9v82.3H12.3z"/>
    <g fill="#1D1D1B">
      <path d="M301 57.8v.3h-2v-4h.4v3.6h1.6v.1zM302.5 58.2c-.7 0-1.1-.5-1.1-1.5s.4-1.5 1.2-1.5c.7 0 1.1.5 1.1 1.5s-.4 1.5-1.2 1.5zm0-2.6c-.4 0-.7.3-.7 1l.2 1c.1.1.3.3.6.3.2 0 .4-.1.5-.3l.2-1c0-.7-.3-1-.8-1zM306.7 55.5a1 1 0 00-.2.6V58.3c0 .7-.3 1.1-1 1.1a2 2 0 01-.9-.2v-.4h.1l.8.2c.2 0 .4 0 .5-.2l.1-.4V57.8c-.3.2-.5.3-.8.3-.6 0-1-.5-1-1.4 0-1 .5-1.5 1.2-1.5.3 0 .5 0 .7.2l.2-.2.3.1v.2zm-.6.2l-.6-.1c-.4 0-.7.3-.7 1 0 .8.2 1 .6 1 .2 0 .4 0 .7-.2v-1.7zM309.4 58.2c-.3 0-.6 0-.9-.2l.1-.3h.1l.7.1c.3 0 .5-.1.5-.4 0-.2-.1-.3-.4-.4l-.6-.4a.7.7 0 01-.3-.6c0-.5.4-.8.9-.8l.8.2-.2.3-.6-.1c-.3 0-.5.1-.5.4l.1.3.7.3c.4.2.6.4.6.8 0 .5-.4.8-1 .8zM313 55.6l-.1.2h-.1l-.6-.2c-.5 0-.8.4-.8 1.1 0 .7.2 1.1.7 1.1.2 0 .4 0 .7-.3l.2.3-.1.1-.8.3c-.8 0-1.2-.5-1.2-1.4 0-1 .5-1.6 1.2-1.6.3 0 .5 0 .8.2l.1.2zM315.5 58l-.3.2-.3-.4c-.2.3-.5.4-.8.4-.5 0-.8-.3-.8-.8 0-.7.5-1 1.6-1V56c0-.3-.2-.5-.6-.5-.2 0-.4 0-.7.2l-.2-.3.2-.1.8-.2c.6 0 1 .3 1 .8v2zm-.6-1.3c-.8 0-1.2.2-1.2.6 0 .3.2.5.5.5.2 0 .4 0 .7-.3v-.8zM317 58.2c-.4 0-.6-.2-.6-.4V54v-.1h.3v-.1 3.8l.3.2h.4v.2l-.4.2zM320 56.8h-1.8c0 .7.3 1 .8 1 .2 0 .4 0 .7-.2l.2.3-.2.2-.8.1c-.7 0-1.2-.6-1.2-1.5 0-1 .5-1.5 1.2-1.5.5 0 .8.2 1 .7v.9zm-.5-.4c0-.5-.2-.9-.6-.9-.4 0-.7.4-.7 1h1.3z"/>
    </g>
    <g fill="#1D1D1B">
      <path d="M21.8 20.8h-1.1V25H20l-.1-.1v-4h-1l-.1-.2v-.4l.1-.1h2.8l.1.2-.1.4zM23.6 22.1v.1h-.3c-.2 0-.3 0-.6.4v2.3l-.1.1H22l-.1-.1v-2.1c0-.5 0-.7-.2-.9v-.2l.5-.2.2.2v.3c.3-.2.6-.5 1-.5h.3v.2l-.2.4zM26.8 24.9l-.5.2-.2-.1v-.3c-.4.3-.7.4-1 .4-.6 0-1-.4-1-1 0-1 1-1.2 1.8-1.2v-.3c0-.4-.1-.5-.5-.5a2 2 0 00-.8.2h-.2v-.4c-.1-.1 0-.2 0-.2.4-.2.7-.2 1-.2.8 0 1.2.3 1.2 1V24c0 .4 0 .6.2.8v.2zm-.9-1.5c-.4 0-1.1 0-1.1.6 0 .3.2.6.4.6.3 0 .5-.2.7-.4v-.8zM30.3 24.9l-.1.1h-.5l-.1-.1v-2.2c0-.5-.1-.6-.4-.6-.3 0-.5 0-.8.3V25l-.1.1h-.5l-.1-.1v-2.4l-.1-.7v-.1l.5-.2.1.1.1.4c.4-.3.6-.5 1-.5.7 0 1 .3 1 1V25zM32.2 25.1c-.3 0-.8-.1-1.1-.3v-.1l.1-.4h.1l1 .2c.2 0 .4-.1.4-.4 0-.2-.1-.3-.5-.5l-.7-.3a.8.8 0 01-.4-.8c0-.6.5-1 1.2-1 .3 0 .7 0 1 .2v.2l-.2.3H33l-.7-.2c-.3 0-.5.2-.5.4 0 .3.1.3.5.5l.7.4c.3.2.4.4.4.7 0 .7-.5 1.1-1.2 1.1zM35 24.9v.1h-.6v-2.9h-.7v-.4-.1H35V25zm-.4-4a.5.5 0 01-.5-.4c0-.3.3-.5.5-.5.3 0 .5.2.5.5 0 .2-.2.5-.5.5zM37 25.1c-.4 0-.8-.1-1.1-.3-.1 0-.1 0 0-.1v-.4h.2l.9.2c.3 0 .5-.1.5-.4 0-.2-.1-.3-.5-.5l-.7-.3a.8.8 0 01-.4-.8c0-.6.5-1 1.2-1 .3 0 .6 0 .9.2v.2l-.1.3h-.2l-.6-.2c-.3 0-.5.2-.5.4 0 .3.1.3.4.5l.7.4c.4.2.5.4.5.7 0 .7-.5 1.1-1.2 1.1zM40.9 24.8v.1a2 2 0 01-1 .2c-.7 0-.8-.4-.8-1v-2h-.6v-.4-.1h.6v-1l.5-.1h.2v1h1v.5l-.2.1h-.8V24c0 .4 0 .5.3.5.2 0 .4 0 .6-.2v.1l.2.4zM42.5 25.1c-.9 0-1.4-.7-1.4-1.8s.6-1.8 1.5-1.8 1.4.6 1.4 1.8c0 1.1-.5 1.8-1.5 1.8zm0-3c-.4 0-.6.3-.6 1.2 0 .8.2 1.2.7 1.2s.7-.4.7-1.2c0-.9-.3-1.2-.7-1.2zM46.5 22.1v.1h-.3c-.2 0-.3 0-.6.4v2.3l-.1.1H45l-.1-.1v-2.1c0-.5 0-.7-.2-.9v-.2l.5-.2.2.2v.3c.3-.2.6-.5 1-.5h.3v.2l-.2.4zM48.2 25.1l-1.2-.3v-.1l.1-.4h.2l.9.2c.3 0 .4-.1.4-.4 0-.2 0-.3-.4-.5l-.7-.3a.8.8 0 01-.4-.8c0-.6.5-1 1.2-1 .3 0 .6 0 .9.2v.2l-.1.3h-.2l-.6-.2c-.3 0-.5.2-.5.4 0 .3 0 .3.4.5l.7.4c.4.2.4.4.4.7 0 .7-.4 1.1-1.1 1.1zM53 25.1c-.2 0-.4 0-.7-.2v1.5h-.6c0 .1-.1 0-.1 0v-3.8l-.1-.7s-.1-.1 0-.2l.4-.2.2.1.1.3c.3-.3.6-.4 1-.4.7 0 1 .6 1 1.7 0 1.2-.3 2-1.1 2zm0-3c-.2 0-.4 0-.7.3v2l.6.1c.5 0 .7-.3.7-1.2 0-.9-.2-1.2-.6-1.2zM57.5 23.5h-2c.1.7.4 1 1 1l.8-.2.2.3v.2c-.3.2-.8.3-1.1.3-1 0-1.5-.7-1.5-1.8s.5-1.8 1.4-1.8c.9 0 1.3.6 1.3 1.7v.3zm-.6-.6c0-.6-.2-.9-.6-.9-.4 0-.7.3-.7 1h1.3zM60.1 22.1v.1h-.3c-.2 0-.4 0-.7.4V25h-.6v-2.2c0-.5-.1-.7-.2-.9 0 0-.1-.2 0-.2l.4-.2c.2 0 .2 0 .2.2l.1.3c.3-.2.5-.5 1-.5h.3v.2l-.2.4zM64.2 22.3c-.3-.2-.5-.2-.7-.2-.5 0-.8.4-.8 1.2 0 .8.3 1.2.8 1.2.2 0 .4 0 .6-.2.1-.1.1 0 .2 0l.1.3v.2c-.3.2-.7.3-1 .3-1 0-1.4-.6-1.4-1.7 0-1.2.5-2 1.5-2 .3 0 .7.2.9.4 0 0 .1.1 0 .2l-.2.3zM67.7 24.9l-.1.1h-.5l-.1-.1v-2.2c0-.5-.1-.6-.4-.6-.3 0-.5 0-.8.3V25l-.1.1h-.5l-.1-.1v-4.7-.2h.7v2c.3-.4.6-.5 1-.5.7 0 1 .4 1 1V25zM69.6 24.9l-.1.1H69l-.1-.1V22h-.6v-.4-.1h1.2V25zm-.4-4a.5.5 0 01-.5-.4c0-.3.2-.5.5-.5s.5.2.5.5c0 .2-.2.5-.5.5zM72.2 25.1c-.3 0-.5 0-.8-.2v1.5h-.6c0 .1 0 0 0 0v-3.8l-.2-.7s-.1-.1 0-.2l.4-.2.2.1.1.3c.4-.3.6-.4 1-.4.7 0 1.1.6 1.1 1.7 0 1.2-.4 2-1.2 2zm-.1-3c-.2 0-.4 0-.7.3v2l.6.1c.5 0 .7-.3.7-1.2 0-.9-.2-1.2-.6-1.2zM74.4 25.8l-.2.1H74c-.1-.1-.1-.1 0-.2l.3-1.4.2-.1h.6c.1 0 .1 0 0 .1l-.7 1.5zM78.3 20.9l-.7 1.2H77.2l.4-1.3h.6zM80 25a1 1 0 01-.9-.3c-.2-.4-.4-1-.4-1.6 0-1.3.5-2 1.3-2s1.2.7 1.2 2-.4 2-1.3 2zm0-3.5c-.5 0-.8.6-.8 1.6 0 .5 0 1 .2 1.2.1.2.3.4.6.4.2 0 .4-.2.5-.4l.2-1.3c0-1-.2-1.5-.7-1.5zM83 25a1 1 0 01-.9-.3c-.2-.4-.4-1-.4-1.6 0-1.3.5-2 1.3-2s1.2.7 1.2 2-.4 2-1.3 2zm0-3.5c-.5 0-.8.6-.8 1.6 0 .5 0 1 .2 1.2.1.2.3.4.6.4.2 0 .4-.2.5-.4l.2-1.3c0-1-.2-1.5-.7-1.5zM86 25a1 1 0 01-.9-.3c-.2-.4-.4-1-.4-1.6 0-1.3.5-2 1.3-2s1.2.7 1.2 2-.4 2-1.3 2zm0-3.5c-.5 0-.8.6-.8 1.6 0 .5 0 1 .2 1.2.1.2.3.4.6.4.2 0 .4-.2.5-.4l.2-1.3c0-1-.2-1.5-.7-1.5z"/>
    </g>
    <g fill="#1D1D1B">
      <path d="M102.5 24.5v.2c-.4.3-.7.4-1.1.4-1.1 0-1.7-.9-1.7-2.6 0-1 .3-2.4 1.6-2.4.4 0 .8.1 1.1.4.1 0 .1.1 0 .2l-.2.4h-.1c-.2-.2-.4-.4-.7-.4-.6 0-1 .6-1 1.7 0 1.4.4 2 1 2 .3 0 .5 0 .7-.2 0 0 .1-.1.2 0l.2.3zM104.5 24.8v.2h-.6c-.7 0-.8-.3-.8-.8v-4-.2h.7v4.2c0 .2 0 .3.2.3h.3c0-.1.1-.1.1 0l.1.3zM106.2 25.1c-1 0-1.5-.7-1.5-1.8s.6-1.8 1.5-1.8c1 0 1.5.6 1.5 1.8 0 1.1-.6 1.8-1.5 1.8zm0-3c-.5 0-.7.3-.7 1.2 0 .8.2 1.2.7 1.2s.7-.4.7-1.2c0-.9-.2-1.2-.7-1.2zM110.5 22.3h-.1c-.3-.2-.4-.2-.7-.2-.5 0-.7.4-.7 1.2 0 .8.2 1.2.7 1.2.3 0 .5 0 .7-.2 0-.1.1 0 .1 0l.2.3v.2c-.3.2-.7.3-1 .3-1 0-1.5-.6-1.5-1.7 0-1.2.6-2 1.5-2 .4 0 .7.2 1 .4v.2l-.2.3zM113.6 25s-.1.1-.2 0l-1.3-1.7V25l-.1.1h-.5l-.2-.1v-4.7l.1-.2h.7v3l1.3-1.5h.2l.3.3v.1l-1.2 1.2 1.3 1.5v.2l-.4.2zM117 25.1c-.4 0-.9-.1-1.2-.3v-.1l.1-.4h.1l1 .2c.2 0 .4-.1.4-.4 0-.2-.1-.3-.5-.5l-.7-.3a.8.8 0 01-.4-.8c0-.6.5-1 1.2-1 .3 0 .7 0 1 .2v.2l-.2.3h-.1l-.7-.2c-.3 0-.5.2-.5.4 0 .3.1.3.5.5l.6.4c.4.2.5.4.5.7 0 .7-.5 1.1-1.2 1.1zM120.4 25.1c-.3 0-.5 0-.8-.2v1.5h-.6c0 .1 0 0 0 0v-3.8l-.2-.7s-.1-.1 0-.2l.4-.2.2.1.1.3c.4-.3.6-.4 1-.4.7 0 1.1.6 1.1 1.7 0 1.2-.4 2-1.2 2zm-.1-3c-.2 0-.4 0-.7.3v2l.6.1c.5 0 .7-.3.7-1.2 0-.9-.2-1.2-.6-1.2zM124.9 23.5h-2c0 .7.3 1 .9 1l.8-.2h.1l.2.3-.1.2c-.3.2-.8.3-1.1.3-1 0-1.5-.7-1.5-1.8s.5-1.8 1.4-1.8c.9 0 1.4.6 1.4 1.7l-.1.3zm-.7-.6c0-.6-.2-.9-.6-.9-.4 0-.6.3-.7 1h1.3zM128.1 23.5h-1.9c0 .7.3 1 .8 1s.7-.2.9-.2l.2.3v.2c-.3.2-.8.3-1.1.3-1 0-1.5-.7-1.5-1.8s.5-1.8 1.4-1.8c.9 0 1.4.6 1.4 1.7 0 .2 0 .3-.2.3zm-.6-.6c0-.6-.2-.9-.6-.9-.4 0-.6.3-.7 1h1.3zM131.2 25c-.1.1-.2 0-.2 0l-.1-.3c-.4.3-.7.4-1 .4-.7 0-1.1-.7-1.1-1.8 0-.6.1-1.1.4-1.4.2-.3.5-.4.8-.4.3 0 .5 0 .8.2v-1.5-.2h.7v4l.1.7s.1.1 0 .2l-.4.2zm-.4-2.8l-.6-.1c-.5 0-.7.3-.7 1.2 0 .9.2 1.2.6 1.2.2 0 .4 0 .7-.3v-2zM135.6 26.7h-.1c-.7-.9-1.4-2-1.4-3.4 0-1.5.7-2.6 1.4-3.4 0 0 0-.1.1 0h.3v.3c-.6 1-1 1.7-1 3 0 1.2.4 2.2 1 3.1 0 .1.1.2 0 .2l-.3.2zM141 24.9v.1h-.6v-2.4c0-.4-.2-.5-.5-.5-.2 0-.3 0-.6.3v2.5l-.1.1h-.5l-.1-.1v-2.3c0-.4-.1-.5-.4-.5-.2 0-.4 0-.7.3V25h-.6v-2.5l-.1-.6c-.1-.1-.1-.2 0-.2l.4-.2.2.2v.2c.4-.3.7-.4 1-.4.4 0 .6.1.8.4.4-.3.7-.4 1-.4.7 0 .8.5.8 1V25zM144.4 24.9l-.4.2-.2-.1-.1-.3c-.3.3-.6.4-1 .4-.6 0-1-.4-1-1 0-1 1-1.2 1.9-1.2v-.3c0-.4-.1-.5-.6-.5a2 2 0 00-.8.2l-.2-.4.1-.2c.4-.2.7-.2 1-.2.8 0 1.2.3 1.2 1V24l.1.8v.2zm-.8-1.5c-.5 0-1.2 0-1.2.6 0 .3.3.6.5.6l.7-.4v-.8zM147.9 24.8v.1l-.5.2h-.2l-.6-1-.2-.3-.2.3-.7 1h-.1l-.5-.2v-.1l1.1-1.5-1-1.4v-.2l.5-.2h.2l.5.9.2.4.2-.4.6-.8c0-.1 0 0 .1 0l.5.1v.2l-1 1.3 1 1.6zM148.8 26.7h-.2l-.3-.2v-.2c.7-.9 1-1.9 1-3 0-1.4-.3-2.1-1-3.1V20l.3-.2h.2c.7 1 1.3 2 1.3 3.5 0 1.4-.6 2.5-1.3 3.4zM151.5 25.8l-.2.1h-.2c-.1-.1 0-.1 0-.2l.4-1.4v-.1h.7c.2 0 .1 0 0 .1l-.7 1.5zM159 25h-.5l-.2-3.1v-.4.4l-.8 2v.1h-.3l-.7-2-.1-.6v.4l-.1 3.1v.1h-.4-.1l.2-4 .1-.1h.4l.8 2.1v.4l.1-.4.7-2 .1-.1h.4l.3 4zM162.5 25h-.5v-2h-1.6v2h-.4v-4-.1h.4v1.8h1.6V21v-.1h.4v4zM165.4 24.7l-.2.2v.1h-2v-.3l1.5-2.2h-1.3v-.3H165.3v.2l-1.5 2.2h1.5z"/>
    </g>
    <g fill="#1D1D1B">
      <path d="M180 20.8h-1.2V25h-.5l-.2-.1v-4h-1V20.3v-.1h2.9c.1 0 .1 0 0 .1v.5zM183.1 24.9h-.7v-2.3c0-.4-.1-.5-.5-.5-.2 0-.4 0-.7.3V25h-.7V20l.6-.2V22c.4-.4.7-.5 1.1-.5.7 0 .9.4.9 1V25zM186.6 23.5h-2c0 .6.3 1 .9 1 .4 0 .6-.2.8-.3h.1l.2.4-.1.2c-.3.2-.7.3-1.1.3-1 0-1.5-.7-1.5-1.8s.6-1.8 1.4-1.8c.9 0 1.4.6 1.4 1.7l-.1.3zm-.7-.6c0-.6-.2-.9-.6-.9-.4 0-.6.3-.7 1h1.3zM189.1 22.1s0 .1 0 0h-.3c-.2 0-.3.1-.6.5v2.3h-.7v-2.1c0-.5 0-.7-.2-1v-.1l.4-.2c.2 0 .2 0 .3.2v.3c.3-.3.5-.5 1-.5h.3v.2l-.2.4zM194 24.9h-.6-.1v-2.3c0-.4-.1-.6-.4-.6l-.6.3V25h-.7v-2.3c0-.4-.1-.5-.4-.5-.2 0-.4 0-.7.3v2.5h-.6v-2.4c0-.3 0-.4-.2-.6v-.2l.5-.2.2.2v.2c.4-.3.7-.4 1-.4.4 0 .6.1.8.4.4-.3.7-.4 1-.4.7 0 .8.5.8 1V25zM197.4 24.9l-.4.2-.2-.1-.1-.3c-.3.3-.6.4-1 .4-.6 0-1-.4-1-1 0-1 1-1.2 1.9-1.2v-.3c0-.4-.2-.5-.6-.5a2 2 0 00-.8.2h-.1l-.1-.4.1-.2c.3-.2.7-.2 1-.2.8 0 1.2.3 1.2 1V24l.1.8v.2zm-.8-1.5c-.5 0-1.2 0-1.2.6 0 .3.2.5.5.5.2 0 .4 0 .7-.3v-.8zM199.8 24.8v.2h-.7c-.6 0-.8-.3-.8-.8V20h.1l.5-.2.1.1v4.2c0 .2.1.3.3.3l.2-.1h.1l.2.4zM203.8 25c-.1.1-.2 0-.2 0v-.3c-.5.3-.8.4-1.1.4-.7 0-1.1-.7-1.1-1.8 0-.7.1-1.1.4-1.4.2-.3.5-.4.9-.4.2 0 .4 0 .7.2V20l.6-.2V24c0 .4.1.5.2.7 0 0 .1.1 0 .1l-.4.3zm-.4-2.8l-.6-.1c-.5 0-.7.3-.7 1.2 0 .9.2 1.2.6 1.2.2 0 .5 0 .7-.3v-2zM207.6 23.5h-2c0 .6.4 1 .9 1 .4 0 .6-.2.9-.3l.2.4v.2c-.3.2-.8.3-1.2.3-1 0-1.5-.7-1.5-1.8s.6-1.8 1.5-1.8c.8 0 1.3.6 1.3 1.7l-.1.3zm-.6-.6c0-.6-.2-.9-.7-.9-.4 0-.6.3-.6 1h1.3zM209.4 25c-.4 0-.9 0-1.2-.2v-.1l.1-.4h.2l.8.2c.3 0 .5-.1.5-.4 0-.2 0-.3-.5-.5l-.6-.3a.8.8 0 01-.4-.8c0-.6.4-1 1.1-1 .3 0 .7 0 1 .2v.2l-.2.3h-.1l-.7-.2c-.3 0-.4.2-.4.4s0 .3.4.5l.7.4c.3.2.4.4.4.7 0 .7-.4 1-1.1 1zM212.1 24.9h-.6V22h-.6-.1v-.4l.1-.1H212.1V25zm-.3-4a.5.5 0 01-.5-.5c0-.2.2-.5.5-.5.2 0 .4.3.4.5 0 .3-.2.5-.4.5zM215.7 22.6v2.8c0 .7-.5 1-1.3 1a3 3 0 01-1.2-.2V25.6h.2l1 .3c.4 0 .6-.2.6-.7v-.6l-.9.3c-.7 0-1.1-.6-1.1-1.6 0-1.2.5-1.8 1.3-1.8.3 0 .5 0 .8.3v-.2c.1 0 .2-.2.3-.1l.4.2c.1 0 .1 0 0 0l-.1.9zm-.7-.3l-.6-.2c-.4 0-.7.4-.7 1.1 0 .8.2 1.1.6 1.1.2 0 .4 0 .7-.3v-1.7zM219.4 24.9h-.7v-2.3c0-.4-.2-.5-.5-.5s-.5 0-.7.3V25h-.7v-2.4c0-.3 0-.5-.2-.7v-.1l.5-.2h.2v.4c.4-.2.7-.4 1.1-.4.7 0 1 .3 1 1V25zM223.3 25c-.2 0-.4 0-.7-.2v1.4l-.1.1-.5.2-.1-.1v-3.9c0-.2 0-.4-.2-.6v-.2l.5-.2.2.1v.3c.4-.3.7-.4 1-.4.8 0 1.2.6 1.2 1.7 0 1.2-.5 1.9-1.3 1.9zm0-3c-.3 0-.4.1-.7.4v2l.6.1c.5 0 .6-.3.6-1.3 0-.8-.1-1.1-.6-1.1zM226.6 25c-1 0-1.5-.6-1.5-1.7s.6-1.8 1.5-1.8c1 0 1.4.6 1.4 1.8 0 1.1-.5 1.8-1.4 1.8zm0-3c-.5 0-.7.4-.7 1.3 0 .8.2 1.2.7 1.2s.7-.4.7-1.2c0-.9-.2-1.3-.7-1.3zM231.7 25h-.5-.1l-.4-2-.1-.7c0 .3 0 .5-.2.7l-.5 2h-.5-.1l-.8-3.3.5-.2.1.1.4 1.7.1 1c0-.3 0-.5.2-.8l.5-1.8v-.1h.6l.5 2v.7l.2-.8.4-1.9c0-.1.1 0 .2 0h.4c.1 0 .1 0 0 .2l-.9 3.2zM235.7 23.5h-2c0 .6.4 1 .9 1 .4 0 .6-.2.9-.3l.2.4v.2c-.3.2-.8.3-1.2.3-1 0-1.5-.7-1.5-1.8s.6-1.8 1.5-1.8c.8 0 1.3.6 1.3 1.7l-.1.3zm-.6-.6c0-.6-.2-.9-.7-.9-.4 0-.6.3-.6 1h1.3zM238.3 22.1s0 .1-.1 0h-.3c-.1 0-.3.1-.6.5v2.3h-.6v-2.1l-.2-1s-.1 0 0-.1l.4-.2c.1 0 .2 0 .2.2l.1.3c.3-.3.5-.5.9-.5h.3v.2l-.1.4zM241.4 21.2c0 .1.1.1 0 .2l-.9.1.6.6v.2l-.3.2h-.2l-.4-.8-.4.8c0 .1 0 0-.2 0l-.3-.2v-.2l.6-.6-.8-.1-.1-.2.1-.3c0-.2.1-.1.2-.1l.7.4v-.9-.1h.4c.2 0 .1 0 .1.1v.9l.7-.4h.1l.1.4zM241.9 25.8c-.1.1-.1.1-.2 0h-.2c-.1 0-.1 0 0-.1l.3-1.5h.8c.1 0 .1 0 0 .1l-.7 1.5zM247.9 22.2l-.8 2.8h-.3l-.5-1.8v-.3h-.1v-.2l-.1.4-.6 1.9h-.3l-.7-2.8.3-.1h.1l.4 2v.3l.1-.3.6-2h.4l.5 2V24.5v-.2l.6-2V22h.4v.1z"/>
    </g>
    <circle fill="#006AA0" cx="14.5" cy="22.6" r="2.5"/>
    <circle fill="#3EBCD2" cx="95.2" cy="22.6" r="2.5"/>
    <circle fill="#A29F91" cx="172.8" cy="22.6" r="2.5"/>
    <g fill="#1D1D1B">
      <path d="M20.9 39.6h-1.1v4.2h-.6l-.1-.1v-4h-1l-.1-.2v-.4l.1-.1h2.8l.1.2-.1.4zM22.7 41h-.3c-.2 0-.3 0-.6.4v2.3l-.1.1H21v-2.2c0-.5 0-.7-.2-.9v-.2l.4-.2c.2 0 .2 0 .3.2v.3c.3-.2.6-.5 1-.5h.3v.2l-.2.4zM25.9 43.7l-.5.2-.2-.1v-.3c-.4.3-.7.4-1 .4-.6 0-1-.4-1-1 0-1 1-1.2 1.8-1.2v-.3c0-.4-.1-.5-.5-.5a2 2 0 00-.8.2h-.2v-.4c-.1-.1 0-.2 0-.2l1-.2c.8 0 1.2.3 1.2 1v1.4c0 .4 0 .6.2.8v.2zm-.9-1.5c-.4 0-1.1 0-1.1.6 0 .3.2.6.4.6.3 0 .5-.2.7-.4v-.8zM29.4 43.7l-.1.1h-.6v-2.3c0-.5-.1-.6-.4-.6-.3 0-.5 0-.8.3v2.5l-.1.1h-.6v-2.5l-.1-.7v-.1l.5-.2.1.1.1.4c.4-.3.6-.5 1-.5.7 0 1 .3 1 1v2.4zM31.3 44c-.3 0-.8-.2-1.1-.4v-.1l.1-.4h.1l1 .2c.2 0 .4-.1.4-.4 0-.2-.1-.3-.5-.5l-.7-.3a.8.8 0 01-.4-.8c0-.6.5-1 1.2-1 .3 0 .7 0 1 .2v.2l-.2.3h-.1l-.7-.2c-.3 0-.5.2-.5.5 0 .2.1.2.5.4l.7.4c.3.2.4.4.4.7 0 .7-.5 1.1-1.2 1.1zM34.1 43.7v.1h-.6v-2.9h-.7v-.4-.1h1.3v3.3zm-.4-4a.5.5 0 01-.5-.4c0-.3.3-.5.5-.5.3 0 .5.2.5.5 0 .2-.2.5-.5.5zM36.1 44c-.4 0-.8-.2-1.1-.4-.1 0-.1 0 0-.1V43h.2l.9.2c.3 0 .5-.1.5-.4 0-.2-.1-.3-.5-.5l-.7-.3a.8.8 0 01-.4-.8c0-.6.5-1 1.2-1 .3 0 .6 0 .9.2v.2l-.1.3h-.2l-.6-.2c-.3 0-.5.2-.5.5 0 .2.1.2.4.4l.7.4c.4.2.5.4.5.7 0 .7-.5 1.1-1.2 1.1zM40 43.6v.1a2 2 0 01-1 .2c-.7 0-.8-.4-.8-1v-2h-.6v-.4-.1h.6v-1l.5-.1h.2v1h1v.5l-.2.1h-.8v1.9c0 .4 0 .5.3.5.2 0 .4 0 .6-.2v.1l.2.4zM41.6 44c-.9 0-1.4-.8-1.4-1.9 0-1.1.6-1.8 1.5-1.8s1.4.6 1.4 1.8c0 1.1-.5 1.8-1.5 1.8zm0-3.1c-.4 0-.6.3-.6 1.2 0 .8.2 1.2.7 1.2s.7-.4.7-1.2c0-.9-.3-1.2-.7-1.2zM45.6 41h-.3c-.2 0-.3 0-.6.4v2.3l-.1.1H44v-2.2c0-.5 0-.7-.2-.9v-.2l.5-.2.2.2v.3c.3-.2.6-.5 1-.5h.3v.2l-.2.4zM47.3 44c-.4 0-.8-.2-1.2-.4v-.1l.1-.4h.2l.9.2c.3 0 .4-.1.4-.4 0-.2 0-.3-.4-.5l-.7-.3a.8.8 0 01-.4-.8c0-.6.5-1 1.2-1 .3 0 .6 0 .9.2v.2l-.1.3H48l-.6-.2c-.3 0-.5.2-.5.5 0 .2 0 .2.4.4l.7.4c.4.2.4.4.4.7 0 .7-.4 1.1-1.1 1.1zM53 43.4c-.2.3-.5.5-1 .5a1 1 0 01-.7-.3l-.1.2c-.1 0-.1.1-.2 0h-.4c-.1-.1-.1-.2 0-.2v-4.7h.2l.5-.2V40.6l1-.3c.7 0 1 .6 1 1.6 0 .7 0 1.2-.3 1.5zm-1-2.5l-.6.2v2c.1.2.3.2.5.2.5 0 .8-.4.8-1.3 0-.8-.2-1.1-.6-1.1zM55.4 44c-1 0-1.4-.8-1.4-1.9 0-1.1.5-1.8 1.4-1.8 1 0 1.5.6 1.5 1.8 0 1.1-.6 1.8-1.5 1.8zm0-3.1c-.5 0-.7.3-.7 1.2 0 .8.2 1.2.7 1.2s.7-.4.7-1.2c0-.9-.2-1.2-.7-1.2zM60.4 43.7l-.5.2-.2-.1v-.3c-.4.3-.7.4-1 .4-.8 0-1-.4-1-1.1v-2.3l.5-.2h.1v2.3c0 .5.2.7.5.7.2 0 .5 0 .7-.3v-2.5h.1l.5-.2h.1V43c0 .3 0 .5.2.7v.1zM63.7 41.4v2.8c0 .7-.4 1-1.2 1a3 3 0 01-1.2-.2c-.1 0-.1 0 0-.2v-.3c0-.1.1-.1.2 0l1 .2c.4 0 .6-.2.6-.7v-.6c-.3.2-.6.3-1 .3-.6 0-1-.6-1-1.6 0-1.1.4-1.8 1.3-1.8.3 0 .5 0 .8.3v-.2c.1 0 .2-.2.3-.1l.4.2-.2.9zM63 41c-.2-.2-.3-.2-.5-.2-.5 0-.7.4-.7 1.1 0 .8.2 1.1.6 1.1.2 0 .4 0 .6-.2V41zM67.4 43.7v.1h-.6V41.5c0-.5-.2-.6-.5-.6s-.5 0-.8.3v2.6h-.6l-.1-.1V39l.1-.2h.6v2c.3-.4.6-.5 1-.5.8 0 1 .4 1 1v2.4zM70.4 43.6v.1a2 2 0 01-1 .2c-.6 0-.8-.4-.8-1v-2H68 68v-.4l.1-.1h.5v-1l.6-.1h.1v1h1v.5l-.2.1h-.8v1.9c0 .4 0 .5.3.5.2 0 .4 0 .6-.2l.1.1.1.4zM73.9 44c-.3 0-.5-.2-.8-.3V45H73l-.5.2-.1-.1v-3.8l-.1-.7c-.1 0-.1-.1 0-.2l.4-.2.2.1v.3c.4-.3.7-.4 1-.4.8 0 1.2.6 1.2 1.7 0 1.2-.5 2-1.2 2zm-.1-3.1c-.2 0-.4 0-.7.3v2l.6.1c.5 0 .7-.3.7-1.2 0-.9-.2-1.2-.6-1.2zM78.3 42.3h-2c.1.7.4 1 1 1l.8-.2.2.3v.2c-.3.2-.8.3-1.2.3-.9 0-1.5-.7-1.5-1.8s.6-1.8 1.5-1.8 1.3.6 1.3 1.7v.3zm-.6-.6c0-.6-.2-.9-.6-.9-.5 0-.7.3-.7 1h1.3zM80.9 41h-.3c-.2 0-.4 0-.7.4v2.4h-.6v-2.2c0-.5-.1-.7-.2-.9 0 0-.1-.2 0-.2l.4-.2c.1 0 .2 0 .2.2l.1.3c.3-.2.5-.5 1-.5h.2c.1 0 .1.1 0 .2l-.1.4zM84.5 43.9v.4H84.2h-.1v-.4a3 3 0 01-1.1-.3c-.1 0-.1 0 0-.2V43h.2l.9.3v-1.6c-.6-.3-1.2-.5-1.2-1.3 0-.7.5-1.2 1.2-1.2v-.4l.1-.2h.2l.1.2v.3c.3 0 .7.1 1 .3v.2l-.1.3c0 .1-.2.1-.2 0l-.7-.2v1.5c.6.3 1.2.6 1.2 1.4 0 .7-.5 1.2-1.2 1.3zm-.4-4.2c-.3.1-.5.3-.5.6s.2.5.5.7v-1.3zm.4 2.1v1.5c.3-.1.5-.3.5-.7 0-.3-.2-.5-.5-.8zM86.7 44.6l-.1.1h-.2l-.1-.2.4-1.4.2-.1h.6c.1 0 .1 0 0 .1l-.8 1.5zM94.1 43.7v.1h-.6v-2.4c0-.4-.2-.5-.5-.5-.2 0-.3 0-.6.3v2.5l-.1.1h-.6v-2.4c0-.4-.1-.5-.4-.5-.2 0-.4 0-.7.3v2.6h-.7v-2.5-.6c0-.1-.1-.2 0-.2l.4-.2.2.2v.2c.5-.3.7-.4 1-.4.4 0 .7.1.8.4.4-.3.7-.4 1-.4.7 0 .8.5.8 1v2.4z"/>
    </g>
    <path fill="none" stroke="#B7C6CF" stroke-width=".5" stroke-linejoin="round" stroke-miterlimit="10" d="M18 90.6h71.3M18 77.9h71.3M18 65.2h71.3M18 52.5h71.3"/>
    <path fill="none" d="M21.3 96.7l10.2-4.6 10.2-7.3 10.1-10L62 62.8l10.2-10.2h10.1l4.1 2.5v48.3H21.3z"/>
    <path fill="none" d="M19.5 96.7H23v6.7h-3.5zM29.7 92.1h3.5v11.3h-3.5zM40 84.8h3.5v18.6H40zM50.2 74.9h3.5v28.5h-3.5zM60.2 62.8h3.5v40.5h-3.5zM70.4 52.5h3.5v50.9h-3.5zM80.5 52.5H84v50.9h-3.5zM84.7 54.9h3.5v48.5h-3.5zM21.3 97h68"/>
    <path fill="none" stroke="#1D1D1B" stroke-width=".3" d="M18 103.3h71.3"/>
    <path fill="#1D1D1B" d="M91.5 105a1 1 0 01-.8-.4c-.3-.4-.4-1-.4-1.6 0-1.3.4-2 1.2-2 .8 0 1.2.7 1.2 2s-.4 2-1.2 2zm0-3.6c-.5 0-.8.6-.8 1.6 0 .5.1 1 .3 1.2 0 .2.2.4.5.4s.4-.2.6-.4l.1-1.3c0-1-.2-1.5-.7-1.5zM91.2 92.6l-.8-.1V92h.7c.4 0 .6 0 .7-.2.2-.2.3-.5.3-.7 0-.5-.3-.8-.7-.8l-.7.3h-.3l.1-2H92.2V89h-1.3l-.1 1.2.7-.2c.6 0 1 .5 1 1.2 0 .8-.5 1.4-1.3 1.4z"/>
    <g fill="#1D1D1B">
      <path d="M92.5 79.5H90.8v-.3h.6v-3l-.8.5h-.1l-.1-.2 1-.8h.4v3.4h.6v.4zM94.2 79.6a1 1 0 01-.8-.4c-.3-.4-.4-.9-.4-1.5 0-1.3.4-2.1 1.3-2.1.7 0 1.1.7 1.1 2s-.4 2-1.2 2zm0-3.6c-.5 0-.7.6-.7 1.6 0 .5 0 1 .2 1.3 0 .2.3.3.5.3.3 0 .5-.1.6-.4l.2-1.2c0-1-.3-1.6-.8-1.6z"/>
    </g>
    <g fill="#1D1D1B">
      <path d="M92.5 66.4l-.1.1h-1.6v-.3-.1h.6v-3l-.8.6h-.1l-.1-.2v-.1l1-.8h.4v3.5h.6v.3zM94 66.6l-.7-.1V66h.7c.3 0 .6 0 .7-.2.2-.2.2-.4.2-.7 0-.5-.2-.8-.6-.8l-.7.4h-.3v-.1l.1-2H95.1v.3h-1.3l-.1 1.3c.2-.2.4-.3.7-.3.6 0 1 .5 1 1.2 0 .8-.5 1.4-1.3 1.4z"/>
    </g>
    <g fill="#1D1D1B">
      <path d="M92.5 54.3h-2.1a2 2 0 011-2l.5-.3.1-.5c0-.4-.2-.6-.5-.6-.4 0-.6.1-.7.6h-.4v-.1c0-.1 0-.4.2-.6.2-.2.5-.4.9-.4.6 0 1 .5 1 1.1 0 .5-.1.8-.7 1.1-.6.5-.8.8-1 1.3h1.6l.1.1v.3zM94.4 54.5a1 1 0 01-.8-.4c-.3-.4-.4-1-.4-1.6 0-1.3.5-2 1.3-2s1.2.6 1.2 2c0 1.2-.5 2-1.3 2zm0-3.6c-.4 0-.7.6-.7 1.6 0 .5 0 .9.2 1.2.1.2.3.3.5.3.3 0 .5-.1.6-.4l.2-1.2c0-1-.3-1.5-.7-1.5z"/>
    </g>
    <path fill="none" stroke="#A29F91" stroke-width="1.8" stroke-miterlimit="10" d="M86.4 55l-4-2.5H72.1L62 62.7 51.8 74.9l-10.1 9.9L31.5 92l-10.2 4.6"/>
    <g fill="#1D1D1B">
      <path d="M17.9 112.8v.1h-2.2a2 2 0 011-2c.5-.2.5-.3.6-.4l.1-.5c0-.3-.2-.6-.6-.6-.3 0-.5.2-.6.6h-.4c0-.2 0-.5.2-.6.2-.3.5-.4.9-.4.6 0 1 .4 1 1 0 .5-.2.8-.7 1.2-.6.4-.9.7-1 1.3H18v.3zM19.8 113a1 1 0 01-.8-.4c-.3-.4-.4-.9-.4-1.6 0-1.3.5-2 1.3-2 .7 0 1.2.7 1.2 2s-.5 2-1.3 2zm0-3.6c-.4 0-.7.6-.7 1.6 0 .5 0 1 .2 1.2.1.3.3.4.5.4.3 0 .5-.2.6-.4l.2-1.2c0-1-.3-1.6-.8-1.6zM22.8 113a1 1 0 01-.8-.4c-.3-.4-.4-.9-.4-1.6 0-1.3.5-2 1.3-2 .7 0 1.2.7 1.2 2s-.5 2-1.3 2zm0-3.6c-.4 0-.7.6-.7 1.6 0 .5 0 1 .2 1.2.1.3.3.4.5.4.3 0 .5-.2.6-.4l.2-1.2c0-1-.3-1.6-.8-1.6zM26.9 112.8v.1h-2.2a2 2 0 011-2c.5-.2.5-.3.6-.4l.1-.5c0-.3-.2-.6-.6-.6-.3 0-.5.2-.6.6h-.4c0-.2 0-.5.2-.6.2-.3.5-.4.9-.4.6 0 1 .4 1 1 0 .5-.2.8-.7 1.2-.6.4-.9.7-1 1.3H27v.3zM30 113a1 1 0 01-.9-.4c-.2-.4-.4-.9-.4-1.6 0-1.3.5-2 1.3-2s1.2.7 1.2 2-.4 2-1.2 2zm0-3.6c-.5 0-.8.6-.8 1.6 0 .5 0 1 .2 1.2.1.3.3.4.6.4.2 0 .4-.2.5-.4l.2-1.2c0-1-.2-1.6-.7-1.6zM34.3 112h-.5v1h-.4v-1h-1.6v-.3l1.5-2.6h.4l-1.5 2.6h1.1l.1-1h.3v1h.6v.3zM40.2 113a1 1 0 01-.9-.4c-.2-.4-.4-.9-.4-1.6 0-1.3.5-2 1.3-2s1.2.7 1.2 2-.4 2-1.2 2zm0-3.6c-.5 0-.8.6-.8 1.6 0 .5 0 1 .2 1.2.1.3.3.4.6.4.2 0 .4-.2.5-.4l.2-1.2c0-1-.2-1.6-.7-1.6zM43.2 113a1 1 0 01-1-.5l-.2-1.1c0-1.5.7-2.4 1.7-2.4l.5.1v.3h-.6c-.3 0-.5.1-.7.4-.2.2-.3.5-.4.9.3-.3.5-.4.8-.4.6 0 1 .5 1 1.3s-.5 1.4-1.1 1.4zm0-2.3c-.5 0-.7.3-.7.9 0 .6.2 1 .7 1s.6-.4.6-1-.2-.9-.6-.9z"/>
      <g>
        <path d="M50.3 113a1 1 0 01-.8-.4c-.3-.4-.4-.9-.4-1.6 0-1.3.5-2 1.3-2 .7 0 1.2.7 1.2 2s-.5 2-1.3 2zm0-3.6c-.4 0-.7.6-.7 1.6 0 .5 0 1 .2 1.2.1.3.3.4.5.4.3 0 .5-.2.6-.4l.2-1.2c0-1-.3-1.6-.8-1.6zM54.3 112.6c-.2.3-.5.4-1 .4-.7 0-1.2-.4-1.2-1 0-.4 0-.6.3-.8l.5-.3c-.4-.2-.7-.5-.7-1l.3-.6c.2-.2.5-.3.8-.3.7 0 1.1.4 1.1.9 0 .4-.2.7-.7 1 .6.2.9.6.9 1 0 .3-.1.5-.3.7zm-1-1.5a3 3 0 00-.4.2c-.2.1-.3.4-.3.7 0 .3.3.6.7.6.5 0 .8-.3.8-.6 0-.4-.2-.7-.8-.9zm0-1.7c-.3 0-.6.2-.6.5s.2.6.6.8c.5-.2.7-.4.7-.8 0-.3-.3-.5-.7-.5z"/>
      </g>
      <g>
        <path d="M61.7 112.8l-.1.1H60h-.1v-.3h.7v-3l-.8.5h-.1l-.1-.2 1-.8h.4v3.4h.6V112.8zM63.4 113a1 1 0 01-.8-.4c-.3-.4-.4-.9-.4-1.6 0-1.3.4-2 1.2-2 .8 0 1.2.7 1.2 2s-.4 2-1.2 2zm0-3.6c-.5 0-.8.6-.8 1.6 0 .5.1 1 .3 1.2 0 .3.2.4.5.4s.4-.2.6-.4l.1-1.2c0-1-.2-1.6-.7-1.6z"/>
      </g>
      <g>
        <path d="M71.8 112.8l-.1.1H70v-.3h.6v-3l-.8.5h-.1l-.1-.2 1-.8h.4v3.4h.6V112.8zM74.7 112.8l-.1.1h-2a2 2 0 011-2l.4-.4.2-.5c0-.3-.2-.6-.6-.6-.3 0-.5.2-.7.6h-.3c0-.2 0-.5.2-.6.2-.3.5-.4.8-.4.7 0 1 .4 1 1 0 .5 0 .8-.6 1.2-.6.4-.9.7-1 1.3h1.6v.3z"/>
      </g>
      <g>
        <path d="M86.2 112.8v.1H84.4v-.3h.7v-3l-.9.5-.2-.2 1.1-.8h.4v3.4h.5l.1.1v.2zM87.8 113h-.7l-.1-.2v-.3h.7c.4 0 .6 0 .8-.2l.2-.7c0-.5-.3-.7-.6-.7s-.5 0-.7.3H87v-.1l.2-2h1.6v.3h-1.2l-.2 1.3.7-.3c.7 0 1 .5 1 1.2 0 .9-.5 1.4-1.3 1.4z"/>
      </g>
    </g>
    <path fill="none" stroke="#1D1D1B" stroke-width=".3" d="M82.3 106.3v-3"/>
    <path fill="none" d="M77.3 106.3v-3"/>
    <path fill="none" stroke="#1D1D1B" stroke-width=".3" d="M86.4 103.3v2"/>
    <path fill="none" d="M67.1 106.3v-3M56.9 106.3v-3M46.7 106.3v-3M36.6 106.3v-3M26.4 106.3v-3"/>
    <path fill="none" stroke="#1D1D1B" stroke-width=".3" d="M72.2 106.3v-3M62 106.3v-3M51.8 106.3v-3M41.7 106.3v-3M31.5 106.3v-3M21.3 106.3v-3"/>
  </g>
  <g fill="none" stroke-width="1.8" stroke-miterlimit="10">
    <path stroke="#006AA0" d="M25.5 182.7l3.4-1.3 3.5-1.3 3.4-1.4 3.4-1.3 3.5-1.3 3.4-1.4 3.4-1.3L53 172l3.4-1.4 3.5-1.3 3.4-1.4 3.4-1.3 3.5-1.4 3.4-1.3 3.4-1.4 3.5-1.3 3.4-1.4 3.4-1.3 3.5-1.4 3.4-1.3 3.5-1.4 3.4-1.4 3.4-1.4 3.5-1.3 3.4-1.4 3.4-1.4 3.5-1.4 3.4-1.4 3.4-1.5 3.5-1.4 3.4-1.4 3.4-1.4 3.5-1.5 3.4-1.4 3.5-1.5 3.4-1.4 3.4-1.4 3.5-1.5 3.4-1.4 3.4-1.5 3.5-1.4 3.4-1.5 3.4-1.4 3.5-1.5 3.4-1.5 3.4-1.5 3.5-1.6 3.4-1.6 3.5-1.6 3.4-1.6 3.4-1.5 3.5-1.6 3.4-1.6 3.4-1.5 3.5-1.5 3.4-1.4 3.4-1.4 3.5-1.5 3.4-1.4 3.4-1.5 3.5-1.4 3.4-1.4 3.5-1.4 3.4-1.4 3.4-1.4 3.5-1.3 3.4-1.4 3.4-1.3 3.5-1.4 3.4-1.3 3.4-1.3L273 81l3.4-1.3 3.5-1.2 3.4-1.3 3.4-1.3 3.5-1.2 3.4-1.3 3.4-1.2"/>
    <path stroke="#3EBCD2" d="M25.5 190.7l3.4-.8 3.5-.8 3.4-.8 3.4-.9 3.5-.8 3.4-.8 3.4-.9 3.5-.8 3.4-.9 3.5-.9 3.4-.8 3.4-1 3.5-.8 3.4-1 3.4-.8 3.5-1 3.4-.9 3.4-1 3.5-.8 3.4-1 3.5-1 3.4-1 3.4-1 3.5-1 3.4-1.1 3.4-1.2 3.5-1 3.4-1.2 3.4-1.2 3.5-1.1 3.4-1.2 3.4-1.2 3.5-1.2 3.4-1.2 3.5-1.1 3.4-1.2 3.4-1.2 3.5-1.1 3.4-1.2 3.4-1.1 3.5-1.1 3.4-1.1 3.4-1 3.5-1.2 3.4-1 3.4-1.2 3.5-1 3.4-1.2 3.5-1 3.4-1.1 3.4-1 3.5-1 3.4-.9 3.4-.8 3.5-.8 3.4-.7 3.4-.8 3.5-.7 3.4-.7 3.4-.6 3.5-.6 3.4-.5 3.5-.6 3.4-.5 3.4-.4 3.5-.4 3.4-.4 3.4-.4 3.5-.3 3.4-.2 3.4-.3 3.5-.1 3.4-.2 3.5-.1H293.5l3.4.1"/>
    <path stroke="#8D8A79" d="M136.5 179l2-.8 2.1-.8 2-.8 2-.7 2-.7 2.1-.8 2-.7 2-.7 2.1-.7 2-.6 2-.7 2.1-.7 2-.6 2-.6 2-.6 2.1-.6 2-.6 2-.6 2.1-.6 2-.5 2-.6 2.1-.5 2-.5 2-.5 2-.5 2.1-.5 2-.5 2-.4 2.1-.5 2-.4 2-.5 2.1-.4 2-.4 2-.3 2.1-.4 2-.4 2-.3 2-.3 2.1-.3 2-.3 2-.3 2.1-.2 2-.2 2-.3 4.1-.4 2-.3 2-.2 2.1-.2 2-.2 2-.1 2.1-.2 2-.1 2-.2 2.1-.1 2-.1 2-.1 2-.1h2.1l2-.2h20.3l2 .1 2.1.1 2 .1 2 .1 2.1.1 2 .1 2 .2 2.1.1 2 .2"/>
  </g>
</svg>
