<svg xmlns="http://www.w3.org/2000/svg" xmlns:xlink="http://www.w3.org/1999/xlink" version="1.0" viewBox="0 0 527.1 510"><defs/><defs><linearGradient id="a"><stop offset="0" stop-color="#205c32"/><stop offset="1" stop-color="#3fb662"/></linearGradient><linearGradient id="b" x1="246.3" x2="193.6" y1="378.6" y2="453.1" gradientTransform="translate(128.4 -34)" gradientUnits="userSpaceOnUse" xlink:href="#a"/></defs><rect width="100%" height="100%" fill="#FFF"></rect><g transform="translate(-87.1 -108)"><path id="c" fill="url(#b)" fill-opacity="1" fill-rule="evenodd" stroke="#000" stroke-dasharray="none" stroke-miterlimit="4" stroke-opacity="1" stroke-width="10" d="M398.4 383a47.7 47.7 0 11-95.4 0 47.7 47.7 0 1195.4 0z" opacity="1" transform="translate(-41.3 142)"/><use id="f" width="744.1" height="1052.4" x="0" y="0" transform="translate(80 -320)" xlink:href="#c"/><use id="e" width="744.1" height="1052.4" x="0" y="0" transform="translate(-318)" xlink:href="#d"/><use width="744.1" height="1052.4" transform="translate(-80 320)" xlink:href="#e"/><use id="d" width="744.1" height="1052.4" x="0" y="0" transform="translate(158)" xlink:href="#f"/><use width="744.1" height="1052.4" transform="translate(-80 320)" xlink:href="#d"/><path fill="none" stroke="#000" stroke-width="10" d="M150 478V365h398V251.6"/><path id="g" fill="none" fill-rule="evenodd" stroke="#000" stroke-dasharray="none" stroke-linecap="butt" stroke-linejoin="miter" stroke-miterlimit="4" stroke-opacity="1" stroke-width="10" d="M310.7 476.6V365.2"/><use width="527.1" height="510" transform="translate(158)" xlink:href="#g"/><use id="h" width="527.1" height="510" x="0" y="0" transform="translate(-82 -114)" xlink:href="#g"/><use width="527.1" height="510" transform="translate(162)" xlink:href="#h"/></g></svg>
