<svg xmlns="http://www.w3.org/2000/svg" xmlns:xlink="http://www.w3.org/1999/xlink" version="1.0" viewBox="0 0 527.1 510"><defs/><defs><linearGradient id="a"><stop offset="0" stop-color="#205c32"/><stop offset="1" stop-color="#3fb662"/></linearGradient><linearGradient id="b" x1="284.9" x2="233.3" y1="232.9" y2="312.2" gradientTransform="translate(87.1 108)" gradientUnits="userSpaceOnUse" xlink:href="#a"/></defs><rect width="100%" height="100%" fill="#FFF"></rect><g transform="translate(-87.1 -108)"><path id="c" fill="url(#b)" fill-opacity="1" fill-rule="evenodd" stroke="#000" stroke-dasharray="none" stroke-miterlimit="4" stroke-opacity="1" stroke-width="10" d="M398.4 383a47.7 47.7 0 11-95.4 0 47.7 47.7 0 1195.4 0z" opacity="1"/><use id="d" width="744.1" height="1052.4" x="0" y="0" transform="translate(0 -180)" xlink:href="#c"/><use id="e" width="744.1" height="1052.4" x="0" y="0" transform="translate(160 120)" xlink:href="#d"/><use id="f" width="744.1" height="1052.4" x="0" y="0" transform="translate(-320)" xlink:href="#e"/><use width="744.1" height="1052.4" transform="translate(-60 200)" xlink:href="#e"/><use width="744.1" height="1052.4" transform="translate(60 200)" xlink:href="#f"/><path id="g" fill="none" fill-rule="evenodd" stroke="#000" stroke-dasharray="none" stroke-linecap="butt" stroke-linejoin="miter" stroke-miterlimit="4" stroke-opacity="1" stroke-width="10" d="M350.7 251.6v83"/><use id="h" width="744.1" height="1052.4" x="0" y="0" transform="rotate(-72 351.4 380)" xlink:href="#g"/><use width="744.1" height="1052.4" transform="matrix(-1 0 0 1 699.1 0)" xlink:href="#h"/><use id="i" width="744.1" height="1052.4" x="0" y="0" transform="rotate(-144 354.2 382.8)" xlink:href="#g"/><use width="744.1" height="1052.4" transform="matrix(-1 0 0 1 700.6 0)" xlink:href="#i"/></g></svg>
